<?xml version="1.0" encoding="utf-8"?>
<!-- Generator: Adobe Illustrator 19.2.0, SVG Export Plug-In . SVG Version: 6.00 Build 0)  -->
<svg version="1.1" id="Layer_1" xmlns="http://www.w3.org/2000/svg" xmlns:xlink="http://www.w3.org/1999/xlink" x="0px" y="0px"
	 viewBox="0 0 70 225.5" enable-background="new 0 0 70 225.5" xml:space="preserve">
<g>
	<polygon fill="#CF202F" points="6.4,-0.2 6.4,216.5 34.9,206.5 63.8,216.5 63.8,-0.2 	"/>
	<path fill="#CF202F" d="M64.8,0v218l-29.9-10.2L5.3,218.1V0H0v225.5l35-11.7l35,11.7V0H64.8z"/>
	<g>
		<g>
			<defs>
				<rect id="SVGID_1_" width="70" height="225.5"/>
			</defs>
			<clipPath id="SVGID_2_">
				<use xlink:href="#SVGID_1_"  overflow="visible"/>
			</clipPath>
			<path clip-path="url(#SVGID_2_)" fill="#FFFFFF" d="M35.6,186.4v7.1c1.6-0.7,3.2-1.4,4.7-2.4C38.8,189.6,37.2,188,35.6,186.4"/>
		</g>
		<g>
			<defs>
				<rect id="SVGID_3_" width="70" height="225.5"/>
			</defs>
			<clipPath id="SVGID_4_">
				<use xlink:href="#SVGID_3_"  overflow="visible"/>
			</clipPath>
			<path clip-path="url(#SVGID_4_)" fill="#FFFFFF" d="M31.8,182.5c-1.8-1.8-3.7-3.8-5.6-5.7v5.7H31.8z"/>
		</g>
		<g>
			<defs>
				<rect id="SVGID_5_" width="70" height="225.5"/>
			</defs>
			<clipPath id="SVGID_6_">
				<use xlink:href="#SVGID_5_"  overflow="visible"/>
			</clipPath>
			<path clip-path="url(#SVGID_6_)" fill="#FFFFFF" d="M40.2,183c1.4,1.3,2.7,2.6,4,3.9c0.3-0.6,0.5-2.7,0.5-3.9H40.2z"/>
		</g>
		<g>
			<defs>
				<rect id="SVGID_7_" width="70" height="225.5"/>
			</defs>
			<clipPath id="SVGID_8_">
				<use xlink:href="#SVGID_7_"  overflow="visible"/>
			</clipPath>
			<path clip-path="url(#SVGID_8_)" fill="#FFFFFF" d="M22,194L22,194L22,194z"/>
		</g>
		<g>
			<defs>
				<rect id="SVGID_9_" width="70" height="225.5"/>
			</defs>
			<clipPath id="SVGID_10_">
				<use xlink:href="#SVGID_9_"  overflow="visible"/>
			</clipPath>
			<path clip-path="url(#SVGID_10_)" fill="#FFFFFF" d="M54.9,177.1c-0.2-0.1-0.4-0.3-0.7-0.4s-0.6-0.2-0.8-0.4
				c-0.3-0.2-0.5-0.4-0.5-0.8c0-0.1,0-0.2,0.1-0.2s0.1,0.1,0.2,0.2c0,0,0,0.1,0.1,0.1c0.1,0.2,0.3,0.3,0.4,0.4
				c0.3,0.2,0.6,0.3,1,0.3c0.2,0,0.4,0,0.6-0.1c-0.3-0.5-0.5-1-0.7-1.5c-0.1-0.4-0.3-0.9-0.5-1.3c-0.4-0.6-1-1-1.7-1.1
				c-0.3,0-0.5-0.1-0.7-0.3c-0.1,0-0.1-0.1-0.2-0.2c0,0-0.1-0.1,0-0.2h0.1c0.1,0,0.1,0,0.2,0.1c0.4,0.3,0.9,0.2,1.2,0
				c0.2-0.2,0.3-0.2,0.2-0.5c-0.3-0.8-0.9-1.3-1.7-1.6c-0.6-0.2-1.3-0.3-1.9-0.3c-0.2,0-0.4-0.1-0.6-0.2c-0.1,0-0.1-0.1-0.1-0.2
				c0.1,0,0.3,0,0.4,0.1c0.6,0.2,1.1,0,1.4-0.5c0-0.1,0.1-0.1,0.1-0.2c-0.2-0.1-0.4-0.2-0.5-0.3c-0.5-0.5-1.2-0.6-1.8-0.5
				c-0.5,0.1-0.9,0.2-1.4,0.2c-0.9,0.1-1.6-0.1-2.3-0.7c-0.1-0.1-0.1-0.2-0.2-0.2c-0.1-0.2,0-0.3,0.2-0.3s0.4,0.1,0.5,0.3
				c0.1,0.1,0.1,0.2,0.2,0.2c0.4,0.2,0.8,0.3,1.2,0.3c0.7,0.1,1.4-0.1,2-0.4c0.3-0.1,0.5-0.3,0.5-0.7c0-0.1,0-0.3,0.1-0.4
				s0.1-0.2-0.1-0.2c-0.2,0-0.4,0-0.6,0c-0.2,0-0.4,0.1-0.6,0c-0.1,0-0.2-0.1-0.2-0.2s0.1-0.1,0.2-0.1c0.2,0,0.4,0,0.6,0
				c0.2,0,0.4-0.1,0.6-0.2c0.5-0.4,0.7-0.9,0.7-1.6c0-0.4-0.2-0.8-0.3-1.1c-0.1-0.3-0.1-0.3-0.4-0.2c-0.4,0.1-0.5,0.3-0.5,0.7
				c0,0.1,0,0.2,0,0.3c0,0.2-0.2,0.3-0.4,0.3c-0.1,0-0.2-0.1-0.3-0.3c0-0.2,0-0.5,0.1-0.7c0.1-0.2,0.3-0.4,0.4-0.6
				c0.1-0.1,0.2-0.2,0.2-0.4c0.1-0.2,0-0.4-0.2-0.5c-0.1,0-0.3,0-0.4,0c-0.2,0-0.4,0.1-0.6,0.2c0-0.4-0.1-0.7-0.2-1.1
				c-0.1-0.2-0.1-0.4-0.2-0.6c-0.2-0.6-0.1-1.1,0.3-1.6c0.1-0.1,0.2-0.2,0.3-0.4c0.1-0.1,0.1-0.2,0-0.3c-0.1-0.1-0.2-0.3-0.4-0.3
				l0,0c-0.4,0.3-0.7,0.6-0.7,1.1c0,0.1,0,0.2-0.1,0.4c0,0.1-0.1,0.1-0.1,0.1c-0.1,0-0.1-0.1-0.1-0.1v-0.1c0-0.4,0-0.7,0-1.1
				c0-0.5,0.1-0.9,0.3-1.3c0.3-0.5,0.7-0.9,1.3-0.9c0.1,0,0.2,0,0.3-0.1c0.1,0,0.2,0,0.2-0.1s-0.1-0.1-0.1-0.1
				c-0.1,0-0.2-0.1-0.2-0.1c-0.8-0.2-1.5-0.1-2.3,0.1c-0.6,0.2-1,0.5-1.2,1.1c-0.6,1.4-0.5,2.8,0.3,4.2c0.2,0.4,0.5,0.8,0.7,1.2
				c0.3,0.6,0.4,1.2,0.3,1.9c-0.1,0.5-0.4,0.9-0.9,1c-0.4,0.1-0.7,0-1-0.2c-0.5-0.3-0.9-0.8-1.1-1.4c-0.2-0.6-0.4-1.1-0.5-1.7
				c-0.2-0.8-0.4-1.6-0.7-2.3c-0.2-0.4-0.4-0.7-0.6-1.1c-0.2,0.2-0.4,0.1-0.7,0c-0.1-0.1-0.2-0.1-0.2-0.2c-0.1-0.1-0.2-0.2-0.3-0.2
				c-0.2,0-0.4-0.1-0.6-0.1c0,0.3,0,0.5-0.1,0.8c-0.1,1.1-0.3,2.1-0.3,3.2c0,0.7-0.1,1.4,0.1,2.1c0.1,0.5,0.3,0.9,0.6,1.3
				c0.2-0.3,0.2-0.7,0.4-1c0.1,0.2,0,0.4,0,0.5c-0.1,0.5-0.2,1.1-0.1,1.6c0.1,0.7,0.3,1.4,0.9,1.8c0,0,0.1,0.1,0.2,0.1
				c0.2-0.4,0.3-0.9,0.4-1.3c0,0.2,0,0.3,0.1,0.5c0,0.2,0,0.4,0,0.6c0.2,1.3,0.7,2.5,1.6,3.5c0.1,0.1,0.2,0.1,0.3,0.1
				c0.6,0,1.2,0,1.8,0c0.2,0,0.2,0.1,0.2,0.3v0.1v3.7c0,0.4,0.1,0.4,0.5,0.4c0.4-0.1,0.7-0.1,1.1,0c0.1,0,0.2,0,0.2-0.1
				c0.1-0.4,0.2-0.7,0.1-1c-0.1-0.2,0-0.4-0.1-0.5c-0.1-0.2-0.1-0.3-0.1-0.5c0.1-0.2,0.3,0,0.4,0.1c0.2,0.2,0.3,0.4,0.4,0.7
				c0.1,0.4,0.1,0.9,0.2,1.4c0,0.5,0.2,0.8,0.6,1.1c0.2,0.1,0.4,0.3,0.6,0.6c0.3-0.3,0.5-0.6,0.5-1c0-0.1,0-0.2,0.1-0.4
				c0.1,0,0.2,0.1,0.2,0.2c0.1,0.2,0,0.5,0,0.7c-0.1,0.6-0.1,1.1,0.2,1.6c0.4,0.6,1,0.9,1.6,1.3c0.1-0.3,0.1-0.6,0.1-1
				c0-0.1-0.1-0.2,0-0.3c0,0,0-0.1,0.1-0.1c0,0,0.1,0,0.1,0.1c0.1,0.1,0.1,0.3,0.1,0.5c0,0.4,0.1,0.8,0.3,1.2
				c0.4,0.9,0.7,1.9,0.8,2.9c0.1,0.8,0,1.6-0.4,2.4c-0.1,0.3-0.3,0.5-0.5,0.8c0.1-0.1,0.3-0.1,0.4-0.2c1.9-1.1,2.4-2.9,2.1-4.8
				c-0.1-0.4-0.3-0.8-0.4-1.2c-0.1-0.3,0-0.6,0.2-0.9c0.2,0.7,0.7,0.9,1.3,1.1c0.1-0.4,0.2-0.8,0.3-1.3
				C56,178.2,55.7,177.5,54.9,177.1 M53.6,183.6c0-0.1,0-0.2,0-0.4c0.1-2.2-0.6-4.5-1.8-6.5c-0.4-0.8-1-1.5-1.7-2.1
				c-1.2-1.2-2.5-2.2-3.7-3.4c-1-0.9-2-1.8-2.9-2.8c-1-1.2-1.4-2.6-1.7-4.1c-0.3-1.8-0.5-3.5-0.9-5.2c-0.1-0.3-0.1-0.5-0.2-0.8
				c0.4,0.6,0.6,1.3,0.7,2.1c0.3,1.2,0.5,2.4,0.7,3.7c0.3,2,1.1,3.7,2.6,5.1c1.3,1.3,2.7,2.5,4.1,3.7c1.2,1,2.4,2.1,3.2,3.4
				c0.7,1.1,1.1,2.4,1.4,3.6c0.2,0.9,0.3,1.8,0.3,2.7C53.8,182.9,53.7,183.2,53.6,183.6"/>
		</g>
		<g>
			<defs>
				<rect id="SVGID_11_" width="70" height="225.5"/>
			</defs>
			<clipPath id="SVGID_12_">
				<use xlink:href="#SVGID_11_"  overflow="visible"/>
			</clipPath>
			<path clip-path="url(#SVGID_12_)" fill="#FFFFFF" d="M43.7,187.1c0,0.1-0.1,0.3-0.1,0.5c-0.1-0.4-0.3-0.7-0.4-1.1
				c-0.1-0.1-0.2-0.2-0.3-0.3c0,0.1-0.2,0.4-0.2,0.4l-0.5,0.1c0.1-0.2,0.1-0.3,0.2-0.5c0.1,0,0.3-0.1,0.4-0.2
				c-0.3-0.3-0.5-0.5-0.8-0.8c-1.1-1.1-2.2-2.2-3.3-3.3l-0.1-0.1c-0.1,0.2-0.2,0.5-0.2,0.5s-0.3-0.8-0.4-1c0-0.1-0.1-0.1-0.1-0.2
				c-0.1-0.1-0.2-0.2-0.3-0.3c-0.1,0.1-0.1,0.3-0.2,0.4c-0.2,0.1-0.3,0.1-0.5,0.2c0.1-0.1,0.1-0.3,0.2-0.4c0,0,0-0.1,0.1-0.1
				s0.2-0.1,0.3-0.1c-1.4-1.4-2.8-2.8-4.2-4.2c-0.1,0.2-0.1,0.3-0.2,0.5c-0.2-0.4-0.3-0.8-0.5-1.2c-0.1-0.1-0.1-0.1-0.2-0.2
				c-0.1,0.1-0.1,0.3-0.2,0.4c-0.1,0.1-0.3,0.1-0.5,0.2c0.1-0.2,0.1-0.3,0.2-0.5c0.1-0.1,0.3-0.1,0.4-0.2l0,0c-0.5-0.5-1-1-1.5-1.5
				s-1-1-1.5-1.6c-0.3-0.3-0.6-0.6-1-1H28c0,0.1-0.1,0.2-0.1,0.4c-0.1-0.1-0.1-0.2-0.2-0.4h-1.5c0,0.5,0,1,0,1
				c0.2,0.1,0.4,0.2,0.7,0.3c-0.1,0-0.2,0.1-0.3,0.1c0.1,0.1,0.7,1.1,0.7,1.1l-1-0.6c0,0.1,0,0.1,0,0.2c0,0.6,0,2.4,0,2.7
				c0.1,0.1,0.1,0.1,0.1,0.2c0.1-0.2,0.2-0.5,0.2-0.5l0.5-0.2l-0.2,0.5c0,0-0.3,0.1-0.5,0.2c0.9,0.8,1.7,1.7,2.6,2.6l0.1-0.3
				c0.1,0,0.5-0.2,0.5-0.2l0,0c0,0-0.1,0.4-0.1,0.5c-0.1,0.1-0.2,0.1-0.3,0.1c0.2,0.2,0.3,0.3,0.4,0.4c0.1,0.1,0.1,0.1,0.2,0.1
				c0,0,0.1,0,0.1,0.1c0.1,0.1,0.3,0.1,0.5,0.2c-0.1,0-0.2,0.1-0.3,0.1c1.4,1.4,2.7,2.8,4.1,4.1c0-0.1,0.1-0.2,0.1-0.3
				c0.2-0.1,0.3-0.1,0.5-0.2l-0.1,0.5c0,0-0.3,0.1-0.4,0.2c0.1,0.1,0.2,0.2,0.3,0.3s0.1,0.1,0.2,0.2c0,0,0.1,0,0.1,0.1
				c0.1,0,0.2,0.1,0.3,0.1s0.2,0.1,0.3,0.1c-0.1,0-0.1,0-0.2,0c-0.1,0-0.1,0-0.2,0.1c0.7,0.7,1.3,1.4,2,2.1s1.4,1.4,2,2
				c0-0.1,0.1-0.2,0.1-0.3l0.5-0.2c-0.1,0.2-0.1,0.4-0.2,0.5c-0.1,0-0.2,0.1-0.3,0.1c0.1,0.1,0.2,0.2,0.2,0.2
				c0.1,0.1,0.1,0.2,0.2,0.2c0.1,0,0.8,0.3,0.9,0.4c-0.1,0.1-0.2,0.1-0.4,0.1c0.1,0.1,0.3,0.3,0.4,0.4c0.5-0.3,1.6-1.1,1.7-1.4
				c-0.2-0.1-0.5-0.3-0.7-0.5c0,0.1-0.1,0.2-0.1,0.4c0-0.1-0.6-1.5-0.6-1.5l0,0l0,0l0,0l0,0c0,0,1.4,0.6,1.5,0.6
				c-0.1,0-0.2,0.1-0.3,0.1c0.1,0.1,0.3,0.5,0.5,0.7c0.7-0.7,1-1.2,1.3-1.9C43.9,187.3,43.7,187.2,43.7,187.1 M39.5,183.7
				c0,0,0.4-0.2,0.5-0.2c-0.1,0.2-0.1,0.3-0.2,0.5c-0.2,0.1-0.3,0.1-0.5,0.2C39.4,184,39.5,183.9,39.5,183.7 M39.1,183.7
				c0.1,0.1,0.1,0.3,0.2,0.5c-0.2-0.1-0.3-0.1-0.5-0.2c-0.1-0.2-0.1-0.3-0.2-0.5C38.8,183.6,39,183.7,39.1,183.7 M38.8,184.5
				c0.2-0.1,0.3-0.1,0.5-0.2l-0.2,0.5c0,0-0.4,0.1-0.5,0.2C38.6,184.8,38.7,184.6,38.8,184.5 M38.2,185.3c-0.1,0.2-0.1,0.4-0.2,0.5
				c-0.2,0-0.3,0.1-0.5,0.2c0.1-0.2,0.1-0.3,0.2-0.5C37.9,185.5,38,185.4,38.2,185.3 M36.6,181.9L36.6,181.9L36.6,181.9
				C36.6,182,36.6,182,36.6,181.9L36.6,181.9c-0.1,0.2-0.1,0.3-0.2,0.5c-0.2,0.1-0.3,0.1-0.5,0.2c0.1-0.2,0.1-0.3,0.2-0.5
				C36.3,182.1,36.4,182,36.6,181.9C36.6,182,36.6,181.9,36.6,181.9 M34.4,178.6c0,0,0.4-0.1,0.5-0.2c-0.1,0.1-0.2,0.5-0.2,0.5
				l-0.5,0.2C34.2,179,34.4,178.6,34.4,178.6 M33.9,178.6c0.1,0.2,0.1,0.3,0.2,0.5c-0.2-0.1-0.3-0.1-0.5-0.2
				c-0.1-0.2-0.2-0.5-0.2-0.5S33.9,178.5,33.9,178.6 M33.6,179.3c0.2-0.1,0.3-0.1,0.5-0.2c-0.1,0.2-0.1,0.3-0.2,0.5
				c-0.1,0.1-0.3,0.1-0.5,0.2C33.5,179.6,33.6,179.4,33.6,179.3 M33.1,180.2c-0.1,0.2-0.1,0.3-0.2,0.5c-0.2,0.1-0.3,0.1-0.5,0.2
				c0-0.2,0.2-0.5,0.2-0.5S33,180.2,33.1,180.2 M31.4,176.7c-0.1,0.2-0.1,0.5-0.1,0.5l-0.5,0.2l0,0l0,0l0,0l0,0l0,0l0,0l0,0l0,0l0,0
				l0,0c0.1-0.2,0.1-0.3,0.2-0.5C31.1,176.9,31.2,176.8,31.4,176.7 M29.2,173.4c0,0,0.4-0.1,0.5-0.2c-0.1,0.2-0.2,0.5-0.2,0.5
				s-0.3,0.1-0.5,0.2C29,173.8,29.2,173.4,29.2,173.4 M28.8,173.4l0.1,0.5l0,0l0,0l0,0l0,0l-0.5-0.2l-0.2-0.5L28.8,173.4z M28.9,174
				L28.9,174L28.9,174L28.9,174L28.9,174L28.9,174c-0.1,0.2-0.2,0.5-0.2,0.5l-0.5,0.2l0.2-0.4C28.4,174.2,28.9,174,28.9,174
				L28.9,174L28.9,174L28.9,174 M27.3,175.2l0.5-0.2l-0.2,0.5l-0.5,0.2L27.3,175.2z M26.5,175.6l-0.1-0.6l0.5,0.2
				c0,0,0.1,0.3,0.2,0.5C27,175.7,26.5,175.6,26.5,175.6 M29,177.7L29,177.7L29,177.7c-0.2-0.1-1.1-0.7-1.1-0.7s-0.1,0.2-0.1,0.3
				c-0.1-0.2-0.6-1.5-0.6-1.5c0.1,0,1.3,0.6,1.4,0.6l0,0l-0.3,0.1C28.3,176.5,28.8,177.3,29,177.7L29,177.7 M29.7,175.1
				c0,0-0.1,0.2-0.1,0.3l-0.6-1.5c0,0,1.4,0.6,1.5,0.7c-0.1,0-0.3,0.1-0.3,0.1s0.6,1,0.7,1.2C30.8,175.8,29.7,175.1,29.7,175.1
				 M30.4,178c-0.1,0.1-0.3,0.1-0.5,0.2c0.1-0.2,0.2-0.5,0.2-0.5s0.4-0.1,0.5-0.2C30.5,177.7,30.5,177.9,30.4,178 M30.2,177.3
				C30.1,177.3,30.1,177.3,30.2,177.3c-0.1-0.2-0.2-0.4-0.2-0.5c0.2,0.1,0.3,0.1,0.5,0.2c0.1,0.2,0.1,0.3,0.2,0.5
				C30.5,177.4,30.3,177.3,30.2,177.3 M31.3,179.1c-0.1-0.2-0.6-1.5-0.7-1.6c0.1,0.1,1.5,0.7,1.5,0.7l-0.4,0.1c0,0,0.5,0.8,0.7,1.1
				c-0.4-0.2-0.8-0.5-1.1-0.7C31.4,178.7,31.3,179,31.3,179.1 M32.1,181.5c-0.1,0.1-0.3,0.1-0.5,0.2c0.1-0.2,0.1-0.3,0.2-0.5
				c0.2-0.1,0.3-0.1,0.5-0.2C32.2,181.2,32.1,181.3,32.1,181.5 M31.8,180.7c-0.1-0.1-0.1-0.3-0.2-0.5c0.2,0.1,0.3,0.1,0.5,0.2
				c0.1,0.2,0.1,0.3,0.2,0.5C32.1,180.9,32,180.8,31.8,180.7 M34.2,182.9c-0.4-0.2-0.8-0.5-1.1-0.7c0,0.1-0.1,0.2-0.1,0.3
				c-0.1-0.3-0.2-0.5-0.3-0.8c-0.1-0.2-0.2-0.5-0.3-0.8c0.1,0,0.2,0.1,0.2,0.1c0.2,0.1,0.5,0.2,0.8,0.4c0.2,0.1,0.3,0.2,0.5,0.2
				c-0.1,0-0.3,0.1-0.3,0.1L34.2,182.9L34.2,182.9 M34.8,180.6c0,0-0.6-1.4-0.6-1.5l1.5,0.6c-0.1,0-0.3,0.1-0.4,0.1
				c0.2,0.4,0.5,0.8,0.7,1.1l0,0l0,0l0,0l0,0c-0.4-0.2-1.1-0.7-1.1-0.7L34.8,180.6z M35.6,183.2c-0.2,0.1-0.3,0.1-0.5,0.2l0,0l0,0
				l0,0l0,0c0.1-0.2,0.1-0.3,0.2-0.5c0.2-0.1,0.3-0.1,0.5-0.2C35.7,182.9,35.7,183.1,35.6,183.2 M35.3,182.5
				c-0.1-0.2-0.1-0.3-0.2-0.5c0.2,0.1,0.3,0.1,0.5,0.2c0.1,0.2,0.1,0.3,0.2,0.5C35.6,182.6,35.5,182.5,35.3,182.5 M36.5,184.2
				c-0.1-0.2-0.1-0.3-0.2-0.5c-0.1-0.2-0.1-0.3-0.2-0.5c-0.1-0.2-0.1-0.3-0.2-0.5c0.1,0,0.1,0.1,0.2,0.1c0.2,0.1,0.5,0.2,0.8,0.3
				c0.2,0.1,0.3,0.1,0.5,0.2c0,0,0,0,0.1,0c-0.1,0-0.2,0.1-0.3,0.1c0.1,0.1,0.2,0.3,0.2,0.4c0.1,0.1,0.2,0.3,0.2,0.4
				c0.1,0.1,0.2,0.3,0.3,0.4c-0.2-0.1-0.4-0.2-0.6-0.4c-0.2-0.1-0.4-0.2-0.6-0.4C36.6,184,36.6,184.1,36.5,184.2 M37.2,186.6
				c0,0-0.4,0.1-0.5,0.2c0.1-0.2,0.1-0.3,0.2-0.5c0.2-0.1,0.3-0.1,0.5-0.2C37.4,186.2,37.2,186.6,37.2,186.6 M37.1,185.9L37.1,185.9
				h-0.2c0-0.2-0.1-0.3-0.2-0.5c0.2,0.1,0.3,0.1,0.5,0.2c0.1,0.2,0.1,0.3,0.2,0.5C37.3,186,37.2,186,37.1,185.9 M37.5,186.1
				L37.5,186.1L37.5,186.1L37.5,186.1 M38.2,187.3L38.2,187.3c-0.1,0.1-0.1,0.2-0.1,0.3c-0.1-0.3-0.2-0.5-0.3-0.8s-0.3-0.8-0.3-0.8
				l0,0l0,0c0.5,0.2,1.5,0.6,1.5,0.6l-0.3,0.1c0,0,0.5,0.8,0.7,1.1C39,187.8,38.6,187.6,38.2,187.3 M40.9,187.9L40.9,187.9
				c-0.1,0.2-0.1,0.3-0.2,0.5c-0.2,0.1-0.3,0.1-0.5,0.2c0.1-0.2,0.1-0.4,0.2-0.5C40.6,188,40.8,187.9,40.9,187.9
				C40.9,187.9,41,187.9,40.9,187.9C41,187.9,41,187.9,40.9,187.9C41,187.9,41,187.9,40.9,187.9 M41,187.8c-0.2-0.1-0.5-0.2-0.5-0.2
				s-0.1-0.4-0.1-0.5c0.1,0,0.6,0.1,0.6,0.1S40.9,187.5,41,187.8L41,187.8 M40.1,185.5c0,0.1-0.1,0.2-0.1,0.3
				c-0.1-0.1-0.6-1.5-0.6-1.5c0.5,0.2,1.5,0.6,1.5,0.6l-0.3,0.1c0,0,0.5,0.7,0.7,1.1l0,0C40.8,185.9,40.4,185.7,40.1,185.5
				 M41.6,187.6c-0.2,0-0.4,0.1-0.5,0.2c0.1-0.2,0.1-0.3,0.2-0.5c0.2-0.1,0.3-0.1,0.5-0.2C41.7,187.1,41.6,187.6,41.6,187.6"/>
		</g>
		<g>
			<defs>
				<rect id="SVGID_13_" width="70" height="225.5"/>
			</defs>
			<clipPath id="SVGID_14_">
				<use xlink:href="#SVGID_13_"  overflow="visible"/>
			</clipPath>
			<path clip-path="url(#SVGID_14_)" fill="#FFFFFF" d="M50.2,158.8L50.2,158.8L50.2,158.8L50.2,158.8"/>
		</g>
		<g>
			<defs>
				<rect id="SVGID_15_" width="70" height="225.5"/>
			</defs>
			<clipPath id="SVGID_16_">
				<use xlink:href="#SVGID_15_"  overflow="visible"/>
			</clipPath>
			<path clip-path="url(#SVGID_16_)" fill="#FFFFFF" d="M29.8,176.7L29.8,176.7L29.8,176.7L29.8,176.7L29.8,176.7z"/>
		</g>
	</g>
	<path fill="#FFFFFF" d="M53.5,183.7L53.5,183.7L53.5,183.7z"/>
	<g>
		<g>
			<defs>
				<rect id="SVGID_17_" width="70" height="225.5"/>
			</defs>
			<clipPath id="SVGID_18_">
				<use xlink:href="#SVGID_17_"  overflow="visible"/>
			</clipPath>
			<path clip-path="url(#SVGID_18_)" fill="#FFFFFF" d="M41.7,197.6C41.8,197.6,41.8,197.6,41.7,197.6
				C41.8,197.6,41.7,197.6,41.7,197.6L41.7,197.6"/>
		</g>
		<g>
			<defs>
				<rect id="SVGID_19_" width="70" height="225.5"/>
			</defs>
			<clipPath id="SVGID_20_">
				<use xlink:href="#SVGID_19_"  overflow="visible"/>
			</clipPath>
			<path clip-path="url(#SVGID_20_)" fill="#FFFFFF" d="M32.6,196L32.6,196L32.6,196z"/>
		</g>
		<g>
			<defs>
				<rect id="SVGID_21_" width="70" height="225.5"/>
			</defs>
			<clipPath id="SVGID_22_">
				<use xlink:href="#SVGID_21_"  overflow="visible"/>
			</clipPath>
			<path clip-path="url(#SVGID_22_)" fill="#FFFFFF" d="M42,170.6L42,170.6L42,170.6L42,170.6"/>
		</g>
		<g>
			<defs>
				<rect id="SVGID_23_" width="70" height="225.5"/>
			</defs>
			<clipPath id="SVGID_24_">
				<use xlink:href="#SVGID_23_"  overflow="visible"/>
			</clipPath>
			<path clip-path="url(#SVGID_24_)" fill="#FFFFFF" d="M52.3,167.8L52.3,167.8L52.3,167.8L52.3,167.8L52.3,167.8z"/>
		</g>
		<g>
			<defs>
				<rect id="SVGID_25_" width="70" height="225.5"/>
			</defs>
			<clipPath id="SVGID_26_">
				<use xlink:href="#SVGID_25_"  overflow="visible"/>
			</clipPath>
			<path clip-path="url(#SVGID_26_)" fill="#FFFFFF" d="M23.9,166.8C23.9,166.9,23.9,166.9,23.9,166.8
				C23.9,166.9,23.9,166.8,23.9,166.8L23.9,166.8"/>
		</g>
		<g>
			<defs>
				<rect id="SVGID_27_" width="70" height="225.5"/>
			</defs>
			<clipPath id="SVGID_28_">
				<use xlink:href="#SVGID_27_"  overflow="visible"/>
			</clipPath>
			<path clip-path="url(#SVGID_28_)" fill="#FFFFFF" d="M17.9,192L17.9,192L17.9,192L17.9,192L17.9,192z"/>
		</g>
		<g>
			<defs>
				<rect id="SVGID_29_" width="70" height="225.5"/>
			</defs>
			<clipPath id="SVGID_30_">
				<use xlink:href="#SVGID_29_"  overflow="visible"/>
			</clipPath>
			<path clip-path="url(#SVGID_30_)" fill="#FFFFFF" d="M38.3,159.2L38.3,159.2L38.3,159.2L38.3,159.2"/>
		</g>
		<g>
			<defs>
				<rect id="SVGID_31_" width="70" height="225.5"/>
			</defs>
			<clipPath id="SVGID_32_">
				<use xlink:href="#SVGID_31_"  overflow="visible"/>
			</clipPath>
			<path clip-path="url(#SVGID_32_)" fill="#FFFFFF" d="M37.9,149.3C38,149.3,38,149.3,37.9,149.3L37.9,149.3L37.9,149.3"/>
		</g>
		<g>
			<defs>
				<rect id="SVGID_33_" width="70" height="225.5"/>
			</defs>
			<clipPath id="SVGID_34_">
				<use xlink:href="#SVGID_33_"  overflow="visible"/>
			</clipPath>
			<path clip-path="url(#SVGID_34_)" fill="#FFFFFF" d="M31.5,149.1c-0.1-0.1-0.1-0.1-0.1-0.2c-0.1-0.2-0.2-0.3-0.4-0.4l0,0
				c0,0.2,0,0.4,0.1,0.5C31.1,149.2,31.3,149.2,31.5,149.1"/>
		</g>
		<g>
			<defs>
				<rect id="SVGID_35_" width="70" height="225.5"/>
			</defs>
			<clipPath id="SVGID_36_">
				<use xlink:href="#SVGID_35_"  overflow="visible"/>
			</clipPath>
			<path clip-path="url(#SVGID_36_)" fill="#FFFFFF" d="M40.1,149.1L40.1,149.1c0,0.1,0.1,0.1,0.2,0.1c0.1,0,0.3,0,0.3-0.1
				c0.1-0.1,0.2-0.4,0.1-0.6C40.5,148.6,40.3,148.9,40.1,149.1"/>
		</g>
		<g>
			<defs>
				<rect id="SVGID_37_" width="70" height="225.5"/>
			</defs>
			<clipPath id="SVGID_38_">
				<use xlink:href="#SVGID_37_"  overflow="visible"/>
			</clipPath>
			<path clip-path="url(#SVGID_38_)" fill="#FFFFFF" d="M32.6,157.3c0.2-0.2,0.4-0.2,0.6-0.2c0.1,0,0.3,0,0.4,0
				c0.3,0,0.6-0.1,0.9-0.4c-0.7,0-1.2,0.2-1.8,0.3C32.5,157.1,32.5,157.2,32.6,157.3"/>
		</g>
		<g>
			<defs>
				<rect id="SVGID_39_" width="70" height="225.5"/>
			</defs>
			<clipPath id="SVGID_40_">
				<use xlink:href="#SVGID_39_"  overflow="visible"/>
			</clipPath>
			<path clip-path="url(#SVGID_40_)" fill="#FFFFFF" d="M31.7,153.7c0.2,0.3,0.4,0.5,0.7,0.7c0.1,0,0.1,0.1,0.2,0
				c0.1-0.1,0.2-0.1,0.4-0.2c-0.2-0.1-0.4-0.3-0.6-0.3c-0.4-0.2-0.7-0.3-0.8-0.8C31.5,153.3,31.6,153.5,31.7,153.7"/>
		</g>
		<g>
			<defs>
				<rect id="SVGID_41_" width="70" height="225.5"/>
			</defs>
			<clipPath id="SVGID_42_">
				<use xlink:href="#SVGID_41_"  overflow="visible"/>
			</clipPath>
			<path clip-path="url(#SVGID_42_)" fill="#FFFFFF" d="M16.1,190.4c-0.1-0.3-0.2-0.6-0.3-0.9c-0.1-0.2-0.1-0.2-0.3-0.2
				c0.1,0.8,0.3,1.5,0.8,2.1C16.2,191.1,16.2,190.8,16.1,190.4"/>
		</g>
		<g>
			<defs>
				<rect id="SVGID_43_" width="70" height="225.5"/>
			</defs>
			<clipPath id="SVGID_44_">
				<use xlink:href="#SVGID_43_"  overflow="visible"/>
			</clipPath>
			<path clip-path="url(#SVGID_44_)" fill="#FFFFFF" d="M16.5,163.9c0-0.4-0.1-0.9-0.3-1.3c-0.1-0.2-0.2-0.5-0.2-0.7
				c0-0.2-0.1-0.2-0.3-0.2C15.6,162.4,16.1,163.7,16.5,163.9"/>
		</g>
		<g>
			<defs>
				<rect id="SVGID_45_" width="70" height="225.5"/>
			</defs>
			<clipPath id="SVGID_46_">
				<use xlink:href="#SVGID_45_"  overflow="visible"/>
			</clipPath>
			<path clip-path="url(#SVGID_46_)" fill="#FFFFFF" d="M55.3,189.1c-0.2,0-0.2,0-0.3,0.2c-0.1,0.3-0.2,0.5-0.3,0.8
				c-0.2,0.4-0.2,0.8-0.3,1.2C54.8,190.9,55.3,189.8,55.3,189.1"/>
		</g>
		<g>
			<defs>
				<rect id="SVGID_47_" width="70" height="225.5"/>
			</defs>
			<clipPath id="SVGID_48_">
				<use xlink:href="#SVGID_47_"  overflow="visible"/>
			</clipPath>
			<path clip-path="url(#SVGID_48_)" fill="#FFFFFF" d="M54.7,165.2c-0.2,0-0.2,0-0.3,0.2c-0.1,0.3-0.2,0.6-0.3,0.9
				c-0.1,0.3-0.1,0.7-0.2,1C54.5,166.9,54.8,165.8,54.7,165.2"/>
		</g>
		<g>
			<defs>
				<rect id="SVGID_49_" width="70" height="225.5"/>
			</defs>
			<clipPath id="SVGID_50_">
				<use xlink:href="#SVGID_49_"  overflow="visible"/>
			</clipPath>
			<path clip-path="url(#SVGID_50_)" fill="#FFFFFF" d="M39.4,155.2c0.3,0.5,0.7,1.1,0.9,1.7c0,0.1,0.1,0.2,0.2,0.3
				c0.1,0.1,0.2,0.1,0.3-0.1c0.1-0.2,0.1-0.4,0.1-0.6c0-0.1-0.5-0.7-0.6-0.8c-0.1-0.1-0.5-0.5-0.6-0.6C39.6,155,39.5,155,39.4,155.2
				C39.4,155.1,39.4,155.1,39.4,155.2"/>
		</g>
		<g>
			<defs>
				<rect id="SVGID_51_" width="70" height="225.5"/>
			</defs>
			<clipPath id="SVGID_52_">
				<use xlink:href="#SVGID_51_"  overflow="visible"/>
			</clipPath>
			<path clip-path="url(#SVGID_52_)" fill="#FFFFFF" d="M36.7,156.6c-0.7-0.2-1.3-0.1-1.9,0c0,0-0.1,0-0.1,0.1
				c-0.1,0.2,0,0.5,0.2,0.6c0.2-0.2,0.4-0.2,0.6-0.2c0.2,0,0.3,0,0.5,0C36.3,157,36.6,156.9,36.7,156.6L36.7,156.6"/>
		</g>
		<g>
			<defs>
				<rect id="SVGID_53_" width="70" height="225.5"/>
			</defs>
			<clipPath id="SVGID_54_">
				<use xlink:href="#SVGID_53_"  overflow="visible"/>
			</clipPath>
			<path clip-path="url(#SVGID_54_)" fill="#FFFFFF" d="M30.7,157c0,0,0.1,0.1,0.1,0c0.3,0,0.5-0.1,0.8-0.3c0.1,0,0.1-0.1,0-0.2
				c-0.2-0.2-0.4-0.5-0.6-0.8c-0.3-0.3-0.5-0.2-0.7,0.1c0,0.1,0,0.2,0,0.3C30.3,156.5,30.5,156.8,30.7,157"/>
		</g>
		<g>
			<defs>
				<rect id="SVGID_55_" width="70" height="225.5"/>
			</defs>
			<clipPath id="SVGID_56_">
				<use xlink:href="#SVGID_55_"  overflow="visible"/>
			</clipPath>
			<path clip-path="url(#SVGID_56_)" fill="#FFFFFF" d="M53.3,190.1c0.2-0.2,0.3-0.3,0.4-0.5c0.1-0.2,0.2-0.3,0.2-0.5
				c0-0.1,0-0.2-0.1-0.2s-0.1,0-0.2,0.1c-0.3,0.4-0.6,0.8-1,1.2c-0.2,0.2-0.3,0.4-0.3,0.7c-0.1,0.4,0.1,0.8,0.4,1
				C52.6,191.1,52.9,190.6,53.3,190.1"/>
		</g>
		<g>
			<defs>
				<rect id="SVGID_57_" width="70" height="225.5"/>
			</defs>
			<clipPath id="SVGID_58_">
				<use xlink:href="#SVGID_57_"  overflow="visible"/>
			</clipPath>
			<path clip-path="url(#SVGID_58_)" fill="#FFFFFF" d="M17.9,192c0.2-0.1,0.4-0.3,0.4-0.6c0.1-0.4,0-0.7-0.3-1
				c-0.4-0.4-0.7-0.8-1-1.3c0-0.1-0.1-0.1-0.2-0.1s-0.1,0.1-0.1,0.2c0,0.3,0.2,0.5,0.3,0.7c0.1,0.2,0.3,0.3,0.4,0.5
				c0.2,0.3,0.4,0.6,0.4,1C18,191.6,17.9,191.8,17.9,192L17.9,192z"/>
		</g>
		<g>
			<defs>
				<rect id="SVGID_59_" width="70" height="225.5"/>
			</defs>
			<clipPath id="SVGID_60_">
				<use xlink:href="#SVGID_59_"  overflow="visible"/>
			</clipPath>
			<path clip-path="url(#SVGID_60_)" fill="#FFFFFF" d="M37,157.4c0.1,0.2,0.3,0.4,0.5,0.3c0.3,0,0.6-0.1,0.9-0.3
				c0.1-0.1,0.3-0.2,0.3-0.4c-0.3-0.1-0.5-0.3-0.8-0.2c-0.3,0-0.6,0-0.9-0.1C36.8,156.9,36.8,157.1,37,157.4"/>
		</g>
		<g>
			<defs>
				<rect id="SVGID_61_" width="70" height="225.5"/>
			</defs>
			<clipPath id="SVGID_62_">
				<use xlink:href="#SVGID_61_"  overflow="visible"/>
			</clipPath>
			<path clip-path="url(#SVGID_62_)" fill="#FFFFFF" d="M52.3,167.8L52.3,167.8c-0.1-0.5,0-0.9,0.2-1.3c0.1-0.2,0.3-0.4,0.5-0.6
				s0.4-0.4,0.4-0.7c0-0.2,0-0.2-0.2-0.3c0,0-0.1,0-0.1,0.1c-0.3,0.4-0.6,0.8-1,1.2c-0.2,0.3-0.3,0.6-0.3,0.9
				C51.9,167.5,52,167.7,52.3,167.8L52.3,167.8z"/>
		</g>
		<g>
			<defs>
				<rect id="SVGID_63_" width="70" height="225.5"/>
			</defs>
			<clipPath id="SVGID_64_">
				<use xlink:href="#SVGID_63_"  overflow="visible"/>
			</clipPath>
			<path clip-path="url(#SVGID_64_)" fill="#FFFFFF" d="M39.9,156.7c-0.2-0.5-0.5-0.9-0.7-1.4c-0.1-0.3-1.1-0.7-1.2-0.6
				c0.4,0.6,0.9,1.3,1.4,1.9C39.6,156.8,39.8,156.8,39.9,156.7C40,156.8,40,156.7,39.9,156.7"/>
		</g>
		<g>
			<defs>
				<rect id="SVGID_65_" width="70" height="225.5"/>
			</defs>
			<clipPath id="SVGID_66_">
				<use xlink:href="#SVGID_65_"  overflow="visible"/>
			</clipPath>
			<path clip-path="url(#SVGID_66_)" fill="#FFFFFF" d="M38.9,156.5c-0.1-0.1-0.1-0.2-0.2-0.3c-0.4-0.5-0.8-0.9-1.1-1.4
				c-0.2-0.3-0.8-0.4-1.1-0.2C36.9,155.3,38.1,156.4,38.9,156.5"/>
		</g>
		<g>
			<defs>
				<rect id="SVGID_67_" width="70" height="225.5"/>
			</defs>
			<clipPath id="SVGID_68_">
				<use xlink:href="#SVGID_67_"  overflow="visible"/>
			</clipPath>
			<path clip-path="url(#SVGID_68_)" fill="#FFFFFF" d="M54.3,192.2L54.3,192.2c0.8-0.3,1.3-0.7,1.5-1.5c0.1-0.5,0.2-1.1,0-1.6
				c0,0,0-0.1-0.1-0.1s-0.1,0-0.1,0.1v0.1c0,0.6-0.2,1.2-0.5,1.7C54.8,191.4,54.6,191.8,54.3,192.2L54.3,192.2"/>
		</g>
		<g>
			<defs>
				<rect id="SVGID_69_" width="70" height="225.5"/>
			</defs>
			<clipPath id="SVGID_70_">
				<use xlink:href="#SVGID_69_"  overflow="visible"/>
			</clipPath>
			<path clip-path="url(#SVGID_70_)" fill="#FFFFFF" d="M16.4,192.4c-0.3-0.4-0.5-0.8-0.8-1.2c-0.4-0.6-0.6-1.2-0.5-1.9
				c0-0.1,0-0.2-0.2-0.2C14.3,190.4,15.2,192.2,16.4,192.4"/>
		</g>
		<g>
			<defs>
				<rect id="SVGID_71_" width="70" height="225.5"/>
			</defs>
			<clipPath id="SVGID_72_">
				<use xlink:href="#SVGID_71_"  overflow="visible"/>
			</clipPath>
			<path clip-path="url(#SVGID_72_)" fill="#FFFFFF" d="M16.6,164.8c-0.3-0.4-0.5-0.8-0.8-1.2c-0.3-0.6-0.6-1.1-0.5-1.8
				c0-0.1,0-0.2-0.2-0.2C14.5,162.7,15.4,164.7,16.6,164.8"/>
		</g>
		<g>
			<defs>
				<rect id="SVGID_73_" width="70" height="225.5"/>
			</defs>
			<clipPath id="SVGID_74_">
				<use xlink:href="#SVGID_73_"  overflow="visible"/>
			</clipPath>
			<path clip-path="url(#SVGID_74_)" fill="#FFFFFF" d="M31.1,171.2l0.1-0.1c0.4-0.4,0.9-0.8,1.3-1.2c0,0,0,0,0.1-0.1
				c-1.1,0-2,0.5-2.6,1.4c0.4,0,0.6,0,0.9,0"/>
		</g>
		<g>
			<defs>
				<rect id="SVGID_75_" width="70" height="225.5"/>
			</defs>
			<clipPath id="SVGID_76_">
				<use xlink:href="#SVGID_75_"  overflow="visible"/>
			</clipPath>
			<path clip-path="url(#SVGID_76_)" fill="#FFFFFF" d="M55.2,167.1c0.3-0.7,0.4-1.3,0.1-1.9c-0.2,0-0.2,0-0.2,0.2s0,0.3,0,0.4
				c-0.1,0.6-0.4,1-0.7,1.5c-0.2,0.3-0.4,0.7-0.7,1C54.4,168.1,55,167.7,55.2,167.1"/>
		</g>
		<g>
			<defs>
				<rect id="SVGID_77_" width="70" height="225.5"/>
			</defs>
			<clipPath id="SVGID_78_">
				<use xlink:href="#SVGID_77_"  overflow="visible"/>
			</clipPath>
			<path clip-path="url(#SVGID_78_)" fill="#FFFFFF" d="M18.4,163.5c0.1-0.3,0.1-0.7-0.2-1c-0.3-0.3-0.6-0.7-0.9-1.1
				c-0.1-0.2-0.2,0-0.3,0c-0.1,0-0.1,0.1-0.1,0.2c0.1,0.3,0.3,0.6,0.5,0.8c0.4,0.5,0.6,1,0.6,1.7c0,0.1,0,0.2,0.1,0.3
				C18.2,164.2,18.3,163.9,18.4,163.5"/>
		</g>
		<g>
			<defs>
				<rect id="SVGID_79_" width="70" height="225.5"/>
			</defs>
			<clipPath id="SVGID_80_">
				<use xlink:href="#SVGID_79_"  overflow="visible"/>
			</clipPath>
			<path clip-path="url(#SVGID_80_)" fill="#FFFFFF" d="M56.3,189.8c0.1,0.9-0.3,1.7-1,2.2l-0.1,0.1l-0.1,0.1c0,0.1,0.1,0.1,0.2,0
				c0.1,0,0.2-0.1,0.3-0.1c0.8-0.6,1.3-1.3,1.2-2.4c0-0.4-0.2-0.8-0.5-1.1c-0.1,0-0.1,0.1-0.2,0.1C56.2,189.2,56.3,189.5,56.3,189.8
				"/>
		</g>
		<g>
			<defs>
				<rect id="SVGID_81_" width="70" height="225.5"/>
			</defs>
			<clipPath id="SVGID_82_">
				<use xlink:href="#SVGID_81_"  overflow="visible"/>
			</clipPath>
			<path clip-path="url(#SVGID_82_)" fill="#FFFFFF" d="M14.2,162.2c-0.4,1.1,0.5,2.4,1.3,2.8c0.1,0,0.1,0.1,0.2,0.1
				c0,0,0.1,0,0.1-0.1v-0.1c0,0,0-0.1-0.1-0.1c-0.4-0.3-0.7-0.7-0.9-1.1c-0.2-0.3-0.2-0.7-0.2-1.1c0-0.3,0.1-0.7,0.3-1
				c-0.1,0-0.1-0.1-0.2-0.1C14.4,161.6,14.3,161.9,14.2,162.2"/>
		</g>
		<g>
			<defs>
				<rect id="SVGID_83_" width="70" height="225.5"/>
			</defs>
			<clipPath id="SVGID_84_">
				<use xlink:href="#SVGID_83_"  overflow="visible"/>
			</clipPath>
			<path clip-path="url(#SVGID_84_)" fill="#FFFFFF" d="M14.4,189c-0.2,0.2-0.4,0.5-0.4,0.8c-0.3,1.1,0.5,2.3,1.3,2.7
				c0.1,0,0.1,0.1,0.2,0.1c0.1,0,0.1,0,0.1-0.1s0-0.1-0.1-0.1c0,0,0,0-0.1-0.1c-0.4-0.3-0.7-0.7-0.9-1.1c-0.1-0.3-0.2-0.6-0.2-0.9
				c0-0.4,0.1-0.8,0.3-1.2C14.6,189.1,14.5,188.9,14.4,189"/>
		</g>
		<g>
			<defs>
				<rect id="SVGID_85_" width="70" height="225.5"/>
			</defs>
			<clipPath id="SVGID_86_">
				<use xlink:href="#SVGID_85_"  overflow="visible"/>
			</clipPath>
			<path clip-path="url(#SVGID_86_)" fill="#FFFFFF" d="M55.7,165.1c0.2,0.4,0.2,0.9,0.1,1.3c-0.1,0.7-0.5,1.3-1,1.7
				c0,0,0,0-0.1,0.1c0,0-0.1,0.1-0.1,0.2s0.1,0.1,0.2,0.1c0.1,0,0.2-0.1,0.3-0.1c0.6-0.4,1-1,1.2-1.7c0.1-0.6,0.1-1.1-0.3-1.6
				C55.8,164.9,55.8,164.9,55.7,165.1"/>
		</g>
		<g>
			<defs>
				<rect id="SVGID_87_" width="70" height="225.5"/>
			</defs>
			<clipPath id="SVGID_88_">
				<use xlink:href="#SVGID_87_"  overflow="visible"/>
			</clipPath>
			<path clip-path="url(#SVGID_88_)" fill="#FFFFFF" d="M16.5,162.6c0.2,0.4,0.3,0.8,0.4,1.2c0,0.3,0.1,0.5,0.2,0.8
				c0.1,0.2,0.4,0.2,0.6,0c0.1-0.1,0.1-0.2,0.1-0.3c0-0.4-0.1-0.8-0.3-1.2c-0.3-0.5-0.6-0.9-0.8-1.5h-0.5
				C16.3,162,16.4,162.3,16.5,162.6"/>
		</g>
		<g>
			<defs>
				<rect id="SVGID_89_" width="70" height="225.5"/>
			</defs>
			<clipPath id="SVGID_90_">
				<use xlink:href="#SVGID_89_"  overflow="visible"/>
			</clipPath>
			<path clip-path="url(#SVGID_90_)" fill="#FFFFFF" d="M54.2,189.1c-0.1,0.5-0.4,0.9-0.7,1.3c-0.2,0.3-0.3,0.7-0.4,1
				c0,0.2-0.1,0.4,0,0.6s0.2,0.2,0.4,0.3c0.2,0,0.2-0.1,0.3-0.2s0.1-0.3,0.1-0.4c0.1-0.6,0.2-1.2,0.5-1.8c0.1-0.2,0.2-0.4,0.2-0.7
				C54.5,189.1,54.4,189.1,54.2,189.1"/>
		</g>
		<g>
			<defs>
				<rect id="SVGID_91_" width="70" height="225.5"/>
			</defs>
			<clipPath id="SVGID_92_">
				<use xlink:href="#SVGID_91_"  overflow="visible"/>
			</clipPath>
			<path clip-path="url(#SVGID_92_)" fill="#FFFFFF" d="M16.1,189.7c0.3,0.6,0.6,1.3,0.6,2c0,0.2,0.1,0.3,0.2,0.5
				c0.1,0.1,0.2,0.2,0.4,0.1c0.2-0.1,0.3-0.2,0.3-0.5c0-0.5-0.1-0.9-0.4-1.3c-0.3-0.4-0.6-0.9-0.7-1.4c-0.2,0-0.3,0-0.5,0
				C16,189.4,16.1,189.6,16.1,189.7"/>
		</g>
		<g>
			<defs>
				<rect id="SVGID_93_" width="70" height="225.5"/>
			</defs>
			<clipPath id="SVGID_94_">
				<use xlink:href="#SVGID_93_"  overflow="visible"/>
			</clipPath>
			<path clip-path="url(#SVGID_94_)" fill="#FFFFFF" d="M31.3,155.7c0.1,0.2,0.3,0.4,0.5,0.6c0.2,0.2,0.3,0.2,0.5,0.1h0.1
				c0.3,0,0.6-0.2,0.9-0.2c-0.3-0.4-0.6-0.8-0.9-1.2c-0.1-0.1-0.1-0.1-0.3-0.1c-0.1,0-0.8,0.3-1,0.4c-0.1,0-0.1,0.1-0.1,0.1
				C31.1,155.5,31.2,155.6,31.3,155.7"/>
		</g>
		<g>
			<defs>
				<rect id="SVGID_95_" width="70" height="225.5"/>
			</defs>
			<clipPath id="SVGID_96_">
				<use xlink:href="#SVGID_95_"  overflow="visible"/>
			</clipPath>
			<path clip-path="url(#SVGID_96_)" fill="#FFFFFF" d="M53.1,166.3c-0.2,0.3-0.3,0.6-0.4,0.9c-0.1,0.2-0.1,0.4-0.1,0.7
				c0,0.2,0.2,0.4,0.4,0.4c0.1,0,0.3-0.1,0.4-0.3c0-0.1,0.1-0.2,0.1-0.3c0.1-0.3,0.1-0.5,0.1-0.8s0.2-0.6,0.3-0.9
				c0.1-0.3,0.2-0.5,0.3-0.8l-0.5-0.1C53.6,165.5,53.4,165.9,53.1,166.3"/>
		</g>
		<g>
			<defs>
				<rect id="SVGID_97_" width="70" height="225.5"/>
			</defs>
			<clipPath id="SVGID_98_">
				<use xlink:href="#SVGID_97_"  overflow="visible"/>
			</clipPath>
			<path clip-path="url(#SVGID_98_)" fill="#FFFFFF" d="M15.8,158.5c-0.2,0.3-0.4,0.6-0.5,1c-0.1,0.2,0,0.3,0.2,0.4
				c0.3,0.2,0.6,0.1,0.9-0.2c0.3-0.4,0.5-0.8,0.9-1c-0.4-0.3-0.3-0.7-0.3-1.1C16.5,157.8,16.1,158.1,15.8,158.5"/>
		</g>
		<g>
			<defs>
				<rect id="SVGID_99_" width="70" height="225.5"/>
			</defs>
			<clipPath id="SVGID_100_">
				<use xlink:href="#SVGID_99_"  overflow="visible"/>
			</clipPath>
			<path clip-path="url(#SVGID_100_)" fill="#FFFFFF" d="M35.3,155.3c0.1,0.1,0.2,0.2,0.3,0.2c0.2,0.1,0.3,0.1,0.4,0.3
				c0.2,0.2,0.4,0.3,0.7,0.3s0.5,0.1,0.8,0.1c0,0,0,0,0-0.1c-0.5-0.4-0.9-0.9-1.3-1.4c-0.1-0.1-0.2-0.3-0.4-0.3
				c-0.1,0-1.2-0.1-1.6-0.1C34.6,154.8,34.9,155.1,35.3,155.3"/>
		</g>
		<g>
			<defs>
				<rect id="SVGID_101_" width="70" height="225.5"/>
			</defs>
			<clipPath id="SVGID_102_">
				<use xlink:href="#SVGID_101_"  overflow="visible"/>
			</clipPath>
			<path clip-path="url(#SVGID_102_)" fill="#FFFFFF" d="M53.5,185.8c0.2,0.1,0.4,0.3,0.6,0.5c0.2,0.2,0.3,0.4,0.4,0.6
				c0.1,0.2,0.2,0.3,0.4,0.3c0.2,0.1,0.4,0,0.6-0.2c0.1-0.1,0.1-0.3,0-0.5c-0.2-0.7-0.7-1.2-1.3-1.6C54,185.3,53.8,185.6,53.5,185.8
				"/>
		</g>
		<g>
			<defs>
				<rect id="SVGID_103_" width="70" height="225.5"/>
			</defs>
			<clipPath id="SVGID_104_">
				<use xlink:href="#SVGID_103_"  overflow="visible"/>
			</clipPath>
			<path clip-path="url(#SVGID_104_)" fill="#FFFFFF" d="M53.2,161c0,0.4,0.1,0.7,0,1.1v0.1c0.3,0.3,0.5,0.6,0.7,0.9
				c0.1,0.1,0.1,0.2,0.2,0.3c0.2,0.2,0.5,0.2,0.7,0c0.2-0.1,0.2-0.2,0.1-0.5c-0.1-0.4-0.3-0.8-0.6-1.1C54,161.5,53.7,161.2,53.2,161
				L53.2,161"/>
		</g>
		<g>
			<defs>
				<rect id="SVGID_105_" width="70" height="225.5"/>
			</defs>
			<clipPath id="SVGID_106_">
				<use xlink:href="#SVGID_105_"  overflow="visible"/>
			</clipPath>
			<path clip-path="url(#SVGID_106_)" fill="#FFFFFF" d="M15.3,186.9c0,0.2,0,0.3,0.1,0.4s0.3,0.2,0.5,0.1c0.2-0.1,0.3-0.2,0.4-0.3
				c0.3-0.6,0.7-1.1,1.3-1.3c-0.2-0.1-0.3-0.2-0.5-0.3c-0.1-0.1-0.3-0.2-0.4-0.4C16,185.6,15.5,186.2,15.3,186.9"/>
		</g>
		<g>
			<defs>
				<rect id="SVGID_107_" width="70" height="225.5"/>
			</defs>
			<clipPath id="SVGID_108_">
				<use xlink:href="#SVGID_107_"  overflow="visible"/>
			</clipPath>
			<path clip-path="url(#SVGID_108_)" fill="#FFFFFF" d="M33.5,155.8c0.2,0.2,0.4,0.3,0.6,0.3c0.4,0,0.7,0,1.1,0c0.2,0,0.4,0,0.6,0
				c-0.1-0.1-0.2-0.2-0.3-0.2c-0.2-0.1-0.4-0.2-0.6-0.4c-0.3-0.2-0.5-0.5-0.7-0.7c-0.1-0.1-0.2-0.2-0.4-0.3c-0.1-0.1-1,0.4-1.1,0.5
				C33.1,155.2,33.3,155.5,33.5,155.8"/>
		</g>
		<g>
			<defs>
				<rect id="SVGID_109_" width="70" height="225.5"/>
			</defs>
			<clipPath id="SVGID_110_">
				<use xlink:href="#SVGID_109_"  overflow="visible"/>
			</clipPath>
			<path clip-path="url(#SVGID_110_)" fill="#FFFFFF" d="M28.7,163.5c0-0.1-0.1-0.3-0.1-0.4c-0.1-0.1-0.1-0.1-0.2,0
				c-0.1,0.1-0.1,0.2-0.2,0.3c-0.3,0.4-0.7,0.7-1.1,0.9c-0.7,0.2-1.2,0.1-1.6-0.4c-0.2-0.2-0.3-0.3-0.6-0.2c-0.1,0-0.2,0.1-0.1,0.2
				c0.1,0.4,0.2,0.7,0.6,0.9c0.4,0.3,0.9,0.4,1.4,0.4c0.4,0,0.7-0.1,0.9-0.4c0.1-0.1,0.2-0.3,0.4-0.3c0.3-0.1,0.5,0.1,0.5,0.3
				c0,0.1-0.1,0.3-0.1,0.4c-0.1,0.4,0.1,0.7,0.4,0.9C28.8,165,28.8,164.2,28.7,163.5"/>
		</g>
		<g>
			<defs>
				<rect id="SVGID_111_" width="70" height="225.5"/>
			</defs>
			<clipPath id="SVGID_112_">
				<use xlink:href="#SVGID_111_"  overflow="visible"/>
			</clipPath>
			<path clip-path="url(#SVGID_112_)" fill="#FFFFFF" d="M56,186.9c0.1,0.3-0.1,0.7-0.5,0.8c-0.3,0.2-0.7,0.1-1-0.2
				c-0.1-0.1-0.2-0.2-0.3-0.3c-0.2-0.2-0.5-0.2-0.7-0.1s-0.3,0.4-0.2,0.6c0.1,0.2,0.2,0.4,0.4,0.6c0.5,0.4,1.1,0.5,1.7,0.4
				c0.4-0.1,0.8-0.3,1.1-0.7c0.2-0.2,0.2-0.5,0.1-0.7C56.5,187.1,56.2,186.9,56,186.9L56,186.9"/>
		</g>
		<g>
			<defs>
				<rect id="SVGID_113_" width="70" height="225.5"/>
			</defs>
			<clipPath id="SVGID_114_">
				<use xlink:href="#SVGID_113_"  overflow="visible"/>
			</clipPath>
			<path clip-path="url(#SVGID_114_)" fill="#FFFFFF" d="M14.4,187.3c-0.3,0.3-0.3,0.6-0.1,0.9c0.2,0.2,0.4,0.4,0.6,0.5
				c0.7,0.3,1.3,0.2,1.9-0.1c0.2-0.1,0.4-0.3,0.6-0.6c0.2-0.4,0-0.7-0.3-0.8s-0.5,0-0.7,0.3c-0.3,0.5-1,0.5-1.4,0.1
				c-0.1-0.2-0.2-0.4-0.1-0.6C14.7,187.1,14.5,187.1,14.4,187.3"/>
		</g>
		<g>
			<defs>
				<rect id="SVGID_115_" width="70" height="225.5"/>
			</defs>
			<clipPath id="SVGID_116_">
				<use xlink:href="#SVGID_115_"  overflow="visible"/>
			</clipPath>
			<path clip-path="url(#SVGID_116_)" fill="#FFFFFF" d="M55.4,163.3c-0.1,0.3-0.3,0.5-0.7,0.6c-0.3,0.1-0.6-0.1-0.8-0.3
				c0-0.1-0.1-0.1-0.1-0.2c-0.2-0.2-0.4-0.3-0.6-0.2c-0.3,0.1-0.4,0.3-0.4,0.5c0,0.2,0.1,0.4,0.3,0.6c0.5,0.5,1.2,0.7,1.9,0.5
				c0.4-0.1,0.8-0.3,1-0.7c0.1-0.2,0.2-0.4,0.1-0.6c-0.1-0.3-0.4-0.4-0.7-0.5C55.4,163.1,55.4,163.2,55.4,163.3"/>
		</g>
		<g>
			<defs>
				<rect id="SVGID_117_" width="70" height="225.5"/>
			</defs>
			<clipPath id="SVGID_118_">
				<use xlink:href="#SVGID_117_"  overflow="visible"/>
			</clipPath>
			<path clip-path="url(#SVGID_118_)" fill="#FFFFFF" d="M14.7,159.6c-0.4,0.2-0.5,0.5-0.3,0.9c0.2,0.3,0.4,0.5,0.7,0.7
				c0.7,0.3,1.3,0.2,1.9-0.1c0.3-0.2,0.5-0.4,0.6-0.6c0.1-0.3,0-0.6-0.3-0.7s-0.6-0.1-0.8,0.3c-0.3,0.5-1,0.5-1.3,0.1
				c-0.2-0.3-0.2-0.5-0.2-0.8C14.9,159.5,14.8,159.5,14.7,159.6"/>
		</g>
		<g>
			<defs>
				<rect id="SVGID_119_" width="70" height="225.5"/>
			</defs>
			<clipPath id="SVGID_120_">
				<use xlink:href="#SVGID_119_"  overflow="visible"/>
			</clipPath>
			<path clip-path="url(#SVGID_120_)" fill="#FFFFFF" d="M32.5,151.8L32.5,151.8c-0.4-0.2-0.8-0.4-1.2-0.4c-0.4,0-0.7-0.2-0.9-0.5
				l0,0c0,0.2,0,0.4,0.2,0.5c0.1,0.1,0.3,0.2,0.4,0.2c0.3,0.1,0.5,0.2,0.8,0.3c0.3,0.1,0.6,0.3,0.8,0.5c0.2,0.2,0.3,0.4,0.3,0.7
				c-0.1,0-0.2-0.1-0.2-0.1c-0.3-0.3-0.7-0.5-1.2-0.5c-0.4,0-0.8-0.2-1-0.5l0,0c0,0.1,0,0.2,0,0.2c0.1,0.3,0.4,0.5,0.7,0.7
				c0.1,0.1,0.2,0.1,0.3,0l0.1-0.1c0.2,0.3,0.4,0.5,0.7,0.6c0.4,0.2,0.3,1,0.7,0.8c0.3-0.1,0.3-0.2,0.5-0.2
				c-0.4-1.6-0.8-2.9-1.7-4.3c-0.1,0.4-0.5,0.6-0.8,0.9C31.7,150.8,32.1,151.2,32.5,151.8C32.5,151.7,32.5,151.7,32.5,151.8"/>
		</g>
		<g>
			<defs>
				<rect id="SVGID_121_" width="70" height="225.5"/>
			</defs>
			<clipPath id="SVGID_122_">
				<use xlink:href="#SVGID_121_"  overflow="visible"/>
			</clipPath>
			<path clip-path="url(#SVGID_122_)" fill="#FFFFFF" d="M38.7,158.4c0-0.2,0.1-0.5,0.1-0.6s-0.1-0.2-0.2-0.1
				c-0.2,0.1-0.4,0.2-0.6,0.3c-0.3,0.2-0.7,0.2-1-0.1c-0.1-0.2-0.3-0.3-0.4-0.5c-0.3,0.1-0.6,0.2-0.9,0.1c-0.3-0.1-0.6,0-0.7,0.3
				l0,0c-0.2-0.1-0.4-0.2-0.5-0.4c-0.1-0.1-0.2-0.2-0.3-0.1c-0.4,0.1-0.7,0.1-1.1,0.1c-0.1,0-0.2,0.1-0.2,0.2c0,0.2-0.1,0.3-0.2,0.5
				c-0.1-0.2-0.1-0.3-0.3-0.4c0,0.2-0.3,0.5-0.4,0.5c-0.2,0.1-0.4,0.1-0.5,0c-0.1-0.1-0.3-0.1-0.4,0c-0.1,0.1-0.4,0.3-0.5,0.4
				C33.2,158.4,36,158.4,38.7,158.4"/>
		</g>
		<g>
			<defs>
				<rect id="SVGID_123_" width="70" height="225.5"/>
			</defs>
			<clipPath id="SVGID_124_">
				<use xlink:href="#SVGID_123_"  overflow="visible"/>
			</clipPath>
			<path clip-path="url(#SVGID_124_)" fill="#FFFFFF" d="M38,158.8c-1.3,0-2.6,0-3.9,0.1c-1.2,0-2.5,0.1-3.7,0.2
				c-0.4,0-0.6,0.4-0.8,0.6c2.4-0.1,4.7-0.3,7-0.3c0,0.3,0.1,0.5,0.1,0.8c0.5-0.5,1-1,1.6-1.4C38.1,158.7,38,158.8,38,158.8"/>
		</g>
		<g>
			<defs>
				<rect id="SVGID_125_" width="70" height="225.5"/>
			</defs>
			<clipPath id="SVGID_126_">
				<use xlink:href="#SVGID_125_"  overflow="visible"/>
			</clipPath>
			<path clip-path="url(#SVGID_126_)" fill="#FFFFFF" d="M40.2,150.1c-0.2-0.2-0.4-0.4-0.4-0.6c-0.6,0.7-1.8,3.9-1.8,4.7
				c0.2,0.1,0.7,0.2,0.9,0.2c0.1,0,0.1,0,0.2,0c0.1-0.1,0.3-0.2,0.4-0.3c0.2-0.2,0.4-0.4,0.4-0.6c0.1-0.2,0.1-0.3,0-0.4
				c-0.1,0.2-0.2,0.4-0.4,0.6c-0.3,0.2-0.6,0.2-1,0.4c0.1-0.4,0.2-0.5,0.5-0.7c0.3-0.2,0.7-0.3,0.9-0.8c0.1,0.1,0.1,0.1,0.1,0.2
				c0,0,0.1,0.1,0.1,0c0.3-0.2,0.7-0.3,0.8-0.7c0-0.1,0.1-0.1,0-0.2c-0.5,0.5-0.6,0.5-1.3,0.6c-0.4,0-0.7,0.2-1,0.5
				c-0.1,0.1-0.1,0.1-0.2,0.2c0.1-0.6,0.3-0.8,0.7-1.1c0.4-0.2,0.7-0.3,1.1-0.5c0.2-0.1,0.4-0.2,0.6-0.3c0.2-0.1,0.2-0.3,0.2-0.5
				c0,0,0,0-0.1,0c-0.2,0.3-0.5,0.4-0.9,0.4s-0.8,0.2-1.2,0.4l0,0c0.4-0.6,0.9-1,1.5-1.3C40.4,150.4,40.5,150.3,40.2,150.1"/>
		</g>
		<g>
			<defs>
				<rect id="SVGID_127_" width="70" height="225.5"/>
			</defs>
			<clipPath id="SVGID_128_">
				<use xlink:href="#SVGID_127_"  overflow="visible"/>
			</clipPath>
			<path clip-path="url(#SVGID_128_)" fill="#FFFFFF" d="M38.1,150.3L38.1,150.3c-0.3,0.3-0.6,0.4-0.9,0.5c-0.2,0.1-0.4,0.1-0.6,0.3
				l-0.1,0.1c0,0,0-0.1,0-0.2c0.2-0.3,0.4-0.6,0.7-0.8s0.6-0.5,0.7-0.8l0,0c-0.4,0.3-0.8,0.5-1.3,0.7c0.1-0.5,0.4-0.8,0.7-1.1
				s0.7-0.5,1.1-0.8c0.1-0.1,0.3-0.2,0.4-0.3c0.1-0.1,0.1-0.1,0.1-0.3c-0.1,0.2-0.3,0.3-0.6,0.4c-0.2,0.1-0.5,0.2-0.7,0.3
				c-0.4,0.2-0.7,0.5-0.9,0.8c0,0,0,0.1-0.1,0.1c0-0.4,0-0.8,0.1-1.2c-0.1,0-0.3,0.1-0.4,0.1c-0.1,0-0.2,0-0.4-0.1v0.2v1.9
				c0,1.2,0,2.4,0,3.6c0,0.2,0,0.2,0.2,0.2c0.1,0,0.3,0,0.4-0.2c0.1-0.2,0.3-0.4,0.5-0.5c0,0,0.1,0,0-0.1c-0.1,0-0.2,0-0.3,0.1
				c-0.1,0.1-0.3,0.2-0.4,0.3l-0.1,0.1c-0.1,0,0-0.1,0-0.1c0.1-0.2,0.2-0.5,0.3-0.7c0.1-0.3,0.3-0.5,0.6-0.7l0,0
				c-0.5,0.1-0.6,0.5-0.9,0.7c0-0.6,0.2-1.1,0.7-1.5c0.2-0.2,0.5-0.3,0.7-0.5c0.1-0.1,0.2-0.1,0.3-0.2
				C38,150.5,38.1,150.5,38.1,150.3L38.1,150.3z"/>
		</g>
		<g>
			<defs>
				<rect id="SVGID_129_" width="70" height="225.5"/>
			</defs>
			<clipPath id="SVGID_130_">
				<use xlink:href="#SVGID_129_"  overflow="visible"/>
			</clipPath>
			<path clip-path="url(#SVGID_130_)" fill="#FFFFFF" d="M35.2,151.2c0,0-0.4-0.3-0.7-0.4c-0.4-0.1-0.8-0.3-1.1-0.7
				c0,0.2,0.1,0.3,0.2,0.4c0.1,0.1,0.2,0.2,0.4,0.3c0.2,0.2,0.5,0.3,0.7,0.5c0.4,0.3,0.5,0.8,0.6,1.3v0.1c-0.1,0-0.1,0-0.1-0.1
				c-0.1-0.1-0.1-0.2-0.2-0.3c-0.1-0.1-0.3-0.2-0.5-0.2c0.5,0.5,0.9,1,0.9,1.4c-0.3-0.1-0.4-0.4-0.7-0.3c0.3,0.1,0.5,0.3,0.7,0.6
				c0,0,0.3,0.1,0.5,0V148c-0.3,0.1-0.5,0.1-0.8-0.1c0.1,0.4,0.2,0.7,0.3,1.1c0,0.1,0.1,0.1,0,0.2c-0.1,0-0.1-0.1-0.1-0.1
				c-0.3-0.5-0.7-0.9-1.3-1c-0.3-0.1-0.7-0.2-0.9-0.6c0,0.1,0,0.2,0.1,0.3s0.3,0.2,0.4,0.3c0.4,0.3,0.8,0.5,1.1,0.8
				c0.4,0.3,0.6,0.7,0.8,1.1c-0.5-0.3-1-0.4-1.5-0.8c0,0.1,0.1,0.2,0.1,0.3c0.2,0.3,0.4,0.5,0.7,0.7s0.6,0.5,0.7,0.8
				C35.2,151.1,35.3,151.2,35.2,151.2"/>
		</g>
		<g>
			<defs>
				<rect id="SVGID_131_" width="70" height="225.5"/>
			</defs>
			<clipPath id="SVGID_132_">
				<use xlink:href="#SVGID_131_"  overflow="visible"/>
			</clipPath>
			<path clip-path="url(#SVGID_132_)" fill="#FFFFFF" d="M31.1,148.2c0.5,0.4,1,1,1.4,1.8c0.3,0.5,0.5,1.1,0.7,1.8
				c0.2,0.5,0.3,1,0.4,1.5c0,0.2,0.1,0.4,0.1,0.6c0.1,0,0.2,0,0.3,0c0.3,0,0.6,0,0.8,0c-0.1-0.2-0.3-0.4-0.8-0.5l0,0l0,0
				c0-0.1,0.1-0.3,0.3-0.4c0.1,0,0.1,0,0.2,0c0.1,0,0.1,0,0.2,0c0,0,0,0,0.1,0c-0.2-0.4-0.5-0.7-0.9-0.8l0,0l0,0
				c0.1-0.2,0.2-0.3,0.4-0.3c0.1,0,0.3,0.1,0.6,0.2c-0.1-0.2-0.3-0.4-0.5-0.6c-0.1-0.1-0.2-0.2-0.3-0.2c-0.1-0.1-0.3-0.2-0.4-0.3
				c-0.4-0.4-0.5-0.6-0.3-1.1v-0.1v0.1c0.1,0.1,0.1,0.2,0.2,0.2c0.1,0.1,0.3,0.2,0.5,0.3c-0.4-0.3-0.6-0.6-0.8-1.1
				c-0.1,0.2-0.2,0.5-0.3,0.7c0,0.1-0.1,0.3-0.1,0.4v-0.1v-0.1c0-0.2-0.1-0.4-0.1-0.7c0-0.1,0-0.2,0-0.3v-0.1
				c-0.1-0.6-0.6-1.1-1.1-1.1C31.3,147.9,31.2,148,31.1,148.2"/>
		</g>
		<g>
			<defs>
				<rect id="SVGID_133_" width="70" height="225.5"/>
			</defs>
			<clipPath id="SVGID_134_">
				<use xlink:href="#SVGID_133_"  overflow="visible"/>
			</clipPath>
			<path clip-path="url(#SVGID_134_)" fill="#FFFFFF" d="M37.5,154.1c0.1,0,0.1,0,0.2,0c0.1,0,0.1-0.1,0.1-0.1l0.1-0.2
				c0.3-1.1,0.5-2.2,1-3.3c0.3-0.6,0.6-1.3,1.2-1.9c0.1-0.1,0.2-0.2,0.4-0.3l0.1-0.1c-0.1-0.2-0.3-0.3-0.5-0.3
				c-0.6,0.1-1.2,0.7-1.2,1.3c0,0.1,0,0.2,0,0.2c0,0.2,0,0.4,0,0.6c0,0,0,0,0,0.1c0,0.1,0,0.2-0.1,0.3v0.1v-0.1
				c0-0.1-0.1-0.3-0.1-0.4c-0.1-0.3-0.1-0.5-0.2-0.8c0,0.2-0.1,0.3-0.2,0.5c-0.1,0.2-0.2,0.3-0.4,0.5c-0.1,0.1-0.2,0.1-0.3,0.2h0.1
				c0.4-0.1,0.7-0.5,0.7-0.5c0.3,0.6,0.3,0.6-0.2,1c-0.1,0.1-0.1,0.1-0.2,0.2l-0.1,0.1l-0.1,0.1c-0.1,0.1-0.2,0.2-0.3,0.3
				c-0.1,0.1-0.3,0.3-0.4,0.5l0,0c0.1-0.1,0.2-0.1,0.4-0.2c0.3-0.1,0.5,0.1,0.6,0.3l0,0l0,0c-0.5,0.2-0.8,0.5-0.9,0.8
				c0.1,0,0.1,0,0.2,0c0.3,0,0.4,0.1,0.5,0.4l0,0l0,0c-0.3,0-0.6,0.2-0.8,0.5c0.1,0,0.3,0,0.5,0.1C37.3,154.1,37.4,154.1,37.5,154.1
				"/>
		</g>
		<g>
			<defs>
				<rect id="SVGID_135_" width="70" height="225.5"/>
			</defs>
			<clipPath id="SVGID_136_">
				<use xlink:href="#SVGID_135_"  overflow="visible"/>
			</clipPath>
			<path clip-path="url(#SVGID_136_)" fill="#FFFFFF" d="M42,170.6c0-0.1-0.1-0.2-0.1-0.2c-0.3-0.5-0.6-0.9-0.8-1.4
				c-0.1-0.3-0.3-0.5-0.5-0.7c-0.6-0.5-1.1-1.2-1.3-2.1c-0.1-0.7-0.3-1.3-0.6-1.9c-0.1-0.3-0.2-0.5-0.3-0.8c0-0.2-0.1-0.5-0.1-0.7
				l0,0c0,0.1,0,0.1,0,0.2c-0.1,1.2,0.1,2.4,0.3,3.6c0.2,0.9,0.4,1.9,0.9,2.8c0.1,0.2,0.2,0.3,0.4,0.4C40.6,170,41.3,170.2,42,170.6
				L42,170.6"/>
		</g>
		<g>
			<defs>
				<rect id="SVGID_137_" width="70" height="225.5"/>
			</defs>
			<clipPath id="SVGID_138_">
				<use xlink:href="#SVGID_137_"  overflow="visible"/>
			</clipPath>
			<path clip-path="url(#SVGID_138_)" fill="#FFFFFF" d="M26.9,150.2c0.4,0.2,1,0,1.2-0.4c0.1-0.2,0.2-0.4,0.3-0.5c0,0.4,0,0.7,0,1
				s-0.1,0.6-0.4,0.7c0.1,0.1,0.2,0.1,0.3,0c0.2-0.1,0.4-0.2,0.5-0.4c0.1-0.1,0.1-0.2,0.2-0.3c0-0.1,0.1-0.2,0.2-0.2
				s0.1,0.1,0.1,0.2c0.2,0.6,0,1-0.5,1.3c0.1,0.1,0.1,0.1,0.2,0.1c0.2,0,0.3-0.1,0.4-0.2c0.3-0.4,0.5-0.8,0.4-1.3
				c0-0.1-0.1-0.3,0-0.4c0.1,0,0.2,0.1,0.2,0.1c0.1,0.1,0.2,0.2,0.3,0.3c0.2,0.1,0.4,0,0.5-0.2c-0.3,0-0.5-0.2-0.6-0.4
				c0.1,0,0.2,0,0.3,0c0.2,0.1,0.3,0.1,0.5,0.2c0.3,0,0.4-0.1,0.5-0.4l0,0c-0.5,0.1-1-0.3-1-0.8s0.3-0.9,0.7-1
				c0.4-0.1,0.8,0.1,1.1,0.3c0.2,0.1,0.3,0.3,0.4,0.4c-0.1-0.9-1.1-1.4-1.9-1c-0.1-0.1-0.2-0.1-0.3-0.1c-0.5,0-0.9,0.3-1.2,0.7
				c-0.1,0.1-0.2,0.1-0.2,0.1c-0.5-0.1-1,0.3-1.1,0.8c-0.1,0.4-0.3,0.7-0.5,0.9c-0.3,0.3-0.5,0.3-0.9,0
				C26.7,150,26.7,150.2,26.9,150.2"/>
		</g>
		<g>
			<defs>
				<rect id="SVGID_139_" width="70" height="225.5"/>
			</defs>
			<clipPath id="SVGID_140_">
				<use xlink:href="#SVGID_139_"  overflow="visible"/>
			</clipPath>
			<path clip-path="url(#SVGID_140_)" fill="#FFFFFF" d="M30,157.4c-0.7,0.8-1.3,1.7-1.7,2.6c-0.1,0.1-0.1,0.2,0,0.3
				c0.6,1.1,0.8,2.3,0.9,3.6c0.1,0.9,0.1,1.8,0,2.6c0,0.2,0,0.5-0.1,0.8c0.3-0.3,0.6-0.6,0.8-0.9c0.2-0.3,0.3-0.7,0.3-1.1
				c0-0.1,0-0.2-0.1-0.2c-0.2-0.3-0.3-0.6-0.4-0.9c0-0.1-0.1-0.2,0-0.2c0.1-0.1,0.2,0,0.2,0.1c0.1,0.3,0.3,0.5,0.5,0.8
				c0,0.1,0.1,0.1,0.2,0.1c0.3,0,0.6-0.1,0.7-0.4s0.1-0.6-0.1-0.9c-0.3,0.3-0.7,0.3-1-0.1c-0.1-0.1-0.2-0.2-0.2-0.3
				c-0.2-0.3-0.3-0.7-0.4-1c-0.2-0.6-0.3-1.2-0.5-1.8c-0.1-0.2-0.1-0.4,0-0.6c0.6-0.9,1.1-1.5,2.1-2.1c0.1-0.1,0.3-0.1,0.3-0.1
				c0.2,0.3,0.3,0.3,0.5,0c0.1-0.1,0.1-0.2,0-0.3c-0.1-0.1-0.2-0.2-0.3-0.1c-0.6,0.2-1,0.3-1.5,0.1C30,157.4,30,157.4,30,157.4"/>
		</g>
		<g>
			<defs>
				<rect id="SVGID_141_" width="70" height="225.5"/>
			</defs>
			<clipPath id="SVGID_142_">
				<use xlink:href="#SVGID_141_"  overflow="visible"/>
			</clipPath>
			<path clip-path="url(#SVGID_142_)" fill="#FFFFFF" d="M40.3,147.3c-0.6-0.1-1.1,0.3-1.4,0.9v0.1c0.1-0.1,0.2-0.2,0.3-0.3
				s0.3-0.2,0.4-0.3c0.7-0.4,1.3-0.1,1.5,0.7c0.1,0.4-0.1,0.9-0.5,1c-0.1,0.1-0.3,0-0.5,0c0.1,0.3,0.3,0.5,0.6,0.3
				c0.1,0,0.1-0.1,0.2-0.1c0.1,0,0.1,0,0.2,0c-0.1,0.2-0.4,0.2-0.6,0.3c0.1,0.1,0.2,0.2,0.4,0.2c0.1,0,0.2,0,0.4,0
				c0.3,0,0.3,0,0.4,0.3c0.1,0.3,0.1,0.7,0.3,0.9c0.1,0.1,0.2,0.3,0.4,0.3c0.1,0,0.2,0,0.3-0.1c-0.5-0.2-0.7-1.2-0.3-1.5
				c0.1,0.1,0.1,0.2,0.2,0.3c0.1,0.3,0.3,0.5,0.5,0.6c0.1,0.1,0.2,0.1,0.4,0c-0.3-0.1-0.3-0.4-0.3-0.6c-0.1-0.3,0-0.4,0.4-0.4
				c0.2,0,0.4,0.1,0.6,0.2c0.2,0.1,0.5,0.1,0.7-0.1c0.1-0.1,0.2-0.2,0.1-0.4c-0.2,0.2-0.4,0.2-0.7,0.1c-0.1,0-0.2-0.1-0.2-0.2
				c-0.3-0.3-0.4-0.6-0.5-0.9c-0.1-0.5-0.6-0.8-1.1-0.8c0,0-0.2-0.2-0.3-0.3c-0.3-0.3-0.7-0.7-1.1-0.4c0,0-0.2,0.1-0.1,0.1"/>
		</g>
	</g>
	<path fill="#FFFFFF" d="M35.1,146.8h0.1H35.1z"/>
	<g>
		<g>
			<defs>
				<rect id="SVGID_143_" width="70" height="225.5"/>
			</defs>
			<clipPath id="SVGID_144_">
				<use xlink:href="#SVGID_143_"  overflow="visible"/>
			</clipPath>
			<polyline clip-path="url(#SVGID_144_)" fill="#FFFFFF" points="38,146 38,146 37.9,146 38,145.9 38,146 			"/>
		</g>
		<g>
			<defs>
				<rect id="SVGID_145_" width="70" height="225.5"/>
			</defs>
			<clipPath id="SVGID_146_">
				<use xlink:href="#SVGID_145_"  overflow="visible"/>
			</clipPath>
			<path clip-path="url(#SVGID_146_)" fill="#FFFFFF" d="M37.5,146.2L37.5,146.2c0.1,0.2,0.2,0.3,0.2,0.5c0.1,0.3-0.1,0.6-0.2,0.8
				c0,0-0.1,0.1,0,0.2c0,0.1,0.1,0,0.2,0c0.2,0,0.4-0.2,0.4-0.4c0.1-0.2,0.1-0.5,0-0.7c0-0.2-0.1-0.3-0.1-0.5
				c0.6,0.4,1.4,0.5,1.7,0.1c-0.2,0-0.3,0-0.5-0.1c-0.1-0.1-0.2-0.2-0.4-0.3c-0.2-0.2-0.4-0.3-0.7-0.4c-0.1-0.1-0.1-0.1,0.1,0
				c0.2,0.1,0.3,0.1,0.6,0.1s0.6-0.1,0.8-0.3c0.1-0.2,0.2-0.4,0-0.6c-0.2,0.5-0.5,0.6-1,0.5c-0.1,0-0.2-0.1-0.4-0.1
				c-0.2-0.1-0.4-0.2-0.6-0.3c-0.6-0.3-1.3-0.4-1.9,0.1c-0.1,0.1-0.2,0.1-0.3,0c-0.6-0.5-1.5-0.5-2.1-0.1c-0.2,0.1-0.4,0.2-0.6,0.3
				c-0.3,0.1-0.6,0.1-0.8-0.1c-0.1-0.1-0.2-0.2-0.2-0.3c-0.2,0.2-0.2,0.5,0,0.7c0.3,0.3,0.7,0.3,1.1,0c0.1-0.1,0.1-0.1,0.2-0.1
				c0.1-0.1-0.2,0.2-0.4,0.5c-0.2,0.2-0.3,0.3-0.6,0.3c-0.2,0-0.4,0-0.6-0.2c0,0.2,0.2,0.3,0.4,0.4c0.2,0.1,0.4,0,0.5,0
				c-0.1,0.1-0.3,0.2-0.5,0.2c0.1,0.1,0.2,0.1,0.3,0.1c0.4,0,0.6-0.2,0.9-0.4c0.1-0.1,0.2-0.2,0.3-0.3v0.1c-0.1,0.5,0.1,0.9,0.3,1.4
				c0.1,0.2,0.3,0.3,0.5,0.3c-0.1-0.3-0.1-0.6-0.1-0.9s0.1-0.6,0.4-0.8c0,0.3,0,0.5,0,0.8c0.1,0.6,0.4,1,0.9,1.1c0.1,0,0.2,0,0.2,0
				c-0.3-0.2-0.4-0.5-0.4-0.9c0.1,0.1,0.1,0.2,0.2,0.3c0.2,0.2,0.5,0.3,0.7,0.2c0.3-0.1,0.4-0.3,0.4-0.6c0-0.1,0-0.3,0-0.4
				c0-0.1,0-0.1,0-0.2c0.2,0.2,0.3,0.5,0.3,0.8c0,0.3-0.1,0.6-0.5,0.8c0.2,0,0.3,0,0.3,0c0.3-0.1,0.5-0.4,0.7-0.6
				C37.5,146.8,37.6,146.5,37.5,146.2L37.5,146.2"/>
		</g>
		<g>
			<defs>
				<rect id="SVGID_147_" width="70" height="225.5"/>
			</defs>
			<clipPath id="SVGID_148_">
				<use xlink:href="#SVGID_147_"  overflow="visible"/>
			</clipPath>
			<path clip-path="url(#SVGID_148_)" fill="#FFFFFF" d="M25.2,155.6c0.1,0.7,0.1,1.4-0.1,2.1c-0.2,0.9-0.6,1.6-1,2.4
				c-0.4,0.7-0.7,1.5-0.9,2.3c-0.2,0.5-0.3,1.1-0.2,1.6c0.1,0.7,0.4,1.3,0.9,1.8c0.1,0.1,0.2,0.1,0.3,0.1c0.2-0.1,0.5-0.1,0.7-0.2
				c0.6-0.2,1.2-0.1,1.8,0.3c0.2,0.1,0.4,0.2,0.6,0.3c0.3,0.2,0.7,0.3,1,0.3s0.4-0.1,0.5-0.4c0-0.1,0-0.1-0.1-0.2s-0.2-0.1-0.4-0.2
				c-0.3-0.1-0.4-0.4-0.4-0.7c0-0.1,0-0.2,0-0.3s0-0.2,0-0.2c0-0.1,0-0.1-0.1-0.1s-0.1,0-0.1,0.1c-0.1,0.1-0.2,0.2-0.2,0.3
				c-0.2,0.2-0.4,0.3-0.7,0.4c-0.6,0.1-1.2,0-1.7-0.3c-0.6-0.3-0.9-0.7-1.1-1.3c-0.1-0.4-0.1-0.4,0.3-0.5c0.2-0.1,0.4-0.2,0.4-0.5
				c0-0.1,0-0.2,0-0.3c0-0.5,0-1,0.2-1.4c0.1-0.3,0.3-0.7,0.4-1c0.4-1,0.8-2,0.8-3.1c0.1-1.3-0.4-2.4-1.5-3.2
				c-0.4-0.3-0.8-0.3-1.2-0.2C24.6,153.8,25,154.6,25.2,155.6"/>
		</g>
		<g>
			<defs>
				<rect id="SVGID_149_" width="70" height="225.5"/>
			</defs>
			<clipPath id="SVGID_150_">
				<use xlink:href="#SVGID_149_"  overflow="visible"/>
			</clipPath>
			<path clip-path="url(#SVGID_150_)" fill="#FFFFFF" d="M36,160.5c-0.6,0-6.2,0.3-6.5,0.4c0.1,0.2,0.1,0.4,0.2,0.6
				c0.1,0.5,0.3,1.1,0.5,1.6c0.1,0.2,0.1,0.3,0.3,0.4c0.2,0.1,0.3,0.1,0.4-0.1c0.1-0.1,0.1-0.2,0.2-0.3c0.3,0.3,0.5,0.7,0.5,1.1
				s-0.2,0.8-0.5,1c-0.1,0-0.2,0.1-0.3,0.1c-0.2,0.1-0.3,0.2-0.3,0.4c0,0.4-0.1,0.7-0.4,1c-0.2,0.3-0.5,0.7-0.8,1
				c-0.1,0.1-0.2,0.3-0.2,0.5c0,0.1,0,0.2,0,0.3c-0.1,0.3-0.2,0.7-0.2,1c2.4-3.1,4.8-6.2,7.7-8.9"/>
		</g>
		<g>
			<defs>
				<rect id="SVGID_151_" width="70" height="225.5"/>
			</defs>
			<clipPath id="SVGID_152_">
				<use xlink:href="#SVGID_151_"  overflow="visible"/>
			</clipPath>
			<path clip-path="url(#SVGID_152_)" fill="#FFFFFF" d="M19.5,160.2c0.2-0.1,0.4-0.1,0.6-0.2c0.3-0.1,0.5-0.4,0.6-0.7
				s0-0.6-0.1-0.9c-0.1-0.3-0.2-0.5-0.2-0.8c0-0.1,0-0.3,0.1-0.3s0.1,0.1,0.2,0.2l0,0c0,0.6,0.4,0.9,0.9,1c0.1,0,0.1,0,0.1,0
				c0.2-0.3,0.5-0.5,0.5-0.9c0.1-0.5,0-0.9-0.3-1.2c-0.2-0.2-0.3-0.4-0.5-0.6c-0.2-0.2-0.3-0.5-0.2-0.7c0.1-1,0.9-1.8,1.9-2
				c0.1,0,0.2,0,0.3-0.1c-0.8-0.2-1.6,0-2.3,0.4c-0.8,0.5-1,1.1-2.4,1.6c-0.2,0.1-0.4,0.1-0.5,0.3c-0.4,0.3-0.8,0.7-0.9,1.2
				c0,0.5-0.1,0.9-0.1,1.4c0,0.1,0,0.1,0,0.2c0,0.1,0.1,0.1,0.1,0.2c0.3,0.1,0.6-0.1,0.7-0.3c0.1-0.1,0.1-0.3,0.2-0.4
				c0-0.1,0.1-0.2,0.2-0.3c0,0,0-0.1,0.1-0.1s0.1,0.1,0.1,0.1c0,0.1,0,0.3-0.1,0.4c-0.1,0.2-0.2,0.3-0.3,0.5c-0.3,0.5-0.4,1.1,0,1.6
				c0.1,0.2,0.3,0.5,0.4,0.7C19,160.3,19.2,160.2,19.5,160.2"/>
		</g>
		<g>
			<defs>
				<rect id="SVGID_153_" width="70" height="225.5"/>
			</defs>
			<clipPath id="SVGID_154_">
				<use xlink:href="#SVGID_153_"  overflow="visible"/>
			</clipPath>
			<path clip-path="url(#SVGID_154_)" fill="#FFFFFF" d="M50.2,158.8L50.2,158.8c-0.3-0.3-0.3-0.6-0.2-0.9c0.1-0.2,0.2-0.5,0.3-0.7
				c0.4-1.2,0-2.3-1.2-2.9c-1.1-0.5-2.1-0.4-3.1,0.2c0,0,0,0-0.1,0l0,0c0.1,0,0.1,0,0.2-0.1c0.6-0.2,1.2-0.2,1.8-0.1
				c0.6,0.1,1.1,0.4,1.3,1c0.3,0.7,0.1,1.6-0.6,2.1c-0.2,0.2-0.5,0.3-0.7,0.5c-0.6,0.4-0.7,0.8-0.6,1.5c0.1,0.5,0.3,0.8,0.3,1.4
				c0-0.3,0.5,0,0.7,0c0.4,0,0.6-0.1,0.9-0.4c0.2-0.2,0.3-0.5,0.1-0.8c0-0.1,0-0.2-0.1-0.2v-0.1c0.1,0,0.1,0,0.1,0
				c0.1,0.1,0.2,0.3,0.2,0.4c0,0.3,0.1,0.6,0.2,0.9c0.3,0.7,0.9,1.3,1.9,1.1c0.2,0,0.4,0,0.6,0c0.1,0,0.2,0,0.3,0.1
				c0.1,0,0.1,0.1,0.2,0.1c0-0.3,0-0.7,0-1c0-0.4-0.2-0.7-0.6-0.9c-0.2-0.1-0.4-0.2-0.6-0.3c-0.1-0.1-0.2-0.2-0.2-0.4
				c0-0.2,0-0.3,0.2-0.3c0.1,0,0.2,0,0.3,0.1c0.4,0.1,0.5,0.1,0.6-0.3v-0.1c0.1-0.2,0-0.5,0.3-0.7c-0.1,0-0.1,0-0.2-0.1
				c-0.3-0.1-0.5-0.2-0.6-0.5s-0.3-0.3-0.6-0.2c-0.2,0-0.3,0.1-0.5,0.2s-0.3,0.2-0.5,0.3c-0.1,0-0.2,0.1-0.3,0.3
				C50.1,158.3,50.1,158.5,50.2,158.8L50.2,158.8"/>
		</g>
		<g>
			<defs>
				<rect id="SVGID_155_" width="70" height="225.5"/>
			</defs>
			<clipPath id="SVGID_156_">
				<use xlink:href="#SVGID_155_"  overflow="visible"/>
			</clipPath>
			<path clip-path="url(#SVGID_156_)" fill="#FFFFFF" d="M48.7,182.9c-0.1,0.1-0.2,0.3-0.1,0.5c0,0.2,0.1,0.3,0.1,0.5
				c0.1,0.2,0,0.4-0.1,0.6s-0.3,0.2-0.4,0c-0.1-0.1-0.1-0.2-0.2-0.3c-0.2-0.3-0.6-0.3-0.9-0.1c-0.2,0.1-0.3,0.3-0.3,0.5
				c-0.1,0.3-0.1,0.5-0.2,0.8c0,0.2-0.1,0.3-0.3,0.4S46,186,46,186c0.2,0.1,0.3,0.3,0.4,0.6c0,0.1,0.1,0.2,0.1,0.3s0.1,0.2,0.2,0.3
				c0.4,0.2,0.8,0.3,1.2,0l0,0c0,0,0.1-0.1,0.1,0v0.1c0,0.2-0.2,0.4-0.4,0.4c-0.2,0.1-0.3,0.1-0.5,0.1c-0.4,0.1-0.7,0.3-0.7,0.7
				c-0.1,0.4,0,0.8,0.1,1.2c0,0.1,0,0.1,0.1,0.1c0.3-0.1,0.7,0,1,0c0.6-0.1,1.1-0.3,1.2-1.2v-0.1c0-0.6,0.3-0.9,0.8-1.1
				c0.1,0,0.2-0.1,0.3-0.1c0.3-0.1,0.6-0.2,0.9-0.3c0.1,0,0.2-0.1,0.3-0.2c0.3-0.4,0.6-0.7,0.8-1.1c0,0,0.1-0.1,0.1-0.2
				c-0.1,0.1-0.2,0.2-0.3,0.2c-0.2,0.1-0.4,0.1-0.5,0.1c-0.6-0.2-0.9-0.8-0.6-1.3c0.1-0.2,0.2-0.4,0.3-0.6c0.2-0.3,0.2-0.7,0.1-1
				c-0.1-0.4-0.3-0.6-0.7-0.8c-0.2-0.1-0.5-0.2-0.7-0.4C49.3,182.1,49,182.5,48.7,182.9"/>
		</g>
		<g>
			<defs>
				<rect id="SVGID_157_" width="70" height="225.5"/>
			</defs>
			<clipPath id="SVGID_158_">
				<use xlink:href="#SVGID_157_"  overflow="visible"/>
			</clipPath>
			<path clip-path="url(#SVGID_158_)" fill="#FFFFFF" d="M19.4,180.7c-0.2,0.2-0.5,0.4-0.6,0.7c-0.1,0.3-0.1,0.6,0.1,0.9
				c0.1,0.2,0.3,0.3,0.4,0.5c0.2,0.2,0.3,0.5,0.4,0.8c0.1,0.6-0.2,1-0.8,1.1c-0.9,0.1-1.6-0.1-2.2-0.7c-0.2-0.3-0.4-0.5-0.6-0.8
				c0,0,0-0.1-0.1-0.1c0,0,0-0.1-0.1-0.1c0.2,0.7,0.5,1.3,1,1.8c0.4,0.5,0.9,0.8,1.5,1c0.3,0.1,0.7,0.2,1.1,0.2c0.2,0,0.4,0,0.7,0.1
				l0,0c-0.2,0.1-0.2,0.1,0,0.3c0.2,0.2,0.3,0.4,0.4,0.7c0.1,0.2,0.1,0.4,0.1,0.7c0,0.3,0.1,0.5,0.2,0.7c0.2,0.3,0.5,0.5,0.9,0.6
				c0.3,0.1,0.6,0.2,0.9,0.3c0,0,0.1,0.1,0.2,0c0-0.3,0.1-0.5,0.2-0.8c0.1-0.2,0.2-0.3,0.3-0.5c0.3-0.6,0-1.2-0.7-1.4
				c-0.2,0-0.4-0.1-0.6-0.2c-0.1,0-0.3-0.1-0.4-0.2c0-0.1-0.1-0.1,0-0.2c0.1-0.1,0.1,0,0.2,0c0,0,0.1,0,0.1,0.1
				c0.4,0.3,0.8,0.2,1.1-0.2c0.4-0.4,0.4-0.8,0.4-1.3c0-0.3,0-0.5,0.1-0.8c0-0.1,0.1-0.2,0.1-0.3c-0.1-0.1-0.2-0.1-0.3-0.1
				c-0.3-0.1-0.5-0.4-0.7-0.6c-0.3-0.2-0.4-0.2-0.6,0c-0.1,0.1-0.2,0.2-0.3,0.3c-0.1,0.1-0.3,0-0.4-0.1c-0.1-0.1-0.1-0.2,0-0.4
				c0.1-0.1,0.2-0.2,0.2-0.3c0.2-0.3,0.2-0.5,0.2-0.9c-0.1-0.5-0.3-0.8-0.7-1c-0.2-0.2-0.5-0.4-0.6-0.7
				C20,180.3,19.7,180.5,19.4,180.7"/>
		</g>
		<g>
			<defs>
				<rect id="SVGID_159_" width="70" height="225.5"/>
			</defs>
			<clipPath id="SVGID_160_">
				<use xlink:href="#SVGID_159_"  overflow="visible"/>
			</clipPath>
			<path clip-path="url(#SVGID_160_)" fill="#FFFFFF" d="M23.9,166.8c0-0.1-0.1-0.2-0.1-0.3c0-0.2-0.1-0.4-0.3-0.5
				c-0.4-0.3-0.8-0.7-0.9-1.2c-0.2-0.7-0.1-1.5,0-2.2c0.2-0.8,0.6-1.6,1-2.4c0.4-0.8,0.8-1.7,1.1-2.6c0.3-1,0.3-2-0.1-2.9
				c-0.3-0.6-0.5-1-1.2-1.1c-0.5-0.1-1,0-1.3,0.5c-0.1,0.1-0.3,0.4-0.3,0.4c0.4-0.2,0.7-0.1,1,0.1c0.2,0.2,0.4,0.4,0.5,0.7
				c0.4,0.9,0.3,1.7-0.2,2.6c-0.2,0.3-0.3,0.6-0.4,0.9c0,0.1-0.1,0.2-0.1,0.3s-0.1,0.1-0.2,0.1s-0.1-0.1,0-0.2
				c0.1-0.2,0.1-0.4,0.2-0.5c0.1-0.3,0.1-0.2-0.1-0.3c-0.1,0.1-0.2,0.3-0.3,0.4c-0.1,0.1-0.1,0.2-0.2,0.3c-0.2,0.3-0.3,0.3-0.6,0.2
				c-0.1,0-0.3,0-0.3,0.1c0,0.1,0,0.2,0,0.3c-0.1,0.5,0.1,0.8,0.2,1.3c0,0.2,0,0.3-0.1,0.5c-0.1,0.1-0.1,0.2-0.2,0.2
				s-0.1-0.2-0.1-0.2c0-0.3,0-0.5-0.2-0.7c-0.2-0.2-0.6-0.1-0.7-0.1s-0.2,0.2-0.3,0.3c-0.1,0.4-0.2,0.6-0.4,1
				c-0.2,0.5-0.1,0.9,0.2,1.3c0.1,0.2,0.2,0.3,0.3,0.5c0.1,0.2,0.2,0.4,0.1,0.6c0,0.1,0,0.1-0.1,0.2c-0.1-0.1-0.1-0.2-0.1-0.2
				c-0.1-0.4-0.3-0.7-0.7-0.8c-0.1,0-0.2,0-0.2,0.1c-0.1,0.4-0.2,0.7-0.3,1.1c-0.1,0.8,0.3,1.5,1.1,1.7c0.1,0,0.2,0.1,0.2,0.1
				c0.1,0,0.2,0.1,0.2,0.2s-0.1,0.1-0.2,0.1c-0.3,0-0.6,0.4-0.5,0.7c0.1,0.2,0.3,0.3,0.5,0.4s0.2,0,0.2-0.2c0-0.1,0-0.2,0-0.4
				c0-0.1,0-0.2,0.1-0.2c0.3-0.1,0.5-0.3,0.7-0.5c0.1-0.1,0.2-0.1,0.3-0.2c0.4-0.1,0.7-0.1,1.1,0c0.4,0.1,0.7,0.3,1.1,0.5
				C23.6,166.6,23.7,166.8,23.9,166.8L23.9,166.8"/>
		</g>
		<g>
			<defs>
				<rect id="SVGID_161_" width="70" height="225.5"/>
			</defs>
			<clipPath id="SVGID_162_">
				<use xlink:href="#SVGID_161_"  overflow="visible"/>
			</clipPath>
			<path clip-path="url(#SVGID_162_)" fill="#FFFFFF" d="M38.5,168.3c-0.4-1.3-0.5-2.6-0.6-4s0-2.7,0.2-4.1c0.1-0.4,0.1-0.7,0.2-1.1
				l0,0c-0.1,0.1-0.1,0.1-0.2,0.1c-1.6,1.6-3.1,3.3-4.6,4.9c-1.7,1.9-3.3,3.8-4.8,5.8l-0.1,0.1h0.1c0.8-0.2,1.7-0.4,2.5-0.6
				c1.1-0.2,2.3-0.3,3.5-0.3s2.4,0.2,3.6,0.3c0.2,0,0.5,0.1,0.7,0.1C38.8,169.2,38.7,168.8,38.5,168.3 M32.1,168.5
				c-0.3,0-0.6-0.2-0.6-0.6c0-0.3,0.2-0.5,0.6-0.6c0.3,0,0.6,0.2,0.6,0.6C32.6,168.3,32.4,168.5,32.1,168.5 M33.2,167.1
				c-0.3,0-0.6-0.2-0.6-0.6c0-0.3,0.2-0.6,0.6-0.6c0.3,0,0.6,0.3,0.6,0.6C33.8,166.8,33.5,167.1,33.2,167.1 M34.5,165.7
				c-0.3,0-0.6-0.2-0.6-0.5s0.2-0.6,0.6-0.6c0.3,0,0.6,0.2,0.6,0.5C35,165.4,34.8,165.7,34.5,165.7 M35.6,164.3
				c-0.3,0-0.6-0.2-0.6-0.6c0-0.3,0.3-0.6,0.6-0.6s0.6,0.2,0.6,0.6C36.1,164.1,35.9,164.3,35.6,164.3 M36.6,163.1
				c-0.3,0-0.6-0.3-0.5-0.6c0-0.3,0.3-0.5,0.6-0.5s0.5,0.3,0.5,0.6C37.2,162.8,36.9,163.1,36.6,163.1"/>
		</g>
		<g>
			<defs>
				<rect id="SVGID_163_" width="70" height="225.5"/>
			</defs>
			<clipPath id="SVGID_164_">
				<use xlink:href="#SVGID_163_"  overflow="visible"/>
			</clipPath>
			<path clip-path="url(#SVGID_164_)" fill="#FFFFFF" d="M28.2,169.3c-0.6,0.3-1.3,0.6-2,0.8c-0.8,0.2-1.7,0.4-2.5,0.6
				c-1.7,0.5-2.8,1.4-4,2.8c-0.7,0.8-1.2,1.8-1.7,2.7c-0.2,0.3-0.4,0.7-0.5,1c-0.5,1.3-0.7,2.7-0.7,4.1c0,0.6,0.1,1.2,0.3,1.8
				c0.2,0.4,0.4,0.8,0.9,1c0.1,0.1,0.2,0.1,0.3,0.1c-0.4-0.6-0.6-1.2-0.7-1.7c-0.1-1,0.1-1.9,0.5-2.8c0.3-0.5,0.6-1,0.9-1.5
				c0.4-0.7,0.8-1.4,0.9-2.2c0.1-0.3,0.1-0.7,0.3-1c0-0.1,0.1-0.2,0.2-0.2c0.1,0.1,0,0.2,0,0.2c0,0.2-0.1,0.4-0.1,0.7
				c-0.1,0.4-0.1,0.8,0.1,1.2c0.1,0.2,0.1,0.3,0.2,0.5c0,0.1,0.1,0.1,0.2,0.1c0.5-0.2,0.9-0.5,1.1-1c0.2-0.4,0.3-0.8,0.4-1.3
				c0-0.4,0-0.9,0.1-1.3c0-0.2,0.1-0.4,0.2-0.5c0-0.1,0.1-0.1,0.2-0.1s0.1,0.1,0.1,0.2c0,0.1,0,0.2,0,0.3c0,0.3,0,0.6,0,0.9
				c0,0.5,0.2,0.9,0.7,1.1c0.1,0,0.2,0.1,0.3,0.2c0.3,0.2,0.5,0.2,0.7,0c0.2-0.2,0.4-0.3,0.6-0.5c0.2-0.2,0.4-0.5,0.4-0.8
				c0-1.1,0-2,0-3.1v-0.4c4.5,0,3.1,0,3.5,0c0.1,0,0.2-0.1,0.3-0.1c0.2-0.3,0.2-0.3,0.5-0.6c0.1-0.1,0.2-0.2,0.3-0.3
				c-0.8,0.2-1.6,0.3-2.4,0.6C28,170.3,28.2,169.8,28.2,169.3C28.3,169.3,28.3,169.3,28.2,169.3"/>
		</g>
		<g>
			<defs>
				<rect id="SVGID_165_" width="70" height="225.5"/>
			</defs>
			<clipPath id="SVGID_166_">
				<use xlink:href="#SVGID_165_"  overflow="visible"/>
			</clipPath>
			<path clip-path="url(#SVGID_166_)" fill="#FFFFFF" d="M16.1,175.2c-0.2,0.2-0.3,0.3-0.5,0.4c-0.3,0.2-0.5,0.4-0.7,0.7
				c-0.4,0.7-0.5,1.5-0.4,2.3c0.1,0.3,0.1,0.5,0.2,0.8c0,0.1,0,0.1,0.2,0.1c0.2-0.1,0.3-0.1,0.5-0.2s0.4-0.2,0.5-0.5
				c0.1-0.1,0.1-0.2,0.2-0.3c0-0.1,0-0.1,0.1-0.1c0.1,0.1,0.1,0.2,0.1,0.3c0,0.1-0.1,0.3-0.2,0.4c-0.1,0.2-0.2,0.4-0.3,0.6
				c-0.2,1.1-0.1,2.1,0.5,3c0.2,0.3,0.4,0.5,0.6,0.8c0,0,0,0,0-0.1v-0.1c-0.3-0.6-0.4-1.2-0.4-1.8c-0.1-1.1,0.1-2.2,0.4-3.3
				c0.7-2.1,1.8-4,3.3-5.7c1-1.1,2.2-1.8,3.6-2.2c1-0.3,1.9-0.5,2.9-0.7c0.6-0.1,1.2-0.3,1.7-0.7c0.1-0.1,0.1-0.1,0.2-0.2
				c0.1-0.4,0.1-0.8,0.2-1.2c0-0.2,0.1-0.4,0.1-0.6c-0.1,0-0.2,0.1-0.3,0.1c-0.5,0.1-0.9,0-1.3-0.2c-0.3-0.2-0.6-0.3-0.9-0.5
				c-0.4-0.3-0.7-0.4-1-0.3c-0.3,0-0.6,0.1-0.9,0.2s-0.3,0.1-0.2,0.4c0.1,0.5,0.6,1,1,1c0.1,0,0.2,0,0.4,0c0.1,0,0.2,0,0.2,0.1
				s-0.1,0.1-0.2,0.2c-0.2,0.1-0.5,0.1-0.7,0c-0.4-0.1-0.8-0.3-1.1-0.6c-0.3-0.3-0.7-0.6-1.1-0.8c-0.4-0.2-0.7-0.3-1.1-0.2
				s-0.7,0.4-1.1,0.6c-0.1,0-0.1,0.1,0,0.2c0.1,0.3,0.2,0.5,0.3,0.7c0.2,0.2,0.4,0.3,0.6,0.3c0.1,0,0.1,0,0.2,0s0.2,0,0.2,0.1
				c0,0.1-0.1,0.1-0.1,0.1c-0.1,0-0.2,0-0.3,0c-0.4,0-0.8-0.1-1.2-0.2c-0.9-0.2-1.7,0-2.5,0.5c-0.6,0.5-1,1.1-1.1,1.9
				c0,0.1,0,0.2,0.1,0.2c0.3,0.1,0.6,0.1,0.9,0c0.1-0.1,0.2,0,0.4-0.1c0.1,0,0.1,0,0.2,0c0,0.1-0.1,0.2-0.2,0.3
				c-0.2,0.1-0.4,0.2-0.5,0.2c-0.6,0.1-1.1,0.4-1.6,0.7c-0.3,0.2-0.5,0.5-0.6,0.8c0,0.2-0.1,0.3-0.1,0.5c-0.1,0.4-0.2,0.8-0.6,1.1
				c-0.1,0.1-0.1,0.2-0.1,0.3c0,0.3,0.1,0.6,0.2,1c0.2-0.1,0.3-0.1,0.5-0.1c0.4-0.1,0.7-0.2,1-0.5c0.1-0.1,0.2-0.1,0.3-0.1
				C16.3,175,16.2,175.1,16.1,175.2"/>
		</g>
		<g>
			<defs>
				<rect id="SVGID_167_" width="70" height="225.5"/>
			</defs>
			<clipPath id="SVGID_168_">
				<use xlink:href="#SVGID_167_"  overflow="visible"/>
			</clipPath>
			<polyline clip-path="url(#SVGID_168_)" fill="#FFFFFF" points="32.6,196 32.6,196 32.6,196 32.6,196 			"/>
		</g>
		<g>
			<defs>
				<rect id="SVGID_169_" width="70" height="225.5"/>
			</defs>
			<clipPath id="SVGID_170_">
				<use xlink:href="#SVGID_169_"  overflow="visible"/>
			</clipPath>
			<polyline clip-path="url(#SVGID_170_)" fill="#FFFFFF" points="32.6,196 32.6,196 32.6,196 32.6,196 			"/>
		</g>
	</g>
	<polygon fill="#FFFFFF" points="35.2,171.6 28.8,171.6 35.2,178 	"/>
	<g>
		<g>
			<defs>
				<rect id="SVGID_171_" width="70" height="225.5"/>
			</defs>
			<clipPath id="SVGID_172_">
				<use xlink:href="#SVGID_171_"  overflow="visible"/>
			</clipPath>
			<path clip-path="url(#SVGID_172_)" fill="#FFFFFF" d="M35.7,178.4c1.7,1.7,3.5,3.5,4,4.1h4.9v-10.9h-9L35.7,178.4z"/>
		</g>
		<g>
			<defs>
				<rect id="SVGID_173_" width="70" height="225.5"/>
			</defs>
			<clipPath id="SVGID_174_">
				<use xlink:href="#SVGID_173_"  overflow="visible"/>
			</clipPath>
			<path clip-path="url(#SVGID_174_)" fill="#FFFFFF" d="M32.3,183h-6.1c0,0,0,0,0,0.1c0,0.8,0.1,1.6,0.2,2.3c0.3,1.5,0.9,2.9,2,4
				c0.7,0.8,1.6,1.4,2.5,2c1.1,0.7,2.2,1.2,3.4,1.7c0.3,0.1,0.6,0.3,0.9,0.4c0-0.1,0-0.1,0-0.1c0-2.5,0-4.9,0-7.4
				c0-0.1,0-0.1-0.1-0.2C34.1,184.9,33.2,184,32.3,183"/>
		</g>
		<g>
			<defs>
				<rect id="SVGID_175_" width="70" height="225.5"/>
			</defs>
			<clipPath id="SVGID_176_">
				<use xlink:href="#SVGID_175_"  overflow="visible"/>
			</clipPath>
			<path clip-path="url(#SVGID_176_)" fill="#FFFFFF" d="M41,196.2c0-0.1-0.1-0.1-0.2-0.2c-0.3-0.2-0.6-0.1-0.7,0.3
				c0,0.2,0,0.3,0,0.5c0.2-0.1,0.5-0.2,0.7-0.2C41.1,196.5,41.2,196.4,41,196.2"/>
		</g>
		<g>
			<defs>
				<rect id="SVGID_177_" width="70" height="225.5"/>
			</defs>
			<clipPath id="SVGID_178_">
				<use xlink:href="#SVGID_177_"  overflow="visible"/>
			</clipPath>
			<path clip-path="url(#SVGID_178_)" fill="#FFFFFF" d="M33.3,196.8c-0.2,0.1-0.3,0.2-0.3,0.4c0,0.2,0.1,0.4,0.2,0.4
				c0.2,0.1,0.4,0,0.5-0.1c-0.1-0.2-0.1-0.4-0.2-0.6C33.5,196.8,33.5,196.8,33.3,196.8"/>
		</g>
		<g>
			<defs>
				<rect id="SVGID_179_" width="70" height="225.5"/>
			</defs>
			<clipPath id="SVGID_180_">
				<use xlink:href="#SVGID_179_"  overflow="visible"/>
			</clipPath>
			<path clip-path="url(#SVGID_180_)" fill="#FFFFFF" d="M31.1,196.3c-0.2-0.1-0.5,0.1-0.5,0.3c0,0.4,0,0.8,0,1.2c0,0,0,0,0.1,0
				c0.1-0.1,0.3-0.2,0.5-0.1c0.2,0.1,0.3,0,0.3-0.2c0-0.3,0-0.6-0.1-0.9C31.3,196.4,31.2,196.3,31.1,196.3"/>
		</g>
		<g>
			<defs>
				<rect id="SVGID_181_" width="70" height="225.5"/>
			</defs>
			<clipPath id="SVGID_182_">
				<use xlink:href="#SVGID_181_"  overflow="visible"/>
			</clipPath>
			<path clip-path="url(#SVGID_182_)" fill="#FFFFFF" d="M42.7,196.4c0.1,0.1,0.2,0.1,0.3,0.2c0.1,0,0.2,0.1,0.3,0.1
				c0.4,0.2,0.4,0.6,0.2,0.9c-0.2,0.2-0.4,0.2-0.6,0.3c-0.4,0.1-0.7,0-1.1-0.2c0.1-0.1,0.2-0.2,0.3-0.4c0.1,0.1,0.3,0.2,0.4,0.3
				c0.2,0.1,0.4,0.1,0.5-0.1c0.1-0.2,0.1-0.4-0.2-0.5c-0.1-0.1-0.3-0.1-0.4-0.2c-0.2-0.1-0.4-0.3-0.4-0.6c0-0.3,0.2-0.5,0.5-0.6
				c0.4-0.1,0.8,0,1.2,0.1c-0.1,0.1-0.2,0.2-0.3,0.3c-0.1-0.1-0.3-0.2-0.4-0.3c-0.1-0.1-0.3-0.1-0.4,0
				C42.6,196.1,42.6,196.3,42.7,196.4 M41.7,197.6c-0.1,0.2-0.3,0.2-0.5,0.3c-0.3,0.1-0.6,0.1-0.9,0c-0.9-0.2-1-1.1-0.6-1.6
				c0.3-0.5,1-0.7,1.5-0.5c0.3,0.1,0.4,0.3,0.5,0.6c-0.5,0.1-0.9,0.5-1.5,0.5c0,0.4,0.4,0.8,0.8,0.8
				C41.3,197.7,41.5,197.7,41.7,197.6C41.7,197.6,41.8,197.6,41.7,197.6C41.8,197.6,41.8,197.6,41.7,197.6 M39,198.1
				c-0.1,0.1-0.2,0-0.3,0c-0.2-0.2-0.4-0.4-0.5-0.6c-0.2-0.2-0.3-0.4-0.5-0.6v0.8c0,0.1,0,0.1,0.1,0.1s0.2,0,0.3,0
				c-0.1,0.1-0.1,0.1-0.2,0.1c-0.3,0-0.7,0-1,0c0.2-0.2,0.2-0.4,0.2-0.5v-2.5c-0.1,0-0.2,0-0.4,0c0.1-0.1,0.3-0.2,0.5-0.2
				c0.3,0,0.5,0,0.8,0c-0.2,0.2-0.2,0.4-0.2,0.5c0,0.5,0,0.9,0,1.4v0.2c0.3-0.2,0.6-0.3,0.8-0.5c-0.1-0.1-0.2-0.2-0.3-0.3
				c0.2-0.2,0.4-0.3,0.6-0.4c0.1,0.1,0.3,0.2,0.4,0.3c-0.3,0.3-0.6,0.5-0.9,0.7c0.4,0.4,0.7,0.9,1.1,1.3
				C39.3,198,39.2,198.1,39,198.1 M36.5,196.2L36.5,196.2c-0.2,0-0.3,0-0.4,0c-0.2,0.1-0.3,0.2-0.3,0.4c0,0.3,0,0.6,0,0.9
				c0,0.2,0,0.2,0.2,0.2c0.1,0,0.2,0,0.3,0c-0.1,0.1-0.1,0.1-0.2,0.1c-0.3,0-0.6,0-0.9,0H35c0.1-0.6,0-1.2,0.1-1.7
				c-0.2,0-0.3-0.1-0.5-0.1c0.4-0.3,0.8-0.1,1.3-0.2c-0.1,0.1-0.1,0.2-0.1,0.4c0.3-0.3,0.6-0.4,1-0.4
				C36.7,195.9,36.6,196.1,36.5,196.2 M33.8,197.6c-0.3,0.3-0.7,0.4-1,0.3c-0.2,0-0.4-0.1-0.4-0.3c-0.1-0.2-0.1-0.4,0.1-0.6
				c0.1-0.2,0.3-0.3,0.5-0.3c0.2-0.1,0.4-0.1,0.6-0.2c-0.1-0.4-0.3-0.6-0.7-0.6h-0.1c0.3-0.2,0.7-0.2,1.1-0.1c0.2,0,0.3,0.2,0.3,0.4
				c0.1,0.2,0.1,0.4,0.2,0.6c0.1,0.4,0.2,0.7,0.4,1C34.4,198,34.1,197.9,33.8,197.6 M31.7,197.6c-0.3,0.2-0.6,0.3-0.9,0.3
				c-0.1,0-0.1,0-0.2,0c0,0.3,0,0.7,0,1c0,0.1,0,0.2-0.1,0.2c-0.2,0.1-0.3,0.2-0.5,0.2c0-0.3,0-0.6,0-0.9c0-0.7,0-1.5,0-2.2
				c0-0.2,0-0.2-0.2-0.2c-0.1,0-0.1,0-0.2,0c0.1-0.1,0.2-0.1,0.3-0.1c0.3,0,0.5,0,0.8,0v0.3c0.1-0.1,0.2-0.2,0.3-0.2
				c0.4-0.3,0.9-0.1,1.1,0.3C32.2,196.7,32.1,197.3,31.7,197.6 M28.9,197.8c-0.3,0.2-0.6,0.2-0.9,0.2c-0.4,0-0.8-0.1-1.1-0.3
				c0.1-0.1,0.2-0.3,0.4-0.4c0.2,0.1,0.3,0.3,0.5,0.4c0.3,0.2,0.6,0.1,0.8-0.1c0.2-0.2,0.1-0.5-0.1-0.8c-0.1-0.1-0.3-0.2-0.4-0.2
				c-0.2-0.1-0.3-0.2-0.4-0.2c-0.6-0.4-0.6-1.1,0-1.5c0.4-0.3,0.8-0.2,1.3-0.2c0.1,0,0.3,0.1,0.4,0.2c-0.1,0.1-0.2,0.1-0.3,0.2
				c-0.1,0-0.1,0-0.1,0c-0.2-0.2-0.4-0.2-0.7-0.1c-0.2,0.1-0.3,0.2-0.3,0.4c0,0.2,0,0.4,0.2,0.5c0.2,0.1,0.3,0.2,0.5,0.3
				c0.2,0.1,0.3,0.2,0.5,0.3C29.6,196.7,29.5,197.5,28.9,197.8 M54.4,198.3L54.4,198.3c-1.1-2.1-2.1-4.1-2.8-6.3
				c0-0.1,0-0.1-0.1-0.2v-0.1c-0.1-0.2-0.7-0.7-1.6-0.6c-0.9,0.1-1.8,0.8-1.9,1.2c0,0.3,0.6,1.1,0.6,1.1l0,0l0.1,0.1
				c0,0,1-0.2,1.5-0.6c-0.3-0.6-0.3-0.6-0.4-1.1c-0.3,0.4-0.7,0.5-1,0.6c0-0.1-0.1-0.2-0.1-0.2c0.1-0.4,0.8-0.8,1.7-0.8
				c1.1,0,1,0.8,1,1.1c-0.3,1.1-2.6,1.5-2.4,1.5c-0.9,0.2-1.7,0.2-2.6,0.1c-0.5-0.1-0.9-0.3-1.2-0.7c-0.4-0.5-0.3-1.1,0.1-1.5
				c0,0,0,0,0-0.1c-0.4-0.1-0.8,0-1.2,0c-0.8,0.2-1.6,0.5-2.4,0.9c-0.8,0.4-1.5,0.7-2.4,0.9c-0.9,0.2-1.8,0.2-2.7-0.1
				c-0.1,0-0.1,0-0.2,0c-0.3,0.1-0.5,0.2-0.8,0.3c-0.1,0.1-0.2,0.1-0.4,0c-0.2-0.1-0.4-0.2-0.6-0.3c-0.3-0.1-0.3-0.2-0.5-0.1
				c-0.1,0-0.3,0.1-0.4,0.1c-1.1,0.2-2.2,0.1-3.2-0.2c-0.6-0.2-1.2-0.5-1.8-0.8c-0.8-0.3-1.5-0.7-2.3-0.8c-0.3,0-0.6,0-0.8,0
				c0.7,0.6,0.4,1.6-0.3,2c-0.1,0.1-0.3,0.1-0.4,0.2c-0.4,0.1-0.7,0.1-1.1,0.1c-0.5,0-1.1,0-1.6-0.1h-0.1c0,0-2.5-0.5-2.5-1.7
				c0-0.1,0-0.8,1.1-0.8c0,0,1.2-0.1,1.5,0.8c0,0.1-0.1,0.2-0.1,0.3c-0.3,0-1-0.5-1-0.5s-0.2,0.4-0.4,1c0.4,0.4,1.5,0.6,1.5,0.6
				l0.1-0.3c0.1-0.2,0.5-0.7,0.5-0.9c0.1-0.5-0.9-1.2-1.8-1.3c-0.3,0-0.6,0-0.9,0.1c-0.5,0.1-0.8,0.5-0.9,1c0,0.1-0.1,0.3-0.1,0.4
				c-0.5,2-1.4,3.8-2.5,5.6l-0.1,0.2c0,0,0.1,0.2,0.2,0.2l0.1,0.1c0.6,0.6,1.3,1,2.1,1.2c1.2,0.3,2.4,0.2,3.7,0.1c1-0.1,2-0.4,3-0.6
				c0.7-0.2,1.4-0.3,2.1-0.2c0.4,0.1,0.7,0.2,1,0.5c0.3,0.3,0.4,0.7,0.1,1.1c0,0,0,0,0,0.1c0.1,0,0.1,0,0.2,0
				c0.8-0.1,1.5-0.3,2.1-0.7c0.7-0.4,1.5-0.6,2.3-0.5c0.6,0.1,1.2,0.3,1.6,0.8c0.1,0.2,0.3,0.4,0.4,0.6c0.1,0.2,0.2,0.5,0.4,0.8
				c0-0.1,0.1-0.1,0.1-0.2c0.2-0.4,0.3-0.7,0.6-1.1c0.3-0.5,0.7-0.8,1.3-0.9c1-0.2,1.9-0.1,2.7,0.4c0.3,0.2,0.7,0.3,1,0.5
				c0.4,0.1,0.9,0.2,1.3,0.3c-0.3-0.5-0.3-0.9,0.2-1.3c0.1-0.1,0.2-0.1,0.2-0.1c0.3-0.1,0.6-0.2,0.9-0.2c0.6,0,1.2,0.1,1.8,0.2
				c1.4,0.3,2.8,0.7,4.3,0.7c0.9,0,1.7,0,2.5-0.2s1.4-0.6,2-1.2l0,0l0.1-0.1C54.4,198.6,54.5,198.4,54.4,198.3
				C54.5,198.4,54.5,198.4,54.4,198.3"/>
		</g>
	</g>
</g>
</svg>
