<?xml version="1.0" encoding="utf-8"?>
<!-- Generator: Adobe Illustrator 19.2.1, SVG Export Plug-In . SVG Version: 6.00 Build 0)  -->
<svg version="1.1" id="twitter" xmlns="http://www.w3.org/2000/svg" xmlns:xlink="http://www.w3.org/1999/xlink" x="0px" y="0px"
	 viewBox="0 0 100 100" style="enable-background:new 0 0 100 100;" xml:space="preserve">
<style type="text/css">
	.st0{fill:#FFFFFF;}
</style>
<path class="st0" d="M99.1,19.4c-3.7,1.6-7.5,2.7-11.7,3.3c4.1-2.6,7.4-6.5,9-11.2c-4,2.3-8.2,4-12.9,5c-3.7-4-9-6.4-14.8-6.4
	c-11.2,0-20.3,9.1-20.3,20.5c0,1.6,0.1,3.1,0.6,4.7c-16.9-0.9-31.8-9-41.8-21.3c-1.7,3-2.7,6.5-2.7,10.2c0,7.1,3.6,13.4,9.1,17.1
	c-3.3-0.1-6.4-1-9.2-2.6c0,0.1,0,0.1,0,0.3c0,9.9,7,18.2,16.3,20c-1.7,0.4-3.6,0.7-5.4,0.7c-1.3,0-2.6-0.1-3.8-0.4
	c2.6,8.1,10.1,14.1,18.9,14.2c-7,5.5-15.6,8.7-25.2,8.7c-1.7,0-3.3-0.1-4.8-0.3c9,5.8,19.6,9.2,31.1,9.2C68.9,91.1,89.2,60,89.2,33
	c0-0.9,0-1.7,0-2.7C93,27.1,96.4,23.5,99.1,19.4z"/>
</svg>
