<?xml version="1.0" encoding="utf-8"?>
<!-- Generator: Adobe Illustrator 19.2.1, SVG Export Plug-In . SVG Version: 6.00 Build 0)  -->
<svg version="1.1" id="instagram" xmlns="http://www.w3.org/2000/svg" xmlns:xlink="http://www.w3.org/1999/xlink" x="0px" y="0px"
	 viewBox="0 0 100 100" style="enable-background:new 0 0 100 100;" xml:space="preserve">
<style type="text/css">
	.st0{fill:#FFFFFF;}
</style>
<path class="st0" d="M88.9,0H11.2C5.1,0,0.3,4.9,0.3,11v78c0,6,4.9,11,10.9,11H89c6,0,10.9-4.9,10.9-11V11C100,4.9,95,0,88.9,0z
	 M50,30.7c10.6,0,19.1,8.6,19.1,19.1c0,10.6-8.6,19.1-19.1,19.1s-19-8.6-19-19.1S39.4,30.7,50,30.7z M88.2,84.2c0,2.2-1.7,4-4,4
	H15.8c-2.2,0-4-1.7-4-4V42.3h8.6c-0.6,2.4-0.9,4.9-0.9,7.5c0,16.9,13.8,30.7,30.6,30.7s30.6-13.8,30.6-30.7c0-2.6-0.3-5-0.9-7.5h8.5
	L88.2,84.2L88.2,84.2z M88.5,26.7c0,2.2-1.7,4-4,4H73.1c-2.2,0-4-1.7-4-4V15.4c0-2.2,1.7-4,4-4h11.3c2.2,0,4,1.7,4,4L88.5,26.7
	L88.5,26.7z"/>
</svg>
