<?xml version="1.0" encoding="utf-8"?>
<!-- Generator: Adobe Illustrator 19.2.0, SVG Export Plug-In . SVG Version: 6.00 Build 0)  -->
<svg version="1.1" id="Layer_1" xmlns="http://www.w3.org/2000/svg" xmlns:xlink="http://www.w3.org/1999/xlink" x="0px" y="0px"
	 viewBox="0 0 70 352.5" style="enable-background:new 0 0 70 352.5;" xml:space="preserve">
<style type="text/css">
	.st0{fill:#CF202F;}
	.st1{clip-path:url(#SVGID_2_);fill:#FFFFFF;}
	.st2{clip-path:url(#SVGID_4_);fill:#FFFFFF;}
	.st3{clip-path:url(#SVGID_6_);fill:#FFFFFF;}
	.st4{clip-path:url(#SVGID_8_);fill:#FFFFFF;}
	.st5{clip-path:url(#SVGID_10_);fill:#FFFFFF;}
	.st6{clip-path:url(#SVGID_12_);fill:#FFFFFF;}
	.st7{clip-path:url(#SVGID_14_);fill:#FFFFFF;}
	.st8{clip-path:url(#SVGID_16_);fill:#FFFFFF;}
	.st9{fill:#FFFFFF;}
	.st10{clip-path:url(#SVGID_18_);fill:#FFFFFF;}
	.st11{clip-path:url(#SVGID_20_);fill:#FFFFFF;}
	.st12{clip-path:url(#SVGID_22_);fill:#FFFFFF;}
	.st13{clip-path:url(#SVGID_24_);fill:#FFFFFF;}
	.st14{clip-path:url(#SVGID_26_);fill:#FFFFFF;}
	.st15{clip-path:url(#SVGID_28_);fill:#FFFFFF;}
	.st16{clip-path:url(#SVGID_30_);fill:#FFFFFF;}
	.st17{clip-path:url(#SVGID_32_);fill:#FFFFFF;}
	.st18{clip-path:url(#SVGID_34_);fill:#FFFFFF;}
	.st19{clip-path:url(#SVGID_36_);fill:#FFFFFF;}
	.st20{clip-path:url(#SVGID_38_);fill:#FFFFFF;}
	.st21{clip-path:url(#SVGID_40_);fill:#FFFFFF;}
	.st22{clip-path:url(#SVGID_42_);fill:#FFFFFF;}
	.st23{clip-path:url(#SVGID_44_);fill:#FFFFFF;}
	.st24{clip-path:url(#SVGID_46_);fill:#FFFFFF;}
	.st25{clip-path:url(#SVGID_48_);fill:#FFFFFF;}
	.st26{clip-path:url(#SVGID_50_);fill:#FFFFFF;}
	.st27{clip-path:url(#SVGID_52_);fill:#FFFFFF;}
	.st28{clip-path:url(#SVGID_54_);fill:#FFFFFF;}
	.st29{clip-path:url(#SVGID_56_);fill:#FFFFFF;}
	.st30{clip-path:url(#SVGID_58_);fill:#FFFFFF;}
	.st31{clip-path:url(#SVGID_60_);fill:#FFFFFF;}
	.st32{clip-path:url(#SVGID_62_);fill:#FFFFFF;}
	.st33{clip-path:url(#SVGID_64_);fill:#FFFFFF;}
	.st34{clip-path:url(#SVGID_66_);fill:#FFFFFF;}
	.st35{clip-path:url(#SVGID_68_);fill:#FFFFFF;}
	.st36{clip-path:url(#SVGID_70_);fill:#FFFFFF;}
	.st37{clip-path:url(#SVGID_72_);fill:#FFFFFF;}
	.st38{clip-path:url(#SVGID_74_);fill:#FFFFFF;}
	.st39{clip-path:url(#SVGID_76_);fill:#FFFFFF;}
	.st40{clip-path:url(#SVGID_78_);fill:#FFFFFF;}
	.st41{clip-path:url(#SVGID_80_);fill:#FFFFFF;}
	.st42{clip-path:url(#SVGID_82_);fill:#FFFFFF;}
	.st43{clip-path:url(#SVGID_84_);fill:#FFFFFF;}
	.st44{clip-path:url(#SVGID_86_);fill:#FFFFFF;}
	.st45{clip-path:url(#SVGID_88_);fill:#FFFFFF;}
	.st46{clip-path:url(#SVGID_90_);fill:#FFFFFF;}
	.st47{clip-path:url(#SVGID_92_);fill:#FFFFFF;}
	.st48{clip-path:url(#SVGID_94_);fill:#FFFFFF;}
	.st49{clip-path:url(#SVGID_96_);fill:#FFFFFF;}
	.st50{clip-path:url(#SVGID_98_);fill:#FFFFFF;}
	.st51{clip-path:url(#SVGID_100_);fill:#FFFFFF;}
	.st52{clip-path:url(#SVGID_102_);fill:#FFFFFF;}
	.st53{clip-path:url(#SVGID_104_);fill:#FFFFFF;}
	.st54{clip-path:url(#SVGID_106_);fill:#FFFFFF;}
	.st55{clip-path:url(#SVGID_108_);fill:#FFFFFF;}
	.st56{clip-path:url(#SVGID_110_);fill:#FFFFFF;}
	.st57{clip-path:url(#SVGID_112_);fill:#FFFFFF;}
	.st58{clip-path:url(#SVGID_114_);fill:#FFFFFF;}
	.st59{clip-path:url(#SVGID_116_);fill:#FFFFFF;}
	.st60{clip-path:url(#SVGID_118_);fill:#FFFFFF;}
	.st61{clip-path:url(#SVGID_120_);fill:#FFFFFF;}
	.st62{clip-path:url(#SVGID_122_);fill:#FFFFFF;}
	.st63{clip-path:url(#SVGID_124_);fill:#FFFFFF;}
	.st64{clip-path:url(#SVGID_126_);fill:#FFFFFF;}
	.st65{clip-path:url(#SVGID_128_);fill:#FFFFFF;}
	.st66{clip-path:url(#SVGID_130_);fill:#FFFFFF;}
	.st67{clip-path:url(#SVGID_132_);fill:#FFFFFF;}
	.st68{clip-path:url(#SVGID_134_);fill:#FFFFFF;}
	.st69{clip-path:url(#SVGID_136_);fill:#FFFFFF;}
	.st70{clip-path:url(#SVGID_138_);fill:#FFFFFF;}
	.st71{clip-path:url(#SVGID_140_);fill:#FFFFFF;}
	.st72{clip-path:url(#SVGID_142_);fill:#FFFFFF;}
	.st73{clip-path:url(#SVGID_144_);fill:#FFFFFF;}
	.st74{clip-path:url(#SVGID_146_);fill:#FFFFFF;}
	.st75{clip-path:url(#SVGID_148_);fill:#FFFFFF;}
	.st76{clip-path:url(#SVGID_150_);fill:#FFFFFF;}
	.st77{clip-path:url(#SVGID_152_);fill:#FFFFFF;}
	.st78{clip-path:url(#SVGID_154_);fill:#FFFFFF;}
	.st79{clip-path:url(#SVGID_156_);fill:#FFFFFF;}
	.st80{clip-path:url(#SVGID_158_);fill:#FFFFFF;}
	.st81{clip-path:url(#SVGID_160_);fill:#FFFFFF;}
	.st82{clip-path:url(#SVGID_162_);fill:#FFFFFF;}
	.st83{clip-path:url(#SVGID_164_);fill:#FFFFFF;}
	.st84{clip-path:url(#SVGID_166_);fill:#FFFFFF;}
	.st85{clip-path:url(#SVGID_168_);fill:#FFFFFF;}
	.st86{clip-path:url(#SVGID_170_);fill:#FFFFFF;}
	.st87{clip-path:url(#SVGID_172_);fill:#FFFFFF;}
	.st88{clip-path:url(#SVGID_174_);fill:#FFFFFF;}
	.st89{clip-path:url(#SVGID_176_);fill:#FFFFFF;}
	.st90{clip-path:url(#SVGID_178_);fill:#FFFFFF;}
	.st91{clip-path:url(#SVGID_180_);fill:#FFFFFF;}
	.st92{clip-path:url(#SVGID_182_);fill:#FFFFFF;}
</style>
<g>
	<polygon class="st0" points="6.4,0 6.4,343.5 34.9,333.5 63.8,343.5 63.8,0 	"/>
	<path class="st0" d="M64.8,0.2V345l-29.9-10.2L5.3,345.1V0.2H0v352.3l35-11.7l35,11.7V0.2H64.8z"/>
	<g>
		<g>
			<g>
				<defs>
					<rect id="SVGID_1_" y="0.2" width="70" height="352.3"/>
				</defs>
				<clipPath id="SVGID_2_">
					<use xlink:href="#SVGID_1_"  style="overflow:visible;"/>
				</clipPath>
				<path class="st1" d="M35.6,313.4v7.1c1.6-0.7,3.2-1.4,4.7-2.4C38.8,316.6,37.2,315,35.6,313.4"/>
			</g>
		</g>
		<g>
			<g>
				<defs>
					<rect id="SVGID_3_" y="0.2" width="70" height="352.3"/>
				</defs>
				<clipPath id="SVGID_4_">
					<use xlink:href="#SVGID_3_"  style="overflow:visible;"/>
				</clipPath>
				<path class="st2" d="M31.8,309.5c-1.8-1.8-3.7-3.8-5.6-5.7v5.7H31.8z"/>
			</g>
		</g>
		<g>
			<g>
				<defs>
					<rect id="SVGID_5_" y="0.2" width="70" height="352.3"/>
				</defs>
				<clipPath id="SVGID_6_">
					<use xlink:href="#SVGID_5_"  style="overflow:visible;"/>
				</clipPath>
				<path class="st3" d="M40.2,310c1.4,1.3,2.7,2.6,4,3.9c0.3-0.6,0.5-2.7,0.5-3.9H40.2z"/>
			</g>
		</g>
		<g>
			<g>
				<defs>
					<rect id="SVGID_7_" y="0.2" width="70" height="352.3"/>
				</defs>
				<clipPath id="SVGID_8_">
					<use xlink:href="#SVGID_7_"  style="overflow:visible;"/>
				</clipPath>
				<path class="st4" d="M22,321L22,321L22,321z"/>
			</g>
		</g>
		<g>
			<g>
				<defs>
					<rect id="SVGID_9_" y="0.2" width="70" height="352.3"/>
				</defs>
				<clipPath id="SVGID_10_">
					<use xlink:href="#SVGID_9_"  style="overflow:visible;"/>
				</clipPath>
				<path class="st5" d="M54.9,304.1c-0.2-0.1-0.4-0.3-0.7-0.4s-0.6-0.2-0.8-0.4c-0.3-0.2-0.5-0.4-0.5-0.8c0-0.1,0-0.2,0.1-0.2
					s0.1,0.1,0.2,0.2c0,0,0,0.1,0.1,0.1c0.1,0.2,0.3,0.3,0.4,0.4c0.3,0.2,0.6,0.3,1,0.3c0.2,0,0.4,0,0.6-0.1c-0.3-0.5-0.5-1-0.7-1.5
					c-0.1-0.4-0.3-0.9-0.5-1.3c-0.4-0.6-1-1-1.7-1.1c-0.3,0-0.5-0.1-0.7-0.3c-0.1,0-0.1-0.1-0.2-0.2c0,0-0.1-0.1,0-0.2h0.1
					c0.1,0,0.1,0,0.2,0.1c0.4,0.3,0.9,0.2,1.2,0c0.2-0.2,0.3-0.2,0.2-0.5c-0.3-0.8-0.9-1.3-1.7-1.6c-0.6-0.2-1.3-0.3-1.9-0.3
					c-0.2,0-0.4-0.1-0.6-0.2c-0.1,0-0.1-0.1-0.1-0.2c0.1,0,0.3,0,0.4,0.1c0.6,0.2,1.1,0,1.4-0.5c0-0.1,0.1-0.1,0.1-0.2
					c-0.2-0.1-0.4-0.2-0.5-0.3c-0.5-0.5-1.2-0.6-1.8-0.5c-0.5,0.1-0.9,0.2-1.4,0.2c-0.9,0.1-1.6-0.1-2.3-0.7
					c-0.1-0.1-0.1-0.2-0.2-0.2c-0.1-0.2,0-0.3,0.2-0.3s0.4,0.1,0.5,0.3c0.1,0.1,0.1,0.2,0.2,0.2c0.4,0.2,0.8,0.3,1.2,0.3
					c0.7,0.1,1.4-0.1,2-0.4c0.3-0.1,0.5-0.3,0.5-0.7c0-0.1,0-0.3,0.1-0.4c0.1-0.1,0.1-0.2-0.1-0.2c-0.2,0-0.4,0-0.6,0
					c-0.2,0-0.4,0.1-0.6,0c-0.1,0-0.2-0.1-0.2-0.2c0-0.1,0.1-0.1,0.2-0.1c0.2,0,0.4,0,0.6,0c0.2,0,0.4-0.1,0.6-0.2
					c0.5-0.4,0.7-0.9,0.7-1.6c0-0.4-0.2-0.8-0.3-1.1s-0.1-0.3-0.4-0.2c-0.4,0.1-0.5,0.3-0.5,0.7c0,0.1,0,0.2,0,0.3
					c0,0.2-0.2,0.3-0.4,0.3c-0.1,0-0.2-0.1-0.3-0.3c0-0.2,0-0.5,0.1-0.7s0.3-0.4,0.4-0.6c0.1-0.1,0.2-0.2,0.2-0.4
					c0.1-0.2,0-0.4-0.2-0.5c-0.1,0-0.3,0-0.4,0c-0.2,0-0.4,0.1-0.6,0.2c0-0.4-0.1-0.7-0.2-1.1c-0.1-0.2-0.1-0.4-0.2-0.6
					c-0.2-0.6-0.1-1.1,0.3-1.6c0.1-0.1,0.2-0.2,0.3-0.4c0.1-0.1,0.1-0.2,0-0.3s-0.2-0.3-0.4-0.3l0,0c-0.4,0.3-0.7,0.6-0.7,1.1
					c0,0.1,0,0.2-0.1,0.4c0,0.1-0.1,0.1-0.1,0.1c-0.1,0-0.1-0.1-0.1-0.1v-0.1c0-0.4,0-0.7,0-1.1c0-0.5,0.1-0.9,0.3-1.3
					c0.3-0.5,0.7-0.9,1.3-0.9c0.1,0,0.2,0,0.3-0.1c0.1,0,0.2,0,0.2-0.1s-0.1-0.1-0.1-0.1c-0.1,0-0.2-0.1-0.2-0.1
					c-0.8-0.2-1.5-0.1-2.3,0.1c-0.6,0.2-1,0.5-1.2,1.1c-0.6,1.4-0.5,2.8,0.3,4.2c0.2,0.4,0.5,0.8,0.7,1.2c0.3,0.6,0.4,1.2,0.3,1.9
					c-0.1,0.5-0.4,0.9-0.9,1c-0.4,0.1-0.7,0-1-0.2c-0.5-0.3-0.9-0.8-1.1-1.4c-0.2-0.6-0.4-1.1-0.5-1.7c-0.2-0.8-0.4-1.6-0.7-2.3
					c-0.2-0.4-0.4-0.7-0.6-1.1c-0.2,0.2-0.4,0.1-0.7,0c-0.1-0.1-0.2-0.1-0.2-0.2c-0.1-0.1-0.2-0.2-0.3-0.2c-0.2,0-0.4-0.1-0.6-0.1
					c0,0.3,0,0.5-0.1,0.8c-0.1,1.1-0.3,2.1-0.3,3.2c0,0.7-0.1,1.4,0.1,2.1c0.1,0.5,0.3,0.9,0.6,1.3c0.2-0.3,0.2-0.7,0.4-1
					c0.1,0.2,0,0.4,0,0.5c-0.1,0.5-0.2,1.1-0.1,1.6c0.1,0.7,0.3,1.4,0.9,1.8c0,0,0.1,0.1,0.2,0.1c0.2-0.4,0.3-0.9,0.4-1.3
					c0,0.2,0,0.3,0.1,0.5c0,0.2,0,0.4,0,0.6c0.2,1.3,0.7,2.5,1.6,3.5c0.1,0.1,0.2,0.1,0.3,0.1c0.6,0,1.2,0,1.8,0
					c0.2,0,0.2,0.1,0.2,0.3v0.1v3.7c0,0.4,0.1,0.4,0.5,0.4c0.4-0.1,0.7-0.1,1.1,0c0.1,0,0.2,0,0.2-0.1c0.1-0.4,0.2-0.7,0.1-1
					c-0.1-0.2,0-0.4-0.1-0.5c-0.1-0.2-0.1-0.3-0.1-0.5c0.1-0.2,0.3,0,0.4,0.1c0.2,0.2,0.3,0.4,0.4,0.7c0.1,0.4,0.1,0.9,0.2,1.4
					c0,0.5,0.2,0.8,0.6,1.1c0.2,0.1,0.4,0.3,0.6,0.6c0.3-0.3,0.5-0.6,0.5-1c0-0.1,0-0.2,0.1-0.4c0.1,0,0.2,0.1,0.2,0.2
					c0.1,0.2,0,0.5,0,0.7c-0.1,0.6-0.1,1.1,0.2,1.6c0.4,0.6,1,0.9,1.6,1.3c0.1-0.3,0.1-0.6,0.1-1c0-0.1-0.1-0.2,0-0.3
					c0,0,0-0.1,0.1-0.1c0,0,0.1,0,0.1,0.1c0.1,0.1,0.1,0.3,0.1,0.5c0,0.4,0.1,0.8,0.3,1.2c0.4,0.9,0.7,1.9,0.8,2.9
					c0.1,0.8,0,1.6-0.4,2.4c-0.1,0.3-0.3,0.5-0.5,0.8c0.1-0.1,0.3-0.1,0.4-0.2c1.9-1.1,2.4-2.9,2.1-4.8c-0.1-0.4-0.3-0.8-0.4-1.2
					c-0.1-0.3,0-0.6,0.2-0.9c0.2,0.7,0.7,0.9,1.3,1.1c0.1-0.4,0.2-0.8,0.3-1.3C56,305.2,55.7,304.5,54.9,304.1 M53.6,310.6
					c0-0.1,0-0.2,0-0.4c0.1-2.2-0.6-4.5-1.8-6.5c-0.4-0.8-1-1.5-1.7-2.1c-1.2-1.2-2.5-2.2-3.7-3.4c-1-0.9-2-1.8-2.9-2.8
					c-1-1.2-1.4-2.6-1.7-4.1c-0.3-1.8-0.5-3.5-0.9-5.2c-0.1-0.3-0.1-0.5-0.2-0.8c0.4,0.6,0.6,1.3,0.7,2.1c0.3,1.2,0.5,2.4,0.7,3.7
					c0.3,2,1.1,3.7,2.6,5.1c1.3,1.3,2.7,2.5,4.1,3.7c1.2,1,2.4,2.1,3.2,3.4c0.7,1.1,1.1,2.4,1.4,3.6c0.2,0.9,0.3,1.8,0.3,2.7
					C53.8,309.9,53.7,310.2,53.6,310.6"/>
			</g>
		</g>
		<g>
			<g>
				<defs>
					<rect id="SVGID_11_" y="0.2" width="70" height="352.3"/>
				</defs>
				<clipPath id="SVGID_12_">
					<use xlink:href="#SVGID_11_"  style="overflow:visible;"/>
				</clipPath>
				<path class="st6" d="M43.7,314.1c0,0.1-0.1,0.3-0.1,0.5c-0.1-0.4-0.3-0.7-0.4-1.1c-0.1-0.1-0.2-0.2-0.3-0.3
					c0,0.1-0.2,0.4-0.2,0.4l-0.5,0.1c0.1-0.2,0.1-0.3,0.2-0.5c0.1,0,0.3-0.1,0.4-0.2c-0.3-0.3-0.5-0.5-0.8-0.8
					c-1.1-1.1-2.2-2.2-3.3-3.3l-0.1-0.1c-0.1,0.2-0.2,0.5-0.2,0.5s-0.3-0.8-0.4-1c0-0.1-0.1-0.1-0.1-0.2c-0.1-0.1-0.2-0.2-0.3-0.3
					c-0.1,0.1-0.1,0.3-0.2,0.4c-0.2,0.1-0.3,0.1-0.5,0.2c0.1-0.1,0.1-0.3,0.2-0.4c0,0,0-0.1,0.1-0.1s0.2-0.1,0.3-0.1
					c-1.4-1.4-2.8-2.8-4.2-4.2c-0.1,0.2-0.1,0.3-0.2,0.5c-0.2-0.4-0.3-0.8-0.5-1.2c-0.1-0.1-0.1-0.1-0.2-0.2
					c-0.1,0.1-0.1,0.3-0.2,0.4c-0.1,0.1-0.3,0.1-0.5,0.2c0.1-0.2,0.1-0.3,0.2-0.5c0.1-0.1,0.3-0.1,0.4-0.2l0,0c-0.5-0.5-1-1-1.5-1.5
					s-1-1-1.5-1.6c-0.3-0.3-0.6-0.6-1-1H28c0,0.1-0.1,0.2-0.1,0.4c-0.1-0.1-0.1-0.2-0.2-0.4h-1.5c0,0.5,0,1,0,1
					c0.2,0.1,0.4,0.2,0.7,0.3c-0.1,0-0.2,0.1-0.3,0.1c0.1,0.1,0.7,1.1,0.7,1.1l-1-0.6c0,0.1,0,0.1,0,0.2c0,0.6,0,2.4,0,2.7
					c0.1,0.1,0.1,0.1,0.1,0.2c0.1-0.2,0.2-0.5,0.2-0.5l0.5-0.2l-0.2,0.5c0,0-0.3,0.1-0.5,0.2c0.9,0.8,1.7,1.7,2.6,2.6l0.1-0.3
					c0.1,0,0.5-0.2,0.5-0.2l0,0c0,0-0.1,0.4-0.1,0.5c-0.1,0.1-0.2,0.1-0.3,0.1c0.2,0.2,0.3,0.3,0.4,0.4c0.1,0.1,0.1,0.1,0.2,0.1
					c0,0,0.1,0,0.1,0.1c0.1,0.1,0.3,0.1,0.5,0.2c-0.1,0-0.2,0.1-0.3,0.1c1.4,1.4,2.7,2.8,4.1,4.1c0-0.1,0.1-0.2,0.1-0.3
					c0.2-0.1,0.3-0.1,0.5-0.2l-0.1,0.5c0,0-0.3,0.1-0.4,0.2c0.1,0.1,0.2,0.2,0.3,0.3c0.1,0.1,0.1,0.1,0.2,0.2c0,0,0.1,0,0.1,0.1
					c0.1,0,0.2,0.1,0.3,0.1s0.2,0.1,0.3,0.1c-0.1,0-0.1,0-0.2,0c-0.1,0-0.1,0-0.2,0.1c0.7,0.7,1.3,1.4,2,2.1s1.4,1.4,2,2
					c0-0.1,0.1-0.2,0.1-0.3l0.5-0.2c-0.1,0.2-0.1,0.4-0.2,0.5c-0.1,0-0.2,0.1-0.3,0.1c0.1,0.1,0.2,0.2,0.2,0.2
					c0.1,0.1,0.1,0.2,0.2,0.2c0.1,0,0.8,0.3,0.9,0.4c-0.1,0.1-0.2,0.1-0.4,0.1c0.1,0.1,0.3,0.3,0.4,0.4c0.5-0.3,1.6-1.1,1.7-1.4
					c-0.2-0.1-0.5-0.3-0.7-0.5c0,0.1-0.1,0.2-0.1,0.4c0-0.1-0.6-1.5-0.6-1.5l0,0l0,0l0,0l0,0c0,0,1.4,0.6,1.5,0.6
					c-0.1,0-0.2,0.1-0.3,0.1c0.1,0.1,0.3,0.5,0.5,0.7c0.7-0.7,1-1.2,1.3-1.9C43.9,314.3,43.7,314.2,43.7,314.1 M39.5,310.7
					c0,0,0.4-0.2,0.5-0.2c-0.1,0.2-0.1,0.3-0.2,0.5c-0.2,0.1-0.3,0.1-0.5,0.2C39.4,311,39.5,310.9,39.5,310.7 M39.1,310.7
					c0.1,0.1,0.1,0.3,0.2,0.5c-0.2-0.1-0.3-0.1-0.5-0.2c-0.1-0.2-0.1-0.3-0.2-0.5C38.8,310.6,39,310.7,39.1,310.7 M38.8,311.5
					c0.2-0.1,0.3-0.1,0.5-0.2l-0.2,0.5c0,0-0.4,0.1-0.5,0.2C38.6,311.8,38.7,311.6,38.8,311.5 M38.2,312.3c-0.1,0.2-0.1,0.4-0.2,0.5
					c-0.2,0-0.3,0.1-0.5,0.2c0.1-0.2,0.1-0.3,0.2-0.5C37.9,312.5,38,312.4,38.2,312.3 M36.6,308.9L36.6,308.9L36.6,308.9
					C36.6,309,36.6,309,36.6,308.9L36.6,308.9c-0.1,0.2-0.1,0.3-0.2,0.5c-0.2,0.1-0.3,0.1-0.5,0.2c0.1-0.2,0.1-0.3,0.2-0.5
					C36.3,309.1,36.4,309,36.6,308.9C36.6,309,36.6,308.9,36.6,308.9 M34.4,305.6c0,0,0.4-0.1,0.5-0.2c-0.1,0.1-0.2,0.5-0.2,0.5
					l-0.5,0.2C34.2,306,34.4,305.6,34.4,305.6 M33.9,305.6c0.1,0.2,0.1,0.3,0.2,0.5c-0.2-0.1-0.3-0.1-0.5-0.2
					c-0.1-0.2-0.2-0.5-0.2-0.5S33.9,305.5,33.9,305.6 M33.6,306.3c0.2-0.1,0.3-0.1,0.5-0.2c-0.1,0.2-0.1,0.3-0.2,0.5
					c-0.1,0.1-0.3,0.1-0.5,0.2C33.5,306.6,33.6,306.4,33.6,306.3 M33.1,307.2c-0.1,0.2-0.1,0.3-0.2,0.5c-0.2,0.1-0.3,0.1-0.5,0.2
					c0-0.2,0.2-0.5,0.2-0.5S33,307.2,33.1,307.2 M31.4,303.7c-0.1,0.2-0.1,0.5-0.1,0.5l-0.5,0.2l0,0l0,0l0,0l0,0l0,0l0,0l0,0l0,0
					l0,0l0,0c0.1-0.2,0.1-0.3,0.2-0.5C31.1,303.9,31.2,303.8,31.4,303.7 M29.2,300.4c0,0,0.4-0.1,0.5-0.2c-0.1,0.2-0.2,0.5-0.2,0.5
					s-0.3,0.1-0.5,0.2C29,300.8,29.2,300.4,29.2,300.4 M28.8,300.4l0.1,0.5l0,0l0,0l0,0l0,0l-0.5-0.2l-0.2-0.5L28.8,300.4z
					 M28.9,301L28.9,301L28.9,301L28.9,301L28.9,301L28.9,301c-0.1,0.2-0.2,0.5-0.2,0.5l-0.5,0.2l0.2-0.4
					C28.4,301.2,28.9,301,28.9,301L28.9,301L28.9,301L28.9,301 M27.3,302.2l0.5-0.2l-0.2,0.5l-0.5,0.2L27.3,302.2z M26.5,302.6
					l-0.1-0.6l0.5,0.2c0,0,0.1,0.3,0.2,0.5C27,302.7,26.5,302.6,26.5,302.6 M29,304.7L29,304.7L29,304.7c-0.2-0.1-1.1-0.7-1.1-0.7
					s-0.1,0.2-0.1,0.3c-0.1-0.2-0.6-1.5-0.6-1.5c0.1,0,1.3,0.6,1.4,0.6l0,0l-0.3,0.1C28.3,303.5,28.8,304.3,29,304.7L29,304.7
					 M29.7,302.1c0,0-0.1,0.2-0.1,0.3l-0.6-1.5c0,0,1.4,0.6,1.5,0.7c-0.1,0-0.3,0.1-0.3,0.1s0.6,1,0.7,1.2
					C30.8,302.8,29.7,302.1,29.7,302.1 M30.4,305c-0.1,0.1-0.3,0.1-0.5,0.2c0.1-0.2,0.2-0.5,0.2-0.5s0.4-0.1,0.5-0.2
					C30.5,304.7,30.5,304.9,30.4,305 M30.2,304.3C30.1,304.3,30.1,304.3,30.2,304.3c-0.1-0.2-0.2-0.4-0.2-0.5
					c0.2,0.1,0.3,0.1,0.5,0.2c0.1,0.2,0.1,0.3,0.2,0.5C30.5,304.4,30.3,304.3,30.2,304.3 M31.3,306.1c-0.1-0.2-0.6-1.5-0.7-1.6
					c0.1,0.1,1.5,0.7,1.5,0.7l-0.4,0.1c0,0,0.5,0.8,0.7,1.1c-0.4-0.2-0.8-0.5-1.1-0.7C31.4,305.7,31.3,306,31.3,306.1 M32.1,308.5
					c-0.1,0.1-0.3,0.1-0.5,0.2c0.1-0.2,0.1-0.3,0.2-0.5c0.2-0.1,0.3-0.1,0.5-0.2C32.2,308.2,32.1,308.3,32.1,308.5 M31.8,307.7
					c-0.1-0.1-0.1-0.3-0.2-0.5c0.2,0.1,0.3,0.1,0.5,0.2c0.1,0.2,0.1,0.3,0.2,0.5C32.1,307.9,32,307.8,31.8,307.7 M34.2,309.9
					c-0.4-0.2-0.8-0.5-1.1-0.7c0,0.1-0.1,0.2-0.1,0.3c-0.1-0.3-0.2-0.5-0.3-0.8c-0.1-0.2-0.2-0.5-0.3-0.8c0.1,0,0.2,0.1,0.2,0.1
					c0.2,0.1,0.5,0.2,0.8,0.4c0.2,0.1,0.3,0.2,0.5,0.2c-0.1,0-0.3,0.1-0.3,0.1L34.2,309.9L34.2,309.9 M34.8,307.6
					c0,0-0.6-1.4-0.6-1.5l1.5,0.6c-0.1,0-0.3,0.1-0.4,0.1c0.2,0.4,0.5,0.8,0.7,1.1l0,0l0,0l0,0l0,0c-0.4-0.2-1.1-0.7-1.1-0.7
					L34.8,307.6z M35.6,310.2c-0.2,0.1-0.3,0.1-0.5,0.2l0,0l0,0l0,0l0,0c0.1-0.2,0.1-0.3,0.2-0.5c0.2-0.1,0.3-0.1,0.5-0.2
					C35.7,309.9,35.7,310.1,35.6,310.2 M35.3,309.5c-0.1-0.2-0.1-0.3-0.2-0.5c0.2,0.1,0.3,0.1,0.5,0.2c0.1,0.2,0.1,0.3,0.2,0.5
					C35.6,309.6,35.5,309.5,35.3,309.5 M36.5,311.2c-0.1-0.2-0.1-0.3-0.2-0.5c-0.1-0.2-0.1-0.3-0.2-0.5c-0.1-0.2-0.1-0.3-0.2-0.5
					c0.1,0,0.1,0.1,0.2,0.1c0.2,0.1,0.5,0.2,0.8,0.3c0.2,0.1,0.3,0.1,0.5,0.2c0,0,0,0,0.1,0c-0.1,0-0.2,0.1-0.3,0.1
					c0.1,0.1,0.2,0.3,0.2,0.4c0.1,0.1,0.2,0.3,0.2,0.4c0.1,0.1,0.2,0.3,0.3,0.4c-0.2-0.1-0.4-0.2-0.6-0.4c-0.2-0.1-0.4-0.2-0.6-0.4
					C36.6,311,36.6,311.1,36.5,311.2 M37.2,313.6c0,0-0.4,0.1-0.5,0.2c0.1-0.2,0.1-0.3,0.2-0.5c0.2-0.1,0.3-0.1,0.5-0.2
					C37.4,313.2,37.2,313.6,37.2,313.6 M37.1,312.9L37.1,312.9h-0.2c0-0.2-0.1-0.3-0.2-0.5c0.2,0.1,0.3,0.1,0.5,0.2
					c0.1,0.2,0.1,0.3,0.2,0.5C37.3,313,37.2,313,37.1,312.9 M37.5,313.1L37.5,313.1L37.5,313.1L37.5,313.1 M38.2,314.3L38.2,314.3
					c-0.1,0.1-0.1,0.2-0.1,0.3c-0.1-0.3-0.2-0.5-0.3-0.8c-0.1-0.3-0.3-0.8-0.3-0.8l0,0l0,0c0.5,0.2,1.5,0.6,1.5,0.6l-0.3,0.1
					c0,0,0.5,0.8,0.7,1.1C39,314.8,38.6,314.6,38.2,314.3 M40.9,314.9L40.9,314.9c-0.1,0.2-0.1,0.3-0.2,0.5
					c-0.2,0.1-0.3,0.1-0.5,0.2c0.1-0.2,0.1-0.4,0.2-0.5C40.6,315,40.8,314.9,40.9,314.9C40.9,314.9,41,314.9,40.9,314.9
					C41,314.9,41,314.9,40.9,314.9C41,314.9,41,314.9,40.9,314.9 M41,314.8c-0.2-0.1-0.5-0.2-0.5-0.2s-0.1-0.4-0.1-0.5
					c0.1,0,0.6,0.1,0.6,0.1S40.9,314.5,41,314.8L41,314.8 M40.1,312.5c0,0.1-0.1,0.2-0.1,0.3c-0.1-0.1-0.6-1.5-0.6-1.5
					c0.5,0.2,1.5,0.6,1.5,0.6l-0.3,0.1c0,0,0.5,0.7,0.7,1.1l0,0C40.8,312.9,40.4,312.7,40.1,312.5 M41.6,314.6
					c-0.2,0-0.4,0.1-0.5,0.2c0.1-0.2,0.1-0.3,0.2-0.5c0.2-0.1,0.3-0.1,0.5-0.2C41.7,314.1,41.6,314.6,41.6,314.6"/>
			</g>
		</g>
		<g>
			<g>
				<defs>
					<rect id="SVGID_13_" y="0.2" width="70" height="352.3"/>
				</defs>
				<clipPath id="SVGID_14_">
					<use xlink:href="#SVGID_13_"  style="overflow:visible;"/>
				</clipPath>
				<path class="st7" d="M50.2,285.8L50.2,285.8L50.2,285.8L50.2,285.8"/>
			</g>
		</g>
		<g>
			<g>
				<defs>
					<rect id="SVGID_15_" y="0.2" width="70" height="352.3"/>
				</defs>
				<clipPath id="SVGID_16_">
					<use xlink:href="#SVGID_15_"  style="overflow:visible;"/>
				</clipPath>
				<path class="st8" d="M29.8,303.7L29.8,303.7L29.8,303.7L29.8,303.7L29.8,303.7z"/>
			</g>
		</g>
	</g>
	<path class="st9" d="M53.5,310.7L53.5,310.7L53.5,310.7z"/>
	<g>
		<g>
			<g>
				<defs>
					<rect id="SVGID_17_" y="0.2" width="70" height="352.3"/>
				</defs>
				<clipPath id="SVGID_18_">
					<use xlink:href="#SVGID_17_"  style="overflow:visible;"/>
				</clipPath>
				<path class="st10" d="M41.7,324.6C41.8,324.6,41.8,324.6,41.7,324.6C41.8,324.6,41.7,324.6,41.7,324.6L41.7,324.6"/>
			</g>
		</g>
		<g>
			<g>
				<defs>
					<rect id="SVGID_19_" y="0.2" width="70" height="352.3"/>
				</defs>
				<clipPath id="SVGID_20_">
					<use xlink:href="#SVGID_19_"  style="overflow:visible;"/>
				</clipPath>
				<path class="st11" d="M32.6,323L32.6,323L32.6,323z"/>
			</g>
		</g>
		<g>
			<g>
				<defs>
					<rect id="SVGID_21_" y="0.2" width="70" height="352.3"/>
				</defs>
				<clipPath id="SVGID_22_">
					<use xlink:href="#SVGID_21_"  style="overflow:visible;"/>
				</clipPath>
				<path class="st12" d="M42,297.6L42,297.6L42,297.6L42,297.6"/>
			</g>
		</g>
		<g>
			<g>
				<defs>
					<rect id="SVGID_23_" y="0.2" width="70" height="352.3"/>
				</defs>
				<clipPath id="SVGID_24_">
					<use xlink:href="#SVGID_23_"  style="overflow:visible;"/>
				</clipPath>
				<path class="st13" d="M52.3,294.8L52.3,294.8L52.3,294.8L52.3,294.8L52.3,294.8z"/>
			</g>
		</g>
		<g>
			<g>
				<defs>
					<rect id="SVGID_25_" y="0.2" width="70" height="352.3"/>
				</defs>
				<clipPath id="SVGID_26_">
					<use xlink:href="#SVGID_25_"  style="overflow:visible;"/>
				</clipPath>
				<path class="st14" d="M23.9,293.8C23.9,293.9,23.9,293.9,23.9,293.8C23.9,293.9,23.9,293.8,23.9,293.8L23.9,293.8"/>
			</g>
		</g>
		<g>
			<g>
				<defs>
					<rect id="SVGID_27_" y="0.2" width="70" height="352.3"/>
				</defs>
				<clipPath id="SVGID_28_">
					<use xlink:href="#SVGID_27_"  style="overflow:visible;"/>
				</clipPath>
				<path class="st15" d="M17.9,319L17.9,319L17.9,319L17.9,319L17.9,319z"/>
			</g>
		</g>
		<g>
			<g>
				<defs>
					<rect id="SVGID_29_" y="0.2" width="70" height="352.3"/>
				</defs>
				<clipPath id="SVGID_30_">
					<use xlink:href="#SVGID_29_"  style="overflow:visible;"/>
				</clipPath>
				<path class="st16" d="M38.3,286.2L38.3,286.2L38.3,286.2L38.3,286.2"/>
			</g>
		</g>
		<g>
			<g>
				<defs>
					<rect id="SVGID_31_" y="0.2" width="70" height="352.3"/>
				</defs>
				<clipPath id="SVGID_32_">
					<use xlink:href="#SVGID_31_"  style="overflow:visible;"/>
				</clipPath>
				<path class="st17" d="M37.9,276.3C38,276.3,38,276.3,37.9,276.3L37.9,276.3L37.9,276.3"/>
			</g>
		</g>
		<g>
			<g>
				<defs>
					<rect id="SVGID_33_" y="0.2" width="70" height="352.3"/>
				</defs>
				<clipPath id="SVGID_34_">
					<use xlink:href="#SVGID_33_"  style="overflow:visible;"/>
				</clipPath>
				<path class="st18" d="M31.5,276.1c-0.1-0.1-0.1-0.1-0.1-0.2c-0.1-0.2-0.2-0.3-0.4-0.4l0,0c0,0.2,0,0.4,0.1,0.5
					C31.1,276.2,31.3,276.2,31.5,276.1"/>
			</g>
		</g>
		<g>
			<g>
				<defs>
					<rect id="SVGID_35_" y="0.2" width="70" height="352.3"/>
				</defs>
				<clipPath id="SVGID_36_">
					<use xlink:href="#SVGID_35_"  style="overflow:visible;"/>
				</clipPath>
				<path class="st19" d="M40.1,276.1L40.1,276.1c0,0.1,0.1,0.1,0.2,0.1c0.1,0,0.3,0,0.3-0.1c0.1-0.1,0.2-0.4,0.1-0.6
					C40.5,275.6,40.3,275.9,40.1,276.1"/>
			</g>
		</g>
		<g>
			<g>
				<defs>
					<rect id="SVGID_37_" y="0.2" width="70" height="352.3"/>
				</defs>
				<clipPath id="SVGID_38_">
					<use xlink:href="#SVGID_37_"  style="overflow:visible;"/>
				</clipPath>
				<path class="st20" d="M32.6,284.3c0.2-0.2,0.4-0.2,0.6-0.2c0.1,0,0.3,0,0.4,0c0.3,0,0.6-0.1,0.9-0.4c-0.7,0-1.2,0.2-1.8,0.3
					C32.5,284.1,32.5,284.2,32.6,284.3"/>
			</g>
		</g>
		<g>
			<g>
				<defs>
					<rect id="SVGID_39_" y="0.2" width="70" height="352.3"/>
				</defs>
				<clipPath id="SVGID_40_">
					<use xlink:href="#SVGID_39_"  style="overflow:visible;"/>
				</clipPath>
				<path class="st21" d="M31.7,280.7c0.2,0.3,0.4,0.5,0.7,0.7c0.1,0,0.1,0.1,0.2,0c0.1-0.1,0.2-0.1,0.4-0.2
					c-0.2-0.1-0.4-0.3-0.6-0.3c-0.4-0.2-0.7-0.3-0.8-0.8C31.5,280.3,31.6,280.5,31.7,280.7"/>
			</g>
		</g>
		<g>
			<g>
				<defs>
					<rect id="SVGID_41_" y="0.2" width="70" height="352.3"/>
				</defs>
				<clipPath id="SVGID_42_">
					<use xlink:href="#SVGID_41_"  style="overflow:visible;"/>
				</clipPath>
				<path class="st22" d="M16.1,317.4c-0.1-0.3-0.2-0.6-0.3-0.9c-0.1-0.2-0.1-0.2-0.3-0.2c0.1,0.8,0.3,1.5,0.8,2.1
					C16.2,318.1,16.2,317.8,16.1,317.4"/>
			</g>
		</g>
		<g>
			<g>
				<defs>
					<rect id="SVGID_43_" y="0.2" width="70" height="352.3"/>
				</defs>
				<clipPath id="SVGID_44_">
					<use xlink:href="#SVGID_43_"  style="overflow:visible;"/>
				</clipPath>
				<path class="st23" d="M16.5,290.9c0-0.4-0.1-0.9-0.3-1.3c-0.1-0.2-0.2-0.5-0.2-0.7s-0.1-0.2-0.3-0.2
					C15.6,289.4,16.1,290.7,16.5,290.9"/>
			</g>
		</g>
		<g>
			<g>
				<defs>
					<rect id="SVGID_45_" y="0.2" width="70" height="352.3"/>
				</defs>
				<clipPath id="SVGID_46_">
					<use xlink:href="#SVGID_45_"  style="overflow:visible;"/>
				</clipPath>
				<path class="st24" d="M55.3,316.1c-0.2,0-0.2,0-0.3,0.2c-0.1,0.3-0.2,0.5-0.3,0.8c-0.2,0.4-0.2,0.8-0.3,1.2
					C54.8,317.9,55.3,316.8,55.3,316.1"/>
			</g>
		</g>
		<g>
			<g>
				<defs>
					<rect id="SVGID_47_" y="0.2" width="70" height="352.3"/>
				</defs>
				<clipPath id="SVGID_48_">
					<use xlink:href="#SVGID_47_"  style="overflow:visible;"/>
				</clipPath>
				<path class="st25" d="M54.7,292.2c-0.2,0-0.2,0-0.3,0.2c-0.1,0.3-0.2,0.6-0.3,0.9s-0.1,0.7-0.2,1
					C54.5,293.9,54.8,292.8,54.7,292.2"/>
			</g>
		</g>
		<g>
			<g>
				<defs>
					<rect id="SVGID_49_" y="0.2" width="70" height="352.3"/>
				</defs>
				<clipPath id="SVGID_50_">
					<use xlink:href="#SVGID_49_"  style="overflow:visible;"/>
				</clipPath>
				<path class="st26" d="M39.4,282.2c0.3,0.5,0.7,1.1,0.9,1.7c0,0.1,0.1,0.2,0.2,0.3c0.1,0.1,0.2,0.1,0.3-0.1
					c0.1-0.2,0.1-0.4,0.1-0.6c0-0.1-0.5-0.7-0.6-0.8s-0.5-0.5-0.6-0.6C39.6,282,39.5,282,39.4,282.2
					C39.4,282.1,39.4,282.1,39.4,282.2"/>
			</g>
		</g>
		<g>
			<g>
				<defs>
					<rect id="SVGID_51_" y="0.2" width="70" height="352.3"/>
				</defs>
				<clipPath id="SVGID_52_">
					<use xlink:href="#SVGID_51_"  style="overflow:visible;"/>
				</clipPath>
				<path class="st27" d="M36.7,283.6c-0.7-0.2-1.3-0.1-1.9,0c0,0-0.1,0-0.1,0.1c-0.1,0.2,0,0.5,0.2,0.6c0.2-0.2,0.4-0.2,0.6-0.2
					c0.2,0,0.3,0,0.5,0C36.3,284,36.6,283.9,36.7,283.6L36.7,283.6"/>
			</g>
		</g>
		<g>
			<g>
				<defs>
					<rect id="SVGID_53_" y="0.2" width="70" height="352.3"/>
				</defs>
				<clipPath id="SVGID_54_">
					<use xlink:href="#SVGID_53_"  style="overflow:visible;"/>
				</clipPath>
				<path class="st28" d="M30.7,284c0,0,0.1,0.1,0.1,0c0.3,0,0.5-0.1,0.8-0.3c0.1,0,0.1-0.1,0-0.2c-0.2-0.2-0.4-0.5-0.6-0.8
					c-0.3-0.3-0.5-0.2-0.7,0.1c0,0.1,0,0.2,0,0.3C30.3,283.5,30.5,283.8,30.7,284"/>
			</g>
		</g>
		<g>
			<g>
				<defs>
					<rect id="SVGID_55_" y="0.2" width="70" height="352.3"/>
				</defs>
				<clipPath id="SVGID_56_">
					<use xlink:href="#SVGID_55_"  style="overflow:visible;"/>
				</clipPath>
				<path class="st29" d="M53.3,317.1c0.2-0.2,0.3-0.3,0.4-0.5c0.1-0.2,0.2-0.3,0.2-0.5c0-0.1,0-0.2-0.1-0.2s-0.1,0-0.2,0.1
					c-0.3,0.4-0.6,0.8-1,1.2c-0.2,0.2-0.3,0.4-0.3,0.7c-0.1,0.4,0.1,0.8,0.4,1C52.6,318.1,52.9,317.6,53.3,317.1"/>
			</g>
		</g>
		<g>
			<g>
				<defs>
					<rect id="SVGID_57_" y="0.2" width="70" height="352.3"/>
				</defs>
				<clipPath id="SVGID_58_">
					<use xlink:href="#SVGID_57_"  style="overflow:visible;"/>
				</clipPath>
				<path class="st30" d="M17.9,319c0.2-0.1,0.4-0.3,0.4-0.6c0.1-0.4,0-0.7-0.3-1c-0.4-0.4-0.7-0.8-1-1.3c0-0.1-0.1-0.1-0.2-0.1
					s-0.1,0.1-0.1,0.2c0,0.3,0.2,0.5,0.3,0.7c0.1,0.2,0.3,0.3,0.4,0.5c0.2,0.3,0.4,0.6,0.4,1C18,318.6,17.9,318.8,17.9,319L17.9,319
					z"/>
			</g>
		</g>
		<g>
			<g>
				<defs>
					<rect id="SVGID_59_" y="0.2" width="70" height="352.3"/>
				</defs>
				<clipPath id="SVGID_60_">
					<use xlink:href="#SVGID_59_"  style="overflow:visible;"/>
				</clipPath>
				<path class="st31" d="M37,284.4c0.1,0.2,0.3,0.4,0.5,0.3c0.3,0,0.6-0.1,0.9-0.3c0.1-0.1,0.3-0.2,0.3-0.4
					c-0.3-0.1-0.5-0.3-0.8-0.2c-0.3,0-0.6,0-0.9-0.1C36.8,283.9,36.8,284.1,37,284.4"/>
			</g>
		</g>
		<g>
			<g>
				<defs>
					<rect id="SVGID_61_" y="0.2" width="70" height="352.3"/>
				</defs>
				<clipPath id="SVGID_62_">
					<use xlink:href="#SVGID_61_"  style="overflow:visible;"/>
				</clipPath>
				<path class="st32" d="M52.3,294.8L52.3,294.8c-0.1-0.5,0-0.9,0.2-1.3c0.1-0.2,0.3-0.4,0.5-0.6s0.4-0.4,0.4-0.7
					c0-0.2,0-0.2-0.2-0.3c0,0-0.1,0-0.1,0.1c-0.3,0.4-0.6,0.8-1,1.2c-0.2,0.3-0.3,0.6-0.3,0.9C51.9,294.5,52,294.7,52.3,294.8
					L52.3,294.8z"/>
			</g>
		</g>
		<g>
			<g>
				<defs>
					<rect id="SVGID_63_" y="0.2" width="70" height="352.3"/>
				</defs>
				<clipPath id="SVGID_64_">
					<use xlink:href="#SVGID_63_"  style="overflow:visible;"/>
				</clipPath>
				<path class="st33" d="M39.9,283.7c-0.2-0.5-0.5-0.9-0.7-1.4c-0.1-0.3-1.1-0.7-1.2-0.6c0.4,0.6,0.9,1.3,1.4,1.9
					C39.6,283.8,39.8,283.8,39.9,283.7C40,283.8,40,283.7,39.9,283.7"/>
			</g>
		</g>
		<g>
			<g>
				<defs>
					<rect id="SVGID_65_" y="0.2" width="70" height="352.3"/>
				</defs>
				<clipPath id="SVGID_66_">
					<use xlink:href="#SVGID_65_"  style="overflow:visible;"/>
				</clipPath>
				<path class="st34" d="M38.9,283.5c-0.1-0.1-0.1-0.2-0.2-0.3c-0.4-0.5-0.8-0.9-1.1-1.4c-0.2-0.3-0.8-0.4-1.1-0.2
					C36.9,282.3,38.1,283.4,38.9,283.5"/>
			</g>
		</g>
		<g>
			<g>
				<defs>
					<rect id="SVGID_67_" y="0.2" width="70" height="352.3"/>
				</defs>
				<clipPath id="SVGID_68_">
					<use xlink:href="#SVGID_67_"  style="overflow:visible;"/>
				</clipPath>
				<path class="st35" d="M54.3,319.2L54.3,319.2c0.8-0.3,1.3-0.7,1.5-1.5c0.1-0.5,0.2-1.1,0-1.6c0,0,0-0.1-0.1-0.1s-0.1,0-0.1,0.1
					v0.1c0,0.6-0.2,1.2-0.5,1.7C54.8,318.4,54.6,318.8,54.3,319.2L54.3,319.2"/>
			</g>
		</g>
		<g>
			<g>
				<defs>
					<rect id="SVGID_69_" y="0.2" width="70" height="352.3"/>
				</defs>
				<clipPath id="SVGID_70_">
					<use xlink:href="#SVGID_69_"  style="overflow:visible;"/>
				</clipPath>
				<path class="st36" d="M16.4,319.4c-0.3-0.4-0.5-0.8-0.8-1.2c-0.4-0.6-0.6-1.2-0.5-1.9c0-0.1,0-0.2-0.2-0.2
					C14.3,317.4,15.2,319.2,16.4,319.4"/>
			</g>
		</g>
		<g>
			<g>
				<defs>
					<rect id="SVGID_71_" y="0.2" width="70" height="352.3"/>
				</defs>
				<clipPath id="SVGID_72_">
					<use xlink:href="#SVGID_71_"  style="overflow:visible;"/>
				</clipPath>
				<path class="st37" d="M16.6,291.8c-0.3-0.4-0.5-0.8-0.8-1.2c-0.3-0.6-0.6-1.1-0.5-1.8c0-0.1,0-0.2-0.2-0.2
					C14.5,289.7,15.4,291.7,16.6,291.8"/>
			</g>
		</g>
		<g>
			<g>
				<defs>
					<rect id="SVGID_73_" y="0.2" width="70" height="352.3"/>
				</defs>
				<clipPath id="SVGID_74_">
					<use xlink:href="#SVGID_73_"  style="overflow:visible;"/>
				</clipPath>
				<path class="st38" d="M31.1,298.2l0.1-0.1c0.4-0.4,0.9-0.8,1.3-1.2c0,0,0,0,0.1-0.1c-1.1,0-2,0.5-2.6,1.4c0.4,0,0.6,0,0.9,0"/>
			</g>
		</g>
		<g>
			<g>
				<defs>
					<rect id="SVGID_75_" y="0.2" width="70" height="352.3"/>
				</defs>
				<clipPath id="SVGID_76_">
					<use xlink:href="#SVGID_75_"  style="overflow:visible;"/>
				</clipPath>
				<path class="st39" d="M55.2,294.1c0.3-0.7,0.4-1.3,0.1-1.9c-0.2,0-0.2,0-0.2,0.2c0,0.2,0,0.3,0,0.4c-0.1,0.6-0.4,1-0.7,1.5
					c-0.2,0.3-0.4,0.7-0.7,1C54.4,295.1,55,294.7,55.2,294.1"/>
			</g>
		</g>
		<g>
			<g>
				<defs>
					<rect id="SVGID_77_" y="0.2" width="70" height="352.3"/>
				</defs>
				<clipPath id="SVGID_78_">
					<use xlink:href="#SVGID_77_"  style="overflow:visible;"/>
				</clipPath>
				<path class="st40" d="M18.4,290.5c0.1-0.3,0.1-0.7-0.2-1c-0.3-0.3-0.6-0.7-0.9-1.1c-0.1-0.2-0.2,0-0.3,0c-0.1,0-0.1,0.1-0.1,0.2
					c0.1,0.3,0.3,0.6,0.5,0.8c0.4,0.5,0.6,1,0.6,1.7c0,0.1,0,0.2,0.1,0.3C18.2,291.2,18.3,290.9,18.4,290.5"/>
			</g>
		</g>
		<g>
			<g>
				<defs>
					<rect id="SVGID_79_" y="0.2" width="70" height="352.3"/>
				</defs>
				<clipPath id="SVGID_80_">
					<use xlink:href="#SVGID_79_"  style="overflow:visible;"/>
				</clipPath>
				<path class="st41" d="M56.3,316.8c0.1,0.9-0.3,1.7-1,2.2l-0.1,0.1l-0.1,0.1c0,0.1,0.1,0.1,0.2,0c0.1,0,0.2-0.1,0.3-0.1
					c0.8-0.6,1.3-1.3,1.2-2.4c0-0.4-0.2-0.8-0.5-1.1c-0.1,0-0.1,0.1-0.2,0.1C56.2,316.2,56.3,316.5,56.3,316.8"/>
			</g>
		</g>
		<g>
			<g>
				<defs>
					<rect id="SVGID_81_" y="0.2" width="70" height="352.3"/>
				</defs>
				<clipPath id="SVGID_82_">
					<use xlink:href="#SVGID_81_"  style="overflow:visible;"/>
				</clipPath>
				<path class="st42" d="M14.2,289.2c-0.4,1.1,0.5,2.4,1.3,2.8c0.1,0,0.1,0.1,0.2,0.1c0,0,0.1,0,0.1-0.1v-0.1c0,0,0-0.1-0.1-0.1
					c-0.4-0.3-0.7-0.7-0.9-1.1c-0.2-0.3-0.2-0.7-0.2-1.1c0-0.3,0.1-0.7,0.3-1c-0.1,0-0.1-0.1-0.2-0.1
					C14.4,288.6,14.3,288.9,14.2,289.2"/>
			</g>
		</g>
		<g>
			<g>
				<defs>
					<rect id="SVGID_83_" y="0.2" width="70" height="352.3"/>
				</defs>
				<clipPath id="SVGID_84_">
					<use xlink:href="#SVGID_83_"  style="overflow:visible;"/>
				</clipPath>
				<path class="st43" d="M14.4,316c-0.2,0.2-0.4,0.5-0.4,0.8c-0.3,1.1,0.5,2.3,1.3,2.7c0.1,0,0.1,0.1,0.2,0.1c0.1,0,0.1,0,0.1-0.1
					s0-0.1-0.1-0.1c0,0,0,0-0.1-0.1c-0.4-0.3-0.7-0.7-0.9-1.1c-0.1-0.3-0.2-0.6-0.2-0.9c0-0.4,0.1-0.8,0.3-1.2
					C14.6,316.1,14.5,315.9,14.4,316"/>
			</g>
		</g>
		<g>
			<g>
				<defs>
					<rect id="SVGID_85_" y="0.2" width="70" height="352.3"/>
				</defs>
				<clipPath id="SVGID_86_">
					<use xlink:href="#SVGID_85_"  style="overflow:visible;"/>
				</clipPath>
				<path class="st44" d="M55.7,292.1c0.2,0.4,0.2,0.9,0.1,1.3c-0.1,0.7-0.5,1.3-1,1.7c0,0,0,0-0.1,0.1c0,0-0.1,0.1-0.1,0.2
					c0,0.1,0.1,0.1,0.2,0.1c0.1,0,0.2-0.1,0.3-0.1c0.6-0.4,1-1,1.2-1.7c0.1-0.6,0.1-1.1-0.3-1.6C55.8,291.9,55.8,291.9,55.7,292.1"
					/>
			</g>
		</g>
		<g>
			<g>
				<defs>
					<rect id="SVGID_87_" y="0.2" width="70" height="352.3"/>
				</defs>
				<clipPath id="SVGID_88_">
					<use xlink:href="#SVGID_87_"  style="overflow:visible;"/>
				</clipPath>
				<path class="st45" d="M16.5,289.6c0.2,0.4,0.3,0.8,0.4,1.2c0,0.3,0.1,0.5,0.2,0.8c0.1,0.2,0.4,0.2,0.6,0
					c0.1-0.1,0.1-0.2,0.1-0.3c0-0.4-0.1-0.8-0.3-1.2c-0.3-0.5-0.6-0.9-0.8-1.5h-0.5C16.3,289,16.4,289.3,16.5,289.6"/>
			</g>
		</g>
		<g>
			<g>
				<defs>
					<rect id="SVGID_89_" y="0.2" width="70" height="352.3"/>
				</defs>
				<clipPath id="SVGID_90_">
					<use xlink:href="#SVGID_89_"  style="overflow:visible;"/>
				</clipPath>
				<path class="st46" d="M54.2,316.1c-0.1,0.5-0.4,0.9-0.7,1.3c-0.2,0.3-0.3,0.7-0.4,1c0,0.2-0.1,0.4,0,0.6s0.2,0.2,0.4,0.3
					c0.2,0,0.2-0.1,0.3-0.2c0.1-0.1,0.1-0.3,0.1-0.4c0.1-0.6,0.2-1.2,0.5-1.8c0.1-0.2,0.2-0.4,0.2-0.7
					C54.5,316.1,54.4,316.1,54.2,316.1"/>
			</g>
		</g>
		<g>
			<g>
				<defs>
					<rect id="SVGID_91_" y="0.2" width="70" height="352.3"/>
				</defs>
				<clipPath id="SVGID_92_">
					<use xlink:href="#SVGID_91_"  style="overflow:visible;"/>
				</clipPath>
				<path class="st47" d="M16.1,316.7c0.3,0.6,0.6,1.3,0.6,2c0,0.2,0.1,0.3,0.2,0.5c0.1,0.1,0.2,0.2,0.4,0.1
					c0.2-0.1,0.3-0.2,0.3-0.5c0-0.5-0.1-0.9-0.4-1.3c-0.3-0.4-0.6-0.9-0.7-1.4c-0.2,0-0.3,0-0.5,0C16,316.4,16.1,316.6,16.1,316.7"
					/>
			</g>
		</g>
		<g>
			<g>
				<defs>
					<rect id="SVGID_93_" y="0.2" width="70" height="352.3"/>
				</defs>
				<clipPath id="SVGID_94_">
					<use xlink:href="#SVGID_93_"  style="overflow:visible;"/>
				</clipPath>
				<path class="st48" d="M31.3,282.7c0.1,0.2,0.3,0.4,0.5,0.6s0.3,0.2,0.5,0.1h0.1c0.3,0,0.6-0.2,0.9-0.2c-0.3-0.4-0.6-0.8-0.9-1.2
					c-0.1-0.1-0.1-0.1-0.3-0.1c-0.1,0-0.8,0.3-1,0.4c-0.1,0-0.1,0.1-0.1,0.1C31.1,282.5,31.2,282.6,31.3,282.7"/>
			</g>
		</g>
		<g>
			<g>
				<defs>
					<rect id="SVGID_95_" y="0.2" width="70" height="352.3"/>
				</defs>
				<clipPath id="SVGID_96_">
					<use xlink:href="#SVGID_95_"  style="overflow:visible;"/>
				</clipPath>
				<path class="st49" d="M53.1,293.3c-0.2,0.3-0.3,0.6-0.4,0.9c-0.1,0.2-0.1,0.4-0.1,0.7c0,0.2,0.2,0.4,0.4,0.4
					c0.1,0,0.3-0.1,0.4-0.3c0-0.1,0.1-0.2,0.1-0.3c0.1-0.3,0.1-0.5,0.1-0.8c0-0.3,0.2-0.6,0.3-0.9c0.1-0.3,0.2-0.5,0.3-0.8l-0.5-0.1
					C53.6,292.5,53.4,292.9,53.1,293.3"/>
			</g>
		</g>
		<g>
			<g>
				<defs>
					<rect id="SVGID_97_" y="0.2" width="70" height="352.3"/>
				</defs>
				<clipPath id="SVGID_98_">
					<use xlink:href="#SVGID_97_"  style="overflow:visible;"/>
				</clipPath>
				<path class="st50" d="M15.8,285.5c-0.2,0.3-0.4,0.6-0.5,1c-0.1,0.2,0,0.3,0.2,0.4c0.3,0.2,0.6,0.1,0.9-0.2
					c0.3-0.4,0.5-0.8,0.9-1c-0.4-0.3-0.3-0.7-0.3-1.1C16.5,284.8,16.1,285.1,15.8,285.5"/>
			</g>
		</g>
		<g>
			<g>
				<defs>
					<rect id="SVGID_99_" y="0.2" width="70" height="352.3"/>
				</defs>
				<clipPath id="SVGID_100_">
					<use xlink:href="#SVGID_99_"  style="overflow:visible;"/>
				</clipPath>
				<path class="st51" d="M35.3,282.3c0.1,0.1,0.2,0.2,0.3,0.2c0.2,0.1,0.3,0.1,0.4,0.3c0.2,0.2,0.4,0.3,0.7,0.3s0.5,0.1,0.8,0.1
					c0,0,0,0,0-0.1c-0.5-0.4-0.9-0.9-1.3-1.4c-0.1-0.1-0.2-0.3-0.4-0.3c-0.1,0-1.2-0.1-1.6-0.1C34.6,281.8,34.9,282.1,35.3,282.3"/>
			</g>
		</g>
		<g>
			<g>
				<defs>
					<rect id="SVGID_101_" y="0.2" width="70" height="352.3"/>
				</defs>
				<clipPath id="SVGID_102_">
					<use xlink:href="#SVGID_101_"  style="overflow:visible;"/>
				</clipPath>
				<path class="st52" d="M53.5,312.8c0.2,0.1,0.4,0.3,0.6,0.5c0.2,0.2,0.3,0.4,0.4,0.6c0.1,0.2,0.2,0.3,0.4,0.3
					c0.2,0.1,0.4,0,0.6-0.2c0.1-0.1,0.1-0.3,0-0.5c-0.2-0.7-0.7-1.2-1.3-1.6C54,312.3,53.8,312.6,53.5,312.8"/>
			</g>
		</g>
		<g>
			<g>
				<defs>
					<rect id="SVGID_103_" y="0.2" width="70" height="352.3"/>
				</defs>
				<clipPath id="SVGID_104_">
					<use xlink:href="#SVGID_103_"  style="overflow:visible;"/>
				</clipPath>
				<path class="st53" d="M53.2,288c0,0.4,0.1,0.7,0,1.1v0.1c0.3,0.3,0.5,0.6,0.7,0.9c0.1,0.1,0.1,0.2,0.2,0.3
					c0.2,0.2,0.5,0.2,0.7,0c0.2-0.1,0.2-0.2,0.1-0.5c-0.1-0.4-0.3-0.8-0.6-1.1C54,288.5,53.7,288.2,53.2,288L53.2,288"/>
			</g>
		</g>
		<g>
			<g>
				<defs>
					<rect id="SVGID_105_" y="0.2" width="70" height="352.3"/>
				</defs>
				<clipPath id="SVGID_106_">
					<use xlink:href="#SVGID_105_"  style="overflow:visible;"/>
				</clipPath>
				<path class="st54" d="M15.3,313.9c0,0.2,0,0.3,0.1,0.4s0.3,0.2,0.5,0.1s0.3-0.2,0.4-0.3c0.3-0.6,0.7-1.1,1.3-1.3
					c-0.2-0.1-0.3-0.2-0.5-0.3c-0.1-0.1-0.3-0.2-0.4-0.4C16,312.6,15.5,313.2,15.3,313.9"/>
			</g>
		</g>
		<g>
			<g>
				<defs>
					<rect id="SVGID_107_" y="0.2" width="70" height="352.3"/>
				</defs>
				<clipPath id="SVGID_108_">
					<use xlink:href="#SVGID_107_"  style="overflow:visible;"/>
				</clipPath>
				<path class="st55" d="M33.5,282.8c0.2,0.2,0.4,0.3,0.6,0.3c0.4,0,0.7,0,1.1,0c0.2,0,0.4,0,0.6,0c-0.1-0.1-0.2-0.2-0.3-0.2
					c-0.2-0.1-0.4-0.2-0.6-0.4c-0.3-0.2-0.5-0.5-0.7-0.7c-0.1-0.1-0.2-0.2-0.4-0.3c-0.1-0.1-1,0.4-1.1,0.5
					C33.1,282.2,33.3,282.5,33.5,282.8"/>
			</g>
		</g>
		<g>
			<g>
				<defs>
					<rect id="SVGID_109_" y="0.2" width="70" height="352.3"/>
				</defs>
				<clipPath id="SVGID_110_">
					<use xlink:href="#SVGID_109_"  style="overflow:visible;"/>
				</clipPath>
				<path class="st56" d="M28.7,290.5c0-0.1-0.1-0.3-0.1-0.4c-0.1-0.1-0.1-0.1-0.2,0s-0.1,0.2-0.2,0.3c-0.3,0.4-0.7,0.7-1.1,0.9
					c-0.7,0.2-1.2,0.1-1.6-0.4c-0.2-0.2-0.3-0.3-0.6-0.2c-0.1,0-0.2,0.1-0.1,0.2c0.1,0.4,0.2,0.7,0.6,0.9c0.4,0.3,0.9,0.4,1.4,0.4
					c0.4,0,0.7-0.1,0.9-0.4c0.1-0.1,0.2-0.3,0.4-0.3c0.3-0.1,0.5,0.1,0.5,0.3c0,0.1-0.1,0.3-0.1,0.4c-0.1,0.4,0.1,0.7,0.4,0.9
					C28.8,292,28.8,291.2,28.7,290.5"/>
			</g>
		</g>
		<g>
			<g>
				<defs>
					<rect id="SVGID_111_" y="0.2" width="70" height="352.3"/>
				</defs>
				<clipPath id="SVGID_112_">
					<use xlink:href="#SVGID_111_"  style="overflow:visible;"/>
				</clipPath>
				<path class="st57" d="M56,313.9c0.1,0.3-0.1,0.7-0.5,0.8c-0.3,0.2-0.7,0.1-1-0.2c-0.1-0.1-0.2-0.2-0.3-0.3
					c-0.2-0.2-0.5-0.2-0.7-0.1c-0.2,0.1-0.3,0.4-0.2,0.6c0.1,0.2,0.2,0.4,0.4,0.6c0.5,0.4,1.1,0.5,1.7,0.4c0.4-0.1,0.8-0.3,1.1-0.7
					c0.2-0.2,0.2-0.5,0.1-0.7C56.5,314.1,56.2,313.9,56,313.9L56,313.9"/>
			</g>
		</g>
		<g>
			<g>
				<defs>
					<rect id="SVGID_113_" y="0.2" width="70" height="352.3"/>
				</defs>
				<clipPath id="SVGID_114_">
					<use xlink:href="#SVGID_113_"  style="overflow:visible;"/>
				</clipPath>
				<path class="st58" d="M14.4,314.3c-0.3,0.3-0.3,0.6-0.1,0.9c0.2,0.2,0.4,0.4,0.6,0.5c0.7,0.3,1.3,0.2,1.9-0.1
					c0.2-0.1,0.4-0.3,0.6-0.6c0.2-0.4,0-0.7-0.3-0.8s-0.5,0-0.7,0.3c-0.3,0.5-1,0.5-1.4,0.1c-0.1-0.2-0.2-0.4-0.1-0.6
					C14.7,314.1,14.5,314.1,14.4,314.3"/>
			</g>
		</g>
		<g>
			<g>
				<defs>
					<rect id="SVGID_115_" y="0.2" width="70" height="352.3"/>
				</defs>
				<clipPath id="SVGID_116_">
					<use xlink:href="#SVGID_115_"  style="overflow:visible;"/>
				</clipPath>
				<path class="st59" d="M55.4,290.3c-0.1,0.3-0.3,0.5-0.7,0.6c-0.3,0.1-0.6-0.1-0.8-0.3c0-0.1-0.1-0.1-0.1-0.2
					c-0.2-0.2-0.4-0.3-0.6-0.2c-0.3,0.1-0.4,0.3-0.4,0.5s0.1,0.4,0.3,0.6c0.5,0.5,1.2,0.7,1.9,0.5c0.4-0.1,0.8-0.3,1-0.7
					c0.1-0.2,0.2-0.4,0.1-0.6c-0.1-0.3-0.4-0.4-0.7-0.5C55.4,290.1,55.4,290.2,55.4,290.3"/>
			</g>
		</g>
		<g>
			<g>
				<defs>
					<rect id="SVGID_117_" y="0.2" width="70" height="352.3"/>
				</defs>
				<clipPath id="SVGID_118_">
					<use xlink:href="#SVGID_117_"  style="overflow:visible;"/>
				</clipPath>
				<path class="st60" d="M14.7,286.6c-0.4,0.2-0.5,0.5-0.3,0.9c0.2,0.3,0.4,0.5,0.7,0.7c0.7,0.3,1.3,0.2,1.9-0.1
					c0.3-0.2,0.5-0.4,0.6-0.6c0.1-0.3,0-0.6-0.3-0.7s-0.6-0.1-0.8,0.3c-0.3,0.5-1,0.5-1.3,0.1c-0.2-0.3-0.2-0.5-0.2-0.8
					C14.9,286.5,14.8,286.5,14.7,286.6"/>
			</g>
		</g>
		<g>
			<g>
				<defs>
					<rect id="SVGID_119_" y="0.2" width="70" height="352.3"/>
				</defs>
				<clipPath id="SVGID_120_">
					<use xlink:href="#SVGID_119_"  style="overflow:visible;"/>
				</clipPath>
				<path class="st61" d="M32.5,278.8L32.5,278.8c-0.4-0.2-0.8-0.4-1.2-0.4c-0.4,0-0.7-0.2-0.9-0.5l0,0c0,0.2,0,0.4,0.2,0.5
					c0.1,0.1,0.3,0.2,0.4,0.2c0.3,0.1,0.5,0.2,0.8,0.3c0.3,0.1,0.6,0.3,0.8,0.5c0.2,0.2,0.3,0.4,0.3,0.7c-0.1,0-0.2-0.1-0.2-0.1
					c-0.3-0.3-0.7-0.5-1.2-0.5c-0.4,0-0.8-0.2-1-0.5l0,0c0,0.1,0,0.2,0,0.2c0.1,0.3,0.4,0.5,0.7,0.7c0.1,0.1,0.2,0.1,0.3,0l0.1-0.1
					c0.2,0.3,0.4,0.5,0.7,0.6c0.4,0.2,0.3,1,0.7,0.8c0.3-0.1,0.3-0.2,0.5-0.2c-0.4-1.6-0.8-2.9-1.7-4.3c-0.1,0.4-0.5,0.6-0.8,0.9
					C31.7,277.8,32.1,278.2,32.5,278.8C32.5,278.7,32.5,278.7,32.5,278.8"/>
			</g>
		</g>
		<g>
			<g>
				<defs>
					<rect id="SVGID_121_" y="0.2" width="70" height="352.3"/>
				</defs>
				<clipPath id="SVGID_122_">
					<use xlink:href="#SVGID_121_"  style="overflow:visible;"/>
				</clipPath>
				<path class="st62" d="M38.7,285.4c0-0.2,0.1-0.5,0.1-0.6s-0.1-0.2-0.2-0.1c-0.2,0.1-0.4,0.2-0.6,0.3c-0.3,0.2-0.7,0.2-1-0.1
					c-0.1-0.2-0.3-0.3-0.4-0.5c-0.3,0.1-0.6,0.2-0.9,0.1c-0.3-0.1-0.6,0-0.7,0.3l0,0c-0.2-0.1-0.4-0.2-0.5-0.4
					c-0.1-0.1-0.2-0.2-0.3-0.1c-0.4,0.1-0.7,0.1-1.1,0.1c-0.1,0-0.2,0.1-0.2,0.2c0,0.2-0.1,0.3-0.2,0.5c-0.1-0.2-0.1-0.3-0.3-0.4
					c0,0.2-0.3,0.5-0.4,0.5c-0.2,0.1-0.4,0.1-0.5,0c-0.1-0.1-0.3-0.1-0.4,0c-0.1,0.1-0.4,0.3-0.5,0.4
					C33.2,285.4,36,285.4,38.7,285.4"/>
			</g>
		</g>
		<g>
			<g>
				<defs>
					<rect id="SVGID_123_" y="0.2" width="70" height="352.3"/>
				</defs>
				<clipPath id="SVGID_124_">
					<use xlink:href="#SVGID_123_"  style="overflow:visible;"/>
				</clipPath>
				<path class="st63" d="M38,285.8c-1.3,0-2.6,0-3.9,0.1c-1.2,0-2.5,0.1-3.7,0.2c-0.4,0-0.6,0.4-0.8,0.6c2.4-0.1,4.7-0.3,7-0.3
					c0,0.3,0.1,0.5,0.1,0.8c0.5-0.5,1-1,1.6-1.4C38.1,285.7,38,285.8,38,285.8"/>
			</g>
		</g>
		<g>
			<g>
				<defs>
					<rect id="SVGID_125_" y="0.2" width="70" height="352.3"/>
				</defs>
				<clipPath id="SVGID_126_">
					<use xlink:href="#SVGID_125_"  style="overflow:visible;"/>
				</clipPath>
				<path class="st64" d="M40.2,277.1c-0.2-0.2-0.4-0.4-0.4-0.6c-0.6,0.7-1.8,3.9-1.8,4.7c0.2,0.1,0.7,0.2,0.9,0.2
					c0.1,0,0.1,0,0.2,0c0.1-0.1,0.3-0.2,0.4-0.3c0.2-0.2,0.4-0.4,0.4-0.6c0.1-0.2,0.1-0.3,0-0.4c-0.1,0.2-0.2,0.4-0.4,0.6
					c-0.3,0.2-0.6,0.2-1,0.4c0.1-0.4,0.2-0.5,0.5-0.7s0.7-0.3,0.9-0.8c0.1,0.1,0.1,0.1,0.1,0.2c0,0,0.1,0.1,0.1,0
					c0.3-0.2,0.7-0.3,0.8-0.7c0-0.1,0.1-0.1,0-0.2c-0.5,0.5-0.6,0.5-1.3,0.6c-0.4,0-0.7,0.2-1,0.5c-0.1,0.1-0.1,0.1-0.2,0.2
					c0.1-0.6,0.3-0.8,0.7-1.1c0.4-0.2,0.7-0.3,1.1-0.5c0.2-0.1,0.4-0.2,0.6-0.3c0.2-0.1,0.2-0.3,0.2-0.5c0,0,0,0-0.1,0
					c-0.2,0.3-0.5,0.4-0.9,0.4s-0.8,0.2-1.2,0.4l0,0c0.4-0.6,0.9-1,1.5-1.3C40.4,277.4,40.5,277.3,40.2,277.1"/>
			</g>
		</g>
		<g>
			<g>
				<defs>
					<rect id="SVGID_127_" y="0.2" width="70" height="352.3"/>
				</defs>
				<clipPath id="SVGID_128_">
					<use xlink:href="#SVGID_127_"  style="overflow:visible;"/>
				</clipPath>
				<path class="st65" d="M38.1,277.3L38.1,277.3c-0.3,0.3-0.6,0.4-0.9,0.5c-0.2,0.1-0.4,0.1-0.6,0.3l-0.1,0.1c0,0,0-0.1,0-0.2
					c0.2-0.3,0.4-0.6,0.7-0.8s0.6-0.5,0.7-0.8l0,0c-0.4,0.3-0.8,0.5-1.3,0.7c0.1-0.5,0.4-0.8,0.7-1.1s0.7-0.5,1.1-0.8
					c0.1-0.1,0.3-0.2,0.4-0.3c0.1-0.1,0.1-0.1,0.1-0.3c-0.1,0.2-0.3,0.3-0.6,0.4c-0.2,0.1-0.5,0.2-0.7,0.3c-0.4,0.2-0.7,0.5-0.9,0.8
					c0,0,0,0.1-0.1,0.1c0-0.4,0-0.8,0.1-1.2c-0.1,0-0.3,0.1-0.4,0.1c-0.1,0-0.2,0-0.4-0.1v0.2v1.9c0,1.2,0,2.4,0,3.6
					c0,0.2,0,0.2,0.2,0.2c0.1,0,0.3,0,0.4-0.2c0.1-0.2,0.3-0.4,0.5-0.5c0,0,0.1,0,0-0.1c-0.1,0-0.2,0-0.3,0.1
					c-0.1,0.1-0.3,0.2-0.4,0.3l-0.1,0.1c-0.1,0,0-0.1,0-0.1c0.1-0.2,0.2-0.5,0.3-0.7c0.1-0.3,0.3-0.5,0.6-0.7l0,0
					c-0.5,0.1-0.6,0.5-0.9,0.7c0-0.6,0.2-1.1,0.7-1.5c0.2-0.2,0.5-0.3,0.7-0.5c0.1-0.1,0.2-0.1,0.3-0.2
					C38,277.5,38.1,277.5,38.1,277.3L38.1,277.3z"/>
			</g>
		</g>
		<g>
			<g>
				<defs>
					<rect id="SVGID_129_" y="0.2" width="70" height="352.3"/>
				</defs>
				<clipPath id="SVGID_130_">
					<use xlink:href="#SVGID_129_"  style="overflow:visible;"/>
				</clipPath>
				<path class="st66" d="M35.2,278.2c0,0-0.4-0.3-0.7-0.4c-0.4-0.1-0.8-0.3-1.1-0.7c0,0.2,0.1,0.3,0.2,0.4c0.1,0.1,0.2,0.2,0.4,0.3
					c0.2,0.2,0.5,0.3,0.7,0.5c0.4,0.3,0.5,0.8,0.6,1.3v0.1c-0.1,0-0.1,0-0.1-0.1c-0.1-0.1-0.1-0.2-0.2-0.3c-0.1-0.1-0.3-0.2-0.5-0.2
					c0.5,0.5,0.9,1,0.9,1.4c-0.3-0.1-0.4-0.4-0.7-0.3c0.3,0.1,0.5,0.3,0.7,0.6c0,0,0.3,0.1,0.5,0V275c-0.3,0.1-0.5,0.1-0.8-0.1
					c0.1,0.4,0.2,0.7,0.3,1.1c0,0.1,0.1,0.1,0,0.2c-0.1,0-0.1-0.1-0.1-0.1c-0.3-0.5-0.7-0.9-1.3-1c-0.3-0.1-0.7-0.2-0.9-0.6
					c0,0.1,0,0.2,0.1,0.3s0.3,0.2,0.4,0.3c0.4,0.3,0.8,0.5,1.1,0.8c0.4,0.3,0.6,0.7,0.8,1.1c-0.5-0.3-1-0.4-1.5-0.8
					c0,0.1,0.1,0.2,0.1,0.3c0.2,0.3,0.4,0.5,0.7,0.7c0.3,0.2,0.6,0.5,0.7,0.8C35.2,278.1,35.3,278.2,35.2,278.2"/>
			</g>
		</g>
		<g>
			<g>
				<defs>
					<rect id="SVGID_131_" y="0.2" width="70" height="352.3"/>
				</defs>
				<clipPath id="SVGID_132_">
					<use xlink:href="#SVGID_131_"  style="overflow:visible;"/>
				</clipPath>
				<path class="st67" d="M31.1,275.2c0.5,0.4,1,1,1.4,1.8c0.3,0.5,0.5,1.1,0.7,1.8c0.2,0.5,0.3,1,0.4,1.5c0,0.2,0.1,0.4,0.1,0.6
					c0.1,0,0.2,0,0.3,0c0.3,0,0.6,0,0.8,0c-0.1-0.2-0.3-0.4-0.8-0.5l0,0l0,0c0-0.1,0.1-0.3,0.3-0.4c0.1,0,0.1,0,0.2,0
					c0.1,0,0.1,0,0.2,0c0,0,0,0,0.1,0c-0.2-0.4-0.5-0.7-0.9-0.8l0,0l0,0c0.1-0.2,0.2-0.3,0.4-0.3c0.1,0,0.3,0.1,0.6,0.2
					c-0.1-0.2-0.3-0.4-0.5-0.6c-0.1-0.1-0.2-0.2-0.3-0.2c-0.1-0.1-0.3-0.2-0.4-0.3c-0.4-0.4-0.5-0.6-0.3-1.1v-0.1v0.1
					c0.1,0.1,0.1,0.2,0.2,0.2c0.1,0.1,0.3,0.2,0.5,0.3c-0.4-0.3-0.6-0.6-0.8-1.1c-0.1,0.2-0.2,0.5-0.3,0.7c0,0.1-0.1,0.3-0.1,0.4
					v-0.1v-0.1c0-0.2-0.1-0.4-0.1-0.7c0-0.1,0-0.2,0-0.3v-0.1c-0.1-0.6-0.6-1.1-1.1-1.1C31.3,274.9,31.2,275,31.1,275.2"/>
			</g>
		</g>
		<g>
			<g>
				<defs>
					<rect id="SVGID_133_" y="0.2" width="70" height="352.3"/>
				</defs>
				<clipPath id="SVGID_134_">
					<use xlink:href="#SVGID_133_"  style="overflow:visible;"/>
				</clipPath>
				<path class="st68" d="M37.5,281.1c0.1,0,0.1,0,0.2,0c0.1,0,0.1-0.1,0.1-0.1l0.1-0.2c0.3-1.1,0.5-2.2,1-3.3
					c0.3-0.6,0.6-1.3,1.2-1.9c0.1-0.1,0.2-0.2,0.4-0.3l0.1-0.1c-0.1-0.2-0.3-0.3-0.5-0.3c-0.6,0.1-1.2,0.7-1.2,1.3
					c0,0.1,0,0.2,0,0.2c0,0.2,0,0.4,0,0.6c0,0,0,0,0,0.1s0,0.2-0.1,0.3v0.1v-0.1c0-0.1-0.1-0.3-0.1-0.4c-0.1-0.3-0.1-0.5-0.2-0.8
					c0,0.2-0.1,0.3-0.2,0.5c-0.1,0.2-0.2,0.3-0.4,0.5c-0.1,0.1-0.2,0.1-0.3,0.2h0.1c0.4-0.1,0.7-0.5,0.7-0.5c0.3,0.6,0.3,0.6-0.2,1
					c-0.1,0.1-0.1,0.1-0.2,0.2l-0.1,0.1l-0.1,0.1c-0.1,0.1-0.2,0.2-0.3,0.3c-0.1,0.1-0.3,0.3-0.4,0.5l0,0c0.1-0.1,0.2-0.1,0.4-0.2
					c0.3-0.1,0.5,0.1,0.6,0.3l0,0l0,0c-0.5,0.2-0.8,0.5-0.9,0.8c0.1,0,0.1,0,0.2,0c0.3,0,0.4,0.1,0.5,0.4l0,0l0,0
					c-0.3,0-0.6,0.2-0.8,0.5C37.2,280.9,37.4,280.9,37.5,281.1C37.3,281.1,37.4,281.1,37.5,281.1"/>
			</g>
		</g>
		<g>
			<g>
				<defs>
					<rect id="SVGID_135_" y="0.2" width="70" height="352.3"/>
				</defs>
				<clipPath id="SVGID_136_">
					<use xlink:href="#SVGID_135_"  style="overflow:visible;"/>
				</clipPath>
				<path class="st69" d="M42,297.6c0-0.1-0.1-0.2-0.1-0.2c-0.3-0.5-0.6-0.9-0.8-1.4c-0.1-0.3-0.3-0.5-0.5-0.7
					c-0.6-0.5-1.1-1.2-1.3-2.1c-0.1-0.7-0.3-1.3-0.6-1.9c-0.1-0.3-0.2-0.5-0.3-0.8c0-0.2-0.1-0.5-0.1-0.7l0,0c0,0.1,0,0.1,0,0.2
					c-0.1,1.2,0.1,2.4,0.3,3.6c0.2,0.9,0.4,1.9,0.9,2.8c0.1,0.2,0.2,0.3,0.4,0.4C40.6,297,41.3,297.2,42,297.6L42,297.6"/>
			</g>
		</g>
		<g>
			<g>
				<defs>
					<rect id="SVGID_137_" y="0.2" width="70" height="352.3"/>
				</defs>
				<clipPath id="SVGID_138_">
					<use xlink:href="#SVGID_137_"  style="overflow:visible;"/>
				</clipPath>
				<path class="st70" d="M26.9,277.2c0.4,0.2,1,0,1.2-0.4c0.1-0.2,0.2-0.4,0.3-0.5c0,0.4,0,0.7,0,1c0,0.3-0.1,0.6-0.4,0.7
					c0.1,0.1,0.2,0.1,0.3,0c0.2-0.1,0.4-0.2,0.5-0.4c0.1-0.1,0.1-0.2,0.2-0.3c0-0.1,0.1-0.2,0.2-0.2s0.1,0.1,0.1,0.2
					c0.2,0.6,0,1-0.5,1.3c0.1,0.1,0.1,0.1,0.2,0.1c0.2,0,0.3-0.1,0.4-0.2c0.3-0.4,0.5-0.8,0.4-1.3c0-0.1-0.1-0.3,0-0.4
					c0.1,0,0.2,0.1,0.2,0.1c0.1,0.1,0.2,0.2,0.3,0.3c0.2,0.1,0.4,0,0.5-0.2c-0.3,0-0.5-0.2-0.6-0.4c0.1,0,0.2,0,0.3,0
					c0.2,0.1,0.3,0.1,0.5,0.2c0.3,0,0.4-0.1,0.5-0.4l0,0c-0.5,0.1-1-0.3-1-0.8s0.3-0.9,0.7-1c0.4-0.1,0.8,0.1,1.1,0.3
					c0.2,0.1,0.3,0.3,0.4,0.4c-0.1-0.9-1.1-1.4-1.9-1c-0.1-0.1-0.2-0.1-0.3-0.1c-0.5,0-0.9,0.3-1.2,0.7c-0.1,0.1-0.2,0.1-0.2,0.1
					c-0.5-0.1-1,0.3-1.1,0.8c-0.1,0.4-0.3,0.7-0.5,0.9c-0.3,0.3-0.5,0.3-0.9,0C26.7,277,26.7,277.2,26.9,277.2"/>
			</g>
		</g>
		<g>
			<g>
				<defs>
					<rect id="SVGID_139_" y="0.2" width="70" height="352.3"/>
				</defs>
				<clipPath id="SVGID_140_">
					<use xlink:href="#SVGID_139_"  style="overflow:visible;"/>
				</clipPath>
				<path class="st71" d="M30,284.4c-0.7,0.8-1.3,1.7-1.7,2.6c-0.1,0.1-0.1,0.2,0,0.3c0.6,1.1,0.8,2.3,0.9,3.6
					c0.1,0.9,0.1,1.8,0,2.6c0,0.2,0,0.5-0.1,0.8c0.3-0.3,0.6-0.6,0.8-0.9c0.2-0.3,0.3-0.7,0.3-1.1c0-0.1,0-0.2-0.1-0.2
					c-0.2-0.3-0.3-0.6-0.4-0.9c0-0.1-0.1-0.2,0-0.2c0.1-0.1,0.2,0,0.2,0.1c0.1,0.3,0.3,0.5,0.5,0.8c0,0.1,0.1,0.1,0.2,0.1
					c0.3,0,0.6-0.1,0.7-0.4s0.1-0.6-0.1-0.9c-0.3,0.3-0.7,0.3-1-0.1c-0.1-0.1-0.2-0.2-0.2-0.3c-0.2-0.3-0.3-0.7-0.4-1
					c-0.2-0.6-0.3-1.2-0.5-1.8c-0.1-0.2-0.1-0.4,0-0.6c0.6-0.9,1.1-1.5,2.1-2.1c0.1-0.1,0.3-0.1,0.3-0.1c0.2,0.3,0.3,0.3,0.5,0
					c0.1-0.1,0.1-0.2,0-0.3s-0.2-0.2-0.3-0.1c-0.6,0.2-1,0.3-1.5,0.1C30,284.4,30,284.4,30,284.4"/>
			</g>
		</g>
		<g>
			<g>
				<defs>
					<rect id="SVGID_141_" y="0.2" width="70" height="352.3"/>
				</defs>
				<clipPath id="SVGID_142_">
					<use xlink:href="#SVGID_141_"  style="overflow:visible;"/>
				</clipPath>
				<path class="st72" d="M40.3,274.3c-0.6-0.1-1.1,0.3-1.4,0.9v0.1c0.1-0.1,0.2-0.2,0.3-0.3s0.3-0.2,0.4-0.3
					c0.7-0.4,1.3-0.1,1.5,0.7c0.1,0.4-0.1,0.9-0.5,1c-0.1,0.1-0.3,0-0.5,0c0.1,0.3,0.3,0.5,0.6,0.3c0.1,0,0.1-0.1,0.2-0.1
					c0.1,0,0.1,0,0.2,0c-0.1,0.2-0.4,0.2-0.6,0.3c0.1,0.1,0.2,0.2,0.4,0.2c0.1,0,0.2,0,0.4,0c0.3,0,0.3,0,0.4,0.3
					c0.1,0.3,0.1,0.7,0.3,0.9c0.1,0.1,0.2,0.3,0.4,0.3c0.1,0,0.2,0,0.3-0.1c-0.5-0.2-0.7-1.2-0.3-1.5c0.1,0.1,0.1,0.2,0.2,0.3
					c0.1,0.3,0.3,0.5,0.5,0.6c0.1,0.1,0.2,0.1,0.4,0c-0.3-0.1-0.3-0.4-0.3-0.6c-0.1-0.3,0-0.4,0.4-0.4c0.2,0,0.4,0.1,0.6,0.2
					c0.2,0.1,0.5,0.1,0.7-0.1c0.1-0.1,0.2-0.2,0.1-0.4c-0.2,0.2-0.4,0.2-0.7,0.1c-0.1,0-0.2-0.1-0.2-0.2c-0.3-0.3-0.4-0.6-0.5-0.9
					c-0.1-0.5-0.6-0.8-1.1-0.8c0,0-0.2-0.2-0.3-0.3c-0.3-0.3-0.7-0.7-1.1-0.4c0,0-0.2,0.1-0.1,0.1"/>
			</g>
		</g>
	</g>
	<path class="st9" d="M35.1,273.8L35.1,273.8L35.1,273.8z"/>
	<g>
		<g>
			<g>
				<defs>
					<rect id="SVGID_143_" y="0.2" width="70" height="352.3"/>
				</defs>
				<clipPath id="SVGID_144_">
					<use xlink:href="#SVGID_143_"  style="overflow:visible;"/>
				</clipPath>
				<polyline class="st73" points="38,273 38,273 37.9,273 38,272.9 38,273 				"/>
			</g>
		</g>
		<g>
			<g>
				<defs>
					<rect id="SVGID_145_" y="0.2" width="70" height="352.3"/>
				</defs>
				<clipPath id="SVGID_146_">
					<use xlink:href="#SVGID_145_"  style="overflow:visible;"/>
				</clipPath>
				<path class="st74" d="M37.5,273.2L37.5,273.2c0.1,0.2,0.2,0.3,0.2,0.5c0.1,0.3-0.1,0.6-0.2,0.8c0,0-0.1,0.1,0,0.2
					c0,0.1,0.1,0,0.2,0c0.2,0,0.4-0.2,0.4-0.4c0.1-0.2,0.1-0.5,0-0.7c0-0.2-0.1-0.3-0.1-0.5c0.6,0.4,1.4,0.5,1.7,0.1
					c-0.2,0-0.3,0-0.5-0.1c-0.1-0.1-0.2-0.2-0.4-0.3c-0.2-0.2-0.4-0.3-0.7-0.4c-0.1-0.1-0.1-0.1,0.1,0c0.2,0.1,0.3,0.1,0.6,0.1
					s0.6-0.1,0.8-0.3c0.1-0.2,0.2-0.4,0-0.6c-0.2,0.5-0.5,0.6-1,0.5c-0.1,0-0.2-0.1-0.4-0.1c-0.2-0.1-0.4-0.2-0.6-0.3
					c-0.6-0.3-1.3-0.4-1.9,0.1c-0.1,0.1-0.2,0.1-0.3,0c-0.6-0.5-1.5-0.5-2.1-0.1c-0.2,0.1-0.4,0.2-0.6,0.3c-0.3,0.1-0.6,0.1-0.8-0.1
					c-0.1-0.1-0.2-0.2-0.2-0.3c-0.2,0.2-0.2,0.5,0,0.7c0.3,0.3,0.7,0.3,1.1,0c0.1-0.1,0.1-0.1,0.2-0.1c0.1-0.1-0.2,0.2-0.4,0.5
					c-0.2,0.2-0.3,0.3-0.6,0.3c-0.2,0-0.4,0-0.6-0.2c0,0.2,0.2,0.3,0.4,0.4c0.2,0.1,0.4,0,0.5,0c-0.1,0.1-0.3,0.2-0.5,0.2
					c0.1,0.1,0.2,0.1,0.3,0.1c0.4,0,0.6-0.2,0.9-0.4c0.1-0.1,0.2-0.2,0.3-0.3v0.1c-0.1,0.5,0.1,0.9,0.3,1.4c0.1,0.2,0.3,0.3,0.5,0.3
					c-0.1-0.3-0.1-0.6-0.1-0.9s0.1-0.6,0.4-0.8c0,0.3,0,0.5,0,0.8c0.1,0.6,0.4,1,0.9,1.1c0.1,0,0.2,0,0.2,0
					c-0.3-0.2-0.4-0.5-0.4-0.9c0.1,0.1,0.1,0.2,0.2,0.3c0.2,0.2,0.5,0.3,0.7,0.2c0.3-0.1,0.4-0.3,0.4-0.6c0-0.1,0-0.3,0-0.4
					c0-0.1,0-0.1,0-0.2c0.2,0.2,0.3,0.5,0.3,0.8c0,0.3-0.1,0.6-0.5,0.8c0.2,0,0.3,0,0.3,0c0.3-0.1,0.5-0.4,0.7-0.6
					C37.5,273.8,37.6,273.5,37.5,273.2L37.5,273.2"/>
			</g>
		</g>
		<g>
			<g>
				<defs>
					<rect id="SVGID_147_" y="0.2" width="70" height="352.3"/>
				</defs>
				<clipPath id="SVGID_148_">
					<use xlink:href="#SVGID_147_"  style="overflow:visible;"/>
				</clipPath>
				<path class="st75" d="M25.2,282.6c0.1,0.7,0.1,1.4-0.1,2.1c-0.2,0.9-0.6,1.6-1,2.4c-0.4,0.7-0.7,1.5-0.9,2.3
					c-0.2,0.5-0.3,1.1-0.2,1.6c0.1,0.7,0.4,1.3,0.9,1.8c0.1,0.1,0.2,0.1,0.3,0.1c0.2-0.1,0.5-0.1,0.7-0.2c0.6-0.2,1.2-0.1,1.8,0.3
					c0.2,0.1,0.4,0.2,0.6,0.3c0.3,0.2,0.7,0.3,1,0.3s0.4-0.1,0.5-0.4c0-0.1,0-0.1-0.1-0.2c-0.1-0.1-0.2-0.1-0.4-0.2
					c-0.3-0.1-0.4-0.4-0.4-0.7c0-0.1,0-0.2,0-0.3s0-0.2,0-0.2c0-0.1,0-0.1-0.1-0.1s-0.1,0-0.1,0.1c-0.1,0.1-0.2,0.2-0.2,0.3
					c-0.2,0.2-0.4,0.3-0.7,0.4c-0.6,0.1-1.2,0-1.7-0.3c-0.6-0.3-0.9-0.7-1.1-1.3c-0.1-0.4-0.1-0.4,0.3-0.5c0.2-0.1,0.4-0.2,0.4-0.5
					c0-0.1,0-0.2,0-0.3c0-0.5,0-1,0.2-1.4c0.1-0.3,0.3-0.7,0.4-1c0.4-1,0.8-2,0.8-3.1c0.1-1.3-0.4-2.4-1.5-3.2
					c-0.4-0.3-0.8-0.3-1.2-0.2C24.6,280.8,25,281.6,25.2,282.6"/>
			</g>
		</g>
		<g>
			<g>
				<defs>
					<rect id="SVGID_149_" y="0.2" width="70" height="352.3"/>
				</defs>
				<clipPath id="SVGID_150_">
					<use xlink:href="#SVGID_149_"  style="overflow:visible;"/>
				</clipPath>
				<path class="st76" d="M36,287.5c-0.6,0-6.2,0.3-6.5,0.4c0.1,0.2,0.1,0.4,0.2,0.6c0.1,0.5,0.3,1.1,0.5,1.6
					c0.1,0.2,0.1,0.3,0.3,0.4c0.2,0.1,0.3,0.1,0.4-0.1c0.1-0.1,0.1-0.2,0.2-0.3c0.3,0.3,0.5,0.7,0.5,1.1c0,0.4-0.2,0.8-0.5,1
					c-0.1,0-0.2,0.1-0.3,0.1c-0.2,0.1-0.3,0.2-0.3,0.4c0,0.4-0.1,0.7-0.4,1c-0.2,0.3-0.5,0.7-0.8,1c-0.1,0.1-0.2,0.3-0.2,0.5
					c0,0.1,0,0.2,0,0.3c-0.1,0.3-0.2,0.7-0.2,1c2.4-3.1,4.8-6.2,7.7-8.9"/>
			</g>
		</g>
		<g>
			<g>
				<defs>
					<rect id="SVGID_151_" y="0.2" width="70" height="352.3"/>
				</defs>
				<clipPath id="SVGID_152_">
					<use xlink:href="#SVGID_151_"  style="overflow:visible;"/>
				</clipPath>
				<path class="st77" d="M19.5,287.2c0.2-0.1,0.4-0.1,0.6-0.2c0.3-0.1,0.5-0.4,0.6-0.7c0.1-0.3,0-0.6-0.1-0.9
					c-0.1-0.3-0.2-0.5-0.2-0.8c0-0.1,0-0.3,0.1-0.3s0.1,0.1,0.2,0.2l0,0c0,0.6,0.4,0.9,0.9,1c0.1,0,0.1,0,0.1,0
					c0.2-0.3,0.5-0.5,0.5-0.9c0.1-0.5,0-0.9-0.3-1.2c-0.2-0.2-0.3-0.4-0.5-0.6c-0.2-0.2-0.3-0.5-0.2-0.7c0.1-1,0.9-1.8,1.9-2
					c0.1,0,0.2,0,0.3-0.1c-0.8-0.2-1.6,0-2.3,0.4c-0.8,0.5-1,1.1-2.4,1.6c-0.2,0.1-0.4,0.1-0.5,0.3c-0.4,0.3-0.8,0.7-0.9,1.2
					c0,0.5-0.1,0.9-0.1,1.4c0,0.1,0,0.1,0,0.2c0,0.1,0.1,0.1,0.1,0.2c0.3,0.1,0.6-0.1,0.7-0.3c0.1-0.1,0.1-0.3,0.2-0.4
					c0-0.1,0.1-0.2,0.2-0.3c0,0,0-0.1,0.1-0.1s0.1,0.1,0.1,0.1c0,0.1,0,0.3-0.1,0.4c-0.1,0.2-0.2,0.3-0.3,0.5
					c-0.3,0.5-0.4,1.1,0,1.6c0.1,0.2,0.3,0.5,0.4,0.7C19,287.3,19.2,287.2,19.5,287.2"/>
			</g>
		</g>
		<g>
			<g>
				<defs>
					<rect id="SVGID_153_" y="0.2" width="70" height="352.3"/>
				</defs>
				<clipPath id="SVGID_154_">
					<use xlink:href="#SVGID_153_"  style="overflow:visible;"/>
				</clipPath>
				<path class="st78" d="M50.2,285.8L50.2,285.8c-0.3-0.3-0.3-0.6-0.2-0.9c0.1-0.2,0.2-0.5,0.3-0.7c0.4-1.2,0-2.3-1.2-2.9
					c-1.1-0.5-2.1-0.4-3.1,0.2c0,0,0,0-0.1,0l0,0c0.1,0,0.1,0,0.2-0.1c0.6-0.2,1.2-0.2,1.8-0.1c0.6,0.1,1.1,0.4,1.3,1
					c0.3,0.7,0.1,1.6-0.6,2.1c-0.2,0.2-0.5,0.3-0.7,0.5c-0.6,0.4-0.7,0.8-0.6,1.5c0.1,0.5,0.3,0.8,0.3,1.4c0-0.3,0.5,0,0.7,0
					c0.4,0,0.6-0.1,0.9-0.4c0.2-0.2,0.3-0.5,0.1-0.8c0-0.1,0-0.2-0.1-0.2v-0.1c0.1,0,0.1,0,0.1,0c0.1,0.1,0.2,0.3,0.2,0.4
					c0,0.3,0.1,0.6,0.2,0.9c0.3,0.7,0.9,1.3,1.9,1.1c0.2,0,0.4,0,0.6,0c0.1,0,0.2,0,0.3,0.1c0.1,0,0.1,0.1,0.2,0.1c0-0.3,0-0.7,0-1
					c0-0.4-0.2-0.7-0.6-0.9c-0.2-0.1-0.4-0.2-0.6-0.3c-0.1-0.1-0.2-0.2-0.2-0.4s0-0.3,0.2-0.3c0.1,0,0.2,0,0.3,0.1
					c0.4,0.1,0.5,0.1,0.6-0.3v-0.1c0.1-0.2,0-0.5,0.3-0.7c-0.1,0-0.1,0-0.2-0.1c-0.3-0.1-0.5-0.2-0.6-0.5c-0.1-0.3-0.3-0.3-0.6-0.2
					c-0.2,0-0.3,0.1-0.5,0.2c-0.2,0.1-0.3,0.2-0.5,0.3c-0.1,0-0.2,0.1-0.3,0.3C50.1,285.3,50.1,285.5,50.2,285.8L50.2,285.8"/>
			</g>
		</g>
		<g>
			<g>
				<defs>
					<rect id="SVGID_155_" y="0.2" width="70" height="352.3"/>
				</defs>
				<clipPath id="SVGID_156_">
					<use xlink:href="#SVGID_155_"  style="overflow:visible;"/>
				</clipPath>
				<path class="st79" d="M48.7,309.9c-0.1,0.1-0.2,0.3-0.1,0.5c0,0.2,0.1,0.3,0.1,0.5c0.1,0.2,0,0.4-0.1,0.6s-0.3,0.2-0.4,0
					c-0.1-0.1-0.1-0.2-0.2-0.3c-0.2-0.3-0.6-0.3-0.9-0.1c-0.2,0.1-0.3,0.3-0.3,0.5c-0.1,0.3-0.1,0.5-0.2,0.8c0,0.2-0.1,0.3-0.3,0.4
					S46,313,46,313c0.2,0.1,0.3,0.3,0.4,0.6c0,0.1,0.1,0.2,0.1,0.3c0,0.1,0.1,0.2,0.2,0.3c0.4,0.2,0.8,0.3,1.2,0l0,0
					c0,0,0.1-0.1,0.1,0v0.1c0,0.2-0.2,0.4-0.4,0.4c-0.2,0.1-0.3,0.1-0.5,0.1c-0.4,0.1-0.7,0.3-0.7,0.7c-0.1,0.4,0,0.8,0.1,1.2
					c0,0.1,0,0.1,0.1,0.1c0.3-0.1,0.7,0,1,0c0.6-0.1,1.1-0.3,1.2-1.2v-0.1c0-0.6,0.3-0.9,0.8-1.1c0.1,0,0.2-0.1,0.3-0.1
					c0.3-0.1,0.6-0.2,0.9-0.3c0.1,0,0.2-0.1,0.3-0.2c0.3-0.4,0.6-0.7,0.8-1.1c0,0,0.1-0.1,0.1-0.2c-0.1,0.1-0.2,0.2-0.3,0.2
					c-0.2,0.1-0.4,0.1-0.5,0.1c-0.6-0.2-0.9-0.8-0.6-1.3c0.1-0.2,0.2-0.4,0.3-0.6c0.2-0.3,0.2-0.7,0.1-1c-0.1-0.4-0.3-0.6-0.7-0.8
					c-0.2-0.1-0.5-0.2-0.7-0.4C49.3,309.1,49,309.5,48.7,309.9"/>
			</g>
		</g>
		<g>
			<g>
				<defs>
					<rect id="SVGID_157_" y="0.2" width="70" height="352.3"/>
				</defs>
				<clipPath id="SVGID_158_">
					<use xlink:href="#SVGID_157_"  style="overflow:visible;"/>
				</clipPath>
				<path class="st80" d="M19.4,307.7c-0.2,0.2-0.5,0.4-0.6,0.7s-0.1,0.6,0.1,0.9c0.1,0.2,0.3,0.3,0.4,0.5c0.2,0.2,0.3,0.5,0.4,0.8
					c0.1,0.6-0.2,1-0.8,1.1c-0.9,0.1-1.6-0.1-2.2-0.7c-0.2-0.3-0.4-0.5-0.6-0.8c0,0,0-0.1-0.1-0.1c0,0,0-0.1-0.1-0.1
					c0.2,0.7,0.5,1.3,1,1.8c0.4,0.5,0.9,0.8,1.5,1c0.3,0.1,0.7,0.2,1.1,0.2c0.2,0,0.4,0,0.7,0.1l0,0c-0.2,0.1-0.2,0.1,0,0.3
					s0.3,0.4,0.4,0.7c0.1,0.2,0.1,0.4,0.1,0.7s0.1,0.5,0.2,0.7c0.2,0.3,0.5,0.5,0.9,0.6c0.3,0.1,0.6,0.2,0.9,0.3c0,0,0.1,0.1,0.2,0
					c0-0.3,0.1-0.5,0.2-0.8c0.1-0.2,0.2-0.3,0.3-0.5c0.3-0.6,0-1.2-0.7-1.4c-0.2,0-0.4-0.1-0.6-0.2c-0.1,0-0.3-0.1-0.4-0.2
					c0-0.1-0.1-0.1,0-0.2s0.1,0,0.2,0c0,0,0.1,0,0.1,0.1c0.4,0.3,0.8,0.2,1.1-0.2c0.4-0.4,0.4-0.8,0.4-1.3c0-0.3,0-0.5,0.1-0.8
					c0-0.1,0.1-0.2,0.1-0.3c-0.1-0.1-0.2-0.1-0.3-0.1c-0.3-0.1-0.5-0.4-0.7-0.6c-0.3-0.2-0.4-0.2-0.6,0c-0.1,0.1-0.2,0.2-0.3,0.3
					c-0.1,0.1-0.3,0-0.4-0.1c-0.1-0.1-0.1-0.2,0-0.4c0.1-0.1,0.2-0.2,0.2-0.3c0.2-0.3,0.2-0.5,0.2-0.9c-0.1-0.5-0.3-0.8-0.7-1
					c-0.2-0.2-0.5-0.4-0.6-0.7C20,307.3,19.7,307.5,19.4,307.7"/>
			</g>
		</g>
		<g>
			<g>
				<defs>
					<rect id="SVGID_159_" y="0.2" width="70" height="352.3"/>
				</defs>
				<clipPath id="SVGID_160_">
					<use xlink:href="#SVGID_159_"  style="overflow:visible;"/>
				</clipPath>
				<path class="st81" d="M23.9,293.8c0-0.1-0.1-0.2-0.1-0.3c0-0.2-0.1-0.4-0.3-0.5c-0.4-0.3-0.8-0.7-0.9-1.2
					c-0.2-0.7-0.1-1.5,0-2.2c0.2-0.8,0.6-1.6,1-2.4s0.8-1.7,1.1-2.6c0.3-1,0.3-2-0.1-2.9c-0.3-0.6-0.5-1-1.2-1.1
					c-0.5-0.1-1,0-1.3,0.5c-0.1,0.1-0.3,0.4-0.3,0.4c0.4-0.2,0.7-0.1,1,0.1c0.2,0.2,0.4,0.4,0.5,0.7c0.4,0.9,0.3,1.7-0.2,2.6
					c-0.2,0.3-0.3,0.6-0.4,0.9c0,0.1-0.1,0.2-0.1,0.3s-0.1,0.1-0.2,0.1s-0.1-0.1,0-0.2c0.1-0.2,0.1-0.4,0.2-0.5
					c0.1-0.3,0.1-0.2-0.1-0.3c-0.1,0.1-0.2,0.3-0.3,0.4c-0.1,0.1-0.1,0.2-0.2,0.3c-0.2,0.3-0.3,0.3-0.6,0.2c-0.1,0-0.3,0-0.3,0.1
					s0,0.2,0,0.3c-0.1,0.5,0.1,0.8,0.2,1.3c0,0.2,0,0.3-0.1,0.5c-0.1,0.1-0.1,0.2-0.2,0.2s-0.1-0.2-0.1-0.2c0-0.3,0-0.5-0.2-0.7
					c-0.2-0.2-0.6-0.1-0.7-0.1s-0.2,0.2-0.3,0.3c-0.1,0.4-0.2,0.6-0.4,1c-0.2,0.5-0.1,0.9,0.2,1.3c0.1,0.2,0.2,0.3,0.3,0.5
					c0.1,0.2,0.2,0.4,0.1,0.6c0,0.1,0,0.1-0.1,0.2c-0.1-0.1-0.1-0.2-0.1-0.2c-0.1-0.4-0.3-0.7-0.7-0.8c-0.1,0-0.2,0-0.2,0.1
					c-0.1,0.4-0.2,0.7-0.3,1.1c-0.1,0.8,0.3,1.5,1.1,1.7c0.1,0,0.2,0.1,0.2,0.1c0.1,0,0.2,0.1,0.2,0.2s-0.1,0.1-0.2,0.1
					c-0.3,0-0.6,0.4-0.5,0.7c0.1,0.2,0.3,0.3,0.5,0.4c0.2,0.1,0.2,0,0.2-0.2c0-0.1,0-0.2,0-0.4c0-0.1,0-0.2,0.1-0.2
					c0.3-0.1,0.5-0.3,0.7-0.5c0.1-0.1,0.2-0.1,0.3-0.2c0.4-0.1,0.7-0.1,1.1,0s0.7,0.3,1.1,0.5C23.6,293.6,23.7,293.8,23.9,293.8
					L23.9,293.8"/>
			</g>
		</g>
		<g>
			<g>
				<defs>
					<rect id="SVGID_161_" y="0.2" width="70" height="352.3"/>
				</defs>
				<clipPath id="SVGID_162_">
					<use xlink:href="#SVGID_161_"  style="overflow:visible;"/>
				</clipPath>
				<path class="st82" d="M38.5,295.3c-0.4-1.3-0.5-2.6-0.6-4c-0.1-1.4,0-2.7,0.2-4.1c0.1-0.4,0.1-0.7,0.2-1.1l0,0
					c-0.1,0.1-0.1,0.1-0.2,0.1c-1.6,1.6-3.1,3.3-4.6,4.9c-1.7,1.9-3.3,3.8-4.8,5.8l-0.1,0.1h0.1c0.8-0.2,1.7-0.4,2.5-0.6
					c1.1-0.2,2.3-0.3,3.5-0.3s2.4,0.2,3.6,0.3c0.2,0,0.5,0.1,0.7,0.1C38.8,296.2,38.7,295.8,38.5,295.3 M32.1,295.5
					c-0.3,0-0.6-0.2-0.6-0.6c0-0.3,0.2-0.5,0.6-0.6c0.3,0,0.6,0.2,0.6,0.6C32.6,295.3,32.4,295.5,32.1,295.5 M33.2,294.1
					c-0.3,0-0.6-0.2-0.6-0.6c0-0.3,0.2-0.6,0.6-0.6c0.3,0,0.6,0.3,0.6,0.6S33.5,294.1,33.2,294.1 M34.5,292.7
					c-0.3,0-0.6-0.2-0.6-0.5c0-0.3,0.2-0.6,0.6-0.6c0.3,0,0.6,0.2,0.6,0.5C35,292.4,34.8,292.7,34.5,292.7 M35.6,291.3
					c-0.3,0-0.6-0.2-0.6-0.6c0-0.3,0.3-0.6,0.6-0.6s0.6,0.2,0.6,0.6C36.1,291.1,35.9,291.3,35.6,291.3 M36.6,290.1
					c-0.3,0-0.6-0.3-0.5-0.6c0-0.3,0.3-0.5,0.6-0.5s0.5,0.3,0.5,0.6C37.2,289.8,36.9,290.1,36.6,290.1"/>
			</g>
		</g>
		<g>
			<g>
				<defs>
					<rect id="SVGID_163_" y="0.2" width="70" height="352.3"/>
				</defs>
				<clipPath id="SVGID_164_">
					<use xlink:href="#SVGID_163_"  style="overflow:visible;"/>
				</clipPath>
				<path class="st83" d="M28.2,296.3c-0.6,0.3-1.3,0.6-2,0.8c-0.8,0.2-1.7,0.4-2.5,0.6c-1.7,0.5-2.8,1.4-4,2.8
					c-0.7,0.8-1.2,1.8-1.7,2.7c-0.2,0.3-0.4,0.7-0.5,1c-0.5,1.3-0.7,2.7-0.7,4.1c0,0.6,0.1,1.2,0.3,1.8c0.2,0.4,0.4,0.8,0.9,1
					c0.1,0.1,0.2,0.1,0.3,0.1c-0.4-0.6-0.6-1.2-0.7-1.7c-0.1-1,0.1-1.9,0.5-2.8c0.3-0.5,0.6-1,0.9-1.5c0.4-0.7,0.8-1.4,0.9-2.2
					c0.1-0.3,0.1-0.7,0.3-1c0-0.1,0.1-0.2,0.2-0.2c0.1,0.1,0,0.2,0,0.2c0,0.2-0.1,0.4-0.1,0.7c-0.1,0.4-0.1,0.8,0.1,1.2
					c0.1,0.2,0.1,0.3,0.2,0.5c0,0.1,0.1,0.1,0.2,0.1c0.5-0.2,0.9-0.5,1.1-1c0.2-0.4,0.3-0.8,0.4-1.3c0-0.4,0-0.9,0.1-1.3
					c0-0.2,0.1-0.4,0.2-0.5c0-0.1,0.1-0.1,0.2-0.1s0.1,0.1,0.1,0.2c0,0.1,0,0.2,0,0.3c0,0.3,0,0.6,0,0.9c0,0.5,0.2,0.9,0.7,1.1
					c0.1,0,0.2,0.1,0.3,0.2c0.3,0.2,0.5,0.2,0.7,0c0.2-0.2,0.4-0.3,0.6-0.5c0.2-0.2,0.4-0.5,0.4-0.8c0-1.1,0-2,0-3.1v-0.4
					c4.5,0,3.1,0,3.5,0c0.1,0,0.2-0.1,0.3-0.1c0.2-0.3,0.2-0.3,0.5-0.6c0.1-0.1,0.2-0.2,0.3-0.3c-0.8,0.2-1.6,0.3-2.4,0.6
					C28,297.3,28.2,296.8,28.2,296.3C28.3,296.3,28.3,296.3,28.2,296.3"/>
			</g>
		</g>
		<g>
			<g>
				<defs>
					<rect id="SVGID_165_" y="0.2" width="70" height="352.3"/>
				</defs>
				<clipPath id="SVGID_166_">
					<use xlink:href="#SVGID_165_"  style="overflow:visible;"/>
				</clipPath>
				<path class="st84" d="M16.1,302.2c-0.2,0.2-0.3,0.3-0.5,0.4c-0.3,0.2-0.5,0.4-0.7,0.7c-0.4,0.7-0.5,1.5-0.4,2.3
					c0.1,0.3,0.1,0.5,0.2,0.8c0,0.1,0,0.1,0.2,0.1c0.2-0.1,0.3-0.1,0.5-0.2c0.2-0.1,0.4-0.2,0.5-0.5c0.1-0.1,0.1-0.2,0.2-0.3
					c0-0.1,0-0.1,0.1-0.1c0.1,0.1,0.1,0.2,0.1,0.3c0,0.1-0.1,0.3-0.2,0.4c-0.1,0.2-0.2,0.4-0.3,0.6c-0.2,1.1-0.1,2.1,0.5,3
					c0.2,0.3,0.4,0.5,0.6,0.8c0,0,0,0,0-0.1v-0.1c-0.3-0.6-0.4-1.2-0.4-1.8c-0.1-1.1,0.1-2.2,0.4-3.3c0.7-2.1,1.8-4,3.3-5.7
					c1-1.1,2.2-1.8,3.6-2.2c1-0.3,1.9-0.5,2.9-0.7c0.6-0.1,1.2-0.3,1.7-0.7c0.1-0.1,0.1-0.1,0.2-0.2c0.1-0.4,0.1-0.8,0.2-1.2
					c0-0.2,0.1-0.4,0.1-0.6c-0.1,0-0.2,0.1-0.3,0.1c-0.5,0.1-0.9,0-1.3-0.2c-0.3-0.2-0.6-0.3-0.9-0.5c-0.4-0.3-0.7-0.4-1-0.3
					c-0.3,0-0.6,0.1-0.9,0.2c-0.3,0.1-0.3,0.1-0.2,0.4c0.1,0.5,0.6,1,1,1c0.1,0,0.2,0,0.4,0c0.1,0,0.2,0,0.2,0.1
					c0,0.1-0.1,0.1-0.2,0.2c-0.2,0.1-0.5,0.1-0.7,0c-0.4-0.1-0.8-0.3-1.1-0.6c-0.3-0.3-0.7-0.6-1.1-0.8c-0.4-0.2-0.7-0.3-1.1-0.2
					s-0.7,0.4-1.1,0.6c-0.1,0-0.1,0.1,0,0.2c0.1,0.3,0.2,0.5,0.3,0.7c0.2,0.2,0.4,0.3,0.6,0.3c0.1,0,0.1,0,0.2,0s0.2,0,0.2,0.1
					c0,0.1-0.1,0.1-0.1,0.1c-0.1,0-0.2,0-0.3,0c-0.4,0-0.8-0.1-1.2-0.2c-0.9-0.2-1.7,0-2.5,0.5c-0.6,0.5-1,1.1-1.1,1.9
					c0,0.1,0,0.2,0.1,0.2c0.3,0.1,0.6,0.1,0.9,0c0.1-0.1,0.2,0,0.4-0.1c0.1,0,0.1,0,0.2,0c0,0.1-0.1,0.2-0.2,0.3
					c-0.2,0.1-0.4,0.2-0.5,0.2c-0.6,0.1-1.1,0.4-1.6,0.7c-0.3,0.2-0.5,0.5-0.6,0.8c0,0.2-0.1,0.3-0.1,0.5c-0.1,0.4-0.2,0.8-0.6,1.1
					c-0.1,0.1-0.1,0.2-0.1,0.3c0,0.3,0.1,0.6,0.2,1c0.2-0.1,0.3-0.1,0.5-0.1c0.4-0.1,0.7-0.2,1-0.5c0.1-0.1,0.2-0.1,0.3-0.1
					C16.3,302,16.2,302.1,16.1,302.2"/>
			</g>
		</g>
		<g>
			<g>
				<defs>
					<rect id="SVGID_167_" y="0.2" width="70" height="352.3"/>
				</defs>
				<clipPath id="SVGID_168_">
					<use xlink:href="#SVGID_167_"  style="overflow:visible;"/>
				</clipPath>
				<polyline class="st85" points="32.6,323 32.6,323 32.6,323 32.6,323 				"/>
			</g>
		</g>
		<g>
			<g>
				<defs>
					<rect id="SVGID_169_" y="0.2" width="70" height="352.3"/>
				</defs>
				<clipPath id="SVGID_170_">
					<use xlink:href="#SVGID_169_"  style="overflow:visible;"/>
				</clipPath>
				<polyline class="st86" points="32.6,323 32.6,323 32.6,323 32.6,323 				"/>
			</g>
		</g>
	</g>
	<polygon class="st9" points="35.2,298.6 28.8,298.6 35.2,305 	"/>
	<g>
		<g>
			<g>
				<defs>
					<rect id="SVGID_171_" y="0.2" width="70" height="352.3"/>
				</defs>
				<clipPath id="SVGID_172_">
					<use xlink:href="#SVGID_171_"  style="overflow:visible;"/>
				</clipPath>
				<path class="st87" d="M35.7,305.4c1.7,1.7,3.5,3.5,4,4.1h4.9v-10.9h-9L35.7,305.4z"/>
			</g>
		</g>
		<g>
			<g>
				<defs>
					<rect id="SVGID_173_" y="0.2" width="70" height="352.3"/>
				</defs>
				<clipPath id="SVGID_174_">
					<use xlink:href="#SVGID_173_"  style="overflow:visible;"/>
				</clipPath>
				<path class="st88" d="M32.3,310h-6.1c0,0,0,0,0,0.1c0,0.8,0.1,1.6,0.2,2.3c0.3,1.5,0.9,2.9,2,4c0.7,0.8,1.6,1.4,2.5,2
					c1.1,0.7,2.2,1.2,3.4,1.7c0.3,0.1,0.6,0.3,0.9,0.4c0-0.1,0-0.1,0-0.1c0-2.5,0-4.9,0-7.4c0-0.1,0-0.1-0.1-0.2
					C34.1,311.9,33.2,311,32.3,310"/>
			</g>
		</g>
		<g>
			<g>
				<defs>
					<rect id="SVGID_175_" y="0.2" width="70" height="352.3"/>
				</defs>
				<clipPath id="SVGID_176_">
					<use xlink:href="#SVGID_175_"  style="overflow:visible;"/>
				</clipPath>
				<path class="st89" d="M41,323.2c0-0.1-0.1-0.1-0.2-0.2c-0.3-0.2-0.6-0.1-0.7,0.3c0,0.2,0,0.3,0,0.5c0.2-0.1,0.5-0.2,0.7-0.2
					C41.1,323.5,41.2,323.4,41,323.2"/>
			</g>
		</g>
		<g>
			<g>
				<defs>
					<rect id="SVGID_177_" y="0.2" width="70" height="352.3"/>
				</defs>
				<clipPath id="SVGID_178_">
					<use xlink:href="#SVGID_177_"  style="overflow:visible;"/>
				</clipPath>
				<path class="st90" d="M33.3,323.8c-0.2,0.1-0.3,0.2-0.3,0.4c0,0.2,0.1,0.4,0.2,0.4c0.2,0.1,0.4,0,0.5-0.1
					c-0.1-0.2-0.1-0.4-0.2-0.6C33.5,323.8,33.5,323.8,33.3,323.8"/>
			</g>
		</g>
		<g>
			<g>
				<defs>
					<rect id="SVGID_179_" y="0.2" width="70" height="352.3"/>
				</defs>
				<clipPath id="SVGID_180_">
					<use xlink:href="#SVGID_179_"  style="overflow:visible;"/>
				</clipPath>
				<path class="st91" d="M31.1,323.3c-0.2-0.1-0.5,0.1-0.5,0.3c0,0.4,0,0.8,0,1.2c0,0,0,0,0.1,0c0.1-0.1,0.3-0.2,0.5-0.1
					c0.2,0.1,0.3,0,0.3-0.2c0-0.3,0-0.6-0.1-0.9C31.3,323.4,31.2,323.3,31.1,323.3"/>
			</g>
		</g>
		<g>
			<g>
				<defs>
					<rect id="SVGID_181_" y="0.2" width="70" height="352.3"/>
				</defs>
				<clipPath id="SVGID_182_">
					<use xlink:href="#SVGID_181_"  style="overflow:visible;"/>
				</clipPath>
				<path class="st92" d="M42.7,323.4c0.1,0.1,0.2,0.1,0.3,0.2c0.1,0,0.2,0.1,0.3,0.1c0.4,0.2,0.4,0.6,0.2,0.9
					c-0.2,0.2-0.4,0.2-0.6,0.3c-0.4,0.1-0.7,0-1.1-0.2c0.1-0.1,0.2-0.2,0.3-0.4c0.1,0.1,0.3,0.2,0.4,0.3c0.2,0.1,0.4,0.1,0.5-0.1
					s0.1-0.4-0.2-0.5c-0.1-0.1-0.3-0.1-0.4-0.2c-0.2-0.1-0.4-0.3-0.4-0.6c0-0.3,0.2-0.5,0.5-0.6c0.4-0.1,0.8,0,1.2,0.1
					c-0.1,0.1-0.2,0.2-0.3,0.3c-0.1-0.1-0.3-0.2-0.4-0.3c-0.1-0.1-0.3-0.1-0.4,0C42.6,323.1,42.6,323.3,42.7,323.4 M41.7,324.6
					c-0.1,0.2-0.3,0.2-0.5,0.3c-0.3,0.1-0.6,0.1-0.9,0c-0.9-0.2-1-1.1-0.6-1.6c0.3-0.5,1-0.7,1.5-0.5c0.3,0.1,0.4,0.3,0.5,0.6
					c-0.5,0.1-0.9,0.5-1.5,0.5c0,0.4,0.4,0.8,0.8,0.8C41.3,324.7,41.5,324.7,41.7,324.6C41.7,324.6,41.8,324.6,41.7,324.6
					C41.8,324.6,41.8,324.6,41.7,324.6 M39,325.1c-0.1,0.1-0.2,0-0.3,0c-0.2-0.2-0.4-0.4-0.5-0.6c-0.2-0.2-0.3-0.4-0.5-0.6v0.8
					c0,0.1,0,0.1,0.1,0.1s0.2,0,0.3,0c-0.1,0.1-0.1,0.1-0.2,0.1c-0.3,0-0.7,0-1,0c0.2-0.2,0.2-0.4,0.2-0.5v-2.5c-0.1,0-0.2,0-0.4,0
					c0.1-0.1,0.3-0.2,0.5-0.2c0.3,0,0.5,0,0.8,0c-0.2,0.2-0.2,0.4-0.2,0.5c0,0.5,0,0.9,0,1.4v0.2c0.3-0.2,0.6-0.3,0.8-0.5
					c-0.1-0.1-0.2-0.2-0.3-0.3c0.2-0.2,0.4-0.3,0.6-0.4c0.1,0.1,0.3,0.2,0.4,0.3c-0.3,0.3-0.6,0.5-0.9,0.7c0.4,0.4,0.7,0.9,1.1,1.3
					C39.3,325,39.2,325.1,39,325.1 M36.5,323.2L36.5,323.2c-0.2,0-0.3,0-0.4,0c-0.2,0.1-0.3,0.2-0.3,0.4c0,0.3,0,0.6,0,0.9
					c0,0.2,0,0.2,0.2,0.2c0.1,0,0.2,0,0.3,0c-0.1,0.1-0.1,0.1-0.2,0.1c-0.3,0-0.6,0-0.9,0H35c0.1-0.6,0-1.2,0.1-1.7
					c-0.2,0-0.3-0.1-0.5-0.1c0.4-0.3,0.8-0.1,1.3-0.2c-0.1,0.1-0.1,0.2-0.1,0.4c0.3-0.3,0.6-0.4,1-0.4
					C36.7,322.9,36.6,323.1,36.5,323.2 M33.8,324.6c-0.3,0.3-0.7,0.4-1,0.3c-0.2,0-0.4-0.1-0.4-0.3c-0.1-0.2-0.1-0.4,0.1-0.6
					c0.1-0.2,0.3-0.3,0.5-0.3c0.2-0.1,0.4-0.1,0.6-0.2c-0.1-0.4-0.3-0.6-0.7-0.6h-0.1c0.3-0.2,0.7-0.2,1.1-0.1
					c0.2,0,0.3,0.2,0.3,0.4c0.1,0.2,0.1,0.4,0.2,0.6c0.1,0.4,0.2,0.7,0.4,1C34.4,325,34.1,324.9,33.8,324.6 M31.7,324.6
					c-0.3,0.2-0.6,0.3-0.9,0.3c-0.1,0-0.1,0-0.2,0c0,0.3,0,0.7,0,1c0,0.1,0,0.2-0.1,0.2c-0.2,0.1-0.3,0.2-0.5,0.2c0-0.3,0-0.6,0-0.9
					c0-0.7,0-1.5,0-2.2c0-0.2,0-0.2-0.2-0.2c-0.1,0-0.1,0-0.2,0c0.1-0.1,0.2-0.1,0.3-0.1c0.3,0,0.5,0,0.8,0v0.3
					c0.1-0.1,0.2-0.2,0.3-0.2c0.4-0.3,0.9-0.1,1.1,0.3C32.2,323.7,32.1,324.3,31.7,324.6 M28.9,324.8c-0.3,0.2-0.6,0.2-0.9,0.2
					c-0.4,0-0.8-0.1-1.1-0.3c0.1-0.1,0.2-0.3,0.4-0.4c0.2,0.1,0.3,0.3,0.5,0.4c0.3,0.2,0.6,0.1,0.8-0.1c0.2-0.2,0.1-0.5-0.1-0.8
					c-0.1-0.1-0.3-0.2-0.4-0.2c-0.2-0.1-0.3-0.2-0.4-0.2c-0.6-0.4-0.6-1.1,0-1.5c0.4-0.3,0.8-0.2,1.3-0.2c0.1,0,0.3,0.1,0.4,0.2
					c-0.1,0.1-0.2,0.1-0.3,0.2c-0.1,0-0.1,0-0.1,0c-0.2-0.2-0.4-0.2-0.7-0.1c-0.2,0.1-0.3,0.2-0.3,0.4c0,0.2,0,0.4,0.2,0.5
					c0.2,0.1,0.3,0.2,0.5,0.3s0.3,0.2,0.5,0.3C29.6,323.7,29.5,324.5,28.9,324.8 M54.4,325.3L54.4,325.3c-1.1-2.1-2.1-4.1-2.8-6.3
					c0-0.1,0-0.1-0.1-0.2v-0.1c-0.1-0.2-0.7-0.7-1.6-0.6c-0.9,0.1-1.8,0.8-1.9,1.2c0,0.3,0.6,1.1,0.6,1.1l0,0l0.1,0.1
					c0,0,1-0.2,1.5-0.6c-0.3-0.6-0.3-0.6-0.4-1.1c-0.3,0.4-0.7,0.5-1,0.6c0-0.1-0.1-0.2-0.1-0.2c0.1-0.4,0.8-0.8,1.7-0.8
					c1.1,0,1,0.8,1,1.1c-0.3,1.1-2.6,1.5-2.4,1.5c-0.9,0.2-1.7,0.2-2.6,0.1c-0.5-0.1-0.9-0.3-1.2-0.7c-0.4-0.5-0.3-1.1,0.1-1.5
					c0,0,0,0,0-0.1c-0.4-0.1-0.8,0-1.2,0c-0.8,0.2-1.6,0.5-2.4,0.9c-0.8,0.4-1.5,0.7-2.4,0.9c-0.9,0.2-1.8,0.2-2.7-0.1
					c-0.1,0-0.1,0-0.2,0c-0.3,0.1-0.5,0.2-0.8,0.3c-0.1,0.1-0.2,0.1-0.4,0s-0.4-0.2-0.6-0.3c-0.3-0.1-0.3-0.2-0.5-0.1
					c-0.1,0-0.3,0.1-0.4,0.1c-1.1,0.2-2.2,0.1-3.2-0.2c-0.6-0.2-1.2-0.5-1.8-0.8c-0.8-0.3-1.5-0.7-2.3-0.8c-0.3,0-0.6,0-0.8,0
					c0.7,0.6,0.4,1.6-0.3,2c-0.1,0.1-0.3,0.1-0.4,0.2c-0.4,0.1-0.7,0.1-1.1,0.1c-0.5,0-1.1,0-1.6-0.1h-0.1c0,0-2.5-0.5-2.5-1.7
					c0-0.1,0-0.8,1.1-0.8c0,0,1.2-0.1,1.5,0.8c0,0.1-0.1,0.2-0.1,0.3c-0.3,0-1-0.5-1-0.5s-0.2,0.4-0.4,1c0.4,0.4,1.5,0.6,1.5,0.6
					l0.1-0.3c0.1-0.2,0.5-0.7,0.5-0.9c0.1-0.5-0.9-1.2-1.8-1.3c-0.3,0-0.6,0-0.9,0.1c-0.5,0.1-0.8,0.5-0.9,1c0,0.1-0.1,0.3-0.1,0.4
					c-0.5,2-1.4,3.8-2.5,5.6l-0.1,0.2c0,0,0.1,0.2,0.2,0.2l0.1,0.1c0.6,0.6,1.3,1,2.1,1.2c1.2,0.3,2.4,0.2,3.7,0.1
					c1-0.1,2-0.4,3-0.6c0.7-0.2,1.4-0.3,2.1-0.2c0.4,0.1,0.7,0.2,1,0.5c0.3,0.3,0.4,0.7,0.1,1.1c0,0,0,0,0,0.1c0.1,0,0.1,0,0.2,0
					c0.8-0.1,1.5-0.3,2.1-0.7c0.7-0.4,1.5-0.6,2.3-0.5c0.6,0.1,1.2,0.3,1.6,0.8c0.1,0.2,0.3,0.4,0.4,0.6c0.1,0.2,0.2,0.5,0.4,0.8
					c0-0.1,0.1-0.1,0.1-0.2c0.2-0.4,0.3-0.7,0.6-1.1c0.3-0.5,0.7-0.8,1.3-0.9c1-0.2,1.9-0.1,2.7,0.4c0.3,0.2,0.7,0.3,1,0.5
					c0.4,0.1,0.9,0.2,1.3,0.3c-0.3-0.5-0.3-0.9,0.2-1.3c0.1-0.1,0.2-0.1,0.2-0.1c0.3-0.1,0.6-0.2,0.9-0.2c0.6,0,1.2,0.1,1.8,0.2
					c1.4,0.3,2.8,0.7,4.3,0.7c0.9,0,1.7,0,2.5-0.2c0.8-0.2,1.4-0.6,2-1.2l0,0l0.1-0.1C54.4,325.6,54.5,325.4,54.4,325.3
					C54.5,325.4,54.5,325.4,54.4,325.3"/>
			</g>
		</g>
	</g>
</g>
</svg>
