<svg id="Layer_1" data-name="Layer 1" xmlns="http://www.w3.org/2000/svg" xmlns:xlink="http://www.w3.org/1999/xlink" viewBox="0 0 356.27 139.51"><defs><style>.cls-1{fill:none;}.cls-2{fill:#fff;}.cls-3{clip-path:url(#clip-path);}</style><clipPath id="clip-path"><rect class="cls-1" width="356.27" height="139.51"/></clipPath></defs><title>davonian-logo</title><rect class="cls-2" y="102.87" width="356.27" height="1.04"/><rect class="cls-2" x="0.1" y="138.47" width="356.17" height="1.04"/><g class="cls-3"><path class="cls-2" d="M347,129.61a6.2,6.2,0,0,0,3.54-.84,4.38,4.38,0,0,0,2.12-3.83c0-1.85-.86-3.42-3.66-5l-0.87-.48c-1.9-1.06-2.24-1.78-2.24-2.7,0-1.4,1.38-2.19,2.9-2.19a2.85,2.85,0,0,1,2.36,1,2.31,2.31,0,0,1,.55,1.35c0,0.24.07,0.36,0.21,0.36s0.26-.22.26-0.65c0-1.61.07-2.19,0.07-2.46a0.29,0.29,0,0,0-.29-0.26,12.49,12.49,0,0,0-3-.34c-2.94,0-5.35,1.61-5.35,4.12,0,1.81.82,3.18,3.32,4.65l1.23,0.72c1.88,1.11,2.1,2,2.1,2.89a2.66,2.66,0,0,1-2.94,2.6,3.28,3.28,0,0,1-3.38-2,3.83,3.83,0,0,1-.19-1.06,0.27,0.27,0,0,0-.22-0.34c-0.17,0-.26.22-0.26,0.53s-0.12,1.62-.12,2.72a0.56,0.56,0,0,0,.41.7,9.05,9.05,0,0,0,3.45.53m-16.17-6.22c0,1.88,0,3.49-.1,4.36a1,1,0,0,1-.62,1.08,2.9,2.9,0,0,1-.75.07c-0.26,0-.34.12-0.34,0.21s0.14,0.21.41,0.21c0.43,0,1,0,1.47,0l1.21,0c0.62,0,1.42,0,2.46,0s2.31,0.07,3.9.07c0.79,0,1,0,1.13-.53a13.92,13.92,0,0,0,.29-2.26c0-.22,0-0.48-0.19-0.48s-0.19.1-.24,0.31a1.73,1.73,0,0,1-.91,1.52,5.76,5.76,0,0,1-2,.26c-2.17,0-2.82-.31-2.87-1.71,0-.6,0-2.34,0-3v-1.64c0-.12,0-0.22.12-0.22,0.53,0,2.94,0,3.33.1a1.13,1.13,0,0,1,1.18.79c0,0.26,0,.53.07,0.75a0.16,0.16,0,0,0,.19.17c0.19,0,.21-0.29.21-0.46s0-1,.09-1.37c0.12-1,.17-1.37.17-1.49a0.19,0.19,0,0,0-.17-0.21,0.8,0.8,0,0,0-.33.26,1.51,1.51,0,0,1-1,.31c-0.48,0-3.23,0-3.71,0-0.12,0-.14-0.1-0.14-0.22v-5.06a0.16,0.16,0,0,1,.14-0.19c0.43,0,3,0,3.33.1,1.06,0.1,1.23.38,1.4,0.75a1.91,1.91,0,0,1,.14.74c0,0.17,0,.26.17,0.26a0.36,0.36,0,0,0,.24-0.34c0.05-.24.1-1.13,0.12-1.35a8.89,8.89,0,0,1,.17-1.32,0.16,0.16,0,0,0-.15-0.19,2.8,2.8,0,0,0-.34.1,8.36,8.36,0,0,1-.89.12c-0.41,0-5.11,0-5.78,0s-1.95,0-3.06,0c-0.31,0-.48,0-0.48.19s0.15,0.21.36,0.21a3.8,3.8,0,0,1,.84.07,1,1,0,0,1,.91,1.11c0,0.65,0,1.23,0,4.34v3.61Zm-10.29,0c0,2,0,3.61-.1,4.46a0.88,0.88,0,0,1-.63,1,3,3,0,0,1-.74.07c-0.27,0-.34.12-0.34,0.21s0.14,0.21.41,0.21c0.84,0,2.29-.07,2.77-0.07s2,0.07,3.42.07c0.24,0,.41-0.07.41-0.21a0.28,0.28,0,0,0-.34-0.21,7.68,7.68,0,0,1-1.08-.07,0.89,0.89,0,0,1-.84-1c-0.1-.87-0.1-2.5-0.1-4.48v-3.61c0-3.11,0-3.69.05-4.34a0.92,0.92,0,0,1,.79-1.11,2.81,2.81,0,0,1,.62-0.07c0.22,0,.34,0,0.34-0.24s-0.17-.16-0.43-0.16c-0.82,0-2.19,0-2.72,0s-2,0-2.84,0c-0.34,0-.51,0-0.51.16s0.12,0.24.34,0.24a2.67,2.67,0,0,1,.77.09,1,1,0,0,1,.72,1.09c0,0.65,0,1.23,0,4.34v3.61Zm-13.35-8.12a0.25,0.25,0,0,1,.19-0.29,7.81,7.81,0,0,1,1.26-.07c1.25,0,3.23.75,3.23,3.64a3.46,3.46,0,0,1-1.37,3,2.13,2.13,0,0,1-1.5.34,5.82,5.82,0,0,1-1.61-.19,0.32,0.32,0,0,1-.19-0.36v-6.09Zm-2.69,8.12c0,1.88,0,3.5-.09,4.36a1,1,0,0,1-.63,1.09,3,3,0,0,1-.75.07c-0.26,0-.34.12-0.34,0.21s0.14,0.21.41,0.21c0.84,0,2.19-.07,2.6-0.07s2.07,0.07,3.3.07c0.27,0,.43-0.07.43-0.21a0.24,0.24,0,0,0-.26-0.21,7.77,7.77,0,0,1-1-.07,0.94,0.94,0,0,1-.82-1.09c-0.1-.86-0.12-2.46-0.12-4.36V123.1a0.15,0.15,0,0,1,.17-0.17l1.9,0a0.49,0.49,0,0,1,.38.14c0.26,0.31,1.15,1.69,2,2.8a9.61,9.61,0,0,0,2.89,3,4.61,4.61,0,0,0,2.31.4h2c0.27,0,.41,0,0.41-0.21a0.25,0.25,0,0,0-.26-0.21,2,2,0,0,1-.51,0,4,4,0,0,1-2.26-1.35c-1.28-1.28-2.77-3.13-4.65-5.44,2.07-1.66,2.94-3,2.94-4.53a3.57,3.57,0,0,0-1.49-2.82,7.43,7.43,0,0,0-4-.86l-3.3,0c-0.43,0-1.78,0-2.89,0-0.31,0-.48,0-0.48.19s0.15,0.21.36,0.21a3.76,3.76,0,0,1,.84.07,1,1,0,0,1,.92,1.11c0,0.65,0,1.23,0,4.34v3.61Zm-13.4,0c0,1.88,0,3.49-.1,4.36a1,1,0,0,1-.63,1.08,2.92,2.92,0,0,1-.75.07c-0.26,0-.33.12-0.33,0.21s0.15,0.21.41,0.21c0.43,0,1,0,1.47,0l1.2,0c0.62,0,1.42,0,2.46,0s2.31,0.07,3.9.07c0.79,0,1,0,1.13-.53a13.64,13.64,0,0,0,.29-2.26c0-.22,0-0.48-0.19-0.48s-0.19.1-.24,0.31a1.73,1.73,0,0,1-.91,1.52,5.74,5.74,0,0,1-2,.26c-2.17,0-2.82-.31-2.87-1.71,0-.6,0-2.34,0-3v-1.64c0-.12,0-0.22.12-0.22,0.53,0,2.94,0,3.33.1a1.12,1.12,0,0,1,1.18.79c0,0.26,0,.53.07,0.75a0.16,0.16,0,0,0,.19.17c0.19,0,.21-0.29.21-0.46s0-1,.1-1.37c0.12-1,.17-1.37.17-1.49a0.19,0.19,0,0,0-.17-0.21,0.8,0.8,0,0,0-.33.26,1.51,1.51,0,0,1-1,.31c-0.48,0-3.23,0-3.71,0-0.12,0-.14-0.1-0.14-0.22v-5.06a0.16,0.16,0,0,1,.14-0.19c0.43,0,3,0,3.33.1,1.06,0.1,1.23.38,1.4,0.75a2,2,0,0,1,.14.74c0,0.17,0,.26.17,0.26a0.35,0.35,0,0,0,.24-0.34c0-.24.1-1.13,0.12-1.35a8.72,8.72,0,0,1,.17-1.32,0.16,0.16,0,0,0-.15-0.19,2.76,2.76,0,0,0-.33.1,8.27,8.27,0,0,1-.89.12c-0.41,0-5.11,0-5.78,0s-2,0-3.06,0c-0.31,0-.48,0-0.48.19s0.14,0.21.36,0.21a3.83,3.83,0,0,1,.85.07,1,1,0,0,1,.91,1.11c0,0.65,0,1.23,0,4.34v3.61Zm-19.18-5.21H272c0.41,0.36,2.65,2.85,5,5.06s4.86,4.67,6.19,5.9a1.26,1.26,0,0,0,.87.43c0.17,0,.34-0.19.34-0.65L284.58,116c0-1.16.19-1.52,0.77-1.69a2.13,2.13,0,0,1,.65-0.07c0.24,0,.36-0.09.36-0.21s-0.19-.19-0.48-0.19c-1,0-1.84,0-2.08,0-0.46,0-1.59,0-2.7,0-0.31,0-.53,0-0.53.19s0.07,0.21.34,0.21a3.55,3.55,0,0,1,1.1.12c0.51,0.19.7,0.55,0.72,1.81l0.22,9.1h-0.09c-0.31-.29-3.13-3.18-4.57-4.6-3.09-3-6.26-6.26-6.53-6.53a1.82,1.82,0,0,0-.91-0.67c-0.22,0-.36.29-0.36,0.7l-0.19,12.14c0,1.78-.1,2.34-0.65,2.48a4.22,4.22,0,0,1-1,.1,0.29,0.29,0,0,0-.34.21c0,0.19.19,0.21,0.48,0.21,1.08,0,2.09-.07,2.29-0.07,0.39,0,1.37.07,2.75,0.07,0.29,0,.48,0,0.48-0.21s-0.12-.21-0.36-0.21a3.54,3.54,0,0,1-1.11-.14c-0.41-.14-0.67-0.63-0.72-2.21Zm-11.37,5.21c0,2,0,3.61-.1,4.46a0.88,0.88,0,0,1-.62,1,3.05,3.05,0,0,1-.75.07c-0.27,0-.34.12-0.34,0.21s0.14,0.21.41,0.21c0.84,0,2.29-.07,2.77-0.07s2,0.07,3.42.07c0.24,0,.41-0.07.41-0.21a0.28,0.28,0,0,0-.34-0.21,7.65,7.65,0,0,1-1.08-.07,0.89,0.89,0,0,1-.84-1c-0.1-.87-0.1-2.5-0.1-4.48v-3.61c0-3.11,0-3.69.05-4.34a0.92,0.92,0,0,1,.8-1.11,2.79,2.79,0,0,1,.62-0.07c0.21,0,.34,0,0.34-0.24s-0.17-.16-0.43-0.16c-0.82,0-2.19,0-2.72,0s-2,0-2.84,0c-0.34,0-.5,0-0.5.16s0.12,0.24.34,0.24a2.72,2.72,0,0,1,.77.09,1,1,0,0,1,.72,1.09c0,0.65,0,1.23,0,4.34v3.61Zm-22.21,5.39c0.21,0.63.31,0.89,0.55,0.89s0.41-.29.87-1.28c1-2.21,4.24-10.74,4.7-12h0.05l5,12.07c0.36,0.89.51,1.18,0.75,1.18s0.43-.29.7-1.13c1.18-3.61,3.71-11.27,4.82-14.31,0.5-1.37.77-2.34,1.35-2.55a2.55,2.55,0,0,1,.84-0.12c0.22,0,.34-0.07.34-0.24s-0.17-.19-0.43-0.19c-0.79,0-1.83.07-2,.07s-1.23-.07-2.51-0.07c-0.36,0-.55,0-0.55.22s0.17,0.21.41,0.21c0.94,0,1.16.34,1.16,0.72a5.09,5.09,0,0,1-.24,1.4c-0.84,2.82-2.77,9.18-3.2,10.8h-0.07l-5-12.14c-0.31-.77-0.43-1.14-0.7-1.14s-0.36.19-.6,0.87l-4.68,12.57H239.8c-0.43-1.35-2.68-8.66-3.08-10.25a15.18,15.18,0,0,1-.53-2.2,0.48,0.48,0,0,1,.27-0.53,1.24,1.24,0,0,1,.6-0.1c0.24,0,.43,0,0.43-0.21s-0.17-.22-0.5-0.22c-1.4,0-2.46.07-2.68,0.07s-1.54-.07-2.79-0.07c-0.34,0-.53,0-0.53.22s0.14,0.21.38,0.21a2.12,2.12,0,0,1,1,.22,3.46,3.46,0,0,1,.89,1.71Zm-23.11-5.39c0,1.88,0,3.49-.09,4.36a1,1,0,0,1-.63,1.08,2.88,2.88,0,0,1-.74.07c-0.26,0-.34.12-0.34,0.21s0.14,0.21.41,0.21c0.84,0,2.29-.07,2.77-0.07s2,0.07,3.42.07c0.24,0,.41-0.07.41-0.21a0.28,0.28,0,0,0-.34-0.21,7.68,7.68,0,0,1-1.08-.07,1,1,0,0,1-.81-1.06c-0.1-.89-0.12-2.5-0.12-4.38v-8.29l2.67,0c1.9,0,2.45.65,2.5,1.18l0,0.21c0,0.31.07,0.41,0.24,0.41s0.17-.12.19-0.33c0-.53.05-2,0.05-2.48s0-.43-0.17-0.43-0.24.05-.58,0.1a10.37,10.37,0,0,1-1.45.09H213a20.53,20.53,0,0,1-2.12-.09c-0.53-.07-0.74-0.24-0.91-0.24s-0.19.12-.24,0.39-0.46,2.14-.46,2.48,0,0.34.19,0.34,0.19-.09.24-0.27a2.48,2.48,0,0,1,.36-0.7c0.31-.46.82-0.6,2-0.62l3.16-.07v8.29Zm-13.06,6.21a6.21,6.21,0,0,0,3.54-.84,4.38,4.38,0,0,0,2.12-3.83c0-1.85-.86-3.42-3.66-5l-0.87-.48c-1.9-1.06-2.24-1.78-2.24-2.7,0-1.4,1.38-2.19,2.89-2.19a2.85,2.85,0,0,1,2.36,1,2.32,2.32,0,0,1,.55,1.35c0,0.24.07,0.36,0.21,0.36s0.26-.22.26-0.65c0-1.61.07-2.19,0.07-2.46a0.29,0.29,0,0,0-.29-0.26,12.5,12.5,0,0,0-3-.34c-2.94,0-5.35,1.61-5.35,4.12,0,1.81.82,3.18,3.32,4.65l1.23,0.72c1.88,1.11,2.1,2,2.1,2.89a2.66,2.66,0,0,1-2.94,2.6,3.28,3.28,0,0,1-3.37-2,3.77,3.77,0,0,1-.19-1.06c0-.14,0-0.34-0.21-0.34s-0.26.22-.26,0.53-0.12,1.62-.12,2.72a0.57,0.57,0,0,0,.41.7,9.07,9.07,0,0,0,3.45.53m-15.92-6.55c-0.07,0-.12-0.05-0.07-0.15l2-5.18a0.24,0.24,0,0,1,.12-0.19,0.3,0.3,0,0,1,.1.19l2,5.21c0,0.07,0,.12-0.1.12h-4.09Zm4.55,1.13a0.2,0.2,0,0,1,.22.15l1.64,4.12a0.32,0.32,0,0,1-.19.46c-0.22,0-.26.1-0.26,0.21s0.24,0.14.62,0.17c1.78,0,3.33,0,4.07,0s0.91,0,.91-0.21-0.1-.21-0.29-0.21a4.85,4.85,0,0,1-.79-0.07c-0.38-.09-1-0.36-1.81-2.21-1.35-3.09-4.89-11.48-5.39-12.61-0.22-.46-0.31-0.65-0.63-0.65a1,1,0,0,0-.63.82l-5.54,12.89c-0.43,1-.79,1.66-1.76,1.81l-0.62,0a0.21,0.21,0,0,0-.24.21c0,0.17.12,0.21,0.39,0.21,1.11,0,2.24-.07,2.46-0.07,0.67,0,1.66.07,2.36,0.07,0.21,0,.34,0,0.34-0.21s-0.05-.21-0.31-0.21H185c-0.65,0-.84-0.22-0.84-0.58a3.76,3.76,0,0,1,.31-1.25l1.13-2.75a0.16,0.16,0,0,1,.19-0.15h5Zm-18.12,4.31c-4,0-6.41-3.32-6.41-7.54,0-5.06,2.77-6.31,5.14-6.31,3.42,0,6.14,2.8,6.14,7.33,0,5.83-3.37,6.53-4.87,6.53m-0.87,1.11c5.47,0,8.89-3.68,8.89-8.38s-3.32-7.66-8.67-7.66c-6.43,0-8.89,4.53-8.89,8s2.5,8,8.67,8m-16,.07a14,14,0,0,0,4.33-.55,0.84,0.84,0,0,0,.63-0.7,22.93,22.93,0,0,0,.53-3.2c0-.19,0-0.36-0.21-0.36s-0.24.09-.31,0.48a4,4,0,0,1-.81,1.59c-1,1.11-2.27,1.35-4.41,1.35-3.23,0-7.59-2.85-7.59-8.58,0-2.34.45-4.63,2.21-6.24a6.3,6.3,0,0,1,4.53-1.5c2.22,0,4.1.65,4.89,1.5a3.42,3.42,0,0,1,.94,2.21c0,0.34,0,.53.24,0.53s0.26-.19.29-0.56,0-1.81.07-2.6,0.12-1.13.12-1.32a0.32,0.32,0,0,0-.36-0.29c-0.72-.07-1.49-0.29-2.41-0.41a23.45,23.45,0,0,0-3.5-.24c-3.59,0-5.88,1-7.61,2.55a9.56,9.56,0,0,0,.17,13.71c2.2,1.9,5,2.62,8.27,2.62m-35.51-11.49h0.07c0.41,0.36,2.65,2.85,5,5.06s4.87,4.67,6.19,5.9a1.25,1.25,0,0,0,.87.43c0.17,0,.34-0.19.34-0.65L132.93,116c0-1.16.19-1.52,0.77-1.69a2.15,2.15,0,0,1,.65-0.07c0.24,0,.36-0.09.36-0.21s-0.19-.19-0.48-0.19c-1,0-1.83,0-2.07,0-0.46,0-1.59,0-2.7,0-0.31,0-.53,0-0.53.19s0.07,0.21.33,0.21a3.57,3.57,0,0,1,1.11.12c0.5,0.19.7,0.55,0.72,1.81l0.22,9.1h-0.09c-0.31-.29-3.13-3.18-4.58-4.6-3.08-3-6.26-6.26-6.52-6.53a1.84,1.84,0,0,0-.91-0.67c-0.22,0-.36.29-0.36,0.7l-0.19,12.14c0,1.78-.1,2.34-0.65,2.48a4.23,4.23,0,0,1-1,.1,0.3,0.3,0,0,0-.34.21c0,0.19.19,0.21,0.48,0.21,1.08,0,2.09-.07,2.29-0.07,0.38,0,1.37.07,2.74,0.07,0.29,0,.48,0,0.48-0.21s-0.12-.21-0.36-0.21a3.55,3.55,0,0,1-1.11-.14c-0.41-.14-0.67-0.63-0.72-2.21Zm-15,4.87c-0.07,0-.12-0.05-0.07-0.15l2-5.18a0.25,0.25,0,0,1,.12-0.19,0.31,0.31,0,0,1,.1.19l2,5.21c0,0.07,0,.12-0.09.12H105.3Zm4.55,1.13a0.2,0.2,0,0,1,.22.15l1.64,4.12a0.32,0.32,0,0,1-.19.46c-0.22,0-.27.1-0.27,0.21s0.24,0.14.63,0.17c1.78,0,3.32,0,4.07,0s0.91,0,.91-0.21-0.09-.21-0.29-0.21a4.9,4.9,0,0,1-.79-0.07c-0.39-.09-1-0.36-1.81-2.21-1.35-3.09-4.89-11.48-5.4-12.61-0.21-.46-0.31-0.65-0.62-0.65a1,1,0,0,0-.63.82l-5.54,12.89c-0.43,1-.79,1.66-1.76,1.81l-0.62,0a0.21,0.21,0,0,0-.24.21c0,0.17.12,0.21,0.39,0.21,1.11,0,2.24-.07,2.46-0.07,0.67,0,1.66.07,2.36,0.07,0.21,0,.34,0,0.34-0.21s0-.21-0.31-0.21h-0.31c-0.65,0-.84-0.22-0.84-0.58a3.7,3.7,0,0,1,.31-1.25l1.13-2.75a0.16,0.16,0,0,1,.19-0.15h5Zm-15.71-.79c0,2,0,3.61-.1,4.46a0.89,0.89,0,0,1-.63,1,3,3,0,0,1-.75.07c-0.26,0-.34.12-0.34,0.21s0.14,0.21.41,0.21c0.85,0,2.29-.07,2.77-0.07s2,0.07,3.42.07c0.24,0,.41-0.07.41-0.21a0.28,0.28,0,0,0-.34-0.21,7.71,7.71,0,0,1-1.08-.07,0.89,0.89,0,0,1-.84-1C97,127,97,125.37,97,123.4v-3.61c0-3.11,0-3.69.05-4.34a0.92,0.92,0,0,1,.79-1.11,2.85,2.85,0,0,1,.63-0.07c0.21,0,.34,0,0.34-0.24s-0.17-.16-0.44-0.16c-0.82,0-2.19,0-2.72,0s-2,0-2.84,0c-0.34,0-.5,0-0.5.16s0.12,0.24.33,0.24a2.69,2.69,0,0,1,.77.09,1,1,0,0,1,.72,1.09c0,0.65,0,1.23,0,4.34v3.61ZM75,118.19H75c0.41,0.36,2.65,2.85,5,5.06s4.86,4.67,6.19,5.9a1.26,1.26,0,0,0,.87.43c0.17,0,.34-0.19.34-0.65L87.64,116c0-1.16.19-1.52,0.77-1.69a2.15,2.15,0,0,1,.65-0.07c0.24,0,.36-0.09.36-0.21s-0.19-.19-0.48-0.19c-1,0-1.83,0-2.07,0-0.46,0-1.59,0-2.7,0-0.31,0-.53,0-0.53.19s0.07,0.21.33,0.21a3.58,3.58,0,0,1,1.11.12c0.51,0.19.7,0.55,0.72,1.81L86,125.3h-0.1c-0.31-.29-3.13-3.18-4.58-4.6-3.08-3-6.26-6.26-6.52-6.53a1.83,1.83,0,0,0-.91-0.67c-0.22,0-.36.29-0.36,0.7l-0.19,12.14c0,1.78-.09,2.34-0.65,2.48a4.22,4.22,0,0,1-1,.1,0.29,0.29,0,0,0-.34.21c0,0.19.19,0.21,0.48,0.21,1.09,0,2.1-.07,2.29-0.07,0.38,0,1.37.07,2.74,0.07,0.29,0,.48,0,0.48-0.21s-0.12-.21-0.36-0.21a3.54,3.54,0,0,1-1.11-.14c-0.41-.14-0.67-0.63-0.72-2.21ZM62.39,128.5c-4,0-6.41-3.32-6.41-7.54,0-5.06,2.77-6.31,5.13-6.31,3.42,0,6.14,2.8,6.14,7.33,0,5.83-3.37,6.53-4.87,6.53m-0.87,1.11c5.47,0,8.89-3.68,8.89-8.38s-3.32-7.66-8.67-7.66c-6.43,0-8.89,4.53-8.89,8s2.5,8,8.67,8m-17.87-1.23c0.41,1,.58,1.23.87,1.23s0.48-.31,1-1.49,1.47-3.28,2.82-6.26c1.16-2.51,1.71-3.61,2.55-5.54A3.87,3.87,0,0,1,52,114.51a1.68,1.68,0,0,1,1-.24c0.21,0,.33-0.07.33-0.21s-0.17-.19-0.43-0.19c-0.65,0-1.64,0-2,0s-1.2,0-2.26,0c-0.41,0-.6,0-0.6.19a0.3,0.3,0,0,0,.36.21,3.21,3.21,0,0,1,.84.09,0.35,0.35,0,0,1,.29.36,2.88,2.88,0,0,1-.19.75c-0.5,1.35-3.23,7.95-4.14,10.07H45.16l-3.57-9.18a6,6,0,0,1-.48-1.54,0.46,0.46,0,0,1,.21-0.41,1.58,1.58,0,0,1,.82-0.14c0.19,0,.34-0.07.34-0.21s-0.24-.19-0.5-0.19c-1.06,0-2.17,0-2.7,0-0.74,0-1.95,0-3.08,0-0.31,0-.53,0-0.53.19a0.2,0.2,0,0,0,.24.21,3.73,3.73,0,0,1,.82.07,1.94,1.94,0,0,1,1.57,1.52Zm-17.34-5c0,1.88,0,3.49-.09,4.36a1,1,0,0,1-.63,1.08,2.91,2.91,0,0,1-.75.07c-0.26,0-.33.12-0.33,0.21s0.14,0.21.41,0.21c0.43,0,1,0,1.47,0l1.2,0c0.62,0,1.42,0,2.46,0s2.31,0.07,3.9.07c0.79,0,1,0,1.13-.53a13.91,13.91,0,0,0,.29-2.26c0-.22,0-0.48-0.19-0.48s-0.19.1-.24,0.31a1.72,1.72,0,0,1-.91,1.52,5.72,5.72,0,0,1-2,.26c-2.17,0-2.82-.31-2.87-1.71,0-.6,0-2.34,0-3v-1.64c0-.12,0-0.22.12-0.22,0.53,0,2.94,0,3.33.1a1.12,1.12,0,0,1,1.18.79,7.4,7.4,0,0,1,.07.75,0.16,0.16,0,0,0,.19.17c0.19,0,.22-0.29.22-0.46s0-1,.1-1.37c0.12-1,.17-1.37.17-1.49a0.19,0.19,0,0,0-.17-0.21,0.82,0.82,0,0,0-.34.26,1.49,1.49,0,0,1-1,.31c-0.48,0-3.23,0-3.71,0-0.12,0-.14-0.1-0.14-0.22v-5.06a0.16,0.16,0,0,1,.14-0.19c0.43,0,3,0,3.33.1,1.06,0.1,1.23.38,1.39,0.75a1.82,1.82,0,0,1,.14.74c0,0.17,0,.26.17,0.26a0.35,0.35,0,0,0,.24-0.34c0-.24.1-1.13,0.12-1.35a8.73,8.73,0,0,1,.17-1.32,0.16,0.16,0,0,0-.15-0.19,2.77,2.77,0,0,0-.33.1,8.36,8.36,0,0,1-.89.12c-0.41,0-5.11,0-5.78,0s-1.95,0-3.06,0c-0.31,0-.48,0-0.48.19s0.14,0.21.36,0.21a3.83,3.83,0,0,1,.85.07,1,1,0,0,1,.91,1.11c0,0.65,0,1.23,0,4.34v3.61ZM8.21,117.73c0-1.9,0-4,0-4.82a0.43,0.43,0,0,1,.29-0.48,6.37,6.37,0,0,1,1.57-.17,9.55,9.55,0,0,1,6.84,2.41,8.18,8.18,0,0,1,2.31,6c0,2.48-.48,4.68-2,6a7.76,7.76,0,0,1-5.55,1.73c-1.9,0-2.84-.5-3.16-1a5.33,5.33,0,0,1-.27-1.83c0-.46,0-2.32,0-4.87v-3Zm-3,4.63c0,2.21,0,4.12-.12,5.13-0.1.7-.22,1.23-0.7,1.32a3.62,3.62,0,0,1-.87.1c-0.29,0-.38.07-0.38,0.19s0.17,0.24.48,0.24c0.48,0,1.1,0,1.66,0s1.11,0,1.37,0c0.6,0,1.44.07,2.36,0.14s1.9,0.14,2.77.14c4.46,0,7-1.71,8.07-2.84A9.58,9.58,0,0,0,22.47,120a8.62,8.62,0,0,0-2.33-6.12c-2.63-2.74-6.65-2.74-9.67-2.74-1.44,0-3,.07-3.71.07s-2.19-.07-3.47-0.07c-0.36,0-.53,0-0.53.22s0.14,0.21.41,0.21a4.78,4.78,0,0,1,.94.07,1.18,1.18,0,0,1,1,1.37c0.05,0.77.05,1.45,0.05,5.11v4.24Z"/><path class="cls-2" d="M177.6,67.28V78.61a49.24,49.24,0,0,0,7.51-3.76l-7.51-7.57"/><path class="cls-2" d="M171.38,61c-2.92-2.95-6-6.11-8.9-9v9h8.9Z"/><path class="cls-2" d="M184.83,61.74L191.19,68c0.48-.92.84-4.26,0.81-6.27h-7.17Z"/><path class="cls-2" d="M155.76,79.44h0v0Z"/><path class="cls-2" d="M206.35,62.74c0-.19,0-0.38,0-0.57a19.45,19.45,0,0,0-2.84-10.34,15.63,15.63,0,0,0-2.68-3.31c-2-1.93-3.92-3.56-6-5.4a47.32,47.32,0,0,1-4.56-4.5,13.35,13.35,0,0,1-2.71-6.56c-0.51-2.84-.86-5.64-1.43-8.34-0.09-.43-0.16-0.83-0.24-1.27a8.7,8.7,0,0,1,1.16,3.31c0.44,1.93.82,3.9,1.13,5.84a14.39,14.39,0,0,0,4.09,8.13c2.06,2.08,4.28,4,6.51,5.85A24.82,24.82,0,0,1,203.91,51a17.35,17.35,0,0,1,2.24,5.79,19.43,19.43,0,0,1,.45,4.25,5,5,0,0,1-.25,1.67m2-10.32c-0.34-.19-0.7-0.4-1.05-0.57a8.78,8.78,0,0,1-1.32-.64,1.94,1.94,0,0,1-.85-1.23c0-.14-0.08-0.35.09-0.4s0.2,0.17.26,0.3,0.06,0.17.09,0.23a1.61,1.61,0,0,0,.69.65,2.28,2.28,0,0,0,1.56.48,2.65,2.65,0,0,0,1-.16,9.51,9.51,0,0,1-1.06-2.47,9.06,9.06,0,0,0-.85-2,3.44,3.44,0,0,0-2.75-1.68,2.58,2.58,0,0,1-1.18-.41,1.1,1.1,0,0,1-.27-0.3,0.18,0.18,0,0,1,0-.25,0.16,0.16,0,0,1,.22,0C203,44,203.13,44,203.23,44a1.67,1.67,0,0,0,2,0,0.54,0.54,0,0,0,.27-0.82,4.31,4.31,0,0,0-2.66-2.52,11.4,11.4,0,0,0-3-.54,1.49,1.49,0,0,1-.91-0.4,0.24,0.24,0,0,1-.12-0.3,1.19,1.19,0,0,1,.6.09,1.71,1.71,0,0,0,2.24-.88l0.13-.29a2.63,2.63,0,0,1-.84-0.5,3.42,3.42,0,0,0-2.94-.73c-0.75.12-1.5,0.28-2.25,0.39A4.11,4.11,0,0,1,192,36.36a1.34,1.34,0,0,1-.3-0.39c-0.13-.28,0-0.48.3-0.45a0.89,0.89,0,0,1,.75.46,0.77,0.77,0,0,0,.39.36,8.1,8.1,0,0,0,1.91.55,6.47,6.47,0,0,0,3.28-.58,1,1,0,0,0,.79-1.06,1,1,0,0,1,.16-0.66c0.14-.2.1-0.31-0.15-0.37a3,3,0,0,0-1,0,2.89,2.89,0,0,1-.89,0A0.31,0.31,0,0,1,197,34c0-.16.19-0.15,0.31-0.16l0.94,0a1.65,1.65,0,0,0,1-.37,2.71,2.71,0,0,0,1.05-2.52,7.7,7.7,0,0,0-.49-1.82c-0.19-.49-0.19-0.49-0.67-0.31a1,1,0,0,0-.8,1.15,3.26,3.26,0,0,1,0,.52,0.6,0.6,0,0,1-.61.51,0.51,0.51,0,0,1-.41-0.55,1.76,1.76,0,0,1,.23-1c0.19-.35.42-0.67,0.65-1a3.27,3.27,0,0,0,.37-0.62,0.48,0.48,0,0,0-.38-0.74,1.76,1.76,0,0,0-.67,0,7.71,7.71,0,0,0-1,.28,5.84,5.84,0,0,0-.39-1.7c-0.1-.31-0.21-0.63-0.3-0.95a2.64,2.64,0,0,1,.53-2.54,5.43,5.43,0,0,1,.55-0.58,0.35,0.35,0,0,0,0-.51,0.64,0.64,0,0,0-.57-0.4h0A2.3,2.3,0,0,0,195,22.26a2.08,2.08,0,0,1-.08.56,0.21,0.21,0,0,1-.21.18,0.22,0.22,0,0,1-.18-0.2,0.51,0.51,0,0,1,0-.17c0.05-.59,0-1.19,0-1.79a4.46,4.46,0,0,1,.55-2.1,2.74,2.74,0,0,1,2.11-1.48,3.66,3.66,0,0,0,.49-0.09A0.28,0.28,0,0,0,198,17c0-.15-0.11-0.09-0.22-0.15a2,2,0,0,0-.39-0.15,5.89,5.89,0,0,0-3.65.23,3.1,3.1,0,0,0-2,1.73,7,7,0,0,0,.46,6.69,17.91,17.91,0,0,1,1.14,2,5.39,5.39,0,0,1,.53,3.09A1.83,1.83,0,0,1,192.37,32a2.21,2.21,0,0,1-1.54-.36,4.28,4.28,0,0,1-1.74-2.17,24.81,24.81,0,0,1-.84-2.75A24.54,24.54,0,0,0,187.1,23a11,11,0,0,0-1-1.76,0.86,0.86,0,0,1-1.06,0,3.76,3.76,0,0,1-.37-0.29,1.05,1.05,0,0,0-.52-0.27l-0.9-.12c0,0.43-.07.87-0.12,1.31-0.2,1.69-.46,3.37-0.55,5.07a12.1,12.1,0,0,0,.17,3.4,4.73,4.73,0,0,0,1,2.08c0.26-.52.32-1.1,0.61-1.6a2,2,0,0,1,0,.86,10.44,10.44,0,0,0-.22,2.57,4.2,4.2,0,0,0,1.42,2.95,0.46,0.46,0,0,0,.25.16,12.75,12.75,0,0,0,.64-2,7.13,7.13,0,0,1,.08.79c0,0.32-.06.64,0,1A11.39,11.39,0,0,0,189,42.7a0.64,0.64,0,0,0,.43.22h2.85c0.37,0,.38.17,0.38,0.54v6.15c0,0.65.12,0.67,0.77,0.56a3.1,3.1,0,0,1,1.76,0,0.22,0.22,0,0,0,.31-0.19,2.19,2.19,0,0,0,.13-1.62c-0.13-.28-0.06-0.56-0.15-0.85a0.89,0.89,0,0,1-.11-0.72c0.2-.38.46-0.07,0.65,0.22a3,3,0,0,1,.58,1.09c0.13,0.72.17,1.45,0.25,2.18a2,2,0,0,0,1,1.72,2.27,2.27,0,0,1,.92,1,2.17,2.17,0,0,0,.72-1.65,0.73,0.73,0,0,1,.09-0.57,0.42,0.42,0,0,1,.3.36,2.42,2.42,0,0,1,0,1.09,3.5,3.5,0,0,0,.33,2.58,7.47,7.47,0,0,0,2.51,2.13,2.55,2.55,0,0,0,.1-1.52,1.12,1.12,0,0,1-.06-0.49,0.16,0.16,0,0,1,.08-0.14,0.14,0.14,0,0,1,.16.09,1.2,1.2,0,0,1,.22.73,4.93,4.93,0,0,0,.4,1.91,15.81,15.81,0,0,1,1.23,4.7,7.72,7.72,0,0,1-.57,3.8,9.31,9.31,0,0,1-.74,1.29,5.76,5.76,0,0,0,.68-0.35,6.86,6.86,0,0,0,3.35-7.63c-0.12-.68-0.43-1.32-0.62-2a1.42,1.42,0,0,1,.39-1.46,2.37,2.37,0,0,0,2.11,1.71c0.11-.69.34-1.35,0.45-2a2.75,2.75,0,0,0-1.54-3.17"/><path class="cls-2" d="M187.11,69.13c-0.24,0-.58.24-0.87,0.32l0.33-.8,0.79-.33a4.22,4.22,0,0,1-.25.8m-2.45-3.38-0.14.51c-0.14-.21-1-2.32-1-2.42,0.79,0.36,2.37,1,2.37,1l-0.51.21s0.74,1.15,1.07,1.77c0,0,0,0,0,0-0.59-.35-1.17-0.72-1.77-1.1m1.45,3.74-0.86-.29s-0.14-.6-0.2-0.8l0.88,0.22s0.11,0.42.2,0.81a0.28,0.28,0,0,1,0,.05m0,0.15h0c-0.09.28-.2,0.54-0.29,0.77l-0.8.33,0.32-.82,0.81-.3s0,0,0,0h0l0,0m-4.33-.89H181.7l-0.14.5c-0.17-.41-0.36-0.8-0.51-1.21s-0.47-1.26-.47-1.26l0,0h0c0.78,0.37,2.33,1,2.33,1l-0.5.21,1.15,1.82c-0.62-.35-1.2-0.75-1.81-1.11m-1.21-2,0,0h0s0,0,0,0m-0.65-.3-0.19-.07a0.14,0.14,0,0,1-.09-0.07c0-.26-0.19-0.49-0.25-0.76l0.79,0.31,0.31,0.79-0.56-.19m0.24,1.14s-0.57.21-.83,0.28l0.3-.79,0.79-.31c0,0.06-.26.82-0.26,0.82M179,63.79L178.65,63l-0.33-.8c-0.11-.26-0.2-0.52-0.32-0.83l0.33,0.16c0.39,0.21.8,0.37,1.2,0.55,0.25,0.11.5,0.22,0.76,0.31l0.1,0.06-0.51.16a5.23,5.23,0,0,0,.37.62l0.4,0.62,0.4,0.64c-0.34-.19-0.64-0.4-0.94-0.59l-0.91-.59-0.19.5M177.09,61l-0.27-.79a7.75,7.75,0,0,1,.78.28l0.3,0.78L177.09,61m0.46,1.21-0.79.31s0,0,0,0v0l0,0h0c0.08-.27.17-0.51,0.27-0.76l0.83-.33-0.34.81M176.27,58s-0.94-2.27-1-2.37,2.36,1,2.45,1l-0.58.2,1.15,1.81a0.06,0.06,0,0,0,0,0h0l0,0h0c-0.61-.33-1.79-1.09-1.79-1.09Zm-1,3.61c-0.61-.36-1.21-0.74-1.82-1.13l-0.17.52c-0.18-.43-0.35-0.82-0.51-1.22l-0.49-1.23c0.14,0.06.25,0.1,0.35,0.16a13.12,13.12,0,0,0,1.22.56,6.39,6.39,0,0,0,.86.34l-0.52.14s1.11,1.88,1.12,1.89a0.08,0.08,0,0,1,0,0m-3.87-3.44c-0.11-.23-0.2-0.5-0.31-0.81l0.81,0.31,0.29,0.78-0.78-.28m0.44,1.2-0.8.33,0.3-.8c0.24-.11.52-0.22,0.83-0.33l-0.33.8m-1.19-3.88c-0.13-.32-1-2.39-1-2.49l2.47,1.08-0.57.19,1.16,1.83c-0.62-.35-1.2-0.74-1.8-1.1a2.18,2.18,0,0,0-.21.5m-1.86-2.83a0.16,0.16,0,0,1-.09-0.1l-0.25-.73,0.79,0.3,0.31,0.8c-0.27-.08-0.5-0.21-0.75-0.26m0.38,1.18-0.79.33c0.1-.27.25-0.82,0.25-0.82l0.87-.31a4.66,4.66,0,0,1-.33.8m-1.09-4.65-0.15.51s-1-2.41-1-2.42l2.34,1-0.51.15S169.76,50,170,50.37c-0.05,0-1.87-1.16-1.87-1.16M167,53.28h0c-0.32-.15-1.8-1.11-1.8-1.11l-0.15.53c-0.11-.25-1-2.36-1-2.47,0.14,0.07,2,.93,2.29,1l0.08,0.05-0.49.17s0.76,1.18,1.11,1.8c0,0,0,0,0,0M163,49.89L162.77,49l0.81,0.29,0.3,0.78L163,49.89m1.26-.52,0.83-.37-0.31.79-0.8.31Zm2.52-2h0c-0.09.27-.3,0.78-0.3,0.78l-0.79.31,0.25-.7,0.83-.39h0m-0.22-1s0.2,0.73.21,0.8h0s0,0,0,0h0a0.1,0.1,0,0,1,0,0L166,46.89l-0.28-.79Zm0.65,0s0.57-.21.83-0.33a8.12,8.12,0,0,1-.31.82l-0.77.3c0-.06.25-0.79,0.25-0.79m3.56,5.43c-0.09.25-.21,0.79-0.21,0.79s-0.83.3-.87,0.3h0s0,0,0,0a0,0,0,0,0,0,0h0c0.09-.28.2-0.53,0.29-0.77l0.79-.32m2.66,5.55-0.32.81c-0.28.09-.53,0.2-0.81,0.29,0.07-.24.28-0.77,0.28-0.77s0.82-.33.84-0.33m0.88-1.39,0.81-.32-0.33.81-0.75.31c0.11-.32.21-0.65,0.27-0.79m0.54-1.23,0.29,0.78-0.8-.26-0.27-.75,0.78,0.24m0.71,0,0.83-.33c-0.08.22-.25,0.78-0.25,0.78l-0.87.36s0.29-.82.29-0.82m3.54,5.42h0l0,0h0a7.48,7.48,0,0,1-.26.78l-0.83.32,0.33-.8,0.8-.33s0,0,0,0m2.56,5.43-0.32.83a6.22,6.22,0,0,1-.8.27l0.32-.77,0.8-.33m0.87-1.36,0.78-.31s-0.26.82-.26,0.82-0.61.21-.83,0.32l0.32-.83m0.53-1.23,0.3,0.79-0.81-.3-0.27-.76,0.78,0.27m0.73,0a7.19,7.19,0,0,1,.82-0.38l-0.31.82-0.79.31a4.49,4.49,0,0,1,.28-0.75m6.59,5.41-0.23.74c-0.24-.57-0.44-1.19-0.66-1.71L189,66.85c0,0.11-.26.67-0.26,0.67l-0.8.22,0.3-.77c0.2-.08.4-0.19,0.59-0.27-0.41-.44-0.8-0.8-1.25-1.26l-5.21-5.21-0.15-.17a3.72,3.72,0,0,0-.29.78s-0.55-1.28-.63-1.57a0.67,0.67,0,0,0-.15-0.25c-0.13-.14-0.27-0.28-0.4-0.41l-0.26.61-0.81.33a5.15,5.15,0,0,0,.25-0.65,0.24,0.24,0,0,1,.14-0.2,5,5,0,0,0,.56-0.22c-2.27-2.23-4.44-4.54-6.74-6.77l-0.27.83-0.8-1.92-0.38-.37-0.28.63a6.14,6.14,0,0,1-.78.29l0.32-.77,0.64-.25-0.06-.07c-0.82-.82-1.65-1.64-2.46-2.47s-1.66-1.63-2.45-2.49c-0.49-.53-1-1-1.54-1.54h-0.56a3.67,3.67,0,0,1-.23.56l-0.25-.57h-2.34c0,0.77,0,1.52,0,1.52l1,0.44-0.53.17c0.08,0.12,1.11,1.81,1.11,1.81l-1.63-1c0,0.12,0,.2,0,0.28,0,0.92.05,3.81,0.05,4.31l0.24,0.26,0.31-.79,0.79-.3-0.28.74a7.31,7.31,0,0,0-.79.38c1.4,1.35,2.68,2.79,4.09,4.12A2,2,0,0,1,167,55c0.18-.07.77-0.26,0.78-0.28v0s-0.18.64-.23,0.77-0.37.14-.51,0.22c0.24,0.24.47,0.46,0.69,0.7a0.94,0.94,0,0,0,.33.21l0.23,0.09,0.74,0.29-0.51.19c2.22,2.2,4.35,4.46,6.6,6.63l0.19-.46,0.75-.31s-0.14.74-.14,0.74l-0.61.26,0.51,0.51a2.6,2.6,0,0,0,.26.26,1.07,1.07,0,0,0,.23.09c0.17,0.07.33,0.16,0.5,0.22a4.36,4.36,0,0,1,.55.23l-0.27.07-0.27.1c1,1.14,2.15,2.21,3.23,3.3l3.27,3.27c0.06-.17.11-0.32,0.17-0.47a9,9,0,0,1,.84-0.38l-0.33.82-0.52.2,0.36,0.36a3.24,3.24,0,0,0,.35.34c0.08,0.07,1.2.51,1.36,0.58a3.28,3.28,0,0,1-.59.21l0.65,0.64a11.86,11.86,0,0,0,2.78-2.24c-0.35-.22-0.72-0.49-1.09-0.72,0,0.18-.09.34-0.15,0.56l-1-2.42,0,0h0l0,0h0c0.05,0,2.18.93,2.34,1l-0.53.15c0.11,0.2.54,0.74,0.78,1.07a8.82,8.82,0,0,0,2-3.07l-0.45-.43"/><path class="cls-2" d="M200.82,23.08s0,0.07.07,0a0.05,0.05,0,0,0,0-.08l0,0"/><path class="cls-2" d="M168.31,51.8v0h0v0h0Z"/><path class="cls-2" d="M187.36,85.18s0,0,0,0h-0.06l0,0"/><path class="cls-2" d="M172.78,82.59h0Z"/><path class="cls-2" d="M187.74,41.94l0,0V41.9l0,0"/><path class="cls-2" d="M204.24,37.55l0,0a0,0,0,0,1,0,0h0Z"/><path class="cls-2" d="M158.8,36l0,0s0,0,0-.06l0,0"/><path class="cls-2" d="M149.29,76.16h0v0l0,0h0Z"/><path class="cls-2" d="M181.87,23.7s0,0,0,0l0,0,0,0"/><path class="cls-2" d="M181.28,8a0,0,0,0,0,0-.07l-0.06,0,0,0"/><path class="cls-2" d="M171,7.61l-0.23-.29A2.21,2.21,0,0,0,170,6.63h0a1.1,1.1,0,0,0,.15.86,0.61,0.61,0,0,0,.8.12"/><path class="cls-2" d="M184.77,7.52l-0.11.14a1,1,0,0,0,.37.07,0.76,0.76,0,0,0,.54-0.21,0.85,0.85,0,0,0,.14-0.9,3.5,3.5,0,0,0-.94.89"/><path class="cls-2" d="M172.67,20.64a1.19,1.19,0,0,1,.89-0.32c0.21,0,.41,0,0.62,0a1.93,1.93,0,0,0,1.39-.64,12.39,12.39,0,0,0-2.95.45,1,1,0,0,0,.05.52"/><path class="cls-2" d="M171.28,14.89a2.87,2.87,0,0,0,1.14,1,0.26,0.26,0,0,0,.28,0,2.7,2.7,0,0,1,.64-0.27,5.45,5.45,0,0,0-1-.54,1.76,1.76,0,0,1-1.24-1.21,1.24,1.24,0,0,0,.15.95"/><path class="cls-2" d="M146.32,73.7a14.39,14.39,0,0,1-.54-1.51c-0.1-.36-0.1-0.36-0.49-0.28a5.39,5.39,0,0,0,1.35,3.39,5.39,5.39,0,0,0-.31-1.59"/><path class="cls-2" d="M147,31.21a6.41,6.41,0,0,0-.49-2,7,7,0,0,1-.38-1.1,0.33,0.33,0,0,0-.48-0.29c-0.05,1.09.73,3.06,1.35,3.41"/><path class="cls-2" d="M209,71.58c-0.38,0-.37,0-0.48.3s-0.27.85-.45,1.26a6.62,6.62,0,0,0-.43,1.86A5.11,5.11,0,0,0,209,71.58"/><path class="cls-2" d="M208.12,33.36c-0.37,0-.37,0-0.48.33a13.66,13.66,0,0,1-.49,1.42,7.15,7.15,0,0,0-.33,1.6,4.73,4.73,0,0,0,1.38-3.34"/><path class="cls-2" d="M183.64,17.27A12.62,12.62,0,0,1,185,20a1.09,1.09,0,0,0,.35.5,0.26,0.26,0,0,0,.46-0.1,1.41,1.41,0,0,0,.12-0.9,7.47,7.47,0,0,0-1-1.33c-0.13-.13-0.76-0.84-0.92-1a0.28,0.28,0,0,0-.42,0,0.7,0.7,0,0,0,.05.12"/><path class="cls-2" d="M179.28,19.58a6.31,6.31,0,0,0-3.12,0,0.16,0.16,0,0,0-.12.13,0.91,0.91,0,0,0,.35,1,1.26,1.26,0,0,1,1-.34,4.71,4.71,0,0,0,.8,0,1.54,1.54,0,0,0,1.15-.73,0.3,0.3,0,0,0-.07-0.05"/><path class="cls-2" d="M169.68,20.19a0.24,0.24,0,0,0,.23.07,3.61,3.61,0,0,0,1.21-.41c0.1-.05.2-0.16,0.07-0.28-0.37-.36-0.62-0.83-1-1.2a0.59,0.59,0,0,0-1.06.15,0.84,0.84,0,0,0-.07.41,1.93,1.93,0,0,0,.62,1.26"/><path class="cls-2" d="M205.88,73.11a6.93,6.93,0,0,0,.68-0.82,1.8,1.8,0,0,0,.31-0.8,0.26,0.26,0,0,0-.16-0.33c-0.18-.07-0.22.05-0.29,0.14a17.62,17.62,0,0,1-1.57,2,2,2,0,0,0-.5,1.06,1.45,1.45,0,0,0,.69,1.56,2.9,2.9,0,0,1,.84-2.76"/><path class="cls-2" d="M149.29,76.15a1.23,1.23,0,0,0,.65-1,1.87,1.87,0,0,0-.45-1.57,21.63,21.63,0,0,1-1.64-2.06,0.18,0.18,0,0,0-.26-0.1,0.25,0.25,0,0,0-.17.3,2.18,2.18,0,0,0,.54,1.12c0.22,0.27.45,0.52,0.68,0.79a3,3,0,0,1,.69,1.54c0,0.31,0,.62,0,0.93h0Z"/><path class="cls-2" d="M179.77,20.78a1,1,0,0,0,.82.52,3.23,3.23,0,0,0,1.4-.46,1.22,1.22,0,0,0,.52-0.61,2.44,2.44,0,0,0-1.33-.39,5.16,5.16,0,0,1-1.47-.17,0.85,0.85,0,0,0,.05,1.11"/><path class="cls-2" d="M204.23,37.55a1.05,1.05,0,0,0,0-.22,2.59,2.59,0,0,1,.39-1.91,8.42,8.42,0,0,1,.76-0.94,2,2,0,0,0,.66-1.13c0-.31,0-0.36-0.31-0.46a0.18,0.18,0,0,0-.12.13,19.63,19.63,0,0,1-1.6,2,1.87,1.87,0,0,0-.47,1.51,1.25,1.25,0,0,0,.69,1.06h0Z"/><path class="cls-2" d="M184.46,19.68a21.4,21.4,0,0,0-1.16-2.2,3.4,3.4,0,0,0-2-.94,32.25,32.25,0,0,0,2.25,3,1.54,1.54,0,0,0,1,.39,0.51,0.51,0,0,0-.08-0.28"/><path class="cls-2" d="M182.88,19.45c-0.13-.16-0.24-0.3-0.35-0.44a11.94,11.94,0,0,1-1.72-2.27,1.38,1.38,0,0,0-1.79-.36,7.54,7.54,0,0,0,3.86,3.07"/><path class="cls-2" d="M207.48,76.48l0.21-.06a3.23,3.23,0,0,0,2.19-2.34,4.17,4.17,0,0,0,0-2.51c0-.08,0-0.17-0.16-0.14a0.16,0.16,0,0,0-.16.18c0,0.07,0,.13,0,0.2a4.78,4.78,0,0,1-.84,2.78,14,14,0,0,1-1.26,1.88l0.06,0"/><path class="cls-2" d="M146.9,76.79A14.89,14.89,0,0,1,145.65,75a4.9,4.9,0,0,1-.88-3,0.21,0.21,0,0,0-.24-0.25c-1,1.83.36,4.79,2.36,5.07"/><path class="cls-2" d="M147.2,32.69A14.33,14.33,0,0,1,146,30.85a4.78,4.78,0,0,1-.86-2.9c0-.18,0-0.31-0.24-0.31-1,1.75.46,5,2.35,5"/><path class="cls-2" d="M170.34,42.9a0.32,0.32,0,0,0,.18-0.14c0.65-.66,1.37-1.26,2-1.9a0.68,0.68,0,0,0,.12-0.15,5.14,5.14,0,0,0-4.22,2.19H170"/><path class="cls-2" d="M208.91,36.33a3.7,3.7,0,0,0,.11-3.11c-0.26.07-.26,0.07-0.27,0.31a3.6,3.6,0,0,1-.05.69,7,7,0,0,1-1,2.41,15.28,15.28,0,0,1-1.1,1.57,3.26,3.26,0,0,0,2.36-1.89"/><path class="cls-2" d="M150.06,30.66a1.56,1.56,0,0,0-.27-1.53c-0.49-.56-0.94-1.15-1.4-1.74-0.21-.26-0.35-0.06-0.53,0s-0.15.22-.1,0.36a5,5,0,0,0,.78,1.34,4.13,4.13,0,0,1,.93,2.69,0.53,0.53,0,0,0,.19.45,13.22,13.22,0,0,1,.38-1.58"/><path class="cls-2" d="M210.66,72.71a4.08,4.08,0,0,1-1.6,3.59c-0.07.06-.14,0.11-0.21,0.17s-0.15.13-.09,0.23a0.22,0.22,0,0,0,.26.08,1.38,1.38,0,0,0,.48-0.2,4.08,4.08,0,0,0,1.95-3.79,2.71,2.71,0,0,0-.88-1.76l-0.32.2a4.7,4.7,0,0,1,.4,1.48"/><path class="cls-2" d="M143.26,28.49a4,4,0,0,0,2.08,4.44,0.78,0.78,0,0,0,.31.08,0.19,0.19,0,0,0,.19-0.08,0.17,0.17,0,0,0-.06-0.2,0.63,0.63,0,0,0-.13-0.12,4.23,4.23,0,0,1-1.43-1.84,3.19,3.19,0,0,1-.29-1.74,5.14,5.14,0,0,1,.41-1.58l-0.32-.2a3.14,3.14,0,0,0-.77,1.23"/><path class="cls-2" d="M143.6,71.45a3.23,3.23,0,0,0-.69,1.22A4.1,4.1,0,0,0,145,77a1.94,1.94,0,0,0,.33.11,0.19,0.19,0,0,0,.24-0.09,0.19,0.19,0,0,0-.08-0.21,0.71,0.71,0,0,0-.11-0.1,4.26,4.26,0,0,1-1.41-1.79,3.08,3.08,0,0,1-.33-1.41,4.9,4.9,0,0,1,.43-2c-0.16,0-.25-0.29-0.44-0.07"/><path class="cls-2" d="M209.64,33.23a3.63,3.63,0,0,1,.19,2.15A4.22,4.22,0,0,1,208.17,38l-0.11.1c-0.06.07-.17,0.13-0.1,0.25a0.25,0.25,0,0,0,.31.09,1.91,1.91,0,0,0,.45-0.19,4.2,4.2,0,0,0,1.89-2.71,2.68,2.68,0,0,0-.47-2.5c-0.24-.31-0.24-0.31-0.6-0.08"/><path class="cls-2" d="M147,29.23a4.74,4.74,0,0,1,.56,2,2.59,2.59,0,0,0,.33,1.24,0.55,0.55,0,0,0,1,0,0.9,0.9,0,0,0,.15-0.52,3.62,3.62,0,0,0-.5-1.87,9.73,9.73,0,0,1-1.23-2.33h-0.79a5.92,5.92,0,0,0,.53,1.5"/><path class="cls-2" d="M207.31,71.48a6.65,6.65,0,0,1-1,2,4.44,4.44,0,0,0-.66,1.65,1.67,1.67,0,0,0,0,.93,0.63,0.63,0,0,0,.59.41,0.49,0.49,0,0,0,.46-0.35,1.66,1.66,0,0,0,.22-0.68,7.27,7.27,0,0,1,.82-2.89,3,3,0,0,0,.33-1.06l-0.77,0"/><path class="cls-2" d="M146.42,72.57a8.57,8.57,0,0,1,1,3.21,1.52,1.52,0,0,0,.29.79,0.45,0.45,0,0,0,.6.2,0.75,0.75,0,0,0,.47-0.77,3.8,3.8,0,0,0-.6-2,8.22,8.22,0,0,1-1.15-2.2,5.39,5.39,0,0,1-.77.06,2.59,2.59,0,0,0,.21.74"/><path class="cls-2" d="M170.69,18.17l0.72,0.89a0.59,0.59,0,0,0,.82.23,0.68,0.68,0,0,1,.22,0,11.32,11.32,0,0,0,1.45-.39,18.74,18.74,0,0,0-1.5-1.91,0.37,0.37,0,0,0-.43-0.13c-0.2.07-1.32,0.54-1.54,0.66a0.55,0.55,0,0,0-.23.21,2.32,2.32,0,0,1,.48.48"/><path class="cls-2" d="M205.53,35.06a4.58,4.58,0,0,0-.67,1.48,2.41,2.41,0,0,0-.08,1,0.7,0.7,0,0,0,.6.6,0.55,0.55,0,0,0,.57-0.42,2.76,2.76,0,0,0,.17-0.51c0.09-.42.1-0.85,0.17-1.27a5.31,5.31,0,0,1,.54-1.42,4.28,4.28,0,0,0,.43-1.28l-0.77-.12a6,6,0,0,1-1,1.9"/><path class="cls-2" d="M145.92,22.57a4.21,4.21,0,0,0-.74,1.53,0.5,0.5,0,0,0,.26.65,1,1,0,0,0,1.36-.33,5,5,0,0,1,1.44-1.65c-0.66-.44-0.46-1.1-0.51-1.73a7.16,7.16,0,0,0-1.82,1.53"/><path class="cls-2" d="M177,17.54a2,2,0,0,0,.54.34,1.94,1.94,0,0,1,.7.41,1.89,1.89,0,0,0,1.13.49,12.55,12.55,0,0,0,1.3.18c0-.05,0-0.07,0-0.08a8.75,8.75,0,0,1-2-2.21,1.17,1.17,0,0,0-.6-0.54c-0.17,0-1.93-.12-2.55-0.1a11.27,11.27,0,0,0,1.51,1.5"/><path class="cls-2" d="M206.23,66.32a3.55,3.55,0,0,1,.9.79c0.24,0.31.46,0.64,0.68,1a1.1,1.1,0,0,0,.64.51,0.92,0.92,0,0,0,.94-0.24,0.66,0.66,0,0,0,0-.74A4.62,4.62,0,0,0,207.3,65a8.93,8.93,0,0,1-1.07,1.29"/><path class="cls-2" d="M205.73,26.64a10.9,10.9,0,0,1,0,1.76,0.14,0.14,0,0,0,.07.14A4.77,4.77,0,0,1,206.9,30a1.4,1.4,0,0,0,.34.45,0.88,0.88,0,0,0,1.06,0,0.59,0.59,0,0,0,.2-0.83,4.94,4.94,0,0,0-1-1.76,7.78,7.78,0,0,0-1.74-1.44,0.16,0.16,0,0,0,0,.16"/><path class="cls-2" d="M145.09,68.11a0.59,0.59,0,0,0,.14.66,0.7,0.7,0,0,0,.75.17,1.05,1.05,0,0,0,.57-0.46,4.89,4.89,0,0,1,2.16-2.15c-0.27-.19-0.52-0.34-0.74-0.52s-0.44-.4-0.67-0.6a4.75,4.75,0,0,0-2.21,2.9"/><path class="cls-2" d="M174.2,18.35a1.11,1.11,0,0,0,1,.43c0.56,0,1.12,0,1.69-.07l1-.05a1.07,1.07,0,0,0-.44-0.37,2.5,2.5,0,0,1-1-.57,8.53,8.53,0,0,1-1.11-1.13,2.61,2.61,0,0,0-.56-0.52,3.69,3.69,0,0,0-1.7.79c0.42,0.47.72,1,1.12,1.51"/><path class="cls-2" d="M166.44,30.57a2,2,0,0,0-.24-0.68,0.23,0.23,0,0,0-.39-0.07,1.77,1.77,0,0,0-.33.4,3.46,3.46,0,0,1-1.81,1.37,2.16,2.16,0,0,1-2.6-.72,1.06,1.06,0,0,0-.94-0.4c-0.21,0-.28.08-0.23,0.29a2.26,2.26,0,0,0,.92,1.48,3.51,3.51,0,0,0,2.27.58,1.82,1.82,0,0,0,1.42-.7,1.64,1.64,0,0,1,.66-0.56,0.56,0.56,0,0,1,.81.55,5.38,5.38,0,0,1-.13.68,1.22,1.22,0,0,0,.7,1.41,14.53,14.53,0,0,0-.11-3.64"/><path class="cls-2" d="M210.09,68a1.2,1.2,0,0,1-.75,1.31,1.27,1.27,0,0,1-1.53-.35,5.58,5.58,0,0,0-.41-0.46,0.88,0.88,0,0,0-1.43.93,1.81,1.81,0,0,0,.65.89,3.29,3.29,0,0,0,2.7.63A2.47,2.47,0,0,0,211,69.89a1,1,0,0,0,.1-1.19,1.49,1.49,0,0,0-1-.75,0.09,0.09,0,0,0,0,0"/><path class="cls-2" d="M143.61,68.63a1,1,0,0,0-.17,1.5,2.24,2.24,0,0,0,1,.84,3.39,3.39,0,0,0,3.06-.2,2.16,2.16,0,0,0,.9-0.93,0.89,0.89,0,0,0-.56-1.31,0.82,0.82,0,0,0-1.12.5,1.3,1.3,0,0,1-2.18.08,1.12,1.12,0,0,1-.19-0.94,2.38,2.38,0,0,0-.77.46"/><path class="cls-2" d="M209.2,30.28a1.31,1.31,0,0,1-1.05,1,1.17,1.17,0,0,1-1.3-.56l-0.16-.25a0.8,0.8,0,0,0-1-.29A0.87,0.87,0,0,0,205,31a1.35,1.35,0,0,0,.44.92,3.22,3.22,0,0,0,3,.84,2.4,2.4,0,0,0,1.66-1.12,1,1,0,0,0,.08-1,1.54,1.54,0,0,0-1.08-.82,1,1,0,0,1,0,.47"/><path class="cls-2" d="M144.07,24.37a1,1,0,0,0-.51,1.51,2.16,2.16,0,0,0,1.13,1,3.36,3.36,0,0,0,3.1-.21,2,2,0,0,0,.93-1,0.84,0.84,0,0,0-.44-1.12A0.88,0.88,0,0,0,147,25a1.28,1.28,0,0,1-2.07.2,1.1,1.1,0,0,1-.28-1.07l-0.55.25"/><path class="cls-2" d="M172.61,11.83a0.14,0.14,0,0,1-.08,0,5.51,5.51,0,0,0-1.87-.64,2.16,2.16,0,0,1-1.48-.77h-0.05a0.86,0.86,0,0,0,.32.86,2.5,2.5,0,0,0,.69.39l1.3,0.49a3.4,3.4,0,0,1,1.28.79,2,2,0,0,1,.55,1.1,1,1,0,0,1-.35-0.22,3,3,0,0,0-1.85-.75,1.9,1.9,0,0,1-1.61-.85l-0.07,0a0.55,0.55,0,0,0,0,.36,1.93,1.93,0,0,0,1.07,1.06c0.18,0.09.32,0.14,0.45-.07a0.34,0.34,0,0,1,.21-0.16,2.44,2.44,0,0,0,1.12,1c0.58,0.28.56,1.63,1.13,1.32a2.6,2.6,0,0,1,.83-0.38,25,25,0,0,0-2.7-6.94,3.82,3.82,0,0,1-1.26,1.43,5.75,5.75,0,0,1,2.31,2s0.06,0,0,.06"/><path class="cls-2" d="M182.49,22.41a5.78,5.78,0,0,0,.14-1c0-.19-0.09-0.27-0.29-0.19a9,9,0,0,0-1,.45,1.34,1.34,0,0,1-1.64-.22,4.24,4.24,0,0,1-.67-0.83,2.27,2.27,0,0,1-1.37.22,0.88,0.88,0,0,0-1.1.52,0.19,0.19,0,0,1-.06.05,2.72,2.72,0,0,1-.81-0.64,0.42,0.42,0,0,0-.49-0.21,5.08,5.08,0,0,1-1.79.22,0.24,0.24,0,0,0-.27.27,1.45,1.45,0,0,1-.28.76,1.5,1.5,0,0,0-.47-0.7,1.34,1.34,0,0,1-.61.81,0.82,0.82,0,0,1-.86.05,0.49,0.49,0,0,0-.65.08,5.1,5.1,0,0,0-.77.71c4.23-.37,8.73-0.41,13-0.42"/><path class="cls-2" d="M181.35,23c-2.08,0-4.17.08-6.25,0.14s-3.94.18-5.91,0.32a2.34,2.34,0,0,0-1.3,1c3.76-.16,7.46-0.44,11.18-0.48,0,0.45.09,0.87,0.14,1.32a26.37,26.37,0,0,1,2.53-2.27,0.75,0.75,0,0,0-.39,0"/><path class="cls-2" d="M184.94,9.17a1.78,1.78,0,0,1-.69-1,24.89,24.89,0,0,0-2.85,7.51,14.69,14.69,0,0,0,1.49.38,0.38,0.38,0,0,0,.34,0c0.2-.14.42-0.27,0.61-0.43a1.92,1.92,0,0,0,.71-1,0.9,0.9,0,0,0,0-.61,1.63,1.63,0,0,1-.67.91c-0.55.33-1,.34-1.61,0.72a1.55,1.55,0,0,1,.84-1.09,3.38,3.38,0,0,0,1.5-1.2l0.22,0.31a0.13,0.13,0,0,0,.18.07,2.11,2.11,0,0,0,1.26-1.13,0.46,0.46,0,0,0,0-.38,2.28,2.28,0,0,1-2,1,2.35,2.35,0,0,0-1.53.78l-0.31.33a2,2,0,0,1,1.16-1.77,17,17,0,0,1,1.78-.77,3,3,0,0,0,.89-0.49,0.82,0.82,0,0,0,.29-0.84l-0.09.08a2.11,2.11,0,0,1-1.38.72,4.31,4.31,0,0,0-1.85.62H183.2a5.23,5.23,0,0,1,2.41-2,1.22,1.22,0,0,1-.53-0.44"/><path class="cls-2" d="M181.55,9.45a2.55,2.55,0,0,1-.21.19,2.94,2.94,0,0,1-1.27.66,2.38,2.38,0,0,0-.89.46,0.27,0.27,0,0,1-.22.1c-0.07,0,0-.18,0-0.26a4.28,4.28,0,0,1,1.17-1.3A3,3,0,0,0,181.28,8l0,0a6.76,6.76,0,0,1-2,1.07,2.68,2.68,0,0,1,1.09-1.72A17.51,17.51,0,0,1,182,6a2.8,2.8,0,0,0,.63-0.52,0.37,0.37,0,0,0,.1-0.4,2,2,0,0,1-.89.67c-0.4.18-.8,0.36-1.19,0.55a2.87,2.87,0,0,0-1.38,1.35c0,0.05,0,.15-0.14.14a5,5,0,0,1,.15-1.92,2.69,2.69,0,0,1-.62.18A2,2,0,0,1,178.15,6V9.23c0,2,0,3.8,0,5.76,0,0.26,0,.37.25,0.35a0.6,0.6,0,0,0,.63-0.27,1.47,1.47,0,0,1,.77-0.76s0.11,0,.08-0.1a0.51,0.51,0,0,0-.46.1,2.82,2.82,0,0,0-.6.55c-0.06.07-.12,0.16-0.22,0.1s0-.15,0-0.22c0.17-.39.31-0.78,0.5-1.16a2.47,2.47,0,0,1,1-1.1s0.06,0,0-.06c-0.72.08-.93,0.79-1.43,1.19a3.16,3.16,0,0,1,1.06-2.46c0.34-.3.73-0.55,1.1-0.81a2.92,2.92,0,0,0,.52-0.4,0.93,0.93,0,0,0,.21-0.35V9.45Z"/><path class="cls-2" d="M176.94,10.94a5.85,5.85,0,0,0-1.06-.59,3.1,3.1,0,0,1-1.73-1.06,0.82,0.82,0,0,0,.26.59,3.85,3.85,0,0,0,.58.5,12.57,12.57,0,0,1,1.06.82,3.36,3.36,0,0,1,.94,2,0.16,0.16,0,0,1-.08.19c-0.09,0-.13,0-0.17-0.11a3.34,3.34,0,0,0-.38-0.55,1.08,1.08,0,0,0-.8-0.37,3.3,3.3,0,0,1,1.37,2.27c-0.43-.14-0.56-0.64-1.15-0.48a1.76,1.76,0,0,1,1.05,1,1,1,0,0,0,.76,0V6a1.41,1.41,0,0,1-1.29-.13,10.78,10.78,0,0,1,.44,1.68c0,0.1.08,0.23-.06,0.28s-0.17-.08-0.21-0.16A3.48,3.48,0,0,0,174.36,6a2.47,2.47,0,0,1-1.45-.93,0.52,0.52,0,0,0,.17.49,4.58,4.58,0,0,0,.62.51c0.58,0.42,1.2.79,1.76,1.25a4.51,4.51,0,0,1,1.24,1.84,9.31,9.31,0,0,1-2.32-1.3,1,1,0,0,0,.19.44,3.73,3.73,0,0,0,1.18,1.12,2.8,2.8,0,0,1,1.16,1.34,0.15,0.15,0,0,1,0,.2"/><path class="cls-2" d="M170.37,6.11a7.76,7.76,0,0,1,2.26,2.83,19.81,19.81,0,0,1,1.19,2.9,22.13,22.13,0,0,1,.59,2.36c0.06,0.31.13,0.64,0.21,1l0.46,0,1.28,0.07a1.38,1.38,0,0,0-1.23-.74h-0.06l0-.06a0.93,0.93,0,0,1,.45-0.62,0.64,0.64,0,0,1,.28-0.06,1.79,1.79,0,0,1,.3,0l0.11,0a2,2,0,0,0-1.49-1.23l-0.07,0,0-.07a0.72,0.72,0,0,1,.65-0.49,2.69,2.69,0,0,1,1,.29,2.83,2.83,0,0,0-.81-1L175,10.95c-0.23-.17-0.47-0.34-0.7-0.53-0.7-.58-0.85-0.91-0.41-1.72l0.05-.1L174,8.69a1.23,1.23,0,0,0,.31.36,3.44,3.44,0,0,0,.82.46,3.28,3.28,0,0,1-1.28-1.76,12,12,0,0,0-.44,1.16c-0.07.2-.14,0.41-0.21,0.61l-0.08-.1-0.06-.13a6,6,0,0,1-.08-1,1.81,1.81,0,0,0-.07-0.52l0-.16a2.19,2.19,0,0,0-1.78-1.82,0.63,0.63,0,0,0-.73.35"/><path class="cls-2" d="M180.52,15.55a0.59,0.59,0,0,0,.25,0,0.26,0.26,0,0,0,.22-0.22l0.08-.38a28.2,28.2,0,0,1,1.61-5.21,10.28,10.28,0,0,1,2-3,4.18,4.18,0,0,1,.58-0.45l0.19-.13a0.74,0.74,0,0,0-.83-0.43,2.42,2.42,0,0,0-1.91,2.15c0,0.13,0,.26,0,0.38a6.12,6.12,0,0,1-.06.93V9.32a0.89,0.89,0,0,1-.11.41l-0.07.11,0-.13c-0.07-.24-0.13-0.47-0.19-0.71-0.1-.4-0.21-0.82-0.35-1.24a2.23,2.23,0,0,1-.35.76,4.53,4.53,0,0,1-.67.75,4.27,4.27,0,0,1-.48.36h0.12a2.39,2.39,0,0,0,1.17-.78c0.44,0.9.42,1-.31,1.62l-0.35.27-0.23.17-0.2.16c-0.18.14-.36,0.28-0.53,0.43a2.27,2.27,0,0,0-.6.78l0,0A2.52,2.52,0,0,1,180,12a0.81,0.81,0,0,1,1,.49l0,0.05-0.06,0a2,2,0,0,0-1.46,1.23l0.32,0a0.7,0.7,0,0,1,.79.69v0.06h-0.06a1.69,1.69,0,0,0-1.27.81l0.78,0.12,0.43,0.09"/><path class="cls-2" d="M187.78,41.9a1.76,1.76,0,0,0-.21-0.39,13.26,13.26,0,0,1-1.27-2.25,2.61,2.61,0,0,0-.76-1.08,6,6,0,0,1-2-3.29,11.74,11.74,0,0,0-1-3,4.56,4.56,0,0,1-.41-1.32c-0.06-.38-0.12-0.75-0.18-1.15l0,0.06,0,0.32a20.74,20.74,0,0,0,.51,5.7,16.32,16.32,0,0,0,1.41,4.43,1.36,1.36,0,0,0,.7.62,29.47,29.47,0,0,1,3.3,1.37l0,0"/><path class="cls-2" d="M163.67,9.39a1.7,1.7,0,0,0,1.92-.61l0.56-.86c-0.05.56,0.08,1.11,0,1.66a1.29,1.29,0,0,1-.6,1.19,0.54,0.54,0,0,0,.47.06,1.19,1.19,0,0,0,.75-0.57c0.1-.17.17-0.35,0.26-0.53a0.31,0.31,0,0,1,.27-0.26,0.32,0.32,0,0,1,.23.32,1.62,1.62,0,0,1-.77,2,0.41,0.41,0,0,0,.37.11,1,1,0,0,0,.69-0.36,2.37,2.37,0,0,0,.6-2,1.51,1.51,0,0,1-.06-0.67,0.42,0.42,0,0,1,.33.17,2.44,2.44,0,0,0,.56.42,0.61,0.61,0,0,0,.84-0.32,1.39,1.39,0,0,1-1-.69,0.73,0.73,0,0,1,.41.08,4,4,0,0,0,.72.25A0.6,0.6,0,0,0,171,8.11h-0.07a1.39,1.39,0,0,1-1.6-1.24,1.67,1.67,0,0,1,1.11-1.58,2.19,2.19,0,0,1,1.83.5,3.24,3.24,0,0,1,.63.71,2.08,2.08,0,0,0-3-1.59,0.44,0.44,0,0,0-.43-0.18,2,2,0,0,0-1.86,1.12,0.33,0.33,0,0,1-.31.14,1.7,1.7,0,0,0-1.74,1.3,2.69,2.69,0,0,1-.87,1.47,0.9,0.9,0,0,1-1.36,0,0.48,0.48,0,0,0,.37.61"/><path class="cls-2" d="M168.5,20.9A19.86,19.86,0,0,0,165.72,25a0.48,0.48,0,0,0,0,.48,16.12,16.12,0,0,1,1.46,5.72,24.33,24.33,0,0,1,0,4.2c0,0.38-.06.76-0.09,1.21a11.14,11.14,0,0,0,1.23-1.4,2.64,2.64,0,0,0,.41-1.68,0.57,0.57,0,0,0-.11-0.35,4.33,4.33,0,0,1-.67-1.43c0-.13-0.09-0.27.07-0.34s0.25,0.06.31,0.19a7.84,7.84,0,0,0,.79,1.23,0.3,0.3,0,0,0,.24.14,1.18,1.18,0,0,0,1.14-.65,1.31,1.31,0,0,0-.23-1.36,1,1,0,0,1-1.57-.15,4,4,0,0,1-.34-0.52,6.46,6.46,0,0,1-.59-1.63,23.14,23.14,0,0,0-.86-2.93,1,1,0,0,1,.06-1,8.36,8.36,0,0,1,3.37-3.38,0.84,0.84,0,0,1,.44-0.15c0.24,0.45.54,0.46,0.84,0.05a0.41,0.41,0,0,0,0-.54c-0.14-.14-0.28-0.29-0.49-0.15a3.11,3.11,0,0,1-2.43.1l-0.17.17"/><path class="cls-2" d="M185,4.69a2.08,2.08,0,0,0-2.17,1.48,0.2,0.2,0,0,0,0,.21l0.44-.47a3.45,3.45,0,0,1,.64-0.48,1.56,1.56,0,0,1,2.4,1.07,1.26,1.26,0,0,1-1.56,1.62,0.7,0.7,0,0,0,1,.55l0.35-.14a0.17,0.17,0,0,1,.25.06,1.48,1.48,0,0,1-.89.45,0.68,0.68,0,0,0,.56.3h0.57c0.44,0,.52.06,0.6,0.49a3.44,3.44,0,0,0,.55,1.5,1.29,1.29,0,0,0,.67.52,0.51,0.51,0,0,0,.55-0.09c-0.85-.38-1.18-2-0.52-2.48a1.05,1.05,0,0,1,.29.51,1.7,1.7,0,0,0,.86,1,0.5,0.5,0,0,0,.56,0,1.25,1.25,0,0,1-.56-1c-0.11-.52.08-0.72,0.6-0.61,0.3,0.06.59,0.22,0.88,0.3a1.52,1.52,0,0,0,1.14-.1,0.46,0.46,0,0,0,.21-0.59,0.81,0.81,0,0,1-1.06.19A1.49,1.49,0,0,1,191,8.69a2.93,2.93,0,0,1-.77-1.45A1.69,1.69,0,0,0,188.41,6a1.7,1.7,0,0,1-.53-0.54,1.44,1.44,0,0,0-1.7-.7c-0.08,0-.29.16-0.17,0.11"/><polygon class="cls-2" points="176.81 3.85 176.82 3.85 176.81 3.84 176.81 3.85"/><path class="cls-2" d="M181.31,2.55l0,0v0h0"/><path class="cls-2" d="M180.59,2.91s0,0,0,.05a1.51,1.51,0,0,1,.29.7A1.78,1.78,0,0,1,180.57,5a0.22,0.22,0,0,0-.06.27,0.3,0.3,0,0,0,.28.07,0.81,0.81,0,0,0,.67-0.67,2.71,2.71,0,0,0,0-1.18c0-.28-0.11-0.56-0.18-0.85a2.43,2.43,0,0,0,2.75.21,1,1,0,0,1-.76-0.08,3,3,0,0,1-.56-0.41,4,4,0,0,0-1-.66c-0.2-.1-0.09-0.13.13-0.06a3.93,3.93,0,0,0,.92.23A1.44,1.44,0,0,0,184,1.37,0.7,0.7,0,0,0,184,.47a1.26,1.26,0,0,1-1.55.8,1.9,1.9,0,0,1-.56-0.18l-1-.48a2.51,2.51,0,0,0-3,.24,0.38,0.38,0,0,1-.52,0,2.92,2.92,0,0,0-3.41-.19,3.69,3.69,0,0,1-.91.44A1.52,1.52,0,0,1,171.82,1a1.34,1.34,0,0,1-.38-0.47,0.7,0.7,0,0,0,.06,1.08,1.34,1.34,0,0,0,1.73.08,1.49,1.49,0,0,1,.38-0.21c0.24-.11-0.3.37-0.71,0.82a1.6,1.6,0,0,1-.89.5,1,1,0,0,1-1-.28,0.79,0.79,0,0,0,.58.64A1.55,1.55,0,0,0,172.43,3a1.09,1.09,0,0,1-.83.34,0.76,0.76,0,0,0,.48.2,1.63,1.63,0,0,0,1.36-.69A6.07,6.07,0,0,1,174,2.33a0.14,0.14,0,0,1,0,.15,3.11,3.11,0,0,0,.56,2.19,1,1,0,0,0,.85.49A1.83,1.83,0,0,1,175,3.74a2.24,2.24,0,0,1,.58-1.34,6.5,6.5,0,0,0,0,1.21A1.89,1.89,0,0,0,177,5.34a0.44,0.44,0,0,0,.39-0.05,1.67,1.67,0,0,1-.58-1.36c0.12,0.17.22,0.36,0.36,0.52a1.16,1.16,0,0,0,1.18.34A1,1,0,0,0,179,3.88a3.7,3.7,0,0,0,0-.64,0.81,0.81,0,0,1,0-.39,2,2,0,0,1,.47,1.23,1.26,1.26,0,0,1-.74,1.24,0.66,0.66,0,0,0,.55-0.08,2.81,2.81,0,0,0,1.08-1A1.62,1.62,0,0,0,180.6,3a0.63,0.63,0,0,1,0-.09"/><path class="cls-2" d="M161,17.92a7.34,7.34,0,0,1-.2,3.42,23.15,23.15,0,0,1-1.64,3.91,21.09,21.09,0,0,0-1.49,3.62,7.58,7.58,0,0,0-.31,2.58,4.8,4.8,0,0,0,1.37,2.84,0.41,0.41,0,0,0,.48.13l1.19-.35a3.29,3.29,0,0,1,2.84.4c0.3,0.19.61,0.36,0.92,0.54a3.61,3.61,0,0,0,1.66.49,0.62,0.62,0,0,0,.75-0.58,0.18,0.18,0,0,0-.09-0.24c-0.19-.1-0.37-0.23-0.56-0.31a1,1,0,0,1-.61-1.08,4,4,0,0,1,.08-0.42,3,3,0,0,0,.06-0.36,0.21,0.21,0,0,0-.1-0.23,0.2,0.2,0,0,0-.23.1l-0.38.46a1.67,1.67,0,0,1-1.11.6,4.58,4.58,0,0,1-2.69-.41,3.19,3.19,0,0,1-1.74-2.15c-0.14-.57-0.1-0.63.44-0.83a0.88,0.88,0,0,0,.62-0.79,3,3,0,0,0,0-.52,5,5,0,0,1,.36-2.31c0.22-.54.47-1.06,0.7-1.59a14.88,14.88,0,0,0,1.33-5,5.67,5.67,0,0,0-2.32-5.07,2.33,2.33,0,0,0-1.93-.39A4.48,4.48,0,0,1,161,17.92"/><path class="cls-2" d="M178.2,25.76c-1,0-10,.46-10.33.6l0.26,0.94a21,21,0,0,0,.79,2.59,1.55,1.55,0,0,0,.46.66,0.39,0.39,0,0,0,.66-0.11c0.09-.14.17-0.29,0.27-0.46a2.92,2.92,0,0,1,.82,1.72,1.52,1.52,0,0,1-.85,1.55l-0.48.21a0.73,0.73,0,0,0-.48.71,2.7,2.7,0,0,1-.56,1.56,14.53,14.53,0,0,1-1.35,1.53A1.33,1.33,0,0,0,167,38c0,0.16-.05.33-0.08,0.49-0.1.53-.25,1-0.39,1.57a124,124,0,0,1,12.27-14.31"/><path class="cls-2" d="M151.76,25.27c0.32-.09.65-0.19,1-0.3a1.54,1.54,0,0,0,1-1.07,2,2,0,0,0-.17-1.49,3,3,0,0,1-.3-1.27c0-.16,0-0.42.16-0.44s0.19,0.24.24,0.39a0,0,0,0,1,0,0,1.73,1.73,0,0,0,1.44,1.64,0.19,0.19,0,0,0,.23,0,2.87,2.87,0,0,0,.83-1.36,2.25,2.25,0,0,0-.48-2c-0.27-.31-0.54-0.63-0.79-1a1.57,1.57,0,0,1-.34-1.19,3.72,3.72,0,0,1,3.1-3.2,1.54,1.54,0,0,0,.54-0.11,5,5,0,0,0-3.61.62c-1.25.81-1.54,1.73-3.83,2.53a3.6,3.6,0,0,0-.85.4,2.75,2.75,0,0,0-1.38,2,15.19,15.19,0,0,0-.11,2.19c0,0.09,0,.18,0,0.27a0.25,0.25,0,0,0,.24.24,1.14,1.14,0,0,0,1.17-.49,2.68,2.68,0,0,0,.29-0.63c0.06-.18.19-0.35,0.26-0.53a0.17,0.17,0,0,1,.16-0.13,0.18,0.18,0,0,1,.12.19,1,1,0,0,1-.14.64c-0.15.27-.32,0.52-0.47,0.79a2.36,2.36,0,0,0,0,2.59,5.13,5.13,0,0,1,.58,1.18,3.94,3.94,0,0,1,1.12-.48"/><path class="cls-2" d="M200.89,23.12s0,0-.07,0a1.33,1.33,0,0,1-.27-1.47c0.15-.4.34-0.77,0.48-1.17a3.47,3.47,0,0,0-1.92-4.57,5.28,5.28,0,0,0-5,.27l-0.09,0,0,0.05,0.3-.09a5.92,5.92,0,0,1,2.93-.11,2.67,2.67,0,0,1,2.13,1.64,2.92,2.92,0,0,1-.94,3.4c-0.4.29-.75,0.55-1.17,0.82a2,2,0,0,0-1,2.32,8,8,0,0,1,.47,2.3c0-.4.75,0,1.12,0a1.69,1.69,0,0,0,1.37-.69,1.12,1.12,0,0,0,.22-1.32,3,3,0,0,1-.1-0.38,0.18,0.18,0,0,1,0-.23,0.17,0.17,0,0,1,.22.06,1.06,1.06,0,0,1,.32.7A4.3,4.3,0,0,0,200.4,26a2.74,2.74,0,0,0,3,1.81c0.33,0,.66,0,1,0a0.84,0.84,0,0,1,.52.12,0.44,0.44,0,0,0,.3.09c0-.55,0-1.09,0-1.61a1.37,1.37,0,0,0-.92-1.37,3.92,3.92,0,0,1-.91-0.5,1,1,0,0,1-.38-0.57,0.33,0.33,0,0,1,.37-0.45,1.6,1.6,0,0,1,.43.11c0.6,0.2.79,0.08,0.91-.54,0,0,0-.08,0-0.12a1.4,1.4,0,0,1,.51-1.12L205,21.72a1.27,1.27,0,0,1-1-.78,0.7,0.7,0,0,0-.93-0.4,2.9,2.9,0,0,0-.81.37,3.84,3.84,0,0,1-.85.52,0.89,0.89,0,0,0-.49.42,1.53,1.53,0,0,0-.08,1.19,0.05,0.05,0,0,1,0,.08"/><path class="cls-2" d="M198.41,61.71a1,1,0,0,0-.21.79,5.91,5.91,0,0,0,.19.72,1,1,0,0,1-.18,1,0.35,0.35,0,0,1-.63,0c-0.14-.16-0.24-0.36-0.38-0.52a0.93,0.93,0,0,0-1.37-.17,1.46,1.46,0,0,0-.56.86c-0.11.43-.2,0.87-0.3,1.31a1,1,0,0,1-.46.68,1.51,1.51,0,0,0-.38.3,1.41,1.41,0,0,1,.65,1,4.57,4.57,0,0,0,.19.54,0.67,0.67,0,0,0,.38.4,1.65,1.65,0,0,0,1.85,0l0.06,0a0.17,0.17,0,0,1,.2,0,0.17,0.17,0,0,1,0,.19,0.85,0.85,0,0,1-.61.69,4.55,4.55,0,0,1-.83.15,1.28,1.28,0,0,0-1.19,1.12,4.18,4.18,0,0,0,.16,1.87,0.12,0.12,0,0,0,.17.1c0.52-.09,1.06,0,1.59-0.05a1.79,1.79,0,0,0,1.88-1.84c0-.06,0-0.11,0-0.17a1.79,1.79,0,0,1,1.3-1.78l0.51-.19,1.46-.49a1.07,1.07,0,0,0,.52-0.32A15.67,15.67,0,0,0,203.68,66a0.31,0.31,0,0,0,.09-0.24c-0.18.12-.36,0.24-0.55,0.34a1.08,1.08,0,0,1-.86.11,1.48,1.48,0,0,1-.94-2.14c0.16-.32.33-0.63,0.49-0.95a2.46,2.46,0,0,0,.16-1.68A2,2,0,0,0,201,60.1a4.58,4.58,0,0,1-1.12-.65,13,13,0,0,1-1.48,2.25"/><path class="cls-2" d="M151.7,58.15a3,3,0,0,0-.94,1.1,1.25,1.25,0,0,0,.15,1.42c0.21,0.25.44,0.49,0.68,0.73a2.26,2.26,0,0,1,.6,1.2A1.42,1.42,0,0,1,151,64.39a3.94,3.94,0,0,1-3.56-1.19,9.09,9.09,0,0,1-1-1.34,1.4,1.4,0,0,0-.1-0.14,0.18,0.18,0,0,0-.14-0.12,9.42,9.42,0,0,0,1.58,2.92,5.25,5.25,0,0,0,2.43,1.62,10.74,10.74,0,0,0,1.73.35,6.78,6.78,0,0,1,1.05.16,0.29,0.29,0,0,1-.06.08c-0.35.23-.35,0.23-0.06,0.53a2.62,2.62,0,0,1,.68,1.05,5,5,0,0,1,.17,1.05,2.1,2.1,0,0,0,.36,1.17,3.07,3.07,0,0,0,1.38,1c0.48,0.19,1,.33,1.47.54a0.29,0.29,0,0,0,.25.07,2.31,2.31,0,0,1,.36-1.2c0.15-.27.3-0.53,0.43-0.81a1.53,1.53,0,0,0-1.17-2.23c-0.34-.07-0.69-0.21-1-0.26a0.69,0.69,0,0,1-.57-0.35,0.28,0.28,0,0,1,0-.32c0.11-.11.21,0,0.3,0.07l0.17,0.1a1.25,1.25,0,0,0,1.77-.26,2.44,2.44,0,0,0,.57-2.11,2.16,2.16,0,0,1,.17-1.21,1.38,1.38,0,0,0,.15-0.43c-0.19-.08-0.37-0.15-0.53-0.24a5.35,5.35,0,0,1-1.1-.92,0.58,0.58,0,0,0-1,0,2.81,2.81,0,0,1-.49.42,0.56,0.56,0,0,1-.71-0.15,0.44,0.44,0,0,1,0-.63l0.36-.47a1.68,1.68,0,0,0,.29-1.36A2.58,2.58,0,0,0,154,58.09,2.36,2.36,0,0,1,153,57a8.1,8.1,0,0,1-1.32,1.13"/><path class="cls-2" d="M158.82,35.93a2.37,2.37,0,0,1-.1-0.53,0.85,0.85,0,0,0-.42-0.76,3.87,3.87,0,0,1-1.5-2,6.34,6.34,0,0,1,.08-3.49,20.22,20.22,0,0,1,1.54-3.82,28.79,28.79,0,0,0,1.74-4.12,6.58,6.58,0,0,0-.17-4.67,2.34,2.34,0,0,0-1.87-1.75,1.94,1.94,0,0,0-2,.74,5.81,5.81,0,0,0-.46.57,1.42,1.42,0,0,1,1.62.15,2.29,2.29,0,0,1,.82,1,4.23,4.23,0,0,1-.28,4.09,4.46,4.46,0,0,0-.66,1.46,1.28,1.28,0,0,1-.21.5,0.21,0.21,0,0,1-.25.12c-0.11-.05-0.08-0.16-0.05-0.26,0.08-.28.18-0.57,0.24-0.86s0.22-.37-0.11-0.54c-0.1.2-.32,0.42-0.44,0.62a4.4,4.4,0,0,1-.34.47,0.69,0.69,0,0,1-1,.32,0.38,0.38,0,0,0-.5.15c0,0.16,0,.36,0,0.53a6.41,6.41,0,0,0,.26,2.09,1,1,0,0,1-.11.79,0.44,0.44,0,0,1-.38.27c-0.15,0-.1-0.24-0.11-0.37a1.52,1.52,0,0,0-.3-1.07,1.2,1.2,0,0,0-1.12-.09,1,1,0,0,0-.4.5c-0.23.63-.37,1-0.59,1.64a2.28,2.28,0,0,0,.29,2.13c0.19,0.27.36,0.55,0.53,0.84a1.35,1.35,0,0,1,.18.93,0.28,0.28,0,0,1-.17.26,0.48,0.48,0,0,1-.17-0.4,1.55,1.55,0,0,0-1.18-1.3,0.23,0.23,0,0,0-.34.16,6.61,6.61,0,0,0-.42,1.76,2.45,2.45,0,0,0,1.68,2.7,1.89,1.89,0,0,1,.37.14c0.13,0.07.35,0.1,0.32,0.29s-0.24.13-.38,0.15a0.84,0.84,0,0,0-.74,1.05,1,1,0,0,0,.75.67c0.26,0.08.38,0,.36-0.29s-0.06-.39-0.08-0.59a0.34,0.34,0,0,1,.19-0.39,5,5,0,0,0,1.2-.84,1.33,1.33,0,0,1,.54-0.29,3.73,3.73,0,0,1,1.7-.07,4.47,4.47,0,0,1,1.71.82,7.49,7.49,0,0,0,.77.54l0,0"/><path class="cls-2" d="M179.15,29.94a0.89,0.89,0,1,1,0-1.78,0.9,0.9,0,0,1,.87.9,0.89,0.89,0,0,1-.91.88m-1.65,2a0.89,0.89,0,0,1,0-1.79,0.89,0.89,0,0,1,0,1.79m-1.81,2.21a0.89,0.89,0,1,1,.89-0.9,0.88,0.88,0,0,1-.89.9m-2,2.23a0.89,0.89,0,0,1-.89-0.88,0.9,0.9,0,0,1,.89-0.9,0.91,0.91,0,0,1,.89.88,0.9,0.9,0,0,1-.9.9m-1.78,2.25a0.89,0.89,0,1,1,.88-0.88,0.88,0.88,0,0,1-.88.88m10.3-.25a27,27,0,0,1-1-6.33,36.68,36.68,0,0,1,.34-6.58c0.08-.58.18-1.16,0.27-1.74l0,0-0.25.24q-3.76,3.88-7.37,7.9c-2.67,3-5.3,6-7.7,9.23a0.47,0.47,0,0,0-.14.24l0.13,0q2-.55,4-0.91a31.5,31.5,0,0,1,5.55-.49,39.52,39.52,0,0,1,5.74.54,8.25,8.25,0,0,0,1.17.13,20.49,20.49,0,0,1-.76-2.19"/><path class="cls-2" d="M165.74,39.93a13.09,13.09,0,0,1-3.2,1.2c-1.34.34-2.7,0.59-4,1a12.51,12.51,0,0,0-6.35,4.51A33.71,33.71,0,0,0,149.39,51a13,13,0,0,0-.79,1.63,17.87,17.87,0,0,0-1.17,6.55,7.51,7.51,0,0,0,.47,2.8,2.92,2.92,0,0,0,1.37,1.64,1.35,1.35,0,0,0,.56.18,5.7,5.7,0,0,1-1.08-2.73,8.86,8.86,0,0,1,.88-4.52,18.79,18.79,0,0,1,1.49-2.38,8.36,8.36,0,0,0,1.45-3.45,4.93,4.93,0,0,1,.47-1.59,0.4,0.4,0,0,1,.28-0.28,0.39,0.39,0,0,1,0,.36c-0.05.36-.15,0.7-0.21,1.05a3.26,3.26,0,0,0,.15,2c0.14,0.29.2,0.55,0.35,0.84a0.2,0.2,0,0,0,.3.11,3.91,3.91,0,0,0,1.83-1.59,5.07,5.07,0,0,0,.59-2.06c0.07-.71,0-1.43.15-2.13a2.37,2.37,0,0,1,.3-0.86,0.28,0.28,0,0,1,.55.09,2,2,0,0,1,.05.49,12.56,12.56,0,0,0,0,1.47,2,2,0,0,0,1.11,1.77,2.26,2.26,0,0,1,.43.25,0.79,0.79,0,0,0,1.2,0c0.31-.29.71-0.48,1-0.78a1.89,1.89,0,0,0,.63-1.3c0-1.69,0-3.25,0-4.94V42.88h5.55a0.68,0.68,0,0,0,.47-0.22c0.36-.43.39-0.48,0.78-0.89,0.19-.2.33-0.33,0.49-0.49a29.85,29.85,0,0,0-3.9,1l0.7-2.43-0.14.06"/><path class="cls-2" d="M146.37,49.36a3.37,3.37,0,0,1-.85.6,2.56,2.56,0,0,0-1.06,1.12,5.55,5.55,0,0,0-.58,3.64,9,9,0,0,0,.29,1.23c0,0.1.07,0.23,0.24,0.17s0.55-.22.81-0.31a1.26,1.26,0,0,0,.78-0.74c0.08-.18.21-0.3,0.3-0.47a0.3,0.3,0,0,1,.19-0.22,0.48,0.48,0,0,1,.12.45,1.57,1.57,0,0,1-.29.63,2.61,2.61,0,0,0-.43.92,6.54,6.54,0,0,0,.73,4.8,9.65,9.65,0,0,0,.89,1.24,0.24,0.24,0,0,0,0-.08,0.81,0.81,0,0,0-.05-0.14,7.59,7.59,0,0,1-.69-2.88,13.57,13.57,0,0,1,.62-5.33,24.17,24.17,0,0,1,5.34-9.08,12.09,12.09,0,0,1,5.72-3.53c1.54-.44,3.11-0.74,4.67-1.08a6.87,6.87,0,0,0,2.79-1.13,0.56,0.56,0,0,0,.26-0.39c0.08-.62.18-1.25,0.26-1.87a5,5,0,0,0,.09-1c-0.17,0-.31.1-0.45,0.13a3,3,0,0,1-2.06-.37c-0.46-.24-0.91-0.51-1.37-0.75a2.55,2.55,0,0,0-1.49-.3,13.13,13.13,0,0,0-1.49.28c-0.48.11-.47,0.11-0.39,0.59A2,2,0,0,0,161,37.08a5,5,0,0,1,.57.07c0.15,0,.38,0,0.4.17s-0.2.24-.34,0.3a1.81,1.81,0,0,1-1.1,0,3.38,3.38,0,0,1-1.71-1A7.15,7.15,0,0,0,157,35.43a2.72,2.72,0,0,0-1.81-.27,4.91,4.91,0,0,0-1.75,1,0.25,0.25,0,0,0-.08.27,3.73,3.73,0,0,0,.48,1.14,1,1,0,0,0,1,.48h0.27a0.23,0.23,0,0,1,.26.17c0,0.13-.13.16-0.23,0.19a1.88,1.88,0,0,1-.51.06,11,11,0,0,1-1.92-.28,4.9,4.9,0,0,0-3.93.8A4.11,4.11,0,0,0,147,42a0.23,0.23,0,0,0,.12.31,1.9,1.9,0,0,0,1.43-.06c0.19-.08.39,0,0.59-0.12a0.33,0.33,0,0,1,.3,0,0.59,0.59,0,0,1-.32.46,2.36,2.36,0,0,1-.86.3,7,7,0,0,0-2.63,1.19,2.16,2.16,0,0,0-.93,1.34l-0.19.82a2.66,2.66,0,0,1-.9,1.7,0.51,0.51,0,0,0-.19.44,5.62,5.62,0,0,0,.35,1.55,3.89,3.89,0,0,1,.81-0.23,2.44,2.44,0,0,0,1.52-.87,0.52,0.52,0,0,1,.48-0.15,0.77,0.77,0,0,1-.26.65"/><path class="cls-2" d="M172.79,82.59h0"/><path class="cls-2" d="M172.79,82.59h0"/><polygon class="cls-2" points="176.84 43.59 166.7 43.59 176.84 53.78 176.84 43.59"/><path class="cls-2" d="M177.72,54.51c2.74,2.74,5.52,5.67,6.44,6.5H192l0-17.4-14.38,0Z"/><path class="cls-2" d="M172.2,61.82h-9.76v0.11a19.66,19.66,0,0,0,.35,3.71,12.43,12.43,0,0,0,3.12,6.42,18.27,18.27,0,0,0,4,3.15,49.16,49.16,0,0,0,5.4,2.75c0.48,0.21,1,.41,1.49.63,0-.08,0-0.11,0-0.15q0-5.88,0-11.76a0.42,0.42,0,0,0-.14-0.32l-4.5-4.55"/><path class="cls-2" d="M186.2,82.93a1,1,0,0,0-.24-0.25,0.69,0.69,0,0,0-1.12.46,1.75,1.75,0,0,0,.08.78l1.1-.4c0.38-.13.41-0.27,0.19-0.6"/><path class="cls-2" d="M173.91,83.9a0.86,0.86,0,0,0-.54.66,0.55,0.55,0,0,0,.4.67,1,1,0,0,0,.83-0.17c-0.1-.34-0.21-0.66-0.29-1a0.25,0.25,0,0,0-.39-0.19"/><path class="cls-2" d="M170.28,83.05a0.57,0.57,0,0,0-.78.54c0,0.63,0,1.26,0,1.92l0.1-.06a0.76,0.76,0,0,1,.8-0.23,0.36,0.36,0,0,0,.5-0.33,2.35,2.35,0,0,0-.22-1.47,0.72,0.72,0,0,0-.39-0.36"/><path class="cls-2" d="M207.66,86.33l-0.06-.12a55,55,0,0,1-4.43-9.92,2.43,2.43,0,0,0-.11-0.27L203,75.89a2.75,2.75,0,0,0-2.59-.9c-1.36.19-2.86,1.24-3,2a5.08,5.08,0,0,0,1,1.83l0,0L198.49,79a6,6,0,0,0,2.33-1c-0.42-.95-0.44-1-0.71-1.68a2.4,2.4,0,0,1-1.62.9,0.56,0.56,0,0,1-.16-0.38A2.83,2.83,0,0,1,201,75.52a1.37,1.37,0,0,1,1.55,1.74c-0.47,1.7-4.2,2.42-3.86,2.35a10.88,10.88,0,0,1-4.16.08,2.9,2.9,0,0,1-2-1,1.71,1.71,0,0,1,.18-2.38,0.06,0.06,0,0,0,0-.1,4.24,4.24,0,0,0-1.86.06,17.31,17.31,0,0,0-3.78,1.44,14.23,14.23,0,0,1-3.76,1.4,8.51,8.51,0,0,1-4.28-.2,0.43,0.43,0,0,0-.33,0c-0.42.18-.86,0.36-1.28,0.55a0.62,0.62,0,0,1-.57,0c-0.32-.15-0.66-0.27-1-0.43s-0.52-.32-0.87-0.13a4.69,4.69,0,0,1-.58.16,9.55,9.55,0,0,1-5.2-.38c-1-.33-1.91-0.87-2.87-1.3a13.94,13.94,0,0,0-3.74-1.24,3.07,3.07,0,0,0-1.34.07,1.86,1.86,0,0,1-.55,3.13,3.41,3.41,0,0,1-.67.26,9.94,9.94,0,0,1-1.8.23,9.78,9.78,0,0,1-2.59-.14l-0.22,0s-4-.76-4-2.79c0-.16.05-1.27,1.79-1.33,0,0,1.85-.08,2.37,1.26a0.61,0.61,0,0,1-.17.43,6.37,6.37,0,0,1-1.66-.87s-0.28.66-.7,1.61a6.33,6.33,0,0,0,2.36,1l0.21-.43a8.64,8.64,0,0,0,.82-1.47c0.2-.77-1.44-2-2.82-2.06a3.43,3.43,0,0,0-1.43.14,1.84,1.84,0,0,0-1.4,1.54,5.14,5.14,0,0,1-.14.65,29.19,29.19,0,0,1-4.08,8.91l-0.16.24,0.25,0.34L146.9,87a6.74,6.74,0,0,0,3.32,1.9,15.18,15.18,0,0,0,5.88.13c1.64-.22,3.24-0.61,4.85-1a8.22,8.22,0,0,1,3.33-.27,2.67,2.67,0,0,1,1.58.72,1.26,1.26,0,0,1,.11,1.73,0.29,0.29,0,0,0,0,.08l0.33,0a9.08,9.08,0,0,0,3.42-1.13,6.25,6.25,0,0,1,3.69-.78,3.27,3.27,0,0,1,2.55,1.36c0.21,0.31.43,0.61,0.61,0.93s0.38,0.81.57,1.24l0.13-.27a14.38,14.38,0,0,1,.91-1.71,3.18,3.18,0,0,1,2-1.41,6.06,6.06,0,0,1,4.36.63,11.26,11.26,0,0,0,1.67.75,7.51,7.51,0,0,0,2.15.42,1.33,1.33,0,0,1,.27-2A2.44,2.44,0,0,1,189,88a3.87,3.87,0,0,1,1.37-.34,9.36,9.36,0,0,1,3,.33,36.9,36.9,0,0,0,6.87,1.19,12.4,12.4,0,0,0,4-.38,6.73,6.73,0,0,0,3.15-1.86h0l0.18-.2a2.34,2.34,0,0,0,.18-0.28l-0.08-.13m-40.82-.85a2.8,2.8,0,0,1-1.42.29,4.27,4.27,0,0,1-1.78-.42l0.6-.69a8.53,8.53,0,0,0,.84.65,0.88,0.88,0,0,0,1.21-.23,0.87,0.87,0,0,0-.16-1.21,3.24,3.24,0,0,0-.66-0.39,7.89,7.89,0,0,1-.71-0.39,1.37,1.37,0,0,1,0-2.37,2.62,2.62,0,0,1,2-.25,2.08,2.08,0,0,1,.71.27c-0.21.11-.38,0.18-0.54,0.28s-0.16,0-.23-0.07a1.06,1.06,0,0,0-1.07-.22,0.77,0.77,0,0,0-.54.62,0.73,0.73,0,0,0,.32.76,6,6,0,0,0,.8.45,4.41,4.41,0,0,1,.8.49,1.43,1.43,0,0,1-.22,2.42m4.4-.34a2,2,0,0,1-1.49.5l-0.3,0c0,0.53,0,1,0,1.55a0.33,0.33,0,0,1-.22.36,5.46,5.46,0,0,1-.84.36c0-.5,0-1,0-1.45,0-1.17,0-2.34,0-3.51,0-.34,0-0.33-0.35-0.36a0.4,0.4,0,0,1-.27-0.05,0.72,0.72,0,0,1,.49-0.19c0.4,0,.81,0,1.25,0v0.55a2.6,2.6,0,0,0,.52-0.36,1.15,1.15,0,0,1,1.75.46,1.94,1.94,0,0,1-.52,2.15m3.42,0a2,2,0,0,1-1.67.55,0.74,0.74,0,0,1-.7-0.47,0.87,0.87,0,0,1,.14-0.91,1.73,1.73,0,0,1,.78-0.51c0.29-.11.6-0.19,0.89-0.28a1,1,0,0,0-1.13-1H172.8a2,2,0,0,1,1.75-.15,0.83,0.83,0,0,1,.54.58c0.12,0.33.23,0.67,0.33,1a5.16,5.16,0,0,0,.7,1.63,1.28,1.28,0,0,1-1.46-.48m4.27-2.29a0.16,0.16,0,0,1-.18,0,1.09,1.09,0,0,0-.49.05,0.55,0.55,0,0,0-.44.62c0,0.46,0,.93,0,1.39s0,0.35.35,0.38l0.44,0a0.46,0.46,0,0,1-.33.21h-1.7c0.21-.93,0-1.86.15-2.79l-0.74-.2c0.6-.55,1.3-0.21,2-0.35a0.79,0.79,0,0,0-.16.62,2,2,0,0,1,1.65-.68l-0.52.65M183,86a0.31,0.31,0,0,1-.4-0.07,7.64,7.64,0,0,1-.82-0.93c-0.27-.33-0.51-0.68-0.85-1v1.22a0.16,0.16,0,0,0,.17.18l0.41,0a0.43,0.43,0,0,1-.3.2h-1.64a1,1,0,0,0,.24-0.87v-4c-0.13,0-.35,0-0.59,0a1.15,1.15,0,0,1,.73-0.29c0.41,0,.83,0,1.31,0a0.91,0.91,0,0,0-.27.87q0,1.11-.05,2.21v0.28a8.21,8.21,0,0,0,1.35-.88,1.59,1.59,0,0,0-.46-0.42l1-.72,0.66,0.5a17.67,17.67,0,0,1-1.5,1.18,24.22,24.22,0,0,0,1.81,2.13c-0.28.14-.53,0.25-0.77,0.38m4.36-.84a1.11,1.11,0,0,1-.73.45,3.86,3.86,0,0,1-1.46.05,1.63,1.63,0,0,1-1-2.55,2.19,2.19,0,0,1,2.43-.8,1.33,1.33,0,0,1,.82.91A7.5,7.5,0,0,1,185,84a1.5,1.5,0,0,0,1.34,1.33,2.81,2.81,0,0,0,1-.18,0.09,0.09,0,0,1,.06,0s0,0,0,0m1.5-1.92a1.29,1.29,0,0,0,.48.3c0.17,0.07.35,0.13,0.52,0.22a0.92,0.92,0,0,1,.24,1.5,1.53,1.53,0,0,1-.93.44,3.3,3.3,0,0,1-1.77-.28l0.46-.58c0.22,0.17.43,0.34,0.66,0.49a0.51,0.51,0,0,0,.78-0.1,0.52,0.52,0,0,0-.24-0.77c-0.22-.12-0.45-0.21-0.67-0.32a1,1,0,0,1-.63-0.93,1.07,1.07,0,0,1,.8-0.91,2.9,2.9,0,0,1,1.88.15L190,83c-0.21-.15-0.4-0.3-0.61-0.43a0.39,0.39,0,0,0-.57.06,0.46,0.46,0,0,0,0,.61"/></g></svg>