<?xml version="1.0" encoding="utf-8"?>
<!-- Generator: Adobe Illustrator 19.2.1, SVG Export Plug-In . SVG Version: 6.00 Build 0)  -->
<svg version="1.1" id="Layer_1" xmlns="http://www.w3.org/2000/svg" xmlns:xlink="http://www.w3.org/1999/xlink" x="0px" y="0px"
	 viewBox="0 0 99.2 96.1" style="enable-background:new 0 0 99.2 96.1;" xml:space="preserve">
<style type="text/css">
	.st0{fill:#FFFFFF;}
</style>
<title>Untitled-1</title>
<path class="st0" d="M10.4,63.3c0-6.6,0-7.7,0.1-9.1c0-1.3,0.9-2.3,2.2-2.4c0.4-0.1,0.9-0.1,1.3-0.1c0.2,0,0.4-0.1,0.4-0.2
	c0-0.2-0.2-0.3-0.8-0.3c-1.5,0-4.7,0.1-4.9,0.1S5.3,51.1,3,51.1c-0.5,0-0.8,0.1-0.8,0.3c0,0.2,0.2,0.3,0.4,0.2c0.6,0,1.1,0,1.7,0.1
	c1.7,0.3,2.1,1,2.2,2.4s0.1,2.5,0.1,9.1v14.9c0,10.8-1.4,13.1-4.4,15.9c-0.5,0.4-1,0.8-1.6,1.2c-0.3,0.1-0.5,0.3-0.6,0.6
	c0,0.2,0.2,0.3,0.3,0.2c0.1,0,0.2-0.1,0.3-0.1c0.6-0.3,1.2-0.6,1.8-1c3.7-2.4,5.7-4.3,6.6-6.4c1.4-3,1.4-5.6,1.4-12.4L10.4,63.3
	L10.4,63.3z"/>
<path class="st0" d="M16.4,69.2c0,6.5,4.5,14.2,15.1,14.2c9.4,0,15.6-6.7,15.6-14.8c0-8.4-6.6-13.5-15.3-13.5
	C21,55.1,16.4,63.4,16.4,69.2 M20.1,68.2c0-7.9,4.9-11.9,11.4-11.9c6.2,0,11.9,4.7,11.9,13.3c0,10.5-7.3,12.3-10.8,12.3
	C25.6,82,20.1,76.6,20.1,68.2"/>
<path class="st0" d="M57.1,83.5c2.4,0.1,4.8-0.5,6.9-1.8c2.4-1.5,3.8-4.2,3.9-7c0-3.4-1.3-6-6.6-9.9L60,64c-4.3-3.2-5.5-4.7-5.5-7.1
	c0-3.1,2.4-4.9,5.5-4.9c4.2,0,5.4,1.8,5.7,2.2c0.3,0.7,0.5,1.4,0.6,2.1c0,0.3,0.1,0.5,0.4,0.5s0.3-0.3,0.3-1c0-2.9,0.2-4.2,0.2-4.5
	s-0.1-0.3-0.4-0.3c-0.5,0-1.1,0-1.6-0.1c-1.4-0.3-2.8-0.4-4.2-0.4c-5.8,0-9.4,3.1-9.4,7.6c0,2.9,1.1,5.5,5.9,9.1l2,1.6
	c3.9,3,5.2,4.7,5.2,7.6c0,2.7-2.1,5.6-6.5,5.6c-3,0-6-1.2-6.7-4.3c-0.1-0.5-0.2-1-0.1-1.6c0-0.3,0-0.5-0.3-0.5s-0.3,0.2-0.4,0.7
	c0,0.7-0.2,2.3-0.2,4.5c0,1.1,0,1.3,0.7,1.6C52.9,83.2,55,83.6,57.1,83.5"/>
<path class="st0" d="M86.2,53l5.8,0c4.4,0.1,5.4,1,5.6,2.3v0.5c0,0.6,0.1,0.7,0.4,0.7s0.3-0.2,0.3-0.5s0.1-3.4,0.1-4.6
	c0-0.2,0-0.5-0.2-0.5c-1.5,0.3-3,0.4-4.5,0.4h-17c-0.5,0-2.3-0.1-3.6-0.2c-0.7-0.1-1.4-0.3-2-0.5c-0.2,0.2-0.4,0.5-0.4,0.8
	c-0.1,0.3-1,4-1,4.4c0,0.3,0.1,0.4,0.2,0.4c0.2,0,0.4-0.2,0.4-0.4c0.2-0.5,0.5-0.9,0.8-1.3c0.7-1,1.8-1.3,4.6-1.3l6.7-0.1v17.8
	c0,4,0,7.4-0.2,9.1c-0.2,1.2-0.4,2.1-1.3,2.3c-0.4,0.1-0.9,0.2-1.4,0.2c-0.3,0-0.4,0.1-0.4,0.2s0.2,0.3,0.7,0.3
	c1.4,0,4.2-0.1,4.5-0.1s3.1,0.1,5.6,0.1c0.5,0,0.7-0.1,0.7-0.3s-0.1-0.2-0.4-0.2s-1.4-0.1-2-0.2c-1.4-0.2-1.6-1.1-1.8-2.3
	c-0.2-1.8-0.2-5.1-0.2-9.1L86.2,53L86.2,53z"/>
<path class="st0" d="M27.1,51.2c0,0,10.4,0,11.1-0.1l-1.9,1.5c0,0-10.4,0-11.1,0.1L27.1,51.2z"/>
<path class="st0" d="M16.2,89.4c-0.1-0.2-0.2-0.5-0.3-0.8c0-0.1,0.1-0.2,0.1-0.2c0.1,0,0.3,0,0.4,0c0.1,0,0.1,0,0.1-0.1
	s-0.1-0.1-0.3-0.1c-0.4,0-0.8,0-0.9,0s-0.7,0-1.2,0c-0.2,0-0.3,0-0.3,0.1c0,0,0,0.1,0.1,0.1c0,0,0,0,0,0c0.1,0,0.3,0,0.4,0
	c0.4,0.1,0.6,0.4,0.7,0.7l2.4,5.6c0.2,0.4,0.2,0.6,0.4,0.6c0.2-0.2,0.4-0.4,0.4-0.7c0.2-0.4,0.7-1.4,1.3-2.8c0.5-1.1,1-2.2,1.1-2.5
	c0.1-0.3,0.3-0.6,0.5-0.9c0.1-0.1,0.3-0.1,0.5-0.1c0.1,0,0.1,0,0.1-0.1s-0.1-0.1-0.2-0.1c-0.3,0-0.7,0-0.8,0s-0.6,0-1,0
	c-0.2,0-0.2,0-0.2,0.1s0,0.1,0.1,0.1c0.1,0,0.3,0,0.4,0c0.1,0,0.1,0.1,0.1,0.2c0,0.1,0,0.2-0.1,0.3c-0.2,0.7-1.5,3.9-2.1,5.1
	L16.2,89.4z"/>
<path class="st0" d="M16.2,89.4c-0.1-0.2-0.2-0.5-0.3-0.8c0-0.1,0.1-0.2,0.1-0.2c0.1,0,0.3,0,0.4,0c0.1,0,0.1,0,0.1-0.1
	s-0.1-0.1-0.3-0.1c-0.4,0-0.8,0-0.9,0s-0.7,0-1.1,0c-0.2,0-0.3,0-0.3,0.1c0,0,0,0.1,0.1,0.1c0,0,0,0,0,0c0.1,0,0.3,0,0.4,0
	c0.4,0.1,0.6,0.3,0.7,0.7l2.4,5.6c0.2,0.4,0.2,0.6,0.4,0.6c0.2-0.2,0.4-0.4,0.4-0.7c0.2-0.4,0.7-1.4,1.3-2.8c0.5-1.1,1-2.2,1.1-2.5
	c0.1-0.3,0.3-0.6,0.5-0.9c0.1-0.1,0.3-0.1,0.5-0.1c0.1,0,0.1,0,0.1-0.1s-0.1-0.1-0.2-0.1c-0.3,0-0.7,0-0.8,0s-0.6,0-1,0
	c-0.2,0-0.2,0-0.2,0.1s0,0.1,0.1,0.1c0.1,0,0.3,0,0.4,0c0.1,0,0.1,0.1,0.1,0.2c0,0.1,0,0.2-0.1,0.3c-0.2,0.7-1.5,3.8-2.1,5.1
	L16.2,89.4z"/>
<path class="st0" d="M26,90.9c0-1.4,0-1.7,0-2c0-0.2,0.1-0.5,0.3-0.5c0,0,0,0,0,0h0.2c0,0,0.1,0,0.1-0.1c0-0.1,0-0.1-0.2-0.1h-1h-1
	c-0.1,0-0.2,0-0.2,0.1c0,0,0,0.1,0.1,0.1c0.1,0,0.2,0,0.3,0c0.2,0.1,0.4,0.3,0.3,0.5c0,0.3,0,0.6,0,2v1.6c0,0.9,0,1.6,0,2
	c0,0.2-0.1,0.4-0.3,0.5c-0.1,0-0.2,0-0.3,0c-0.1,0-0.1,0-0.1,0.1s0,0.1,0.2,0.1h1c0,0,0.7,0,1.2,0c0.1,0,0.2,0,0.2-0.1
	s0-0.1-0.1-0.1h-0.5c-0.2,0-0.4-0.3-0.4-0.5c0-0.4,0-1.1,0-2L26,90.9L26,90.9z"/>
<path class="st0" d="M26,90.9c0-1.4,0-1.7,0-2c0-0.2,0.1-0.5,0.3-0.5c0,0,0,0,0,0h0.2c0,0,0.1,0,0.1-0.1c0-0.1,0-0.1-0.2-0.1h-1h-1
	c-0.1,0-0.2,0-0.2,0.1c0,0,0,0.1,0.1,0.1c0.1,0,0.2,0,0.3,0c0.2,0.1,0.4,0.3,0.3,0.5c0,0.3,0,0.6,0,2v1.6c0,0.9,0,1.6,0,2
	c0,0.2-0.1,0.4-0.3,0.5c-0.1,0-0.2,0-0.3,0c-0.1,0-0.1,0-0.1,0.1s0,0.1,0.2,0.1h1c0,0,0.7,0,1.2,0c0.1,0,0.2,0,0.2-0.1
	s0-0.1-0.1-0.1h-0.5c-0.2,0-0.4-0.3-0.4-0.5c0-0.4,0-1.1,0-2L26,90.9L26,90.9z"/>
<path class="st0" d="M31.4,89.5c0.3,0.3,1.4,1.5,2.6,2.6s2.5,2.4,2.6,2.5c0.2,0.2,0.4,0.4,0.7,0.6c0.1,0,0.1,0,0.1-0.7v-5.4
	c0-0.6,0-0.8,0.4-0.8c0.1,0,0.2,0,0.2,0c0.1,0,0.1,0,0.1-0.1s-0.1-0.1-0.2-0.1c-0.4,0-0.7,0-0.8,0s-0.6,0-1,0c-0.1,0-0.2,0-0.2,0.1
	s0,0.1,0.1,0.1c0.2,0,0.3,0,0.5,0c0.3,0.1,0.4,0.3,0.4,0.9l0.1,4.7c-0.3-0.3-1.4-1.4-2.4-2.4c-1.5-1.5-3-3-3.1-3.2
	c-0.1-0.1-0.2-0.2-0.4-0.3c-0.1,0-0.1,0.1-0.1,0.5v5.3c0,0.8,0,1.1-0.3,1.2c-0.1,0-0.3,0.1-0.4,0.1c0,0-0.1,0-0.1,0.1
	s0.1,0.1,0.2,0.1c0.5,0,0.9,0,1,0s0.5,0,1.1,0c0.1,0,0.2,0,0.2-0.1s0-0.1-0.1-0.1c-0.2,0-0.3,0-0.5-0.1c-0.3-0.1-0.4-0.3-0.4-1.1
	L31.4,89.5z"/>
<path class="st0" d="M31.4,89.5c0.3,0.3,1.4,1.5,2.6,2.6s2.5,2.4,2.6,2.5c0.2,0.2,0.4,0.4,0.7,0.6c0.1,0,0.1,0,0.1-0.7v-5.4
	c0-0.6,0-0.8,0.4-0.8c0.1,0,0.2,0,0.2,0c0.1,0,0.1,0,0.1-0.1s-0.1-0.1-0.2-0.1c-0.4,0-0.7,0-0.8,0s-0.6,0-1,0c-0.1,0-0.2,0-0.2,0.1
	s0,0.1,0.1,0.1c0.2,0,0.3,0,0.5,0c0.3,0.1,0.4,0.3,0.4,0.9l0.1,4.6c-0.3-0.3-1.4-1.4-2.4-2.4c-1.5-1.5-3-3-3.1-3.1
	c-0.1-0.1-0.2-0.2-0.4-0.3c-0.1,0-0.1,0.1-0.1,0.5v5.2c0,0.8,0,1.1-0.3,1.2c-0.1,0-0.3,0.1-0.4,0.1c0,0-0.1,0-0.1,0.1
	s0.1,0.1,0.2,0.1c0.4,0,0.9,0,1,0s0.5,0,1,0c0.1,0,0.2,0,0.2-0.1s0-0.1-0.1-0.1c-0.2,0-0.3,0-0.5,0c-0.3-0.1-0.4-0.3-0.4-1.1
	L31.4,89.5z"/>
<path class="st0" d="M42.4,92.5c0,0.9,0,1.6,0,2c0,0.2-0.1,0.4-0.3,0.5c-0.1,0-0.2,0-0.3,0c-0.1,0-0.1,0-0.1,0.1s0,0.1,0.2,0.1h0.6
	h0.4c0.3,0,1,0.1,2.5,0.1c0.4,0,0.5,0,0.5-0.2c0.1-0.3,0.1-0.6,0.1-0.9c0-0.1,0-0.1-0.1-0.1s-0.1,0-0.1,0.1c0,0.3-0.2,0.5-0.5,0.7
	c-0.3,0.1-0.7,0.1-1,0.1c-1,0-1.1-0.1-1.2-0.8c0-0.2,0-1.2,0-1.6v-0.8c0,0,0-0.1,0.1-0.1c0,0,0,0,0,0c0.2,0,1.2,0,1.4,0
	c0.2,0,0.4,0.1,0.5,0.3c0,0.1,0,0.2,0,0.3c0,0,0,0.1,0.1,0.1c0,0,0,0,0,0c0.1,0,0.1-0.1,0.1-0.2s0-0.4,0-0.6s0.1-0.4,0.1-0.5
	s0-0.1,0-0.1c-0.1,0-0.1,0.1-0.2,0.1c-0.1,0.1-0.3,0.1-0.5,0.1c-0.2,0-1.5,0-1.6,0s-0.1,0-0.1-0.1v-2.5c0-0.1,0-0.1,0.1-0.1
	s1.2,0,1.4,0c0.3,0,0.6,0.1,0.7,0.3c0,0.1,0.1,0.2,0.1,0.3c0,0.1,0,0.1,0.1,0.1c0,0,0.1-0.1,0.1-0.1c0-0.1,0-0.5,0-0.6
	c0-0.2,0.1-0.4,0.1-0.4s0-0.1,0-0.1c0,0-0.1,0-0.1,0c-0.1,0-0.3,0-0.4,0h-2.2c0,0-0.7,0-1.1,0c-0.1,0-0.2,0-0.2,0.1
	c0,0,0,0.1,0.1,0.1c0.1,0,0.2,0,0.3,0c0.3,0,0.4,0.2,0.4,0.5c0,0,0,0,0,0c0,0.3,0,0.6,0,2v1.6L42.4,92.5z"/>
<path class="st0" d="M42.5,92.5c0,0.9,0,1.6,0,2c0,0.2-0.1,0.4-0.3,0.5c-0.1,0-0.2,0-0.3,0c-0.1,0-0.1,0-0.1,0.1s0,0.1,0.2,0.1h0.6
	h0.4c0.3,0,1,0.1,2.5,0.1c0.4,0,0.5,0,0.5-0.2c0.1-0.3,0.1-0.6,0.1-0.9c0-0.1,0-0.1-0.1-0.1s-0.1,0-0.1,0.1c0,0.3-0.2,0.5-0.5,0.7
	c-0.3,0.1-0.6,0.1-1,0.1c-1,0-1.1-0.1-1.2-0.8c0-0.2,0-1.2,0-1.6v-0.8c0,0,0-0.1,0.1-0.1c0,0,0,0,0,0c0.2,0,1.2,0,1.4,0
	c0.2,0,0.4,0.1,0.5,0.3c0,0.1,0,0.2,0,0.3c0,0,0,0.1,0.1,0.1c0,0,0,0,0,0c0.1,0,0.1-0.1,0.1-0.2s0-0.4,0-0.6s0.1-0.4,0.1-0.5
	s0-0.1,0-0.1c-0.1,0-0.1,0.1-0.2,0.1c-0.1,0.1-0.3,0.1-0.5,0.1c-0.2,0-1.4,0-1.6,0s-0.1,0-0.1-0.1v-2.5c0-0.1,0-0.1,0.1-0.1
	s1.2,0,1.4,0c0.3-0.1,0.6,0.1,0.7,0.3c0,0.1,0.1,0.2,0.1,0.3c0,0.1,0,0.1,0.1,0.1c0,0,0.1-0.1,0.1-0.1c0-0.1,0-0.5,0-0.6
	c0-0.2,0.1-0.4,0.1-0.4s0-0.1,0-0.1c0,0-0.1,0-0.1,0c-0.1,0-0.3,0-0.4,0h-2.3c0,0-0.7,0-1.1,0c-0.1,0-0.2,0-0.2,0.1
	c0,0,0,0.1,0.1,0.1c0.1,0,0.2,0,0.3,0c0.2,0,0.4,0.2,0.4,0.5c0,0,0,0,0,0c0,0.3,0,0.6,0,2L42.5,92.5L42.5,92.5z"/>
<path class="st0" d="M51.6,93.6c0,0.2,0,0.5,0,0.9c0,0.2-0.1,0.4-0.3,0.5c-0.1,0-0.2,0-0.3,0c-0.1,0-0.1,0-0.1,0.1s0,0.1,0.2,0.1h1
	c0,0,0.7,0,1.2,0c0.1,0,0.2,0,0.2-0.1s0-0.1-0.1-0.1H53c-0.2,0-0.4-0.2-0.4-0.5c0,0,0,0,0,0c0-0.4,0-0.8,0-0.9v-0.8
	c0-0.3,0-0.6,0.2-0.9c0.5-1,1.2-2,1.8-2.9c0.1-0.2,0.3-0.4,0.5-0.5c0.1-0.1,0.3-0.1,0.5-0.1c0.1,0,0.1,0,0.1-0.1
	c0,0-0.1-0.1-0.1-0.1h-1c-0.1,0-0.4,0-0.7,0c-0.1,0-0.2,0-0.2,0.1s0.1,0.1,0.2,0.1c0.1,0,0.2,0.1,0.2,0.2c0,0.2-0.1,0.3-0.2,0.5
	c-0.2,0.3-1.5,2.3-1.7,2.7c-0.2-0.3-1.7-2.6-1.8-2.9c-0.1-0.1-0.1-0.2-0.1-0.4c0-0.1,0.1-0.1,0.1-0.2c0.1,0,0.1,0,0.2-0.1
	c0,0,0-0.1-0.1-0.1c-0.4,0-0.8,0-0.8,0h-1c-0.1,0-0.1,0-0.1,0.1c0,0,0.1,0.1,0.1,0.1c0,0,0,0,0,0c0.2,0,0.3,0.1,0.4,0.2
	c0.3,0.2,0.5,0.4,0.7,0.7c0.3,0.5,1.7,2.5,1.8,2.6c0.2,0.3,0.3,0.7,0.2,1L51.6,93.6L51.6,93.6z"/>
<path class="st0" d="M51.6,93.6c0,0.2,0,0.5,0,0.9c0,0.2-0.1,0.4-0.3,0.5c-0.1,0-0.2,0-0.3,0C51,95,51,95,51,95.1s0,0.1,0.2,0.1h1
	c0,0,0.7,0,1.2,0c0.1,0,0.2,0,0.2-0.1s0-0.1-0.1-0.1l-0.5,0c-0.2,0-0.4-0.2-0.4-0.5c0,0,0,0,0,0c0-0.4,0-0.8,0-0.9v-0.8
	c0-0.3,0-0.6,0.2-0.9c0.6-1,1.2-2,1.8-2.9c0.1-0.2,0.3-0.4,0.5-0.5c0.1-0.1,0.3-0.1,0.5-0.1c0.1,0,0.1,0,0.1-0.1
	c0,0-0.1-0.1-0.1-0.1h-1c-0.1,0-0.4,0-0.7,0c-0.1,0-0.2,0-0.2,0.1s0.1,0.1,0.2,0.1c0.1,0,0.2,0.1,0.2,0.2c0,0.2-0.1,0.3-0.2,0.5
	c-0.2,0.3-1.5,2.3-1.6,2.7c-0.2-0.3-1.7-2.6-1.8-2.9c-0.1-0.1-0.1-0.2-0.1-0.4c0-0.1,0.1-0.1,0.1-0.2c0.1,0,0.1,0,0.2-0.1
	c0,0,0-0.1-0.1-0.1c-0.4,0-0.8,0-0.8,0h-1c-0.1,0-0.1,0-0.1,0.1c0,0,0.1,0.1,0.1,0.1c0,0,0,0,0,0c0.2,0,0.3,0.1,0.4,0.2
	c0.3,0.2,0.5,0.4,0.7,0.7c0.3,0.5,1.7,2.5,1.7,2.6c0.2,0.3,0.3,0.7,0.2,1L51.6,93.6L51.6,93.6z"/>
<path class="st0" d="M57.5,94.2c-0.1,0.4-0.4,0.8-0.8,0.9h-0.3c0,0-0.1,0-0.1,0.1s0.1,0.1,0.2,0.1c0.5,0,1,0,1.1,0h0.8
	c0.1,0,0.2,0,0.2-0.1s0-0.1-0.1-0.1h-0.1c-0.2,0-0.3-0.1-0.4-0.2c0-0.2,0.1-0.4,0.1-0.6l0.6-1.6c0,0,0.1-0.1,0.1-0.1H61
	c0,0,0.1,0,0.1,0.1l0.9,2.3c0.1,0.1,0,0.2,0,0.2c0,0,0,0,0,0c0,0-0.1,0-0.1,0.1c0,0.1,0.1,0.1,0.3,0.1h1.6c0.1,0,0.2,0,0.2-0.1
	s0-0.1-0.1-0.1c-0.1,0-0.3,0-0.4,0c-0.4-0.2-0.7-0.5-0.8-1c-0.6-1.4-2.2-5.2-2.3-5.5s-0.2-0.3-0.2-0.3s-0.1,0.1-0.2,0.4L57.5,94.2z
	 M58.9,92.2C58.9,92.2,58.9,92.2,58.9,92.2l0.9-2.5c0-0.1,0.1-0.1,0.2,0l0.9,2.5v0.1H58.9L58.9,92.2z"/>
<path class="st0" d="M57.6,94.2c-0.1,0.4-0.4,0.8-0.8,0.9h-0.3c0,0-0.1,0-0.1,0.1s0.1,0.1,0.2,0.1c0.5,0,1,0,1.1,0h0.8
	c0.1,0,0.2,0,0.2-0.1s0-0.1-0.1-0.1h-0.1c-0.2,0-0.3-0.1-0.4-0.3c0-0.2,0.1-0.4,0.1-0.6l0.6-1.6c0,0,0.1-0.1,0.1-0.1H61
	c0,0,0.1,0,0.1,0.1l0.9,2.2c0.1,0.1,0,0.2,0,0.2c0,0,0,0,0,0c0,0-0.1,0-0.1,0.1c0,0.1,0.1,0.1,0.3,0.1h1.5c0.1,0,0.2,0,0.2-0.1
	s0-0.1-0.1-0.1c-0.1,0-0.3,0-0.4,0c-0.4-0.2-0.7-0.5-0.8-1c-0.6-1.4-2.2-5.2-2.3-5.5s-0.2-0.3-0.2-0.3s-0.1,0.1-0.2,0.4L57.6,94.2z
	 M58.9,92.2C58.9,92.2,58.9,92.2,58.9,92.2l0.9-2.5c0-0.1,0.1-0.1,0.2,0l0.9,2.5v0.1C60.9,92.2,58.9,92.2,58.9,92.2z"/>
<path class="st0" d="M67.1,92.5c0,0.9,0,1.6,0,2c0,0.2-0.1,0.4-0.3,0.5c-0.1,0-0.2,0-0.3,0c-0.1,0-0.1,0-0.1,0.1s0,0.1,0.2,0.1h0.9
	c0.1,0,0.7,0,1.2,0c0.1,0,0.2,0,0.2-0.1s0-0.1-0.1-0.1h-0.4c-0.2,0-0.4-0.3-0.4-0.5c0-0.4,0-1.1,0-2v-0.2c0,0,0-0.1,0-0.1
	c0,0,0,0,0,0h1.2c0.1,0,0.1,0,0.1,0.1c0.2,0.2,0.7,0.8,1.1,1.4c0.3,0.5,0.8,1,1.3,1.4c0.3,0.1,0.7,0.2,1.1,0.2h0.7
	c0.2,0,0.2,0,0.2-0.1c0,0,0-0.1-0.1-0.1c0,0,0,0,0,0c-0.1,0-0.3,0-0.4,0c-0.5-0.1-0.9-0.3-1.3-0.6c-0.5-0.6-1.2-1.4-2-2.4
	c0.7-0.5,1.2-1.3,1.2-2.1c0-0.5-0.3-1-0.7-1.2c-0.6-0.3-1.2-0.4-1.8-0.4h-1.2c0,0-0.7,0-1.1,0c-0.1,0-0.2,0-0.2,0.1
	c0,0,0,0.1,0.1,0.1c0.1,0,0.2,0,0.3,0c0.3,0,0.4,0.2,0.4,0.5c0,0,0,0,0,0c0,0.3,0,0.6,0,2L67.1,92.5L67.1,92.5z M67.9,88.7
	c0-0.1,0-0.1,0.1-0.1l0,0c0.2,0,0.4-0.1,0.7-0.1c0.9-0.1,1.7,0.6,1.7,1.5c0,0.1,0,0.2,0,0.3c0,0.5-0.2,1.1-0.6,1.4
	C69.5,91.9,69.3,92,69,92c-0.3,0-0.7,0-1-0.1c0,0-0.1-0.1-0.1-0.1L67.9,88.7L67.9,88.7z"/>
<path class="st0" d="M67.1,92.5c0,0.9,0,1.6,0,2c0,0.2-0.1,0.4-0.3,0.5c-0.1,0-0.2,0-0.3,0c-0.1,0-0.1,0-0.1,0.1s0,0.1,0.2,0.1h0.9
	c0,0,0.7,0,1.2,0c0.1,0,0.2,0,0.2-0.1s0-0.1-0.1-0.1h-0.4c-0.2,0-0.4-0.3-0.4-0.5c0-0.4,0-1.1,0-2v-0.2c0,0,0,0,0-0.1h1.2
	c0,0,0.1,0,0.1,0.1c0.2,0.2,0.7,0.8,1.1,1.3c0.3,0.5,0.8,1,1.3,1.4c0.3,0.1,0.7,0.2,1.1,0.2h0.7c0.2,0,0.2,0,0.2-0.1
	c0,0,0-0.1-0.1-0.1c0,0,0,0,0,0c-0.1,0-0.3,0-0.4,0c-0.5-0.1-0.9-0.3-1.2-0.7c-0.6-0.6-1.2-1.3-2-2.3c0.7-0.5,1.1-1.3,1.2-2.1
	c0-0.5-0.3-1-0.7-1.2c-0.6-0.3-1.2-0.4-1.8-0.4h-1.2c0,0-0.7,0-1.1,0c-0.1,0-0.2,0-0.2,0.1c0,0,0,0.1,0.1,0.1c0.1,0,0.2,0,0.3,0
	c0.3,0,0.4,0.2,0.4,0.5c0,0,0,0,0,0c0,0.3,0,0.6,0,2L67.1,92.5L67.1,92.5z M67.9,88.7c0-0.1,0-0.1,0.1-0.1c0.2,0,0.4-0.1,0.7-0.1
	c0.9-0.1,1.7,0.6,1.7,1.5c0,0.1,0,0.2,0,0.3c0,0.5-0.2,1.1-0.6,1.4C69.5,91.9,69.3,92,69,92c-0.3,0-0.7,0-1-0.1c0,0-0.1-0.1-0.1-0.1
	L67.9,88.7L67.9,88.7z"/>
<path class="st0" d="M76.4,92.5c0,0.9,0,1.6-0.1,2c0,0.2-0.1,0.4-0.3,0.5c-0.1,0-0.2,0-0.3,0c-0.1,0-0.1,0-0.1,0.1s0.1,0.1,0.2,0.1
	h1c0.1,0,1.3,0.1,2.2,0.1c1.1,0.1,2.2-0.3,3-1.1c0.7-0.7,1.1-1.6,1.1-2.6c0-0.9-0.4-1.7-1-2.3c-1.2-1.1-3-1-4-1c-0.6,0-1.2,0-1.3,0
	s-0.7,0-1.1,0c-0.1,0-0.2,0-0.2,0.1c0,0,0,0.1,0.1,0.1c0.1,0,0.2,0,0.3,0c0.3,0,0.4,0.2,0.4,0.5c0,0,0,0,0,0c0,0.3,0,0.6,0,2
	L76.4,92.5L76.4,92.5z M77.2,90.8c0-0.7,0-1.6,0-2c0-0.1,0-0.2,0.1-0.2c0.2,0,0.5,0,0.7,0c1.2-0.1,2.4,0.2,3.2,1
	c0.6,0.6,1,1.4,1,2.3c0,0.8-0.2,1.6-0.8,2.2c-0.7,0.6-1.5,0.9-2.4,0.8c-1.2,0-1.6-0.2-1.7-0.4c-0.1-0.2-0.1-0.5-0.1-0.7
	c0-0.2,0-1,0-2v-1.1H77.2z"/>
<path class="st0" d="M76.4,92.5c0,0.9,0,1.6-0.1,2c0,0.2-0.1,0.4-0.3,0.5c-0.1,0-0.2,0-0.3,0c-0.1,0-0.1,0-0.1,0.1s0.1,0.1,0.2,0.1
	h1c0.1,0,1.3,0.1,2.2,0.1c1.1,0.1,2.2-0.3,3-1c0.7-0.7,1.1-1.6,1-2.6c0-0.9-0.4-1.7-1-2.3c-1.2-1.1-3-1-4-1c-0.6,0-1.2,0-1.3,0
	s-0.7,0-1.1,0c-0.1,0-0.2,0-0.2,0.1c0,0,0,0.1,0.1,0.1c0.1,0,0.2,0,0.3,0c0.2,0,0.4,0.2,0.4,0.5c0,0,0,0,0,0c0,0.3,0,0.6,0,2v1.6
	L76.4,92.5z M77.2,90.8c0-0.7,0-1.6,0-1.9c0-0.1,0-0.2,0.1-0.2c0.2,0,0.5-0.1,0.7-0.1c1.2-0.1,2.3,0.2,3.2,1c0.6,0.6,1,1.4,1,2.3
	c0,0.8-0.2,1.6-0.8,2.2c-0.7,0.6-1.5,0.9-2.3,0.8c-1.2,0-1.6-0.2-1.7-0.4c-0.1-0.2-0.1-0.5-0.1-0.7c0-0.2,0-1,0-2L77.2,90.8
	L77.2,90.8z"/>
<path class="st0" d="M87.9,95.3c0.5,0,1.1-0.1,1.5-0.4c0.5-0.3,0.8-0.9,0.8-1.5c0-0.7-0.3-1.3-1.5-2.2L88.6,91
	c-0.9-0.7-1.2-1-1.2-1.5c0-0.6,0.5-1.1,1.1-1.1c0,0,0.1,0,0.1,0c0.5-0.1,1,0.1,1.2,0.5c0.1,0.1,0.1,0.3,0.1,0.5c0,0.1,0,0.1,0.1,0.1
	s0.1-0.1,0.1-0.2c0-0.6,0-0.9,0-1s0-0.1-0.1-0.1c-0.1,0-0.2,0-0.3,0c-0.3-0.1-0.6-0.1-0.9-0.1c-1.3,0-2.1,0.7-2.1,1.7
	c0,0.6,0.2,1.2,1.3,2l0.4,0.3c0.9,0.7,1.2,1,1.2,1.7c0,0.7-0.6,1.3-1.3,1.3c0,0-0.1,0-0.1,0c-0.7,0.1-1.3-0.3-1.5-1
	c0-0.1,0-0.2,0-0.3c0-0.1,0-0.1-0.1-0.1s-0.1,0-0.1,0.2s-0.1,0.5-0.1,1c0,0.2,0,0.3,0.2,0.3C87.1,95.2,87.5,95.3,87.9,95.3"/>
<path class="st0" d="M87.9,95.3c0.5,0,1-0.1,1.5-0.4c0.5-0.3,0.8-0.9,0.8-1.5c0-0.7-0.3-1.3-1.4-2.2L88.6,91c-0.9-0.7-1.2-1-1.2-1.5
	c0-0.6,0.5-1.1,1.1-1.1c0,0,0.1,0,0.1,0c0.5-0.1,0.9,0.1,1.2,0.5c0.1,0.1,0.1,0.3,0.1,0.5c0,0.1,0,0.1,0.1,0.1s0.1-0.1,0.1-0.2
	c0-0.6,0-0.9,0-1s0-0.1-0.1-0.1c-0.1,0-0.2,0-0.3,0c-0.3-0.1-0.6-0.1-0.9-0.1c-1.3,0-2.1,0.7-2.1,1.6c0,0.8,0.5,1.6,1.3,2l0.4,0.3
	c0.8,0.7,1.1,1,1.1,1.6c0,0.7-0.6,1.3-1.3,1.2c0,0-0.1,0-0.1,0c-0.6,0.1-1.2-0.3-1.4-0.9c0-0.1,0-0.2,0-0.3c0-0.1,0-0.1-0.1-0.1
	s-0.1,0-0.1,0.2s-0.1,0.5-0.1,1c0,0.2,0,0.3,0.2,0.3C87.1,95.2,87.5,95.3,87.9,95.3"/>
<path class="st0" d="M3.1,43.1c-1.1,0.5-2.2,1.2-3.1,2c0,0,94.4,0,94.9,0c1.6-0.2,3.1-0.9,4.3-2H3.1z M52.7,35.3
	c8.5-8.1,17.1-32.2,15.2-30.8c0,0-0.9,0.9-1.6,1.8c-14.6,16.1-32.2,26.2-51.8,35h22.1c4.1-0.7,8.2-1.9,12-3.5h0.1
	C50.2,37.1,51.5,36.3,52.7,35.3 M81.7,0c0,0-0.1-0.2-1.2,1.1C76.9,5.4,73,9.5,68.8,13.3C65,22.8,57.4,36.2,51.5,38.7
	c-3.1,1.2-6.3,2.1-9.5,2.6h8c3.5-0.7,7-1.7,10.4-3l0.1,0c0.6-0.3,1.2-0.6,1.8-1C71.9,30.7,83.9,0.8,81.7,0 M76.4,35.8
	c7.5-7.9,14-29,12.5-28.3c-0.6,0.7-1.3,1.4-1.8,2.2c-2.6,3.2-5.4,6.2-8.4,8.9c-3.8,7.5-8.6,15.3-12.6,18.8c-0.3,0.3-0.7,0.6-1.1,0.8
	c-0.8,0.4-1.6,0.8-2.4,1.1c-2.4,0.7-4.9,1.4-7.4,1.9h8.4c2.9-0.6,5.8-1.5,8.6-2.6C73.8,37.9,75.2,37,76.4,35.8"/>
</svg>
