<svg id="instagram" xmlns="http://www.w3.org/2000/svg" viewBox="0 0 100 100"><style>.st0{fill:#FFFFFF;}</style><path class="st0" d="M50 9c13.4 0 14.9 0 20.2.3 4.9.2 7.5 1 9.3 1.7 2.3.9 4 2 5.7 3.7 1.7 1.7 2.8 3.4 3.7 5.7.7 1.8 1.5 4.4 1.7 9.3.3 5.3.4 6.9.4 20.3s-.1 14.9-.3 20.2c-.2 4.9-1 7.5-1.7 9.3-.9 2.3-2 4-3.7 5.7-1.7 1.7-3.4 2.8-5.7 3.7-1.8.7-4.4 1.5-9.3 1.7-5.4.3-6.9.4-20.3.4s-14.9-.1-20.2-.3c-4.9-.2-7.5-1-9.3-1.7-2.3-.9-4-2-5.7-3.7-1.7-1.7-2.8-3.4-3.7-5.7-.7-1.8-1.5-4.4-1.7-9.3-.3-5.4-.4-7-.4-20.3s.1-15 .3-20.2c.2-4.9 1-7.5 1.7-9.3.9-2.3 2-4 3.7-5.7 1.7-1.7 3.4-2.8 5.7-3.7 1.8-.7 4.4-1.5 9.3-1.7C35.1 9 36.6 9 50 9m0-9C36.4 0 34.7 0 29.4.3c-5.3.2-9 1.1-12.1 2.3-3.3 1.3-6.1 3-8.9 5.8-2.8 2.8-4.5 5.6-5.8 8.9C1.4 20.4.5 24 .3 29.4.1 34.7 0 36.4 0 50c0 13.6.1 15.3.3 20.6.2 5.3 1.1 9 2.3 12.1 1.3 3.3 3 6.1 5.8 8.9 2.8 2.8 5.6 4.5 8.9 5.8 3.2 1.2 6.8 2.1 12.1 2.3 5.3.2 7 .3 20.6.3s15.3-.1 20.6-.3c5.3-.2 9-1.1 12.1-2.3 3.3-1.3 6.1-3 8.9-5.8 2.8-2.8 4.5-5.6 5.8-8.9 1.2-3.2 2.1-6.8 2.3-12.1.2-5.3.3-7 .3-20.6s-.1-15.3-.3-20.6c-.2-5.3-1.1-9-2.3-12.1-1.3-3.3-3-6.1-5.8-8.9-2.8-2.8-5.6-4.5-8.9-5.8C79.5 1.4 75.9.5 70.6.3 65.3 0 63.6 0 50 0z"/><path class="st0" d="M50 24.3c-14.2 0-25.7 11.5-25.7 25.7S35.8 75.7 50 75.7 75.7 64.2 75.7 50 64.2 24.3 50 24.3zm0 42.3c-9.2 0-16.7-7.5-16.7-16.7S40.8 33.2 50 33.2s16.7 7.5 16.7 16.7c0 9.3-7.5 16.7-16.7 16.7z"/><circle class="st0" cx="76.7" cy="23.3" r="6"/></svg>